<?xml version="1.0" encoding="UTF-8" standalone="no"?>
<svg width="28px" height="28px" viewBox="0 0 28 28" version="1.1" xmlns="http://www.w3.org/2000/svg" xmlns:xlink="http://www.w3.org/1999/xlink" xmlns:sketch="http://www.bohemiancoding.com/sketch/ns">
    <!-- Generator: Sketch 3.0.3 (7891) - http://www.bohemiancoding.com/sketch -->
    <title>Icon_Video</title>
    <desc>Created with Sketch.</desc>
    <defs></defs>
    <g id="Assets" stroke="none" stroke-width="1" fill="none" fill-rule="evenodd" sketch:type="MSPage">
        <g id="Style" sketch:type="MSArtboardGroup" transform="translate(-138.000000, -131.000000)">
            <g id="Icon_Video" sketch:type="MSLayerGroup" transform="translate(138.000000, 131.000000)">
                <path d="M25.4165,25.4165 C24.449,26.384 22.651,27.9995 14.002,28 C5.349,27.9995 3.551,26.384 2.5835,25.4165 C1.616,24.4485 0,22.651 0,14.0005 C0,5.349 1.6155,3.5515 2.5835,2.5835 C3.551,1.616 5.5845,0 13.999,0 C22.4155,0 24.449,1.616 25.4165,2.5835 C26.384,3.551 27.9995,5.349 28,13.9985 C27.9995,22.651 26.384,24.449 25.4165,25.4165 Z M24.7082272,24.7082272 C23.1874341,26.2290203 20.7627126,26.9996092 14.0019413,27 C7.23728742,26.9996092 4.81256589,26.2290203 3.29177281,24.7082272 C1.77033645,23.1860045 1,20.7621825 1,14.0004996 C1,7.23739345 1.77037074,4.81317488 3.29177281,3.29177281 C4.75889506,1.82465056 7.39985836,1 13.9990008,1 C20.6001416,1 23.2411049,1.82465056 24.7082272,3.29177281 C26.229019,4.81256462 26.9996092,7.23738191 27,13.9985583 C26.9996092,20.7627126 26.2290203,23.1874341 24.7082272,24.7082272 Z" id="Path" fill="#03D67F" sketch:type="MSShapeGroup"></path>
                <path d="M19,15.6181439 L20.3820776,16.6307294 C21.5892347,17.5151586 22,16.6964345 22,15.3849943 L22,12.6171254 C22,11.2985177 21.591839,10.4850532 20.3820777,11.3713904 L19,12.3839759 L19,10.999615 C19,9.89525812 18.0998238,9 17.007983,9 L9.99201702,9 C8.8918564,9 8,9.88743329 8,10.999615 L8,17.000385 C8,18.1047419 8.90017617,19 9.99201702,19 L17.007983,19 C18.1081436,19 19,18.1125667 19,17.000385 L19,15.6181439 L19,15.6181439 Z M17,11.0026876 C16.9897533,11.0026876 16.9920352,16.9976971 16.9920352,16.9976971 C16.9920352,17.0030943 10,16.9973124 10,16.9973124 C10.0102467,16.9973124 10.0079648,11.0023029 10.0079648,11.0023029 C10.0079648,10.9969057 17,11.0026876 17,11.0026876 Z" id="Rectangle-52" fill="#0C1B29" sketch:type="MSShapeGroup"></path>
            </g>
        </g>
    </g>
</svg>