<?xml version="1.0" encoding="UTF-8" standalone="no"?>
<svg width="28px" height="28px" viewBox="0 0 28 28" version="1.1" xmlns="http://www.w3.org/2000/svg" xmlns:xlink="http://www.w3.org/1999/xlink" xmlns:sketch="http://www.bohemiancoding.com/sketch/ns">
    <!-- Generator: Sketch 3.0.2 (7799) - http://www.bohemiancoding.com/sketch -->
    <title>Icon_Edification</title>
    <description>Created with Sketch.</description>
    <defs></defs>
    <g id="Assets" stroke="none" stroke-width="1" fill="none" fill-rule="evenodd" sketch:type="MSPage">
        <g id="Style" sketch:type="MSArtboardGroup" transform="translate(-100.000000, -19.000000)">
            <g id="Icon_Edification" sketch:type="MSLayerGroup" transform="translate(100.000000, 19.000000)">
                <path d="M28,13.9985 L28,14 L28,14.002 C27.9995,22.651 26.384,24.449 25.4165,25.4165 C24.449,26.384 22.651,27.9995 14.002,28 L14,28 L13.998,28 C5.349,27.9995 3.551,26.384 2.5835,25.4165 C1.616,24.4485 0,22.651 0,14.0005 L0,14 C0,14 0,14 0,13.9995 C0,5.349 1.6155,3.5515 2.5835,2.5835 C3.551,1.616 5.5845,0 13.999,0 L14,0 L14.001,0 C22.4155,0 24.449,1.616 25.4165,2.5835 C26.384,3.551 27.9995,5.349 28,13.9985 L28,13.9985 Z" id="Shape" stroke="#03D67F" stroke-width="1.005" sketch:type="MSShapeGroup"></path>
                <path d="M18.5097535,20.6086621 C17.2257534,21.4865558 15.6728374,22 14,22 C9.581722,22 6,18.418278 6,14 C6,9.581722 9.581722,6 14,6 C18.418278,6 22,9.581722 22,14 C22,15.3574675 21.6619004,16.6359677 21.0653166,17.7558849 C21.6060025,19.4240099 22,21 22,21 C22,21 20.3148006,21 18.5097535,20.6086621 L18.5097535,20.6086621 Z M14,20 C17.3137085,20 20,17.3137085 20,14 C20,10.6862915 17.3137085,8 14,8 C10.6862915,8 8,10.6862915 8,14 C8,17.3137085 10.6862915,20 14,20 Z" id="Bubble" fill="#0C1B29" sketch:type="MSShapeGroup"></path>
                <path d="M18,14 C18,13.4477153 17.5522847,13 17,13 C16.4477153,13 16,13.4477153 16,14 C16,14.5522847 16.4477153,15 17,15 C17.5522847,15 18,14.5522847 18,14 Z M12,14 C12,13.4477153 11.5522847,13 11,13 C10.4477153,13 10,13.4477153 10,14 C10,14.5522847 10.4477153,15 11,15 C11.5522847,15 12,14.5522847 12,14 Z M15,14 C15,13.4477153 14.5522847,13 14,13 C13.4477153,13 13,13.4477153 13,14 C13,14.5522847 13.4477153,15 14,15 C14.5522847,15 15,14.5522847 15,14 Z" id="Dots" fill="#232F33" sketch:type="MSShapeGroup"></path>
            </g>
        </g>
    </g>
</svg>