<?xml version="1.0" encoding="UTF-8" standalone="no"?>
<svg width="1000px" height="1000px" viewBox="0 0 1000 1000" version="1.1" xmlns="http://www.w3.org/2000/svg" xmlns:xlink="http://www.w3.org/1999/xlink" xmlns:sketch="http://www.bohemiancoding.com/sketch/ns">
    <!-- Generator: Sketch 3.0.2 (7799) - http://www.bohemiancoding.com/sketch -->
    <title>Artboard 1</title>
    <description>Created with Sketch.</description>
    <defs>
        <radialGradient cx="-1.33226763e-13%" cy="0%" fx="-1.33226763e-13%" fy="0%" r="136.060156%" id="radialGradient-1">
            <stop stop-color="#132B40" offset="0%"></stop>
            <stop stop-color="#08111A" offset="100%"></stop>
        </radialGradient>
        <linearGradient x1="123.863249%" y1="173.858992%" x2="9.00672684%" y2="0%" id="linearGradient-2">
            <stop stop-color="#03D67F" offset="0%"></stop>
            <stop stop-color="#C2EF66" offset="100%"></stop>
        </linearGradient>
    </defs>
    <g id="Page-8" stroke="none" stroke-width="1" fill="none" fill-rule="evenodd" sketch:type="MSPage">
        <g id="Artboard-1" sketch:type="MSArtboardGroup">
            <rect id="Base" fill="url(#radialGradient-1)" sketch:type="MSShapeGroup" x="0" y="0" width="1000" height="1000"></rect>
            <g id="Person" sketch:type="MSLayerGroup" transform="translate(259.000000, 183.000000)" fill="url(#linearGradient-2)">
                <path d="M134.966635,275.506334 C103.311867,246.521155 83.4617214,204.854202 83.4617214,158.551 C83.4617214,70.992727 154.441726,0.0127218856 242,0.0127218856 C329.558274,0.0127218856 400.538279,70.992727 400.538279,158.551 C400.538279,204.854202 380.688133,246.521155 349.033365,275.506334 C428.71698,314.966697 483.503906,397.11346 483.503906,492.056395 C483.503906,625.435319 375.378924,634.987278 242,634.987278 C108.621076,634.987278 0.49609375,625.435319 0.49609375,492.056395 C0.49609375,397.11346 55.2830196,314.966697 134.966651,275.506326 L134.966635,275.506334 Z M103.17705,540.263515 C94.5759001,536.519491 90.1226931,532.898029 87.3756495,528.489027 C83.2673248,521.895171 80.4617214,510.556895 80.4617214,492.203752 C80.4617214,403.180404 152.767734,331.012722 241.961721,331.012722 C331.155708,331.012722 403.461721,403.180404 403.461721,492.203752 C403.461721,510.556895 400.656118,521.895171 396.547793,528.489027 C393.80075,532.898029 389.347543,536.519491 380.746392,540.263515 C356.320463,550.895959 316.322985,555.012722 241.961721,555.012722 C167.600458,555.012722 127.60298,550.895959 103.17705,540.263515 Z M163.461721,158.512722 C163.461721,115.158369 198.607369,80.0127219 241.961721,80.0127219 C285.316074,80.0127219 320.461721,115.158369 320.461721,158.512722 C320.461721,201.867075 285.316074,237.012722 241.961721,237.012722 C198.607369,237.012722 163.461721,201.867075 163.461721,158.512722 Z" id="Path" sketch:type="MSShapeGroup"></path>
            </g>
        </g>
    </g>
</svg>