<?xml version="1.0" encoding="UTF-8" standalone="no"?>
<svg width="1000px" height="1000px" viewBox="0 0 1000 1000" version="1.1" xmlns="http://www.w3.org/2000/svg" xmlns:xlink="http://www.w3.org/1999/xlink" xmlns:sketch="http://www.bohemiancoding.com/sketch/ns">
    <!-- Generator: Sketch 3.0.2 (7799) - http://www.bohemiancoding.com/sketch -->
    <title>Artboard 1</title>
    <description>Created with Sketch.</description>
    <defs>
        <radialGradient cx="-1.33226763e-13%" cy="0%" fx="-1.33226763e-13%" fy="0%" r="136.060156%" id="radialGradient-1">
            <stop stop-color="#132B40" offset="0%"></stop>
            <stop stop-color="#08111A" offset="100%"></stop>
        </radialGradient>
        <linearGradient x1="92.8259433%" y1="100%" x2="-11.2620363%" y2="-8.00981229%" id="linearGradient-2">
            <stop stop-color="#03D67F" offset="0%"></stop>
            <stop stop-color="#C2EF66" offset="100%"></stop>
        </linearGradient>
    </defs>
    <g id="Page-8" stroke="none" stroke-width="1" fill="none" fill-rule="evenodd" sketch:type="MSPage">
        <g id="Artboard-1" sketch:type="MSArtboardGroup">
            <rect id="Base" fill="url(#radialGradient-1)" sketch:type="MSShapeGroup" x="0" y="0" width="1000" height="1000"></rect>
            <g id="Song" sketch:type="MSLayerGroup" transform="translate(290.040816, 219.000000)" fill="url(#linearGradient-2)">
                <path d="M291.503401,-0.0680283201 L207.911565,-0.0680283201 L207.911565,376.095238 C178.60896,364.998422 125.959181,360.999995 82.5238095,376.095237 C-0.975500894,405.114035 -5.04081628,465.999995 1.81224685,500.946612 C8.66530999,535.893229 39.959185,586.000026 130.959189,586.000026 C214.551016,586.000026 291.5034,524.000026 291.503401,459.687062 L291.503401,208.911571 C291.503401,208.911571 340.450843,206.431673 380.173098,257.025633 C394.95918,274.999995 420.293491,267.676626 416.891156,250.707483 L416.891156,125.319727 C416.891156,5.63711454 291.503401,-0.0680280209 291.503401,-0.0680283201 Z M291.503401,79 C291.503401,79 340.959185,79 335.959185,138.999999 C312.322379,129.317223 291.503401,128.999998 291.503401,128.999998 L291.503401,79 Z M143.590219,511.716754 C175.932137,507.745666 200.077057,487.640097 197.519407,466.809709 C194.961757,445.979321 166.670067,432.312158 134.328149,436.283246 C101.986231,440.254334 77.8413107,460.359903 80.3989607,481.190291 C82.9566108,502.020679 111.248301,515.687842 143.590219,511.716754 Z" id="Shape" sketch:type="MSShapeGroup"></path>
            </g>
        </g>
    </g>
</svg>