<?xml version="1.0" encoding="UTF-8" standalone="no"?>
<!-- Generator: Adobe Illustrator 15.1.0, SVG Export Plug-In . SVG Version: 6.00 Build 0)  -->

<svg
   xmlns:dc="http://purl.org/dc/elements/1.1/"
   xmlns:cc="http://creativecommons.org/ns#"
   xmlns:rdf="http://www.w3.org/1999/02/22-rdf-syntax-ns#"
   xmlns:svg="http://www.w3.org/2000/svg"
   xmlns="http://www.w3.org/2000/svg"
   xmlns:sodipodi="http://sodipodi.sourceforge.net/DTD/sodipodi-0.dtd"
   xmlns:inkscape="http://www.inkscape.org/namespaces/inkscape"
   version="1.1"
   id="Ebene_1"
   x="0px"
   y="0px"
   width="988.9375"
   height="988.90625"
   viewBox="0 0 988.93753 988.90622"
   enable-background="new 0 0 988.91 988.918"
   xml:space="preserve"
   inkscape:version="0.48.4 r9939"
   sodipodi:docname="BMM Leercover Lieder.svg"><metadata
     id="metadata30"><rdf:RDF><cc:Work
         rdf:about=""><dc:format>image/svg+xml</dc:format><dc:type
           rdf:resource="http://purl.org/dc/dcmitype/StillImage" /></cc:Work></rdf:RDF></metadata><defs
     id="defs28" /><sodipodi:namedview
     pagecolor="#ffffff"
     bordercolor="#666666"
     borderopacity="1"
     objecttolerance="10"
     gridtolerance="10"
     guidetolerance="10"
     inkscape:pageopacity="0"
     inkscape:pageshadow="2"
     inkscape:window-width="640"
     inkscape:window-height="480"
     id="namedview26"
     showgrid="false"
     fit-margin-top="0"
     fit-margin-left="0"
     fit-margin-right="0"
     fit-margin-bottom="0"
     inkscape:zoom="0.23864465"
     inkscape:cx="416.82999"
     inkscape:cy="566.91598"
     inkscape:window-x="0"
     inkscape:window-y="420"
     inkscape:window-maximized="0"
     inkscape:current-layer="Ebene_1" /><radialGradient
     id="SVGID_1_"
     cx="280.09351"
     cy="837.48853"
     r="479.457"
     gradientTransform="matrix(1,0,0,-1,214.3755,1331.9497)"
     gradientUnits="userSpaceOnUse"><stop
       offset="0"
       style="stop-color:#F7F7F7"
       id="stop4" /><stop
       offset="0.6611"
       style="stop-color:#B8B8B8"
       id="stop6" /><stop
       offset="1"
       style="stop-color:#9C9C9C"
       id="stop8" /></radialGradient><rect
     x="15.013"
     y="15.002222"
     stroke-miterlimit="10"
     width="958.90997"
     height="958.91803"
     id="rect10"
     style="fill:url(#SVGID_1_);stroke:#adadad;stroke-width:30;stroke-miterlimit:10" /><g
     id="g12"
     transform="translate(-77.625,-72.468778)"><g
       id="g14"><path
         d="m 588.385,401.567 c 107.604,0 194.84,100.43 194.841,224.318 h 37.298 C 820.523,478.281 716.59,358.624 588.385,358.624 c -128.208,0 -232.143,119.655 -232.143,267.261 h 37.299 c 0,-123.889 87.233,-224.318 194.844,-224.318 z"
         id="path16"
         inkscape:connector-curvature="0"
         style="fill:#565656" /></g><path
       stroke-miterlimit="10"
       d="m 485.897,760.499 c 0,4.929 -3.995,8.923 -8.922,8.923 h -93.688 c -4.93,0 -8.922,-3.994 -8.922,-8.923 V 630.772 c 0,-4.93 3.992,-8.924 8.922,-8.924 h 93.688 c 4.928,0 8.922,3.994 8.922,8.924 v 129.727 l 0,0 z"
       id="path18"
       inkscape:connector-curvature="0"
       style="fill:none;stroke:#565656;stroke-width:35;stroke-miterlimit:10" /><path
       d="m 434.594,756.42 c 0,4.825 3.912,8.737 8.735,8.737 l 0,0 c 4.824,0 8.736,-3.912 8.736,-8.737 V 634.854 c 0,-4.826 -3.912,-8.738 -8.736,-8.738 l 0,0 c -4.823,0 -8.735,3.912 -8.735,8.738 V 756.42 z"
       id="path20"
       inkscape:connector-curvature="0"
       style="fill:#565656" /><path
       stroke-miterlimit="10"
       d="m 691.116,760.499 c 0,4.929 3.994,8.923 8.922,8.923 h 93.688 c 4.928,0 8.923,-3.994 8.923,-8.923 V 630.772 c 0,-4.93 -3.995,-8.924 -8.923,-8.924 h -93.688 c -4.928,0 -8.922,3.994 -8.922,8.924 v 129.727 z"
       id="path22"
       inkscape:connector-curvature="0"
       style="fill:none;stroke:#565656;stroke-width:35;stroke-miterlimit:10" /><path
       d="m 742.423,756.42 c 0,4.825 -3.912,8.737 -8.737,8.737 l 0,0 c -4.825,0 -8.737,-3.912 -8.737,-8.737 V 634.854 c 0,-4.826 3.912,-8.738 8.737,-8.738 l 0,0 c 4.825,0 8.737,3.912 8.737,8.738 V 756.42 z"
       id="path24"
       inkscape:connector-curvature="0"
       style="fill:#565656" /></g></svg>