<?xml version="1.0" encoding="UTF-8" standalone="no"?>
<svg width="1000px" height="1000px" viewBox="0 0 1000 1000" version="1.1" xmlns="http://www.w3.org/2000/svg" xmlns:xlink="http://www.w3.org/1999/xlink" xmlns:sketch="http://www.bohemiancoding.com/sketch/ns">
    <!-- Generator: Sketch 3.0.2 (7799) - http://www.bohemiancoding.com/sketch -->
    <title>Artboard 1</title>
    <description>Created with Sketch.</description>
    <defs>
        <radialGradient cx="-1.33226763e-13%" cy="0%" fx="-1.33226763e-13%" fy="0%" r="136.060156%" id="radialGradient-1">
            <stop stop-color="#132B40" offset="0%"></stop>
            <stop stop-color="#08111A" offset="100%"></stop>
        </radialGradient>
        <linearGradient x1="60.9358493%" y1="100%" x2="22.1409755%" y2="-1.88585031%" id="linearGradient-2">
            <stop stop-color="#03D67F" offset="0%"></stop>
            <stop stop-color="#C2EF66" offset="100%"></stop>
        </linearGradient>
        <linearGradient x1="127.624766%" y1="516.250667%" x2="-28.7711876%" y2="-334.784259%" id="linearGradient-3">
            <stop stop-color="#03D67F" offset="0%"></stop>
            <stop stop-color="#C2EF66" offset="100%"></stop>
        </linearGradient>
    </defs>
    <g id="Page-8" stroke="none" stroke-width="1" fill="none" fill-rule="evenodd" sketch:type="MSPage">
        <g id="Artboard-1" sketch:type="MSArtboardGroup">
            <rect id="Base" fill="url(#radialGradient-1)" sketch:type="MSShapeGroup" x="0" y="0" width="1000" height="1000"></rect>
            <g id="Speech" sketch:type="MSLayerGroup" transform="translate(226.000000, 228.000000)">
                <path d="M437.060605,477.944745 C390.946957,515.160279 332.279472,537.442785 268.407629,537.442785 C119.987194,537.442785 -0.331341912,417.124249 -0.331341912,268.703814 C-0.331341912,120.283379 119.987194,-0.03515625 268.407629,-0.03515625 C416.828064,-0.03515625 537.146599,120.283379 537.146599,268.703814 C537.146599,316.761737 524.531952,361.873351 502.433224,400.908088 C521.839929,455.0541 537.146599,503.850414 537.146599,503.850414 C537.146599,503.850414 493.582953,493.022813 437.060605,477.944745 L437.060605,477.944745 Z M268.407629,470.258042 C379.722955,470.258042 469.961857,380.019141 469.961857,268.703814 C469.961857,157.388488 379.722955,67.1495864 268.407629,67.1495864 C157.092302,67.1495864 66.8534007,157.388488 66.8534007,268.703814 C66.8534007,380.019141 157.092302,470.258042 268.407629,470.258042 Z" id="Bubble" fill="url(#linearGradient-2)" sketch:type="MSShapeGroup"></path>
                <path d="M402.777114,270.703814 C402.777114,252.15126 387.737297,237.111443 369.184743,237.111443 C350.632188,237.111443 335.592371,252.15126 335.592371,270.703814 C335.592371,289.256369 350.632188,304.296186 369.184743,304.296186 C387.737297,304.296186 402.777114,289.256369 402.777114,270.703814 Z M201.222886,270.703814 C201.222886,252.15126 186.183069,237.111443 167.630515,237.111443 C149.07796,237.111443 134.038143,252.15126 134.038143,270.703814 C134.038143,289.256369 149.07796,304.296186 167.630515,304.296186 C186.183069,304.296186 201.222886,289.256369 201.222886,270.703814 Z M302,270.703814 C302,252.15126 286.960183,237.111443 268.407629,237.111443 C249.855074,237.111443 234.815257,252.15126 234.815257,270.703814 C234.815257,289.256369 249.855074,304.296186 268.407629,304.296186 C286.960183,304.296186 302,289.256369 302,270.703814 Z" id="Dots" fill="url(#linearGradient-3)" sketch:type="MSShapeGroup"></path>
            </g>
        </g>
    </g>
</svg>