<?xml version="1.0" encoding="UTF-8" standalone="no"?>
<svg width="1600px" height="900px" viewBox="0 0 1600 900" version="1.1" xmlns="http://www.w3.org/2000/svg" xmlns:xlink="http://www.w3.org/1999/xlink" xmlns:sketch="http://www.bohemiancoding.com/sketch/ns">
    <!-- Generator: Sketch 3.0.2 (7799) - http://www.bohemiancoding.com/sketch -->
    <title>Artboard 2</title>
    <description>Created with Sketch.</description>
    <defs>
        <radialGradient cx="-1.33226763e-13%" cy="0%" fx="-1.33226763e-13%" fy="0%" r="136.060156%" id="radialGradient-1">
            <stop stop-color="#132B40" offset="0%"></stop>
            <stop stop-color="#08111A" offset="100%"></stop>
        </radialGradient>
        <linearGradient x1="283.875%" y1="267.068679%" x2="-202.428571%" y2="-165.767586%" id="linearGradient-2">
            <stop stop-color="#03D67F" offset="0%"></stop>
            <stop stop-color="#C2EF66" offset="100%"></stop>
        </linearGradient>
    </defs>
    <g id="Page-8" stroke="none" stroke-width="1" fill="none" fill-rule="evenodd" sketch:type="MSPage">
        <g id="Artboard-2" sketch:type="MSArtboardGroup">
            <rect id="Base" fill="url(#radialGradient-1)" sketch:type="MSShapeGroup" x="0" y="0" width="1600" height="900"></rect>
            <g id="Player/Video" sketch:type="MSLayerGroup" transform="translate(600.000000, 300.000000)" fill="url(#linearGradient-2)">
                <path d="M248.22,134.321157 C265.83,143.047022 261.763333,161.251251 248.22,167.497001 C248.22,167.497001 216.4,184.077084 192.23,196.233095 C161.07,211.907043 160,181.095303 160,181.095303 L160,123.262543 C160,110.344626 167.4,91.6606781 192.08,104.832564 C218.01,118.675428 248.22,134.321157 248.22,134.321157 Z" id="Path-3" sketch:type="MSShapeGroup"></path>
                <path d="M0,39.970476 L0,261.029524 C0,283.104608 17.9642476,301 39.8159027,301 L360.184097,301 C382.173813,301 400,283.072494 400,261.029524 L400,39.970476 C400,17.8953917 382.035752,0 360.184097,0 L39.8159027,0 C17.8261868,0 0,17.9275064 0,39.970476 Z M360.184097,40.1333333 C360.008552,40.1333333 360,261.029524 360,261.029524 C360,260.928449 39.8159027,260.866667 39.8159027,260.866667 C39.9914481,260.866667 40,39.970476 40,39.970476 C40,40.0715508 360.184097,40.1333333 360.184097,40.1333333 Z" id="Rectangle-681" sketch:type="MSShapeGroup"></path>
            </g>
        </g>
    </g>
</svg>