<?xml version="1.0" encoding="UTF-8" standalone="no"?>
<svg width="28px" height="28px" viewBox="0 0 28 28" version="1.1" xmlns="http://www.w3.org/2000/svg" xmlns:xlink="http://www.w3.org/1999/xlink" xmlns:sketch="http://www.bohemiancoding.com/sketch/ns">
    <!-- Generator: Sketch 3.0.3 (7891) - http://www.bohemiancoding.com/sketch -->
    <title>Drag_Handle_Active</title>
    <desc>Created with Sketch.</desc>
    <defs></defs>
    <g id="Assets" stroke="none" stroke-width="1" fill="none" fill-rule="evenodd" sketch:type="MSPage">
        <g id="Style" sketch:type="MSArtboardGroup" transform="translate(-138.000000, -58.000000)">
            <g id="Drag_Handle_Active" sketch:type="MSLayerGroup" transform="translate(138.000000, 58.000000)">
                <g id="Random/Arrow" transform="translate(10.000000, 16.000000)" fill="#08111A" sketch:type="MSShapeGroup">
                    <path d="M4.00431377,4.82837765 C4.25827344,4.82783319 4.51079898,4.73184171 4.70058582,4.54205487 L7.54205487,1.70058582 C7.92897773,1.31366296 7.92878086,0.686140174 7.53553391,0.292893219 C7.14500961,-0.0976310729 6.50953952,-0.0953259547 6.1278413,0.286372258 L4,2.41421356 L1.8721587,0.286372258 C1.48523583,-0.100550606 0.857713049,-0.100353737 0.464466094,0.292893219 C0.0739418023,0.683417511 0.0762469206,1.31888761 0.457945134,1.70058582 L3.29941418,4.54205487 C3.49180915,4.73444983 3.74369276,4.83112893 3.99668182,4.83136307 L4.00431377,4.82837765 Z" id="Arrow"></path>
                </g>
                <g id="Random/Arrow-2" transform="translate(14.000000, 9.500000) rotate(-180.000000) translate(-14.000000, -9.500000) translate(10.000000, 7.000000)" fill="#08111A" sketch:type="MSShapeGroup">
                    <path d="M4.00431377,4.82837765 C4.25827344,4.82783319 4.51079898,4.73184171 4.70058582,4.54205487 L7.54205487,1.70058582 C7.92897773,1.31366296 7.92878086,0.686140174 7.53553391,0.292893219 C7.14500961,-0.0976310729 6.50953952,-0.0953259547 6.1278413,0.286372258 L4,2.41421356 L1.8721587,0.286372258 C1.48523583,-0.100550606 0.857713049,-0.100353737 0.464466094,0.292893219 C0.0739418023,0.683417511 0.0762469206,1.31888761 0.457945134,1.70058582 L3.29941418,4.54205487 C3.49180915,4.73444983 3.74369276,4.83112893 3.99668182,4.83136307 L4.00431377,4.82837765 Z" id="Arrow"></path>
                </g>
                <path d="M25.4165,25.4165 C24.449,26.384 22.651,27.9995 14.002,28 C5.349,27.9995 3.551,26.384 2.5835,25.4165 C1.616,24.4485 0,22.651 0,14.0005 C0,5.349 1.6155,3.5515 2.5835,2.5835 C3.551,1.616 5.5845,0 13.999,0 C22.4155,0 24.449,1.616 25.4165,2.5835 C26.384,3.551 27.9995,5.349 28,13.9985 C27.9995,22.651 26.384,24.449 25.4165,25.4165 Z M24.7058577,24.7058577 C23.1870884,26.224627 20.7642763,26.9946091 14.0019419,26.995 C7.23572373,26.9946091 4.81291164,26.224627 3.29414232,24.7058577 C1.77472954,23.1856596 1.005,20.7637472 1.005,14.0005 C1.005,7.23582928 1.77476371,4.81352092 3.29414232,3.29414232 C4.75917386,1.82911077 7.39840848,1.005 13.999,1.005 C20.6015915,1.005 23.2408261,1.82911077 24.7058577,3.29414232 C26.2246257,4.81291031 26.9946091,7.23581828 26.995,13.9985581 C26.9946091,20.7642763 26.224627,23.1870884 24.7058577,24.7058577 Z" id="Path" fill="#03D67F" sketch:type="MSShapeGroup"></path>
            </g>
        </g>
    </g>
</svg>