<?xml version="1.0" encoding="UTF-8" standalone="no"?>
<svg width="28px" height="28px" viewBox="0 0 28 28" version="1.1" xmlns="http://www.w3.org/2000/svg" xmlns:xlink="http://www.w3.org/1999/xlink" xmlns:sketch="http://www.bohemiancoding.com/sketch/ns">
    <!-- Generator: Sketch 3.0.2 (7799) - http://www.bohemiancoding.com/sketch -->
    <title>Drag_Handle_Active</title>
    <description>Created with Sketch.</description>
    <defs></defs>
    <g id="Assets" stroke="none" stroke-width="1" fill="none" fill-rule="evenodd" sketch:type="MSPage">
        <g id="Style" sketch:type="MSArtboardGroup" transform="translate(-736.000000, -345.000000)">
            <g id="Drag_Handle_Active" sketch:type="MSLayerGroup" transform="translate(736.000000, 345.000000)">
                <path d="M28,13.9985 L28,14 L28,14.002 C27.9995,22.651 26.384,24.449 25.4165,25.4165 C24.449,26.384 22.651,27.9995 14.002,28 L14,28 L13.998,28 C5.349,27.9995 3.551,26.384 2.5835,25.4165 C1.616,24.4485 0,22.651 0,14.0005 L0,14 C0,14 0,14 0,13.9995 C0,5.349 1.6155,3.5515 2.5835,2.5835 C3.551,1.616 5.5845,0 13.999,0 L14,0 L14.001,0 C22.4155,0 24.449,1.616 25.4165,2.5835 C26.384,3.551 27.9995,5.349 28,13.9985 L28,13.9985 Z" id="Shape" stroke="#03D67F" stroke-width="1.005" sketch:type="MSShapeGroup"></path>
                <g id="Random/Arrow" transform="translate(10.000000, 16.000000)" fill="#08111A" sketch:type="MSShapeGroup">
                    <path d="M4.00431377,4.82837765 C4.25827344,4.82783319 4.51079898,4.73184171 4.70058582,4.54205487 L7.54205487,1.70058582 C7.92897773,1.31366296 7.92878086,0.686140174 7.53553391,0.292893219 C7.14500961,-0.0976310729 6.50953952,-0.0953259547 6.1278413,0.286372258 L4,2.41421356 L1.8721587,0.286372258 C1.48523583,-0.100550606 0.857713049,-0.100353737 0.464466094,0.292893219 C0.0739418023,0.683417511 0.0762469206,1.31888761 0.457945134,1.70058582 L3.29941418,4.54205487 C3.49180915,4.73444983 3.74369276,4.83112893 3.99668182,4.83136307 L4.00431377,4.82837765 Z" id="Arrow"></path>
                </g>
                <g id="Random/Arrow-2" transform="translate(14.000000, 9.500000) rotate(-180.000000) translate(-14.000000, -9.500000) translate(10.000000, 7.000000)" fill="#08111A" sketch:type="MSShapeGroup">
                    <path d="M4.00431377,4.82837765 C4.25827344,4.82783319 4.51079898,4.73184171 4.70058582,4.54205487 L7.54205487,1.70058582 C7.92897773,1.31366296 7.92878086,0.686140174 7.53553391,0.292893219 C7.14500961,-0.0976310729 6.50953952,-0.0953259547 6.1278413,0.286372258 L4,2.41421356 L1.8721587,0.286372258 C1.48523583,-0.100550606 0.857713049,-0.100353737 0.464466094,0.292893219 C0.0739418023,0.683417511 0.0762469206,1.31888761 0.457945134,1.70058582 L3.29941418,4.54205487 C3.49180915,4.73444983 3.74369276,4.83112893 3.99668182,4.83136307 L4.00431377,4.82837765 Z" id="Arrow"></path>
                </g>
            </g>
        </g>
    </g>
</svg>