<?xml version="1.0" encoding="UTF-8" standalone="no"?>
<svg width="13px" height="13px" viewBox="0 0 13 13" version="1.1" xmlns="http://www.w3.org/2000/svg" xmlns:xlink="http://www.w3.org/1999/xlink" xmlns:sketch="http://www.bohemiancoding.com/sketch/ns">
    <!-- Generator: Sketch 3.0.3 (7891) - http://www.bohemiancoding.com/sketch -->
    <title>Icon_Search</title>
    <desc>Created with Sketch.</desc>
    <defs></defs>
    <g id="Assets" stroke="none" stroke-width="1" fill="none" fill-rule="evenodd" sketch:type="MSPage">
        <g id="Style" sketch:type="MSArtboardGroup" transform="translate(-21.000000, -446.000000)" fill="#03D67F">
            <g id="Icon_Search" sketch:type="MSLayerGroup" transform="translate(21.000000, 446.000000)">
                <path d="M3.61237915,7.39961904 L0.278918711,10.8362615 C-0.0949421012,11.2846921 -0.0896358583,12.0181064 0.274816641,12.4552521 L0.453033271,12.6690156 C0.824628572,13.1147289 1.43310858,13.1075261 1.80280096,12.6640954 L5.05990519,9.04467094 C5.88506768,9.64551914 6.90113712,10 8,10 C10.7614237,10 13,7.76142375 13,5 C13,2.23857625 10.7614237,0 8,0 C5.23857625,0 3,2.23857625 3,5 C3,5.86957942 3.22198534,6.68731138 3.61237915,7.39961904 L3.61237915,7.39961904 L3.61237915,7.39961904 Z M8,8 C6.34314575,8 5,6.65685425 5,5 C5,3.34314575 6.34314575,2 8,2 C9.65685425,2 11,3.34314575 11,5 C11,6.65685425 9.65685425,8 8,8 L8,8 Z" id="Path" sketch:type="MSShapeGroup"></path>
            </g>
        </g>
    </g>
</svg>