<?xml version="1.0" encoding="UTF-8" standalone="no"?>
<svg width="10px" height="10px" viewBox="0 0 10 10" version="1.1" xmlns="http://www.w3.org/2000/svg" xmlns:xlink="http://www.w3.org/1999/xlink" xmlns:sketch="http://www.bohemiancoding.com/sketch/ns">
    <!-- Generator: Sketch 3.0.2 (7799) - http://www.bohemiancoding.com/sketch -->
    <title>Icon_plus</title>
    <description>Created with Sketch.</description>
    <defs></defs>
    <g id="Assets" stroke="none" stroke-width="1" fill="none" fill-rule="evenodd" sketch:type="MSPage">
        <g id="Style" sketch:type="MSArtboardGroup" transform="translate(-20.000000, -20.000000)" fill="#02A360">
            <g id="Icon_plus" sketch:type="MSLayerGroup" transform="translate(20.000000, 20.000000)">
                <path d="M4,6 L0.995397568,6 C0.455664396,6 2.74146524e-17,5.55228475 6.123234e-17,5 C9.52857982e-17,4.44386482 0.445654671,4 0.995397568,4 L4,4 L4,0.995397568 C4,0.455664396 4.44771525,0 5,0 C5.55613518,0 6,0.445654671 6,0.995397568 L6,4 L9.00460243,4 C9.5443356,4 10,4.44771525 10,5 C10,5.55613518 9.55434533,6 9.00460243,6 L6,6 L6,9.00460243 C6,9.5443356 5.55228475,10 5,10 C4.44386482,10 4,9.55434533 4,9.00460243 L4,6 Z" id="+" sketch:type="MSShapeGroup"></path>
            </g>
        </g>
    </g>
</svg>