<?xml version="1.0" encoding="UTF-8" standalone="no"?>
<svg width="13px" height="19px" viewBox="0 0 13 19" version="1.1" xmlns="http://www.w3.org/2000/svg" xmlns:xlink="http://www.w3.org/1999/xlink" xmlns:sketch="http://www.bohemiancoding.com/sketch/ns">
    <!-- Generator: Sketch 3.0.2 (7799) - http://www.bohemiancoding.com/sketch -->
    <title>Icon_Popup-Delete</title>
    <description>Created with Sketch.</description>
    <defs></defs>
    <g id="Assets" stroke="none" stroke-width="1" fill="none" fill-rule="evenodd" sketch:type="MSPage">
        <g id="Style" sketch:type="MSArtboardGroup" transform="translate(-20.000000, -821.000000)" fill="#F24738">
            <g id="Icon_Popup-Delete" sketch:type="MSLayerGroup" transform="translate(20.000000, 821.000000)">
                <path d="M10.9987745,2.99445862 L2.00122499,2.99445862 L2.00122503,4 L10.998775,4 L10.9987745,2.99445862 L10.9987745,2.99445862 Z M11,17.0055414 L2.00122499,17.0055418 L2.00122503,5 L10.998775,5 L11,17.0055414 L11,17.0055414 Z M13,2.00632798 L13,17.993672 C13,18.5550537 12.5529553,19 12.0014977,19 L0.998502329,19 C0.447489426,19 0,18.5494516 0,17.993672 L0,2.00632798 C0,1.44494629 0.44704472,1 0.998502329,1 L4.00003116,1 C4.00434319,0.436136451 4.45568661,0 5.01182461,0 L7.98817539,0 C8.55350808,0 8.99566181,0.446965998 8.99996827,1 L12.0014977,1 C12.5525106,1 13,1.45054838 13,2.00632798 L13,2.00632798 Z M4.5,7 C4.22385763,7 4,7.23079681 4,7.50043583 L4,14.4995642 C4,14.7759472 4.23193359,15 4.5,15 C4.77614237,15 5,14.7692032 5,14.4995642 L5,7.50043583 C5,7.22405275 4.76806641,7 4.5,7 L4.5,7 L4.5,7 Z M6.5,7 C6.22385763,7 6,7.23079681 6,7.50043583 L6,14.4995642 C6,14.7759472 6.23193359,15 6.5,15 C6.77614237,15 7,14.7692032 7,14.4995642 L7,7.50043583 C7,7.22405275 6.76806641,7 6.5,7 L6.5,7 L6.5,7 Z M8.5,7 C8.22385763,7 8,7.23079681 8,7.50043583 L8,14.4995642 C8,14.7759472 8.23193359,15 8.5,15 C8.77614237,15 9,14.7692032 9,14.4995642 L9,7.50043583 C9,7.22405275 8.76806641,7 8.5,7 L8.5,7 L8.5,7 Z" id="Path" sketch:type="MSShapeGroup"></path>
            </g>
        </g>
    </g>
</svg>