<?xml version="1.0" encoding="UTF-8" standalone="no"?>
<svg width="20px" height="20px" viewBox="0 0 20 20" version="1.1" xmlns="http://www.w3.org/2000/svg" xmlns:xlink="http://www.w3.org/1999/xlink" xmlns:sketch="http://www.bohemiancoding.com/sketch/ns">
    <!-- Generator: Sketch 3.0.2 (7799) - http://www.bohemiancoding.com/sketch -->
    <title>Icon_Podcast</title>
    <description>Created with Sketch.</description>
    <defs>
        <rect id="path-1" x="2" y="9" width="19" height="10"></rect>
    </defs>
    <g id="Assets" stroke="none" stroke-width="1" fill="none" fill-rule="evenodd" sketch:type="MSPage">
        <g id="Style" sketch:type="MSArtboardGroup" transform="translate(-176.000000, -277.000000)">
            <g id="Icon_Podcast" sketch:type="MSLayerGroup" transform="translate(176.000000, 277.000000)">
                <path d="M20,10 C20,4.4771525 15.5228475,0 10,0 C4.4771525,0 0,4.4771525 0,10 C0,15.5228475 4.4771525,20 10,20 C15.5228475,20 20,15.5228475 20,10 Z M2,10 C2,5.581722 5.581722,2 10,2 C14.418278,2 18,5.581722 18,10 C18,14.418278 14.418278,18 10,18 C5.581722,18 2,14.418278 2,10 Z" id="Oval-1" fill="#03D67F" sketch:type="MSShapeGroup"></path>
                <path d="M7,7.00032973 L7,10.9996703 C7,12.6567066 8.34651712,14 10,14 C11.6568542,14 13,12.6513555 13,10.9996703 L13,7.00032973 C13,5.34329338 11.6534829,4 10,4 C8.34314575,4 7,5.3486445 7,7.00032973 Z M11,7.00032973 L11,10.9996703 C11,11.5492341 10.5498382,12 10,12 C9.44962415,12 9,11.5506752 9,10.9996703 L9,7.00032973 C9,6.45076589 9.45016177,6 10,6 C10.5503758,6 11,6.44932478 11,7.00032973 Z" id="Rectangle-177" fill="#03D67F" sketch:type="MSShapeGroup"></path>
                <mask id="mask-2" sketch:name="Rectangle 179" fill="white">
                    <use xlink:href="#path-1"></use>
                </mask>
                <use id="Rectangle-179" sketch:type="MSShapeGroup" xlink:href="#path-1"></use>
                <path d="M14,5 L14,9.19042969 L14,10.9970315 C14,13.2101606 12.2103187,15 10,15 C7.79451774,15 6,13.2085177 6,11.0054994 L6,9.0546875 L6,5 L5,5 L4,5 L4,9.0546875 L4,11.0054994 C4,14.3161706 6.69303423,17 10,17 C13.3137085,17 16,14.3159099 16,10.9970315 L16,9.19042969 L16,5 L15,5 L14,5 Z" id="Rectangle-178" fill="#03D67F" sketch:type="MSShapeGroup" mask="url(#mask-2)"></path>
            </g>
        </g>
    </g>
</svg>