<?xml version="1.0" encoding="UTF-8" standalone="no"?>
<svg width="27px" height="22px" viewBox="0 0 27 22" version="1.1" xmlns="http://www.w3.org/2000/svg" xmlns:xlink="http://www.w3.org/1999/xlink" xmlns:sketch="http://www.bohemiancoding.com/sketch/ns">
    <!-- Generator: Sketch 3.0.3 (7891) - http://www.bohemiancoding.com/sketch -->
    <title>Icon_Close_Fullscreen</title>
    <desc>Created with Sketch.</desc>
    <defs></defs>
    <g id="Assets" stroke="none" stroke-width="1" fill="none" fill-rule="evenodd" sketch:type="MSPage">
        <g id="Style" sketch:type="MSArtboardGroup" transform="translate(-55.000000, -711.000000)">
            <g id="Icon_Close_Fullscreen" sketch:type="MSLayerGroup" transform="translate(55.000000, 711.000000)">
                <path d="M7,12 L10,12 L10,22 L4,22 L4,18 L0,18 L3.6739404e-16,12 L7,12 L7,12 Z M17,15 L17,12 L27,12 L27,18 L23,18 L23,22 L17,22 L17,15 L17,15 Z M20,10 L17,10 L17,3.6739404e-16 L23,0 L23,4 L27,4 L27,10 L20,10 L20,10 Z M10,7 L10,10 L0,10 L0,4 L4,4 L4,0 L10,0 L10,7 L10,7 Z" id="Rectangle-49" fill-opacity="0.3" fill="#08111A" sketch:type="MSShapeGroup"></path>
                <path d="M8,20 L8,14 L2,14 L2,14 L2,16 L6,16 L6,20 L8,20 L8,20 L8,20 Z M8,2 L8,8 L2,8 L2,6 L6,6 L6,2 L8,2 L8,2 L8,2 Z M19,20 L19,14 L25,14 L25,14 L25,16 L21,16 L21,20 L19,20 L19,20 L19,20 Z M19,2 L19,8 L25,8 L25,6 L21,6 L21,2 L19,2 L19,2 Z" id="icon-Fullscreen" fill="#FFFFFF" sketch:type="MSShapeGroup"></path>
            </g>
        </g>
    </g>
</svg>