<?xml version="1.0" encoding="UTF-8" standalone="no"?>
<svg width="21px" height="20px" viewBox="0 0 21 20" version="1.1" xmlns="http://www.w3.org/2000/svg" xmlns:xlink="http://www.w3.org/1999/xlink" xmlns:sketch="http://www.bohemiancoding.com/sketch/ns">
    <!-- Generator: Sketch 3.0.2 (7799) - http://www.bohemiancoding.com/sketch -->
    <title>Icon_Settings_Hover</title>
    <description>Created with Sketch.</description>
    <defs></defs>
    <g id="Assets" stroke="none" stroke-width="1" fill="none" fill-rule="evenodd" sketch:type="MSPage">
        <g id="Style" sketch:type="MSArtboardGroup" transform="translate(-47.000000, -787.000000)" fill="#03D67F">
            <g id="Icon_Settings_Hover" sketch:type="MSLayerGroup" transform="translate(24.000000, 787.000000)">
                <path d="M33.5,2 C34.1,2 34.6,2.5 34.6,3.1 L34.9,3.9 C35.3,4 35.6,4.2 36,4.3 L36.9,3.9 C37.1,3.7 37.4,3.6 37.7,3.6 C38,3.6 38.3,3.7 38.5,3.9 L39.3,4.7 C39.7,5.1 39.7,5.8 39.3,6.2 L38.9,7.1 C39.1,7.4 39.2,7.8 39.3,8.2 L40.1,8.5 C40.7,8.5 41.2,9 41.2,9.6 L41.2,10.7 C41.2,11.3 40.7,11.8 40.1,11.8 L39.3,12.1 C39.2,12.5 39,12.8 38.9,13.2 L39.3,14 C39.7,14.4 39.7,15.1 39.3,15.5 L38.5,16.3 C38.3,16.5 38,16.6 37.7,16.6 C37.4,16.6 37.1,16.5 36.9,16.3 L36.1,15.9 C35.8,16.1 35.4,16.2 35,16.3 L34.7,17.1 C34.7,17.7 34.2,18.2 33.6,18.2 L32.5,18.2 C31.9,18.2 31.4,17.7 31.4,17.1 L31.1,16.3 C30.7,16.2 30.4,16 30,15.9 L29.1,16.3 C28.9,16.5 28.6,16.6 28.3,16.6 C28,16.6 27.7,16.5 27.5,16.3 L26.7,15.5 C26.3,15.1 26.3,14.4 26.7,14 L27.1,13.1 C26.9,12.8 26.8,12.4 26.7,12 L25.9,11.7 C25.3,11.7 24.8,11.2 24.8,10.6 L24.8,9.5 C24.8,8.9 25.3,8.4 25.9,8.4 L26.7,8.1 C26.8,7.7 27,7.4 27.1,7 L26.7,6.1 C26.3,5.7 26.3,5 26.7,4.6 L27.5,3.8 C27.7,3.6 28,3.5 28.3,3.5 C28.6,3.5 28.9,3.6 29.1,3.8 L30,4.2 C30.3,4 30.7,3.9 31.1,3.8 L31.4,3 C31.4,2.4 31.9,1.9 32.5,1.9 L33.5,1.9 L33.5,2 Z M33.5,-2.84217094e-14 L32.4,-2.84217094e-14 C31.1,-2.84217094e-14 30.1,0.8 29.6,1.8 C29.2,1.6 28.8,1.5 28.4,1.5 C27.6,1.5 26.8,1.8 26.2,2.4 L25.4,3.2 C24.5,4.1 24.3,5.5 24.8,6.6 C23.7,7.1 23,8.2 23,9.4 L23,10.5 C23,11.8 23.8,12.8 24.8,13.3 C24.3,14.4 24.5,15.8 25.5,16.7 L26.3,17.5 C26.9,18.1 27.7,18.4 28.5,18.4 C28.9,18.4 29.3,18.3 29.7,18.1 C30.2,19.2 31.3,20 32.5,20 L33.6,20 C34.9,20 35.9,19.2 36.4,18.1 C36.8,18.3 37.2,18.3 37.6,18.3 C38.4,18.3 39.2,18 39.8,17.4 L40.6,16.6 C41.2,16 41.5,15.2 41.5,14.4 C41.5,14 41.4,13.6 41.3,13.2 C42.4,12.7 43.1,11.6 43.1,10.4 L43.1,9.3 C43.1,8.5 42.8,7.7 42.2,7.1 C41.9,6.8 41.6,6.6 41.2,6.4 C41.7,5.3 41.5,3.9 40.6,3 L39.8,2.2 C39.2,1.6 38.4,1.3 37.6,1.3 C37.2,1.3 36.8,1.4 36.4,1.5 C35.8,0.8 34.8,-2.84217094e-14 33.5,-2.84217094e-14 L33.5,-2.84217094e-14 L33.5,-2.84217094e-14 Z" id="Shape" sketch:type="MSShapeGroup"></path>
                <path d="M36,10 C36,8.34314575 34.6568542,7 33,7 C31.3431458,7 30,8.34314575 30,10 C30,11.6568542 31.3431458,13 33,13 C34.6568542,13 36,11.6568542 36,10 Z M31,10 C31,8.8954305 31.8954305,8 33,8 C34.1045695,8 35,8.8954305 35,10 C35,11.1045695 34.1045695,12 33,12 C31.8954305,12 31,11.1045695 31,10 Z" id="Oval" sketch:type="MSShapeGroup"></path>
            </g>
        </g>
    </g>
</svg>