<?xml version="1.0" encoding="UTF-8" standalone="no"?>
<svg width="28px" height="28px" viewBox="0 0 28 28" version="1.1" xmlns="http://www.w3.org/2000/svg" xmlns:xlink="http://www.w3.org/1999/xlink" xmlns:sketch="http://www.bohemiancoding.com/sketch/ns">
    <!-- Generator: Sketch 3.0.3 (7891) - http://www.bohemiancoding.com/sketch -->
    <title>Icon_Music</title>
    <desc>Created with Sketch.</desc>
    <defs></defs>
    <g id="Assets" stroke="none" stroke-width="1" fill="none" fill-rule="evenodd" sketch:type="MSPage">
        <g id="Style" sketch:type="MSArtboardGroup" transform="translate(-100.000000, -58.000000)">
            <g id="Icon_Music" sketch:type="MSLayerGroup" transform="translate(100.000000, 58.000000)">
                <g id="note" transform="translate(8.666667, 6.666667)" fill="#0C1B29" sketch:type="MSShapeGroup">
                    <path d="M7.33333333,0.333333307 L5.33333333,0.333333307 L5.33333333,9.33333333 C4.63224561,9.06783333 3.16900602,8.90058605 2.33333333,9.33333331 C0.40224614,10.3333333 0.0328777195,11.0195 0.402246141,12.3205 C0.77110579,13.6215 1.5144884,14.3333333 3.33333335,14.3333333 C5.33333311,14.3333333 7.15322807,12.365333 7.33333333,11.333333 L7.33333333,5.33333349 C7.33333333,5.33333349 8.50443912,5.274 9.45482509,6.4845 C9.81910579,6.5395 10.4147368,6.73933334 10.3333333,6.33333334 L10.3333333,3.33333331 C10.3333333,0.469833307 7.33333333,0.333333314 7.33333333,0.333333307 Z M7.33333333,2.33333333 C7.33333333,2.33333333 8.56673588,1.60283333 8.34134992,3.33333333 C7.77582085,3.10166537 7.33333333,3.33333333 7.33333333,3.33333333 L7.33333333,2.33333333 Z M3.5,12.3479818 C4.32842712,12.3479818 5,12.1241241 5,11.8479818 C5,11.5718394 4.32842712,11.3479818 3.5,11.3479818 C2.67157288,11.3479818 2,11.5718394 2,11.8479818 C2,12.1241241 2.67157288,12.3479818 3.5,12.3479818 Z" id="Shape"></path>
                </g>
                <path d="M25.4165,25.4165 C24.449,26.384 22.651,27.9995 14.002,28 C5.349,27.9995 3.551,26.384 2.5835,25.4165 C1.616,24.4485 0,22.651 0,14.0005 C0,5.349 1.6155,3.5515 2.5835,2.5835 C3.551,1.616 5.5845,0 13.999,0 C22.4155,0 24.449,1.616 25.4165,2.5835 C26.384,3.551 27.9995,5.349 28,13.9985 C27.9995,22.651 26.384,24.449 25.4165,25.4165 Z M24.7058577,24.7058577 C23.1870884,26.224627 20.7642763,26.9946091 14.0019419,26.995 C7.23572373,26.9946091 4.81291164,26.224627 3.29414232,24.7058577 C1.77472954,23.1856596 1.005,20.7637472 1.005,14.0005 C1.005,7.23582928 1.77476371,4.81352092 3.29414232,3.29414232 C4.75917386,1.82911077 7.39840848,1.005 13.999,1.005 C20.6015915,1.005 23.2408261,1.82911077 24.7058577,3.29414232 C26.2246257,4.81291031 26.9946091,7.23581828 26.995,13.9985581 C26.9946091,20.7642763 26.224627,23.1870884 24.7058577,24.7058577 Z" id="Path" fill="#03D67F" sketch:type="MSShapeGroup"></path>
            </g>
        </g>
    </g>
</svg>