<?xml version="1.0" encoding="UTF-8" standalone="no"?>
<svg width="21px" height="18px" viewBox="0 0 21 18" version="1.1" xmlns="http://www.w3.org/2000/svg" xmlns:xlink="http://www.w3.org/1999/xlink" xmlns:sketch="http://www.bohemiancoding.com/sketch/ns">
    <!-- Generator: Sketch 3.0.3 (7891) - http://www.bohemiancoding.com/sketch -->
    <title>Icon_Repeat_Active</title>
    <desc>Created with Sketch.</desc>
    <defs>
        <linearGradient x1="72.7539062%" y1="100%" x2="12.2124566%" y2="13.5199653%" id="linearGradient-1">
            <stop stop-color="#03D67F" stop-opacity="0" offset="0%"></stop>
            <stop stop-color="#03D67F" stop-opacity="0" offset="17.1556122%"></stop>
            <stop stop-color="#03D67F" offset="100%"></stop>
        </linearGradient>
        <rect id="path-2" x="0" y="0" width="18" height="10"></rect>
        <linearGradient x1="-33.59375%" y1="50%" x2="100%" y2="39.9142795%" id="linearGradient-4">
            <stop stop-color="#03D67F" stop-opacity="0" offset="0%"></stop>
            <stop stop-color="#03D67F" stop-opacity="0" offset="17.1556122%"></stop>
            <stop stop-color="#03D67F" offset="100%"></stop>
        </linearGradient>
    </defs>
    <g id="Assets" stroke="none" stroke-width="1" fill="none" fill-rule="evenodd" sketch:type="MSPage">
        <g id="Style" sketch:type="MSArtboardGroup" transform="translate(-50.000000, -413.000000)">
            <g id="Icon_Repeat_Active" sketch:type="MSLayerGroup" transform="translate(50.000000, 413.000000)">
                <path d="M18,9 L18,5.99077797 C18,5.45097518 18.4477153,5 19,5 C19.5561352,5 20,5.44358641 20,5.99077797 L20,10.009222 C20,10.2776212 19.8893137,10.5240599 19.7101221,10.7040215 C19.5277807,10.8902538 19.2813096,11 19.009222,11 L14.990778,11 C14.4509752,11 14,10.5522847 14,10 C14,9.44386482 14.4435864,9 14.990778,9 L18,9 Z" id="Rectangle-12" fill="#03D67F" sketch:type="MSShapeGroup" transform="translate(17.000000, 8.000000) rotate(45.000000) translate(-17.000000, -8.000000) "></path>
                <path d="M18,9 C18,4.02943725 13.9705627,0 9,0 C4.02943725,0 0,4.02943725 0,9 C0,13.9705627 4.02943725,18 9,18 C13.9705627,18 18,13.9705627 18,9 L18,9 Z M2,9 C2,5.13400675 5.13400675,2 9,2 C12.8659932,2 16,5.13400675 16,9 C16,12.8659932 12.8659932,16 9,16 C5.13400675,16 2,12.8659932 2,9 L2,9 Z" id="Oval-5" fill="url(#linearGradient-1)" sketch:type="MSShapeGroup"></path>
                <mask id="mask-3" sketch:name="Rectangle 47" fill="white">
                    <use xlink:href="#path-2"></use>
                </mask>
                <use id="Rectangle-47" sketch:type="MSShapeGroup" transform="translate(9.000000, 5.000000) scale(1, -1) translate(-9.000000, -5.000000) " xlink:href="#path-2"></use>
                <path d="M18,9 C18,4.02943725 13.9705627,0 9,0 C4.02943725,0 0,4.02943725 0,9 C0,13.9705627 4.02943725,18 9,18 C13.9705627,18 18,13.9705627 18,9 L18,9 Z M2,9 C2,5.13400675 5.13400675,2 9,2 C12.8659932,2 16,5.13400675 16,9 C16,12.8659932 12.8659932,16 9,16 C5.13400675,16 2,12.8659932 2,9 L2,9 Z" id="Oval-6" fill="url(#linearGradient-4)" sketch:type="MSShapeGroup" mask="url(#mask-3)"></path>
            </g>
        </g>
    </g>
</svg>