<?xml version="1.0" encoding="UTF-8" standalone="no"?>
<svg width="16px" height="18px" viewBox="0 0 16 18" version="1.1" xmlns="http://www.w3.org/2000/svg" xmlns:xlink="http://www.w3.org/1999/xlink" xmlns:sketch="http://www.bohemiancoding.com/sketch/ns">
    <!-- Generator: Sketch 3.0.3 (7891) - http://www.bohemiancoding.com/sketch -->
    <title>Icon-Mute</title>
    <desc>Created with Sketch.</desc>
    <defs></defs>
    <g id="Assets" stroke="none" stroke-width="1" fill="none" fill-rule="evenodd" sketch:type="MSPage">
        <g id="Style" sketch:type="MSArtboardGroup" transform="translate(-51.000000, -673.000000)" fill="#03D67F">
            <g id="Icon-Mute" sketch:type="MSLayerGroup" transform="translate(51.000000, 674.000000)">
                <path d="M3.91630539,12.9979082 C3.94730076,12.9992977 3.97849124,13 4.00986236,13 L6.16666667,13 L10.3540932,15.8713782 C11.2631024,16.4946988 12,16.1073772 12,15.0049107 L12,4.91421356 L15.4255078,1.48870571 C15.8155425,1.0986711 15.8178682,0.468625753 15.4246212,0.0753787975 C15.0340969,-0.315145494 14.4073669,-0.321580452 14.0112943,0.0744921503 L12,2.08578644 L12,0.995089293 C12,-0.106768098 11.2534518,-0.488081251 10.3540932,0.128621825 L6.16666667,3 L4.00986236,3 C2.89984603,3 2,3.88743329 2,4.99961498 L2,11.000385 C2,11.316845 2.07306536,11.6161351 2.20367689,11.8821095 L0.57449215,13.5112943 C0.18445754,13.9013289 0.182131842,14.5313742 0.575378798,14.9246212 C0.965903089,15.3151455 1.59263311,15.3215805 1.98870571,14.9255078 L3.91630539,12.9979082 L3.91630539,12.9979082 Z M4.00377065,10.0820158 C3.99852507,8.47136556 4.00028313,4.83366659 4.00028313,4.83366659 C4.00028313,4.83227227 6.78666745,4.83405161 6.78666745,4.83405161 L10,2.83405161 L10,4.08578644 L4.00377065,10.0820158 L4.00377065,10.0820158 Z M10,6.91421356 L10,12.8340516 L6.78666745,10.8340516 L6.08016196,10.8340516 L10,6.91421356 L10,6.91421356 Z" id="Path-2" sketch:type="MSShapeGroup"></path>
            </g>
        </g>
    </g>
</svg>