<?xml version="1.0" encoding="UTF-8" standalone="no"?>
<svg width="21px" height="19px" viewBox="0 0 21 19" version="1.1" xmlns="http://www.w3.org/2000/svg" xmlns:xlink="http://www.w3.org/1999/xlink" xmlns:sketch="http://www.bohemiancoding.com/sketch/ns">
    <!-- Generator: Sketch 3.0.2 (7799) - http://www.bohemiancoding.com/sketch -->
    <title>Icon_Shuffle_Hover</title>
    <description>Created with Sketch.</description>
    <defs>
        <linearGradient x1="24.8291016%" y1="0%" x2="81.5356445%" y2="100%" id="linearGradient-1">
            <stop stop-color="#03D67F" offset="0%"></stop>
            <stop stop-color="#03D67F" stop-opacity="0" offset="27.8001435%"></stop>
            <stop stop-color="#03D67F" stop-opacity="0" offset="65.4825846%"></stop>
            <stop stop-color="#03D67F" offset="100%"></stop>
        </linearGradient>
    </defs>
    <g id="Assets" stroke="none" stroke-width="1" fill="none" fill-rule="evenodd" sketch:type="MSPage">
        <g id="Style" sketch:type="MSArtboardGroup" transform="translate(-50.000000, -483.000000)">
            <g id="Icon_Shuffle_Hover" sketch:type="MSLayerGroup" transform="translate(50.000000, 483.000000)">
                <g id="Line-2" transform="translate(10.500000, 8.000000) scale(1, -1) translate(-10.500000, -8.000000) " sketch:type="MSShapeGroup">
                    <path d="M1,1 L1.55254722,1 C4.31312773,1 7.55626833,2.99201702 8.80083058,5.45826354 L9.85223065,7.54173646 C11.0947665,10.0039674 14.3416105,12 17.0968424,12 L19,12" id="Path-23" stroke="url(#linearGradient-1)" stroke-width="2"></path>
                    <path d="M18,13 L18,9.99077797 C18,9.45097518 18.4477153,9 19,9 C19.5561352,9 20,9.44358641 20,9.99077797 L20,14.009222 C20,14.2776212 19.8893137,14.5240599 19.7101221,14.7040215 C19.5277807,14.8902538 19.2813096,15 19.009222,15 L14.990778,15 C14.4509752,15 14,14.5522847 14,14 C14,13.4438648 14.4435864,13 14.990778,13 L18,13 Z" id="Rectangle-12" fill="#03D67F" transform="translate(17.000000, 12.000000) rotate(-45.000000) translate(-17.000000, -12.000000) "></path>
                    <circle id="Oval-2" fill="#03D67F" cx="1" cy="1" r="1"></circle>
                </g>
                <g id="Line-1" transform="translate(0.000000, 3.000000)" sketch:type="MSShapeGroup">
                    <path d="M1,1 L1.55254722,1 C4.31312773,1 7.55626833,2.99201702 8.80083058,5.45826354 L9.85223065,7.54173646 C11.0947665,10.0039674 14.3416105,12 17.0968424,12 L19,12" id="Path-23" stroke="#03D67F" stroke-width="2"></path>
                    <path d="M18,13 L18,9.99077797 C18,9.45097518 18.4477153,9 19,9 C19.5561352,9 20,9.44358641 20,9.99077797 L20,14.009222 C20,14.2776212 19.8893137,14.5240599 19.7101221,14.7040215 C19.5277807,14.8902538 19.2813096,15 19.009222,15 L14.990778,15 C14.4509752,15 14,14.5522847 14,14 C14,13.4438648 14.4435864,13 14.990778,13 L18,13 Z" id="Rectangle-12" fill="#03D67F" transform="translate(17.000000, 12.000000) rotate(-45.000000) translate(-17.000000, -12.000000) "></path>
                    <circle id="Oval-2" fill="#03D67F" cx="1" cy="1" r="1"></circle>
                </g>
            </g>
        </g>
    </g>
</svg>