<?xml version="1.0" encoding="UTF-8" standalone="no"?>
<svg width="28px" height="28px" viewBox="0 0 28 28" version="1.1" xmlns="http://www.w3.org/2000/svg" xmlns:xlink="http://www.w3.org/1999/xlink" xmlns:sketch="http://www.bohemiancoding.com/sketch/ns">
    <!-- Generator: Sketch 3.0.2 (7799) - http://www.bohemiancoding.com/sketch -->
    <title>Icon_Soundbook</title>
    <description>Created with Sketch.</description>
    <defs></defs>
    <g id="Assets" stroke="none" stroke-width="1" fill="none" fill-rule="evenodd" sketch:type="MSPage">
        <g id="Style" sketch:type="MSArtboardGroup" transform="translate(-100.000000, -95.000000)">
            <g id="Icon_Soundbook" sketch:type="MSLayerGroup" transform="translate(100.000000, 95.000000)">
                <path d="M28,13.9985 L28,14 L28,14.002 C27.9995,22.651 26.384,24.449 25.4165,25.4165 C24.449,26.384 22.651,27.9995 14.002,28 L14,28 L13.998,28 C5.349,27.9995 3.551,26.384 2.5835,25.4165 C1.616,24.4485 0,22.651 0,14.0005 L0,14 C0,14 0,14 0,13.9995 C0,5.349 1.6155,3.5515 2.5835,2.5835 C3.551,1.616 5.5845,0 13.999,0 L14,0 L14.001,0 C22.4155,0 24.449,1.616 25.4165,2.5835 C26.384,3.551 27.9995,5.349 28,13.9985 L28,13.9985 Z" id="Shape" stroke="#03D67F" stroke-width="1.005" sketch:type="MSShapeGroup"></path>
                <g id="soundbook" transform="translate(8.333333, 6.333333)" fill="#0C1B29" sketch:type="MSShapeGroup">
                    <path d="M4.66666667,12.4548546 L4.66666667,13.6666667 C2.66666667,13.6666667 2.66666667,15.6666667 2.66666667,15.6666667 L8.66666654,15.6666667 C8.66666654,15.6666667 8.66666661,13.6666667 6.66666667,13.6666667 L6.66666667,12.4350068 C9.48276341,12.0459409 11.6666667,10.1556112 11.6666667,7.66666666 L11.6666667,5.66666666 C11.6666667,5.11438191 11.2189514,4.66666666 10.6666667,4.66666666 C10.1143819,4.66666666 9.66666667,5.11438191 9.66666667,5.66666666 L9.66666667,7.66666666 C9.66666667,9.20833804 7.90704517,10.5087719 5.58499698,10.5087719 C3.30215409,10.5087719 1.66666667,9.24426914 1.66666667,7.66666666 L1.66666667,5.66666666 C1.66666667,5.11438191 1.21895142,4.66666666 0.666666667,4.66666666 C0.114381917,4.66666666 -0.333333333,5.11438191 -0.333333333,5.66666666 L-0.333333333,7.66666666 C-0.333333333,10.2106072 1.8182804,12.1158294 4.66666667,12.4548546 Z M2.66666667,2.41666667 L2.66666667,6.91666667 C2.66666667,8.43566667 4.00957576,9.66666667 5.66666667,9.66666667 C7.32375758,9.66666667 8.66666667,8.43566667 8.66666667,6.91666667 L8.66666667,2.41666667 C8.66666667,0.897666667 7.32375758,-0.333333333 5.66666667,-0.333333333 C4.00957576,-0.333333333 2.66666667,0.897666667 2.66666667,2.41666667 Z M6.66666667,2.41666667 L6.66666667,6.91666667 C6.66666667,7.2903732 6.2561647,7.66666667 5.66666667,7.66666667 C5.07716863,7.66666667 4.66666667,7.2903732 4.66666667,6.91666667 L4.66666667,2.41666667 C4.66666667,2.04296013 5.07716863,1.66666667 5.66666667,1.66666667 C6.2561647,1.66666667 6.66666667,2.04296013 6.66666667,2.41666667 Z" id="Shape"></path>
                </g>
            </g>
        </g>
    </g>
</svg>