<?xml version="1.0" encoding="UTF-8" standalone="no"?>
<svg width="20px" height="20px" viewBox="0 0 20 20" version="1.1" xmlns="http://www.w3.org/2000/svg" xmlns:xlink="http://www.w3.org/1999/xlink" xmlns:sketch="http://www.bohemiancoding.com/sketch/ns">
    <!-- Generator: Sketch 3.0.3 (7891) - http://www.bohemiancoding.com/sketch -->
    <title>Icon_Options-Info</title>
    <desc>Created with Sketch.</desc>
    <defs></defs>
    <g id="Assets" stroke="none" stroke-width="1" fill="none" fill-rule="evenodd" sketch:type="MSPage">
        <g id="Style" sketch:type="MSArtboardGroup" transform="translate(-326.000000, -277.000000)" fill="#03D67F">
            <g id="Icon_Options-Info" sketch:type="MSLayerGroup" transform="translate(326.000000, 277.000000)">
                <path d="M20,10 C20,4.4771525 15.5228475,0 10,0 C4.4771525,0 0,4.4771525 0,10 C0,15.5228475 4.4771525,20 10,20 C15.5228475,20 20,15.5228475 20,10 Z M2,10 C2,5.581722 5.581722,2 10,2 C14.418278,2 18,5.581722 18,10 C18,14.418278 14.418278,18 10,18 C5.581722,18 2,14.418278 2,10 Z" id="Oval-1" sketch:type="MSShapeGroup"></path>
                <rect id="Rectangle-49" sketch:type="MSShapeGroup" x="9" y="9" width="2" height="5" rx="40"></rect>
                <rect id="Rectangle-50" sketch:type="MSShapeGroup" x="9" y="6" width="2" height="2" rx="40"></rect>
            </g>
        </g>
    </g>
</svg>