<?xml version="1.0" encoding="UTF-8" standalone="no"?>
<svg
   xmlns:sketch="http://www.bohemiancoding.com/sketch/ns"
   xmlns:dc="http://purl.org/dc/elements/1.1/"
   xmlns:cc="http://creativecommons.org/ns#"
   xmlns:rdf="http://www.w3.org/1999/02/22-rdf-syntax-ns#"
   xmlns:svg="http://www.w3.org/2000/svg"
   xmlns="http://www.w3.org/2000/svg"
   xmlns:sodipodi="http://sodipodi.sourceforge.net/DTD/sodipodi-0.dtd"
   xmlns:inkscape="http://www.inkscape.org/namespaces/inkscape"
   width="17.775845"
   height="29.830162"
   viewBox="0 0 17.775845 29.830162"
   version="1.1"
   id="svg2"
   inkscape:version="0.48.4 r9939"
   sodipodi:docname="Icon_Prev.svg">
  <metadata
     id="metadata16">
    <rdf:RDF>
      <cc:Work
         rdf:about="">
        <dc:format>image/svg+xml</dc:format>
        <dc:type
           rdf:resource="http://purl.org/dc/dcmitype/StillImage" />
      </cc:Work>
    </rdf:RDF>
  </metadata>
  <sodipodi:namedview
     pagecolor="#ffffff"
     bordercolor="#666666"
     borderopacity="1"
     objecttolerance="10"
     gridtolerance="10"
     guidetolerance="10"
     inkscape:pageopacity="0"
     inkscape:pageshadow="2"
     inkscape:window-width="1080"
     inkscape:window-height="1869"
     id="namedview14"
     showgrid="false"
     fit-margin-top="0"
     fit-margin-left="0"
     fit-margin-right="0"
     fit-margin-bottom="0"
     inkscape:zoom="8.4285714"
     inkscape:cx="-8.5465115"
     inkscape:cy="14.796437"
     inkscape:window-x="1600"
     inkscape:window-y="0"
     inkscape:window-maximized="1"
     inkscape:current-layer="svg2" />
  <!-- Generator: Sketch 3.0.2 (7799) - http://www.bohemiancoding.com/sketch -->
  <title
     id="title4">Icon_Prev</title>
  <description
     id="description6">Created with Sketch.</description>
  <defs
     id="defs8" />
  <g
     id="Assets"
     sketch:type="MSPage"
     style="fill:#ffffff;fill-opacity:1;fill-rule:evenodd;stroke:none"
     transform="matrix(1.072494,0,0,1.0129631,1.4930003,0.67424797)">
    <g
       id="Style"
       sketch:type="MSArtboardGroup"
       transform="translate(-101,-359)"
       style="fill:#ffffff;fill-opacity:1">
      <g
         id="Icon_Prev"
         sketch:type="MSLayerGroup"
         transform="translate(101,359)"
         style="fill:#ffffff;fill-opacity:1">
        <path
           d="m 6,22 17.008197,0 C 23.544694,22 24,22.447715 24,23 c 0,0.556135 -0.444045,1 -0.991803,1 L 4.9918031,24 C 4.7248814,24 4.4780574,23.889176 4.2974046,23.709787 4.1098812,23.527595 4,23.280733 4,23.008197 L 4,4.9918031 C 4,4.4553056 4.4477152,4 5,4 5.5561352,4 6,4.4440454 6,4.9918031 L 6,22 z"
           id="Prev"
           sketch:type="MSShapeGroup"
           transform="matrix(0.70710678,0.70710678,-0.70710678,0.70710678,14,-5.7989899)"
           style="fill:#ffffff;fill-opacity:1"
           inkscape:connector-curvature="0" />
      </g>
    </g>
  </g>
  <g
     transform="matrix(1.2068229,0,0,1.0864209,-0.32978467,-0.29699059)"
     style="fill:none;stroke:none"
     id="Assets-2"
     sketch:type="MSPage">
    <g
       style="fill:#08111a"
       id="Style-3"
       sketch:type="MSArtboardGroup"
       transform="translate(-101,-359)">
      <g
         id="Icon_Prev-5"
         sketch:type="MSLayerGroup"
         transform="translate(101,359)">
        <path
           inkscape:connector-curvature="0"
           d="m 6,22 17.008197,0 C 23.544694,22 24,22.447715 24,23 c 0,0.556135 -0.444045,1 -0.991803,1 L 4.9918031,24 C 4.7248814,24 4.4780574,23.889176 4.2974046,23.709787 4.1098812,23.527595 4,23.280733 4,23.008197 L 4,4.9918031 C 4,4.4553056 4.4477152,4 5,4 5.5561352,4 6,4.4440454 6,4.9918031 L 6,22 z"
           id="Prev-3"
           sketch:type="MSShapeGroup"
           transform="matrix(0.70710678,0.70710678,-0.70710678,0.70710678,14,-5.7989899)" />
      </g>
    </g>
  </g>
</svg>
