<?xml version="1.0" encoding="UTF-8" standalone="no"?>
<svg width="28px" height="28px" viewBox="0 0 28 28" version="1.1" xmlns="http://www.w3.org/2000/svg" xmlns:xlink="http://www.w3.org/1999/xlink" xmlns:sketch="http://www.bohemiancoding.com/sketch/ns">
    <!-- Generator: Sketch 3.0.3 (7891) - http://www.bohemiancoding.com/sketch -->
    <title>Icon_Edification</title>
    <desc>Created with Sketch.</desc>
    <defs></defs>
    <g id="Assets" stroke="none" stroke-width="1" fill="none" fill-rule="evenodd" sketch:type="MSPage">
        <g id="Style" sketch:type="MSArtboardGroup" transform="translate(-100.000000, -19.000000)">
            <g id="Icon_Edification" sketch:type="MSLayerGroup" transform="translate(100.000000, 19.000000)">
                <path d="M19.0647321,17.2183202 C19.3095333,18.0789533 19.461577,18.6871279 19.461577,18.6871279 C19.461577,18.6871279 18.8006176,18.6871279 17.8631994,18.5910027 C16.819411,19.4702292 15.4715728,20 14,20 C10.6862915,20 8,17.3137085 8,14 C8,10.6862915 10.6862915,8 14,8 C17.3137085,8 20,10.6862915 20,14 C20,15.1842275 19.6569205,16.2883245 19.0647321,17.2183202 Z M18.5097535,20.6086621 C17.2257534,21.4865558 15.6728374,22 14,22 C9.581722,22 6,18.418278 6,14 C6,9.581722 9.581722,6 14,6 C18.418278,6 22,9.581722 22,14 C22,15.3574675 21.6619004,16.6359677 21.0653166,17.7558849 C21.6060025,19.4240099 22,21 22,21 C22,21 20.3148006,21 18.5097535,20.6086621 L18.5097535,20.6086621 Z" id="Bubble" fill="#0C1B29" sketch:type="MSShapeGroup"></path>
                <path d="M18,14 C18,13.4477153 17.5522847,13 17,13 C16.4477153,13 16,13.4477153 16,14 C16,14.5522847 16.4477153,15 17,15 C17.5522847,15 18,14.5522847 18,14 Z M12,14 C12,13.4477153 11.5522847,13 11,13 C10.4477153,13 10,13.4477153 10,14 C10,14.5522847 10.4477153,15 11,15 C11.5522847,15 12,14.5522847 12,14 Z M15,14 C15,13.4477153 14.5522847,13 14,13 C13.4477153,13 13,13.4477153 13,14 C13,14.5522847 13.4477153,15 14,15 C14.5522847,15 15,14.5522847 15,14 Z" id="Dots" fill="#232F33" sketch:type="MSShapeGroup"></path>
                <path d="M25.4165,25.4165 C24.449,26.384 22.651,27.9995 14.002,28 C5.349,27.9995 3.551,26.384 2.5835,25.4165 C1.616,24.4485 0,22.651 0,14.0005 C0,5.349 1.6155,3.5515 2.5835,2.5835 C3.551,1.616 5.5845,0 13.999,0 C22.4155,0 24.449,1.616 25.4165,2.5835 C26.384,3.551 27.9995,5.349 28,13.9985 C27.9995,22.651 26.384,24.449 25.4165,25.4165 Z M24.7058577,24.7058577 C23.1870884,26.224627 20.7642763,26.9946091 14.0019419,26.995 C7.23572373,26.9946091 4.81291164,26.224627 3.29414232,24.7058577 C1.77472954,23.1856596 1.005,20.7637472 1.005,14.0005 C1.005,7.23582928 1.77476371,4.81352092 3.29414232,3.29414232 C4.75917386,1.82911077 7.39840848,1.005 13.999,1.005 C20.6015915,1.005 23.2408261,1.82911077 24.7058577,3.29414232 C26.2246257,4.81291031 26.9946091,7.23581828 26.995,13.9985581 C26.9946091,20.7642763 26.224627,23.1870884 24.7058577,24.7058577 Z" id="Path" fill="#03D67F" sketch:type="MSShapeGroup"></path>
            </g>
        </g>
    </g>
</svg>