<?xml version="1.0" encoding="UTF-8" standalone="no"?>
<svg width="21px" height="20px" viewBox="0 0 21 20" version="1.1" xmlns="http://www.w3.org/2000/svg" xmlns:xlink="http://www.w3.org/1999/xlink" xmlns:sketch="http://www.bohemiancoding.com/sketch/ns">
    <!-- Generator: Sketch 3.0.2 (7799) - http://www.bohemiancoding.com/sketch -->
    <title>Icon_Settings</title>
    <description>Created with Sketch.</description>
    <defs></defs>
    <g id="Assets" stroke="none" stroke-width="1" fill="none" fill-rule="evenodd" sketch:type="MSPage">
        <g id="Style" sketch:type="MSArtboardGroup" transform="translate(-17.000000, -787.000000)" fill="#5C7082">
            <g id="Icon_Settings" sketch:type="MSLayerGroup" transform="translate(17.000000, 787.000000)">
                <path d="M10.5,2 C11.1,2 11.6,2.5 11.6,3.1 L11.9,3.9 C12.3,4 12.6,4.2 13,4.3 L13.9,3.9 C14.1,3.7 14.4,3.6 14.7,3.6 C15,3.6 15.3,3.7 15.5,3.9 L16.3,4.7 C16.7,5.1 16.7,5.8 16.3,6.2 L15.9,7.1 C16.1,7.4 16.2,7.8 16.3,8.2 L17.1,8.5 C17.7,8.5 18.2,9 18.2,9.6 L18.2,10.7 C18.2,11.3 17.7,11.8 17.1,11.8 L16.3,12.1 C16.2,12.5 16,12.8 15.9,13.2 L16.3,14 C16.7,14.4 16.7,15.1 16.3,15.5 L15.5,16.3 C15.3,16.5 15,16.6 14.7,16.6 C14.4,16.6 14.1,16.5 13.9,16.3 L13.1,15.9 C12.8,16.1 12.4,16.2 12,16.3 L11.7,17.1 C11.7,17.7 11.2,18.2 10.6,18.2 L9.5,18.2 C8.9,18.2 8.4,17.7 8.4,17.1 L8.1,16.3 C7.7,16.2 7.4,16 7,15.9 L6.1,16.3 C5.9,16.5 5.6,16.6 5.3,16.6 C5,16.6 4.7,16.5 4.5,16.3 L3.7,15.5 C3.3,15.1 3.3,14.4 3.7,14 L4.1,13.1 C3.9,12.8 3.8,12.4 3.7,12 L2.9,11.7 C2.3,11.7 1.8,11.2 1.8,10.6 L1.8,9.5 C1.8,8.9 2.3,8.4 2.9,8.4 L3.7,8.1 C3.8,7.7 4,7.4 4.1,7 L3.7,6.1 C3.3,5.7 3.3,5 3.7,4.6 L4.5,3.8 C4.7,3.6 5,3.5 5.3,3.5 C5.6,3.5 5.9,3.6 6.1,3.8 L7,4.2 C7.3,4 7.7,3.9 8.1,3.8 L8.4,3 C8.4,2.4 8.9,1.9 9.5,1.9 L10.5,1.9 L10.5,2 Z M10.5,-2.84217094e-14 L9.4,-2.84217094e-14 C8.1,-2.84217094e-14 7.1,0.8 6.6,1.8 C6.2,1.6 5.8,1.5 5.4,1.5 C4.6,1.5 3.8,1.8 3.2,2.4 L2.4,3.2 C1.5,4.1 1.3,5.5 1.8,6.6 C0.7,7.1 0,8.2 0,9.4 L0,10.5 C0,11.8 0.8,12.8 1.8,13.3 C1.3,14.4 1.5,15.8 2.5,16.7 L3.3,17.5 C3.9,18.1 4.7,18.4 5.5,18.4 C5.9,18.4 6.3,18.3 6.7,18.1 C7.2,19.2 8.3,20 9.5,20 L10.6,20 C11.9,20 12.9,19.2 13.4,18.1 C13.8,18.3 14.2,18.3 14.6,18.3 C15.4,18.3 16.2,18 16.8,17.4 L17.6,16.6 C18.2,16 18.5,15.2 18.5,14.4 C18.5,14 18.4,13.6 18.3,13.2 C19.4,12.7 20.1,11.6 20.1,10.4 L20.1,9.3 C20.1,8.5 19.8,7.7 19.2,7.1 C18.9,6.8 18.6,6.6 18.2,6.4 C18.7,5.3 18.5,3.9 17.6,3 L16.8,2.2 C16.2,1.6 15.4,1.3 14.6,1.3 C14.2,1.3 13.8,1.4 13.4,1.5 C12.8,0.8 11.8,-2.84217094e-14 10.5,-2.84217094e-14 L10.5,-2.84217094e-14 L10.5,-2.84217094e-14 Z" id="Shape" sketch:type="MSShapeGroup"></path>
                <path d="M13,10 C13,8.34314575 11.6568542,7 10,7 C8.34314575,7 7,8.34314575 7,10 C7,11.6568542 8.34314575,13 10,13 C11.6568542,13 13,11.6568542 13,10 Z M8,10 C8,8.8954305 8.8954305,8 10,8 C11.1045695,8 12,8.8954305 12,10 C12,11.1045695 11.1045695,12 10,12 C8.8954305,12 8,11.1045695 8,10 Z" id="Oval" sketch:type="MSShapeGroup"></path>
            </g>
        </g>
    </g>
</svg>