<?xml version="1.0" encoding="UTF-8" standalone="no"?>
<svg width="20px" height="20px" viewBox="0 0 20 20" version="1.1" xmlns="http://www.w3.org/2000/svg" xmlns:xlink="http://www.w3.org/1999/xlink" xmlns:sketch="http://www.bohemiancoding.com/sketch/ns">
    <!-- Generator: Sketch 3.0.3 (7891) - http://www.bohemiancoding.com/sketch -->
    <title>Icon_Options_Share</title>
    <desc>Created with Sketch.</desc>
    <defs></defs>
    <g id="Assets" stroke="none" stroke-width="1" fill="none" fill-rule="evenodd" sketch:type="MSPage">
        <g id="Style" sketch:type="MSArtboardGroup" transform="translate(-150.000000, -277.000000)" fill="#03D67F">
            <g id="Icon_Options_Share" sketch:type="MSLayerGroup" transform="translate(150.000000, 278.000000)">
                <path d="M13.7908391,0.559574105 C14.4819139,0.139191237 15.2261116,-0.0868305619 16.092055,0.0736085178 C17.1339425,0.26664592 17.9233357,0.990686879 18.3807679,2.04703534 L18.2935719,1.87014299 C18.4739311,2.19463447 18.6253087,2.67812086 18.7453675,3.39648626 C18.9072817,4.36529219 19,5.69599168 19,7.46349342 C19,8.81468915 18.9055156,9.95935039 18.7444092,10.906526 C18.6392377,11.5248487 18.5235718,11.9644539 18.4259443,12.2340399 L18.3722152,12.3824058 L18.2958844,12.5205103 C17.6816506,13.6318367 16.8146985,14.3302353 15.6218457,14.2948941 C15.1056671,14.2796011 12.5,12.3824058 8.99956894,12.3824058 C9.07391363,12.7909517 8.99734293,13.3917649 8.99956881,14.041528 C8.96003547,15.9450552 6.91568799,17.0051713 4.99999953,17.0051708 C3.92281104,17.0051706 3.00559036,16.6267386 2.44531,15.766111 C2.04576077,15.152377 1.98522603,14.6905992 2,14 L2,11.6328425 C1.73481939,11.5102789 1.48641257,11.3523933 1.26930629,11.1522244 C1.25360975,11.1378416 1.25360975,11.1378416 1.22871163,11.1153273 C0.823604097,10.7491618 0.576276171,10.4572315 0.348481328,9.9463204 C0.104028422,9.39804761 0,8.77254378 0,8.00000023 C0,6.72448092 0.221591058,5.97880845 0.79713536,5.26316234 C0.897636784,5.13819637 0.880822434,5.15977861 0.878163551,5.16391413 C0.874117759,5.1702068 1.02518247,4.89103607 1.02518247,4.89103607 L1.26930629,4.66595738 C1.97177604,4.01829023 3.51173519,3.54545455 4.5,3.54545455 C4.5,3.54545455 4.5034897,3.52939408 4.73547815,3.49697893 C5.12866194,3.44204037 5.57302249,3.3743819 6.05822359,3.29356646 C7.44513762,3.06256107 8.874485,2.77353895 10.2616518,2.42417354 C11.3455592,2.15125043 11.8960431,1.9240649 12.5,1.5 C12.453969,1.40709233 13.4506168,0.783333289 13.4506168,0.783333289 C13.5556808,0.71369236 13.6942176,0.618349266 13.7908391,0.559574105 Z M14.5,2.5 C14.6727273,2.37922581 16,1 16.5454546,3 C16.5454546,3 17,3.65957447 17,7.46349342 C17,10.2978723 17.0000001,9.49999998 16.5454546,11.0000005 C16,12.5000005 15.3585142,12.2506423 14.8783403,11.8375239 C15.1122467,11.1025174 15.5,9.54785681 15.5,7.46349358 C15.5,5.81685054 15.1112116,4.29707494 14.351307,2.62769161 C14.4030194,2.58414988 14.4524912,2.54152707 14.5,2.5 Z M10.75,4.36363636 C7.44818182,5.19521701 4.5,5.54545455 4.5,5.54545455 C3.99818182,5.54545455 2.925,5.85976789 2.625,6.13636364 C2.325,6.68955513 2,6.57754862 2,8.00000023 C2,9.1926454 2.325,9.40522244 2.625,9.68181818 C2.925,9.95841393 3.86136364,10.005871 4,10 L4,14 C3.99045455,14.4596129 4,15.0051706 5,15.0051708 C6,15.0051711 6.99045455,14.4596129 7,14 C6.99045467,11.5530415 6.4113636,13 6.4113636,10 C7.51363633,10.0524194 9.20045455,10.2542579 10.5,10.4999998 C12.1592649,10.8134598 13.3391007,11.1307764 13.9936927,11.3189939 C14.1969261,10.6851758 14.3877573,9.47651933 14.3877573,7.49999982 C14.3877573,6.08002983 14.1750994,4.70082831 13.5269029,3.23321849 C12.8920417,3.63343608 12.0194046,4.04400588 10.75,4.36363636 Z" id="Shape" sketch:type="MSShapeGroup"></path>
            </g>
        </g>
    </g>
</svg>