<?xml version="1.0" encoding="UTF-8" standalone="no"?>
<svg width="28px" height="28px" viewBox="0 0 28 28" version="1.1" xmlns="http://www.w3.org/2000/svg" xmlns:xlink="http://www.w3.org/1999/xlink" xmlns:sketch="http://www.bohemiancoding.com/sketch/ns">
    <!-- Generator: Sketch 3.0.3 (7891) - http://www.bohemiancoding.com/sketch -->
    <title>Icon_Playlist_plus</title>
    <desc>Created with Sketch.</desc>
    <defs></defs>
    <g id="Assets" stroke="none" stroke-width="1" fill="none" fill-rule="evenodd" sketch:type="MSPage">
        <g id="Style" sketch:type="MSArtboardGroup" transform="translate(-100.000000, -165.000000)">
            <g id="Icon_Playlist_plus" sketch:type="MSLayerGroup" transform="translate(100.000000, 165.000000)">
                <path d="M25.4165,25.4165 C24.449,26.384 22.651,27.9995 14.002,28 C5.349,27.9995 3.551,26.384 2.5835,25.4165 C1.616,24.4485 0,22.651 0,14.0005 C0,5.349 1.6155,3.5515 2.5835,2.5835 C3.551,1.616 5.5845,0 13.999,0 C22.4155,0 24.449,1.616 25.4165,2.5835 C26.384,3.551 27.9995,5.349 28,13.9985 C27.9995,22.651 26.384,24.449 25.4165,25.4165 Z M24.7082272,24.7082272 C23.1874341,26.2290203 20.7627126,26.9996092 14.0019413,27 C7.23728742,26.9996092 4.81256589,26.2290203 3.29177281,24.7082272 C1.77033645,23.1860045 1,20.7621825 1,14.0004996 C1,7.23739345 1.77037074,4.81317488 3.29177281,3.29177281 C4.75889506,1.82465056 7.39985836,1 13.9990008,1 C20.6001416,1 23.2411049,1.82465056 24.7082272,3.29177281 C26.229019,4.81256462 26.9996092,7.23738191 27,13.9985583 C26.9996092,20.7627126 26.2290203,23.1874341 24.7082272,24.7082272 Z" id="Path" fill="#03D67F" sketch:type="MSShapeGroup"></path>
                <path d="M13,15 L9.99539757,15 C9.4556644,15 9,14.5522847 9,14 C9,13.4438648 9.44565467,13 9.99539757,13 L13,13 L13,9.99539757 C13,9.4556644 13.4477153,9 14,9 C14.5561352,9 15,9.44565467 15,9.99539757 L15,13 L18.0046024,13 C18.5443356,13 19,13.4477153 19,14 C19,14.5561352 18.5543453,15 18.0046024,15 L15,15 L15,18.0046024 C15,18.5443356 14.5522847,19 14,19 C13.4438648,19 13,18.5543453 13,18.0046024 L13,15 Z" id="+" fill="#15293C" sketch:type="MSShapeGroup"></path>
            </g>
        </g>
    </g>
</svg>