<?xml version="1.0" encoding="UTF-8" standalone="no"?>
<svg width="20px" height="20px" viewBox="0 0 20 20" version="1.1" xmlns="http://www.w3.org/2000/svg" xmlns:xlink="http://www.w3.org/1999/xlink" xmlns:sketch="http://www.bohemiancoding.com/sketch/ns">
    <!-- Generator: Sketch 3.0.3 (7891) - http://www.bohemiancoding.com/sketch -->
    <title>Icon_Support</title>
    <desc>Created with Sketch.</desc>
    <defs></defs>
    <g id="Assets" stroke="none" stroke-width="1" fill="none" fill-rule="evenodd" sketch:type="MSPage">
        <g id="Style" sketch:type="MSArtboardGroup" transform="translate(-326.000000, -302.000000)" fill="#5C7082">
            <g id="Icon_Support" sketch:type="MSLayerGroup" transform="translate(326.000000, 302.000000)">
                <path d="M20,10 C20,4.4771525 15.5228475,0 10,0 C4.4771525,0 0,4.4771525 0,10 C0,15.5228475 4.4771525,20 10,20 C15.5228475,20 20,15.5228475 20,10 Z M2,10 C2,5.581722 5.581722,2 10,2 C14.418278,2 18,5.581722 18,10 C18,14.418278 14.418278,18 10,18 C5.581722,18 2,14.418278 2,10 Z M9.15076336,12.8932969 L9.15076336,15 L11.2480916,15 L11.2480916,12.8932969 L9.15076336,12.8932969 Z M7,8.37893297 L8.96374046,8.37893297 C8.96374046,8.13269371 8.99045775,7.90241785 9.04389313,7.6880985 C9.09732851,7.47377914 9.17970682,7.2868225 9.29103053,7.12722298 C9.40235425,6.96762346 9.54484646,6.83994576 9.71851145,6.74418605 C9.89217644,6.64842633 10.0992354,6.6005472 10.3396947,6.6005472 C10.6959305,6.6005472 10.9742356,6.70086539 11.1746183,6.90150479 C11.375001,7.10214419 11.4751908,7.4122186 11.4751908,7.83173735 C11.4840967,8.07797661 11.4417944,8.28317291 11.3482824,8.44733242 C11.2547705,8.61149193 11.1323163,8.76196922 10.980916,8.89876881 C10.8295158,9.0355684 10.6647592,9.17236594 10.4866412,9.30916553 C10.3085233,9.44596512 10.1393138,9.6078422 9.97900763,9.79480164 C9.81870149,9.98176108 9.67843572,10.207477 9.55820611,10.4719562 C9.4379765,10.7364354 9.36450395,11.0647495 9.33778626,11.4569083 L9.33778626,12.0725034 L11.1412214,12.0725034 L11.1412214,11.5526676 C11.176845,11.2790684 11.2636762,11.0510725 11.4017176,10.8686731 C11.539759,10.6862736 11.6978363,10.5243965 11.8759542,10.3830369 C12.0540721,10.2416774 12.2433196,10.1003199 12.4437023,9.95896033 C12.644085,9.81760075 12.8266531,9.64660383 12.9914122,9.44596443 C13.1561713,9.24532503 13.2942106,9.00364938 13.4055344,8.72093023 C13.5168581,8.43821108 13.5725191,8.07797756 13.5725191,7.64021888 C13.5725191,7.37573967 13.5168581,7.0907448 13.4055344,6.78522572 C13.2942106,6.47970663 13.109416,6.19471176 12.851145,5.93023256 C12.592874,5.66575335 12.2522286,5.44459733 11.8291985,5.26675787 C11.4061684,5.0889184 10.8785019,5 10.2461832,5 C9.75635887,5 9.31329715,5.08435848 8.91698473,5.25307798 C8.52067232,5.42179747 8.18225331,5.65663324 7.90171756,5.95759234 C7.6211818,6.25855144 7.4029906,6.61422503 7.2471374,7.0246238 C7.09128421,7.43502257 7.0089059,7.88645445 7,8.37893297 Z" id="Oval-1" sketch:type="MSShapeGroup"></path>
            </g>
        </g>
    </g>
</svg>