<?xml version="1.0" encoding="UTF-8" standalone="no"?>
<svg width="17px" height="18px" viewBox="0 0 17 18" version="1.1" xmlns="http://www.w3.org/2000/svg" xmlns:xlink="http://www.w3.org/1999/xlink" xmlns:sketch="http://www.bohemiancoding.com/sketch/ns">
    <!-- Generator: Sketch 3.0.2 (7799) - http://www.bohemiancoding.com/sketch -->
    <title>Icon_Pause_Hover</title>
    <description>Created with Sketch.</description>
    <defs></defs>
    <g id="Assets" stroke="none" stroke-width="1" fill="none" fill-rule="evenodd" sketch:type="MSPage">
        <g id="Style" sketch:type="MSArtboardGroup" transform="translate(-96.000000, -278.000000)" fill="#C2EF66">
            <g id="Icon_Pause_Hover" sketch:type="MSLayerGroup" transform="translate(96.000000, 278.000000)">
                <path d="M0,1.99508929 L0,16.0049107 C0,17.1067681 0.886554837,18 2.00591905,18 L4.99408095,18 C6.10191945,18 7,17.1073772 7,16.0049107 L7,1.99508929 C7,0.893231902 6.11344516,0 4.99408095,0 L2.00591905,0 C0.898080551,0 0,0.892622799 0,1.99508929 Z M14.9940809,2 C15.0055377,2 15,16.0049107 15,16.0049107 C15,16.0000714 12.0059191,16 12.0059191,16 C11.9944623,16 12,1.99508929 12,1.99508929 C12,1.99992861 14.9940809,2 14.9940809,2 Z M4.99408095,2 C5.00553774,2 5,16.0049107 5,16.0049107 C5,16.0000714 2.00591905,16 2.00591905,16 C1.99446226,16 2,1.99508929 2,1.99508929 C2,1.99992861 4.99408095,2 4.99408095,2 Z M10,1.99508929 L10,16.0049107 C10,17.1067681 10.8865548,18 12.0059191,18 L14.9940809,18 C16.1019194,18 17,17.1073772 17,16.0049107 L17,1.99508929 C17,0.893231902 16.1134452,0 14.9940809,0 L12.0059191,0 C10.8980806,0 10,0.892622799 10,1.99508929 Z" id="Rectangle-35" sketch:type="MSShapeGroup"></path>
            </g>
        </g>
    </g>
</svg>