<?xml version="1.0" encoding="UTF-8" standalone="no"?>
<svg width="20px" height="15px" viewBox="0 0 20 15" version="1.1" xmlns="http://www.w3.org/2000/svg" xmlns:xlink="http://www.w3.org/1999/xlink" xmlns:sketch="http://www.bohemiancoding.com/sketch/ns">
    <!-- Generator: Sketch 3.0.2 (7799) - http://www.bohemiancoding.com/sketch -->
    <title>Icon_Video</title>
    <description>Created with Sketch.</description>
    <defs></defs>
    <g id="Assets" stroke="none" stroke-width="1" fill="none" fill-rule="evenodd" sketch:type="MSPage">
        <g id="Style" sketch:type="MSArtboardGroup" transform="translate(-16.000000, -754.000000)" fill="#1E3851">
            <g id="Icon_Video" sketch:type="MSLayerGroup" transform="translate(16.000000, 754.000000)">
                <path d="M12.411,6.69374538 C13.2915,7.12858913 13.0881667,8.03577663 12.411,8.34702663 C12.411,8.34702663 10.82,9.17327663 9.6115,9.77905788 C8.0535,10.5601516 8,9.02468288 8,9.02468288 L8,6.14265163 C8,5.49890163 8.37,4.56780788 9.604,5.22421413 C10.9005,5.91405788 12.411,6.69374538 12.411,6.69374538 Z" id="Path-3" sketch:type="MSShapeGroup"></path>
                <path d="M0,1.99188419 L0,13.0081158 C0,14.1082031 0.898212381,15 1.99079514,15 L18.0092049,15 C19.1086907,15 20,14.1066027 20,13.0081158 L20,1.99188419 C20,0.891796927 19.1017876,0 18.0092049,0 L1.99079514,0 C0.891309342,0 0,0.893397331 0,1.99188419 Z M18.0092049,2 C18.0004276,2 18,13.0081158 18,13.0081158 C18,13.0030789 1.99079514,13 1.99079514,13 C1.9995724,13 2,1.99188419 2,1.99188419 C2,1.99692114 18.0092049,2 18.0092049,2 Z" id="Rectangle-681" sketch:type="MSShapeGroup"></path>
            </g>
        </g>
    </g>
</svg>