<?xml version="1.0" encoding="UTF-8" standalone="no"?>
<svg width="27px" height="22px" viewBox="0 0 27 22" version="1.1" xmlns="http://www.w3.org/2000/svg" xmlns:xlink="http://www.w3.org/1999/xlink" xmlns:sketch="http://www.bohemiancoding.com/sketch/ns">
    <!-- Generator: Sketch 3.0.3 (7891) - http://www.bohemiancoding.com/sketch -->
    <title>Icon_Fullscreen</title>
    <desc>Created with Sketch.</desc>
    <defs></defs>
    <g id="Assets" stroke="none" stroke-width="1" fill="none" fill-rule="evenodd" sketch:type="MSPage">
        <g id="Style" sketch:type="MSArtboardGroup" transform="translate(-15.000000, -711.000000)">
            <g id="Icon_Fullscreen" sketch:type="MSLayerGroup" transform="translate(10.000000, 711.000000)">
                <path d="M8,22 L5,22 L5,12 L11,12 L11,16 L15,16 L15,22 L8,22 L8,22 Z M32,19 L32,22 L22,22 L22,16 L26,16 L26,12 L32,12 L32,19 L32,19 Z M29,0 L32,0 L32,10 L26,10 L26,6 L22,6 L22,0 L29,0 L29,0 Z M5,3 L5,1.77635684e-15 L15,0 L15,6 L11,6 L11,10 L5,10 L5,3 L5,3 Z" id="Rectangle-49" fill-opacity="0.3" fill="#08111A" sketch:type="MSShapeGroup"></path>
                <path d="M7,14 L7,20 L13,20 L13,20 L13,18 L9,18 L9,14 L7,14 Z M7,8 L7,2 L13,2 L13,4 L9,4 L9,8 L7,8 Z M30,14 L30,20 L24,20 L24,20 L24,18 L28,18 L28,14 L30,14 Z M30,8 L30,2 L24,2 L24,4 L28,4 L28,8 L30,8 Z" id="icon-Fullscreen" fill="#FFFFFF" sketch:type="MSShapeGroup"></path>
            </g>
        </g>
    </g>
</svg>