<?xml version="1.0" encoding="UTF-8" standalone="no"?>
<svg width="27px" height="22px" viewBox="0 0 27 22" version="1.1" xmlns="http://www.w3.org/2000/svg" xmlns:xlink="http://www.w3.org/1999/xlink" xmlns:sketch="http://www.bohemiancoding.com/sketch/ns">
    <!-- Generator: Sketch 3.0.2 (7799) - http://www.bohemiancoding.com/sketch -->
    <title>Icon_Fullscreen</title>
    <description>Created with Sketch.</description>
    <defs></defs>
    <g id="Assets" stroke="none" stroke-width="1" fill="none" fill-rule="evenodd" sketch:type="MSPage">
        <g id="Style" sketch:type="MSArtboardGroup" transform="translate(-15.000000, -711.000000)" stroke="#08111A" stroke-opacity="0.3" stroke-width="2" fill="#FFFFFF">
            <g id="Icon_Fullscreen" sketch:type="MSLayerGroup" transform="translate(10.000000, 712.000000)">
                <path d="M7,13 L7,19 L13,19 L13,19 L13,17 L9,17 L9,13 L7,13 Z M7,7 L7,1 L13,1 L13,3 L9,3 L9,7 L7,7 Z M30,13 L30,19 L24,19 L24,19 L24,17 L28,17 L28,13 L30,13 Z M30,7 L30,1 L24,1 L24,3 L28,3 L28,7 L30,7 Z" id="icon-Fullscreen" sketch:type="MSShapeGroup"></path>
            </g>
        </g>
    </g>
</svg>