<?xml version="1.0" encoding="UTF-8" standalone="no"?>
<svg width="20px" height="18px" viewBox="0 0 20 18" version="1.1" xmlns="http://www.w3.org/2000/svg" xmlns:xlink="http://www.w3.org/1999/xlink" xmlns:sketch="http://www.bohemiancoding.com/sketch/ns">
    <!-- Generator: Sketch 3.0.2 (7799) - http://www.bohemiancoding.com/sketch -->
    <title>Icon_Audio</title>
    <description>Created with Sketch.</description>
    <defs>
        <rect id="path-1" x="12" y="0" width="11" height="22"></rect>
    </defs>
    <g id="Assets" stroke="none" stroke-width="1" fill="none" fill-rule="evenodd" sketch:type="MSPage">
        <g id="Style" sketch:type="MSArtboardGroup" transform="translate(-20.000000, -642.000000)">
            <g id="Icon_Audio" sketch:type="MSLayerGroup" transform="translate(20.000000, 641.000000)">
                <path d="M2.00986236,15 C0.889800489,15 0,14.1047419 0,13.000385 L0,6.99961498 C0,5.88743329 0.899846031,5 2.00986236,5 L4.16666667,5 L8.35409317,2.12862183 C9.25345182,1.51191875 10,1.8932319 10,2.99508929 L10,17.0049107 C10,18.1073772 9.26310241,18.4946988 8.35409317,17.8713782 L4.16666667,15 L2.00986236,15 Z M2.01014503,12.8340516 C1.99738322,12.8340516 2.00028313,6.83366659 2.00028313,6.83366659 C2.00028313,6.83227227 4.78666745,6.83405161 4.78666745,6.83405161 L8,4.83405161 L8,14.8340516 L4.78666745,12.8340516 L2.01014503,12.8340516 Z" id="Path-2" fill="#1E3851" sketch:type="MSShapeGroup"></path>
                <mask id="mask-2" sketch:name="Rectangle 44" fill="white">
                    <use xlink:href="#path-1"></use>
                </mask>
                <use id="Rectangle-44" sketch:type="MSShapeGroup" xlink:href="#path-1"></use>
                <path d="M20,10 C20,5.581722 16.418278,2 12,2 C7.581722,2 4,5.581722 4,10 C4,14.418278 7.581722,18 12,18 C16.418278,18 20,14.418278 20,10 Z M18,10 C18,6.6862915 15.3137085,4 12,4 C8.6862915,4 6,6.6862915 6,10 C6,13.3137085 8.6862915,16 12,16 C15.3137085,16 18,13.3137085 18,10 Z M16,10 C16,7.790861 14.209139,6 12,6 C9.790861,6 8,7.790861 8,10 C8,12.209139 9.790861,14 12,14 C14.209139,14 16,12.209139 16,10 Z M14,10 C14,8.8954305 13.1045695,8 12,8 C10.8954305,8 10,8.8954305 10,10 C10,11.1045695 10.8954305,12 12,12 C13.1045695,12 14,11.1045695 14,10 Z" id="Oval-9" fill="#1E3851" sketch:type="MSShapeGroup" mask="url(#mask-2)"></path>
            </g>
        </g>
    </g>
</svg>