<?xml version="1.0" encoding="UTF-8" standalone="no"?>
<svg width="14px" height="14px" viewBox="0 0 14 14" version="1.1" xmlns="http://www.w3.org/2000/svg" xmlns:xlink="http://www.w3.org/1999/xlink" xmlns:sketch="http://www.bohemiancoding.com/sketch/ns">
    <!-- Generator: Sketch 3.0.2 (7799) - http://www.bohemiancoding.com/sketch -->
    <title>Icon_Edit</title>
    <description>Created with Sketch.</description>
    <defs></defs>
    <g id="Assets" stroke="none" stroke-width="1" fill="none" fill-rule="evenodd" sketch:type="MSPage">
        <g id="Style" sketch:type="MSArtboardGroup" transform="translate(-19.000000, -852.000000)" fill="#C7D2DC">
            <g id="Icon_Edit" sketch:type="MSLayerGroup" transform="translate(19.000000, 852.000000)">
                <path d="M9.55617759,0.248502116 L0.26830109,9.54490507 C-0.118422774,9.93221355 0.0266612109,13.9997022 0.0266612109,13.9997022 C0.0266612109,13.9997022 4.18807014,14.0191925 4.46423,13.7428292 L13.7516062,4.44692601 C14.0827979,4.11558985 14.0827979,3.57835551 13.7516062,3.24701936 L10.7548715,0.248502116 C10.4236798,-0.0828340388 9.88686902,-0.0828340388 9.55617759,0.248502116 Z M9.7780888,2.1243845 L2.13415054,9.77757811 C1.94078861,9.97144033 2.01333061,12.0073689 2.01333061,12.0073689 C2.01333061,12.0073689 4.09403507,12.0171245 4.232115,11.8787944 L11.8758031,4.22585099 C12.041399,4.06000498 12.041399,3.79109932 11.8758031,3.62525332 L10.3774357,2.1243845 C10.2118399,1.9585385 9.94343451,1.9585385 9.7780888,2.1243845 Z M9,3 L11,5 L10,6 L8,4 L9,3 Z" id="Path" sketch:type="MSShapeGroup"></path>
            </g>
        </g>
    </g>
</svg>