<?xml version="1.0" encoding="UTF-8" standalone="no"?>
<svg width="28px" height="28px" viewBox="0 0 28 28" version="1.1" xmlns="http://www.w3.org/2000/svg" xmlns:xlink="http://www.w3.org/1999/xlink" xmlns:sketch="http://www.bohemiancoding.com/sketch/ns">
    <!-- Generator: Sketch 3.0.3 (7891) - http://www.bohemiancoding.com/sketch -->
    <title>Icon_Playlist</title>
    <desc>Created with Sketch.</desc>
    <defs></defs>
    <g id="Assets" stroke="none" stroke-width="1" fill="none" fill-rule="evenodd" sketch:type="MSPage">
        <g id="Style" sketch:type="MSArtboardGroup" transform="translate(-100.000000, -131.000000)">
            <g id="Icon_Playlist" sketch:type="MSLayerGroup" transform="translate(100.000000, 131.000000)">
                <path d="M17.9436248,15.693279 C17.9436248,15.693279 15.0784452,17.3455878 12.9020973,18.5570102 C10.0963464,20.119017 10,17.0484347 10,17.0484347 L10,11.2850389 C10,9.99768785 10.6663208,8.13571575 12.8885908,9.44837639 C15.2162134,10.8279043 17.9436248,12.3870989 17.9436248,12.3870989 C19.5292882,13.2566858 19.1631119,15.070851 17.9436248,15.693279 Z M16.5751011,14.1819193 C16.4707061,14.2401074 16.4707061,14.2401074 16.268081,14.3566884 C16.0708025,14.4701182 15.8505217,14.5965428 15.61277,14.7327044 C14.9336284,15.1216524 14.250806,15.5105609 13.6087374,15.8732697 C13.5618827,15.8997344 13.5618827,15.8997344 13.5150205,15.9261876 C13.1334993,16.1415201 12.7790523,16.3403822 12.4570452,16.5196213 C12.2542421,16.632525 12.102052,16.6898552 12.003888,16.7062855 C11.9893516,16.7087186 12.0170087,16.7109049 12.0629831,16.728072 C12.1574281,16.7633383 12.1828449,16.7932113 12.1682499,16.7569029 C12.1186824,16.6335924 12.0946326,16.4783416 12.0929189,16.4237245 L12.0935751,11.8062775 C12.0935751,11.512344 12.1707224,11.2463636 12.2152873,11.1999969 C12.1677027,11.2495054 12.0771998,11.2909899 12.0079429,11.292852 C12.0500967,11.2917187 12.1873573,11.3346379 12.4164798,11.469977 C12.6054995,11.5820063 12.803942,11.6991467 13.0094314,11.8200179 C13.0805112,11.8618169 13.0805112,11.8618169 13.151614,11.9035864 C13.8887106,12.3364885 14.6777617,12.7949702 15.4667166,13.2501074 C15.7427764,13.4093625 15.9991422,13.5568453 16.2292772,13.6889218 C16.4661901,13.8247706 16.4661901,13.8247706 16.5194896,13.855241 L16.5401057,13.8667856 C16.7512868,13.9825986 16.7431672,14.0961381 16.5751011,14.1819193 Z" id="Path" fill="#0C1B29" sketch:type="MSShapeGroup"></path>
                <path d="M25.4165,25.4165 C24.449,26.384 22.651,27.9995 14.002,28 C5.349,27.9995 3.551,26.384 2.5835,25.4165 C1.616,24.4485 0,22.651 0,14.0005 C0,5.349 1.6155,3.5515 2.5835,2.5835 C3.551,1.616 5.5845,0 13.999,0 C22.4155,0 24.449,1.616 25.4165,2.5835 C26.384,3.551 27.9995,5.349 28,13.9985 C27.9995,22.651 26.384,24.449 25.4165,25.4165 Z M24.7082272,24.7082272 C23.1874341,26.2290203 20.7627126,26.9996092 14.0019413,27 C7.23728742,26.9996092 4.81256589,26.2290203 3.29177281,24.7082272 C1.77033645,23.1860045 1,20.7621825 1,14.0004996 C1,7.23739345 1.77037074,4.81317488 3.29177281,3.29177281 C4.75889506,1.82465056 7.39985836,1 13.9990008,1 C20.6001416,1 23.2411049,1.82465056 24.7082272,3.29177281 C26.229019,4.81256462 26.9996092,7.23738191 27,13.9985583 C26.9996092,20.7627126 26.2290203,23.1874341 24.7082272,24.7082272 Z" id="Path" fill="#03D67F" sketch:type="MSShapeGroup"></path>
            </g>
        </g>
    </g>
</svg>