<?xml version="1.0" encoding="UTF-8" standalone="no"?>
<svg width="20px" height="20px" viewBox="0 0 20 20" version="1.1" xmlns="http://www.w3.org/2000/svg" xmlns:xlink="http://www.w3.org/1999/xlink" xmlns:sketch="http://www.bohemiancoding.com/sketch/ns">
    <!-- Generator: Sketch 3.0.2 (7799) - http://www.bohemiancoding.com/sketch -->
    <title>Icon_Options-Playlist</title>
    <description>Created with Sketch.</description>
    <defs></defs>
    <g id="Assets" stroke="none" stroke-width="1" fill="none" fill-rule="evenodd" sketch:type="MSPage">
        <g id="Style" sketch:type="MSArtboardGroup" transform="translate(-266.000000, -277.000000)" fill="#03D67F">
            <g id="Icon_Options-Playlist" sketch:type="MSLayerGroup" transform="translate(266.000000, 277.000000)">
                <path d="M9.604,7.26905696 C10.9005,8.09686946 12.411,9.03249446 12.411,9.03249446 C13.2915,9.55430696 13.0881667,10.642932 12.411,11.016432 C12.411,11.016432 10.82,12.007932 9.6115,12.7348695 C8.0535,13.672182 8,11.8296195 8,11.8296195 L8,8.37118196 C8,7.59868196 8.37,6.48136946 9.604,7.26905696 L9.604,7.26905696 Z" id="Play" sketch:type="MSShapeGroup"></path>
                <path d="M20,10 C20,4.4771525 15.5228475,0 10,0 C4.4771525,0 0,4.4771525 0,10 C0,15.5228475 4.4771525,20 10,20 C15.5228475,20 20,15.5228475 20,10 Z M2,10 C2,5.581722 5.581722,2 10,2 C14.418278,2 18,5.581722 18,10 C18,14.418278 14.418278,18 10,18 C5.581722,18 2,14.418278 2,10 Z" id="Oval-1" sketch:type="MSShapeGroup"></path>
            </g>
        </g>
    </g>
</svg>