<?xml version="1.0" encoding="UTF-8" standalone="no"?>
<svg width="20px" height="20px" viewBox="0 0 20 20" version="1.1" xmlns="http://www.w3.org/2000/svg" xmlns:xlink="http://www.w3.org/1999/xlink" xmlns:sketch="http://www.bohemiancoding.com/sketch/ns">
    <!-- Generator: Sketch 3.0.2 (7799) - http://www.bohemiancoding.com/sketch -->
    <title>Icon_Options-Download</title>
    <description>Created with Sketch.</description>
    <defs></defs>
    <g id="Assets" stroke="none" stroke-width="1" fill="none" fill-rule="evenodd" sketch:type="MSPage">
        <g id="Style" sketch:type="MSArtboardGroup" transform="translate(-236.000000, -277.000000)" fill="#03D67F">
            <g id="Icon_Options-Download" sketch:type="MSLayerGroup" transform="translate(236.000000, 277.000000)">
                <path d="M9,10 L8.17093919,10 C8.17093919,10 6.32858982,10.0428206 7.2657939,11.289821 C7.99264732,12.2570868 8.98403263,13.5304999 8.98403263,13.5304999 C9.35748943,14.0724942 10.4459885,14.2352392 10.9677406,13.5304999 C10.9677406,13.5304999 11.9032574,12.3215178 12.7309742,11.2838181 C13.5185706,10.2961426 12.4013873,10 11.6289766,10 L11,10 L11,7.99980749 C11,7.44762906 10.5561352,7 10,7 C9.44771525,7 9,7.44371665 9,7.99980749 L9,10 Z" id="Play" sketch:type="MSShapeGroup"></path>
                <path d="M20,10 C20,4.4771525 15.5228475,0 10,0 C4.4771525,0 0,4.4771525 0,10 C0,15.5228475 4.4771525,20 10,20 C15.5228475,20 20,15.5228475 20,10 Z M2,10 C2,5.581722 5.581722,2 10,2 C14.418278,2 18,5.581722 18,10 C18,14.418278 14.418278,18 10,18 C5.581722,18 2,14.418278 2,10 Z" id="Oval-1" sketch:type="MSShapeGroup"></path>
            </g>
        </g>
    </g>
</svg>