<?xml version="1.0" encoding="UTF-8" standalone="no"?>
<svg width="11px" height="24px" viewBox="0 0 11 24" version="1.1" xmlns="http://www.w3.org/2000/svg" xmlns:xlink="http://www.w3.org/1999/xlink" xmlns:sketch="http://www.bohemiancoding.com/sketch/ns">
    <!-- Generator: Sketch 3.0.2 (7799) - http://www.bohemiancoding.com/sketch -->
    <title>Lists_Options</title>
    <description>Created with Sketch.</description>
    <defs></defs>
    <g id="Assets" stroke="none" stroke-width="1" fill="none" fill-rule="evenodd" sketch:type="MSPage">
        <g id="Style" sketch:type="MSArtboardGroup" transform="translate(-20.000000, -200.000000)">
            <g id="Lists_Options" sketch:type="MSLayerGroup" transform="translate(20.000000, 200.000000)">
                <rect id="Rectangle" fill="#EFF2F5" sketch:type="MSShapeGroup" x="0" y="0" width="11" height="24" rx="2"></rect>
                <path d="M5.5,13 C6.32842712,13 7,12.3284271 7,11.5 C7,10.6715729 6.32842712,10 5.5,10 C4.67157288,10 4,10.6715729 4,11.5 C4,12.3284271 4.67157288,13 5.5,13 Z M5.5,7 C6.32842712,7 7,6.32842712 7,5.5 C7,4.67157288 6.32842712,4 5.5,4 C4.67157288,4 4,4.67157288 4,5.5 C4,6.32842712 4.67157288,7 5.5,7 Z M5.5,19 C6.32842712,19 7,18.3284271 7,17.5 C7,16.6715729 6.32842712,16 5.5,16 C4.67157288,16 4,16.6715729 4,17.5 C4,18.3284271 4.67157288,19 5.5,19 Z" id="Options" fill="#C7D2DC" sketch:type="MSShapeGroup"></path>
            </g>
        </g>
    </g>
</svg>