<?xml version="1.0" encoding="UTF-8" standalone="no"?>
<svg width="20px" height="12px" viewBox="0 0 20 12" version="1.1" xmlns="http://www.w3.org/2000/svg" xmlns:xlink="http://www.w3.org/1999/xlink" xmlns:sketch="http://www.bohemiancoding.com/sketch/ns">
    <!-- Generator: Sketch 3.0.2 (7799) - http://www.bohemiancoding.com/sketch -->
    <title>Player_Prev</title>
    <description>Created with Sketch.</description>
    <defs></defs>
    <g id="Assets" stroke="none" stroke-width="1" fill="none" fill-rule="evenodd" sketch:type="MSPage">
        <g id="Style" sketch:type="MSArtboardGroup" transform="translate(-20.000000, -356.000000)" fill="#03D67F">
            <g id="Player_Prev" sketch:type="MSLayerGroup" transform="translate(20.000000, 356.000000)">
                <path d="M11,3.56780085 L11,2.34187838 C11,2.34187838 10.8822433,-1.34282036 7.45299216,0.531587804 C4.79301141,1.98529463 1.29112529,3.96806526 1.29112529,3.96806526 C-0.199359025,4.71497885 -0.646907847,6.891977 1.29112529,7.93548129 C1.29112529,7.93548129 4.6158261,9.80651484 7.46950011,11.4619483 C10.1856079,13.0371411 11,10.8027746 11,9.2579533 L11,8.33552457 C12.1299024,8.97422483 14.4210556,10.2736333 16.4695001,11.4619483 C19.1856079,13.0371411 20,10.8027746 20,9.2579533 L20,2.34187838 C20,2.34187838 19.8822433,-1.34282036 16.4529922,0.531587804 C14.527123,1.58409512 12.1599274,2.91393741 11,3.56780085 L11,3.56780085 Z M16.0066255,9.25900111 C15.9293757,9.2142616 15.9293757,9.2142616 15.8521046,9.16954255 C14.9020954,8.6198428 13.8847488,8.03651051 12.8674743,7.45677302 C12.5114841,7.25389675 12.1809037,7.06594546 11.8841819,6.89758616 C11.706021,6.79649803 11.5786392,6.72434903 11.5104903,6.68580903 C10.81235,6.30782879 10.8640088,5.595127 11.4604347,5.29477994 L11.5131602,5.26652891 C11.5704619,5.23392544 11.678911,5.17230608 11.830894,5.08608812 C12.0843925,4.94228179 12.3674264,4.78201333 12.6728995,4.60940604 C13.5455488,4.11631628 14.422956,3.62326081 15.2481914,3.16331196 C15.3084258,3.1297449 15.3084258,3.1297449 15.3686722,3.09619099 C15.8592949,2.822983 16.3151998,2.57061744 16.7295545,2.34305818 C17.5900532,1.87040888 17.6962483,1.90953264 17.8623679,2.31726865 C17.9556454,2.54621575 17.995879,2.80246756 18,2.93204911 L17.9994402,8.79787649 C17.9994402,9.30182682 17.8604792,9.77451712 17.6860942,9.95352686 C17.6497546,9.99083027 17.6329829,9.99841526 17.5793216,9.99983875 C17.4150762,10.0041957 17.1442431,9.92064266 16.7696156,9.70231426 C16.5248883,9.55965048 16.2702249,9.4116942 16.0066255,9.25900111 Z M7.00662553,9.25900111 C6.92937568,9.2142616 6.92937568,9.2142616 6.85210458,9.16954255 C5.90209535,8.6198428 4.8847488,8.03651051 3.86747432,7.45677302 C3.51148414,7.25389675 3.18090374,7.06594546 2.88418192,6.89758616 C2.70602098,6.79649803 2.57863921,6.72434903 2.51049032,6.68580903 C1.81235004,6.30782879 1.86400879,5.595127 2.46043468,5.29477994 L2.51316016,5.26652891 C2.57046186,5.23392544 2.678911,5.17230608 2.83089402,5.08608812 C3.08439251,4.94228179 3.36742642,4.78201333 3.67289948,4.60940604 C4.54554881,4.11631628 5.42295595,3.62326081 6.24819136,3.16331196 C6.30842575,3.1297449 6.30842575,3.1297449 6.36867224,3.09619099 C6.85929487,2.822983 7.31519982,2.57061744 7.72955448,2.34305818 C8.59005316,1.87040888 8.69624826,1.90953264 8.86236787,2.31726865 C8.95564539,2.54621575 8.995879,2.80246756 9,2.93204911 L8.9994402,8.79787649 C8.9994402,9.30182682 8.86047921,9.77451712 8.68609424,9.95352686 C8.64975458,9.99083027 8.63298291,9.99841526 8.57932157,9.99983875 C8.41507622,10.0041957 8.14424306,9.92064266 7.76961562,9.70231426 C7.52488834,9.55965048 7.27022488,9.4116942 7.00662553,9.25900111 Z" id="Path-5" sketch:type="MSShapeGroup"></path>
            </g>
        </g>
    </g>
</svg>