<?xml version="1.0" encoding="UTF-8" standalone="no"?>
<svg width="18px" height="16px" viewBox="0 0 18 16" version="1.1" xmlns="http://www.w3.org/2000/svg" xmlns:xlink="http://www.w3.org/1999/xlink" xmlns:sketch="http://www.bohemiancoding.com/sketch/ns">
    <!-- Generator: Sketch 3.0.4 (8053) - http://www.bohemiancoding.com/sketch -->
    <title>Twitter</title>
    <desc>Created with Sketch.</desc>
    <defs></defs>
    <g id="Website" stroke="none" stroke-width="1" fill="none" fill-rule="evenodd" sketch:type="MSPage">
        <g id="020_Album" sketch:type="MSArtboardGroup" transform="translate(-932.000000, -33.000000)" fill="#55ACEE">
            <g id="Navigation" sketch:type="MSLayerGroup">
                <g id="Social" transform="translate(885.000000, 25.000000)" sketch:type="MSShapeGroup">
                    <path d="M47.4064964,20.5107167 C47.6633016,20.5433572 47.9246133,20.5600555 48.1895535,20.5600555 C49.7274591,20.5600555 51.142873,19.9950221 52.2663083,19.0471245 C50.8298842,19.0185798 49.6176087,17.9967684 49.1999197,16.592597 C49.4003074,16.6338702 49.6059623,16.6559876 49.8174697,16.6559876 C50.1168808,16.6559876 50.4068694,16.612824 50.682344,16.532042 C49.1806066,16.2074014 48.0491534,14.7789071 48.0491534,13.0664783 C48.0491534,13.0516074 48.0491534,13.0367994 48.0493875,13.0220545 C48.4920079,13.2867702 48.9981274,13.4457508 49.5362597,13.4640874 C48.6554667,12.8303073 48.075899,11.748508 48.075899,10.522347 C48.075899,9.87464115 48.2377777,9.26751533 48.5203337,8.74551945 C50.1393542,10.883787 52.5581113,12.290857 55.2862871,12.4382433 C55.2303377,12.1795768 55.2012511,11.9098201 55.2012511,11.632817 C55.2012511,9.68100361 56.6710342,8.09856971 58.4839461,8.09856971 C59.4280626,8.09856971 60.2811736,8.52781113 60.8799957,9.21471082 C61.6277041,9.05617127 62.3302317,8.76202874 62.9644612,8.35704714 C62.7193608,9.18232237 62.1989028,9.87495621 61.5211311,10.3123893 C62.1851496,10.2269443 62.8177989,10.0369614 63.4064964,9.75586251 C62.9663925,10.4646276 62.4098249,11.0871284 61.768514,11.5854316 C61.7748346,11.7369767 61.7779949,11.8894041 61.7779949,12.0426506 C61.7779949,16.713077 58.4762794,22.0985697 52.4384288,22.0985697 C50.5846667,22.0985697 48.8591903,21.5134983 47.4064964,20.5107167 Z" id="Twitter"></path>
                </g>
            </g>
        </g>
    </g>
</svg>