<?xml version="1.0" encoding="utf-8"?>
<!-- Generator: Adobe Illustrator 15.1.0, SVG Export Plug-In . SVG Version: 6.00 Build 0)  -->
<!DOCTYPE svg PUBLIC "-//W3C//DTD SVG 1.1//EN" "http://www.w3.org/Graphics/SVG/1.1/DTD/svg11.dtd">
<svg version="1.1" id="Ebene_1" xmlns="http://www.w3.org/2000/svg" xmlns:xlink="http://www.w3.org/1999/xlink" x="0px" y="0px"
	 width="417.686px" height="389.361px" viewBox="0 0 417.686 389.361" enable-background="new 0 0 417.686 389.361"
	 xml:space="preserve">
<g>
	<g>
		<path fill="#009B5B" d="M171.372,0c81.769,0,163.549,0,245.312,0c0,77.207,0,154.406,0,231.616c-22.108,0-44.218,0-66.326,0
			c0-11.08,0-22.162,0-33.242c6.881,0,14.964,0,22.468,0c5.842,0,10.021,0.294,10.618-5.232c0.657-6.106,0-12.969,0-19.699
			c-0.002-38.978,0.003-79.099,0-118.192c0-6.49,0.349-12.914-0.461-19.084c-0.709-0.932-1.53-1.752-2.463-2.462
			c-6.862-0.815-14.061-0.461-21.237-0.461c-46.638,0-93.722,0-140.973,0c-6.811,0-13.116-1.036-13.85,5.079
			c-0.767,6.367,0.584,16.283,0,22.16c-11.03-0.102-22.47,0.206-33.242-0.153c0-19.956,0-39.911,0-59.867
			C171.205,0.243,171.192,0.025,171.372,0z"/>
		<path fill="#009B5B" d="M71.646,92.8c81.664,0,163.345,0,245.004,0c0.721,76.611,0.104,154.57,0.31,231.771
			c-22.11,0-44.223,0-66.328,0c0-11.08,0-22.16,0-33.241c4.914,0,9.521,0,14.618,0c4.89,0,10.285,0.763,14.312-0.308
			c5.027-1.338,4.155-6.521,4.155-13.235c-0.002-45.958,0.003-91.101,0-137.585c0-6.818,1.082-12.967-4.769-14.004
			c-3.179-0.562-6.901-0.154-10.621-0.154c-50.159,0-99.773,0-150.357,0c-5.583,0-10.909-0.73-12.62,2.771
			c-1.363,2.789-0.616,8.104-0.616,12.004c0,4.475,0,8.527,0,12.619c-11.081,0-22.159,0-33.24,0c0-20.058,0-40.116,0-60.174
			C71.479,93.044,71.468,92.826,71.646,92.8z"/>
		<path fill="#009B5B" d="M-0.839,184.83c72.025,0,144.043,0,216.069,0c-0.103,68.123,0.205,136.666-0.151,204.531
			c-72.027,0-144.044,0-216.072,0c0-68.026,0-136.04,0-204.069C-1.006,185.074-1.02,184.856-0.839,184.83z M32.864,221.15
			c-0.769,1.77-0.616,4.925-0.616,7.693c0,8.382,0,18.121,0,25.086c0,28.804,0,55.56,0,83.722c0,4.818-0.699,13.501,0.77,16.006
			c0.274,0.467,1.09,1.167,1.385,1.385c2.807,2.068,12.072,1.077,17.237,1.077c37.604-0.002,73.426,0.003,110.806,0
			c5.177-0.001,14.51,1.052,17.393-1.077c3.18-2.35,2.154-11.144,2.154-17.391c0-33.983,0-68.021,0-101.573
			c0-4.925,0.624-13.489-1.077-15.852c-2.442-3.39-11.925-2.153-18.775-2.153c-35.947,0-71.481,0-106.805,0
			c-5.922,0-12.846-0.538-18.006,0.153C35.692,218.446,33.789,219.013,32.864,221.15z"/>
	</g>
</g>
</svg>
