<?xml version="1.0" encoding="utf-8"?>
<!-- Generator: Adobe Illustrator 15.1.0, SVG Export Plug-In . SVG Version: 6.00 Build 0)  -->
<!DOCTYPE svg PUBLIC "-//W3C//DTD SVG 1.1//EN" "http://www.w3.org/Graphics/SVG/1.1/DTD/svg11.dtd">
<svg version="1.1" id="Ebene_1" xmlns="http://www.w3.org/2000/svg" xmlns:xlink="http://www.w3.org/1999/xlink" x="0px" y="0px"
	 width="411.268px" height="128.487px" viewBox="-331.753 -143.296 411.268 128.487"
	 enable-background="new -331.753 -143.296 411.268 128.487" xml:space="preserve">
<path fill-rule="evenodd" clip-rule="evenodd" fill="#FFFFFF" d="M-279.433-142.916c0,22.541,0,45.469,0,68.28
	c0,4.629-0.289,9.283,0.12,13.56c0.775,8.104,5.111,13.257,11.64,15.6c8.27,2.967,16.587-0.021,20.88-4.08
	c4.615-4.363,7.849-11.542,6.12-20.16c-1.467-7.31-6.312-12.71-12.72-14.52c-8.227-2.324-14.881,1.068-19.08,5.04
	c-0.146,0.138-0.339,0.748-0.72,0.48c0-5.199,0-10.664,0-16.2c0-3.516-0.099-5.655,2.16-7.2c1.89-1.292,5.024-1.854,7.56-2.16
	c9.406-1.134,18.132,1.5,23.76,4.8c8.007,4.695,14.075,12.405,16.92,21.72c3.487,11.417,1.622,23.516-2.88,32.04
	c-4.436,8.399-11.317,14.747-20.4,18.24c-5.024,1.932-10.453,3.125-16.68,2.76c-16.697-0.981-28.589-11.946-33.72-24.24
	c-1.97-4.719-3.12-10.129-3.12-16.32c0-18.841,0-38.861,0-57.96c-9.479,0.034-16.792,5.023-18.12,13.56
	c-0.456,2.926,0.053,6.343,0.84,9.48c1.349,5.377,3.679,10.903,3.36,17.64c-0.299,6.334-1.369,12.386-6.12,14.88
	c0.497-3.648,1.785-8.535,0.84-13.08c-0.644-3.098-2.62-5.979-4.32-8.76c-4.686-7.667-10.86-17.082-7.92-29.52
	c2.978-12.597,13.88-22.851,28.8-23.88C-294.629-143.44-287.245-142.522-279.433-142.916z"/>
<path fill-rule="evenodd" clip-rule="evenodd" fill="#FFFFFF" d="M-301.512-122.876c0.284-0.276,1.077-0.043,1.56-0.12
	c0,19.76,0,39.52,0,59.28c-0.28-19.48-0.04-39.48-0.12-59.16C-300.552-122.876-301.032-122.876-301.512-122.876z"/>
<path fill-rule="evenodd" clip-rule="evenodd" fill="#FFFFFF" d="M-331.992-113.156c0.078-0.562-0.157-1.437,0.12-1.8
	C-331.95-114.394-331.716-113.519-331.992-113.156z"/>
<path fill-rule="evenodd" clip-rule="evenodd" fill="#FFFFFF" d="M-332.113-114.596c-0.078,0.522,0.156,1.356-0.12,1.68
	C-332.155-113.438-332.389-114.272-332.113-114.596z"/>
<path fill-rule="evenodd" clip-rule="evenodd" fill="#FFFFFF" d="M-331.992-111.596c-0.199-0.168-0.199-1.152,0-1.32
	C-331.992-112.476-331.992-112.036-331.992-111.596z"/>
<path fill-rule="evenodd" clip-rule="evenodd" fill="#FFFFFF" d="M-332.233-111.596c0.276,0.284,0.043,1.077,0.12,1.56
	C-332.388-110.32-332.156-111.113-332.233-111.596z"/>
<path fill-rule="evenodd" clip-rule="evenodd" fill="#FFFFFF" d="M-317.472-105.956c0.273,0.166,0.044,0.835,0.12,1.2
	C-317.626-104.922-317.397-105.591-317.472-105.956z"/>
<path fill-rule="evenodd" clip-rule="evenodd" fill="#FFFFFF" d="M-183.793-105.236c0-0.04,0-0.08,0-0.12
	c0.404,0.076,1.115-0.154,1.32,0.12c-0.4,0-0.8,0-1.2,0C-183.713-105.236-183.753-105.236-183.793-105.236z"/>
<path fill-rule="evenodd" clip-rule="evenodd" fill="#FFFFFF" d="M-145.633-105.236c0-0.04,0-0.08,0-0.12
	c0.365,0.076,1.034-0.153,1.2,0.12c-0.36,0-0.72,0-1.08,0C-145.552-105.236-145.593-105.236-145.633-105.236z"/>
<path fill-rule="evenodd" clip-rule="evenodd" fill="#FFFFFF" d="M-79.993-105.236c-0.365-0.075-1.034,0.154-1.2-0.12
	C-80.828-105.28-80.159-105.509-79.993-105.236z"/>
<path fill-rule="evenodd" clip-rule="evenodd" fill="#FFFFFF" d="M-47.233-105.236c0.166-0.273,0.835-0.044,1.2-0.12
	C-46.199-105.082-46.868-105.311-47.233-105.236z"/>
<path fill-rule="evenodd" clip-rule="evenodd" fill="#FFFFFF" d="M-41.833-105.236c-0.365-0.075-1.034,0.154-1.2-0.12
	C-42.668-105.28-41.999-105.509-41.833-105.236z"/>
<path fill-rule="evenodd" clip-rule="evenodd" fill="#FFFFFF" d="M-260.233-104.876c0.722-0.2,2.278-0.2,3,0
	C-258.233-104.876-259.233-104.876-260.233-104.876z"/>
<path fill-rule="evenodd" clip-rule="evenodd" fill="#FFFFFF" d="M-165.913-97.676c5.303-4.232,11.519-7.862,20.52-7.2
	c8.188,0.603,14.697,4.067,19.08,8.88c4.31,4.733,7.835,11.356,8.04,19.92c0.208,8.674-0.155,18.196,0,27.96
	c-8.231,1.609-14.525,5.795-20.04,9.72c0.196-0.663-0.252-1.622,0-2.4c0.323-0.997,2.308-1.812,3-2.52
	c3.5-3.58,6.05-10.337,3.6-17.04c-1.202-3.286-3.708-5.055-6.6-7.08c-0.045-4.518,0.396-9.124-1.08-12
	c-2.893-5.634-11.88-6.12-15.48-0.84c-1.792,2.629-1.552,5.776-1.56,10.2c-7.199,0.801-13.659,2.34-20.04,3.96
	c0.551-9.928,0.042-17.86-8.64-18c-4.234-0.068-8.179,2.586-9.12,6.96c-0.717,3.332-0.24,7.838-0.24,12.12
	c0,10.104,0,20.465,0,30.72c0,2.079,0.33,4.364,0,5.88c-1.402,6.458-13.201,2.721-20.16,3.72c0-13.518,0-26.951,0-40.44
	c0-4.536-0.234-9.005,0.24-13.2c0.891-7.872,4.281-13.761,8.76-18.24c4.518-4.518,10.853-7.924,18.96-8.4
	C-177.15-105.555-171.212-101.65-165.913-97.676z"/>
<path fill-rule="evenodd" clip-rule="evenodd" fill="#FFFFFF" d="M-63.433-97.676c5.406-4.196,11.566-7.86,20.64-7.2
	c8.29,0.604,14.665,4.093,19.08,9c4.371,4.858,7.797,11.289,8.04,20.04c0.24,8.661-0.179,18.203,0,27.96
	c-4.057,1.366-7.476,3.646-10.32,6.36c-0.929,0.886-1.61,1.981-2.64,2.64c-0.59-3.21-1.947-5.653-4.2-7.2
	c2.265-3.453,6.726-6.796,6.84-12.48c0.108-5.383-4.054-9.12-9.84-9.24c0.898-9.024-0.86-16.32-8.88-16.32
	c-5.071,0-8.748,3.519-9.12,8.64c-0.297,4.081,0,9.726,0,14.4c0,1.645,0.319,3.601,0,4.8c-0.271,1.018-2.515,2.635-3.48,3.6
	c-3.54,3.54-6.821,7.768-9.72,11.52c-0.627-4.293-2.959-6.88-6.84-7.92c0-6.672,0-14.62,0-21.84c0-3.92-0.02-6.941-1.56-9.36
	c-1.947-3.058-6.951-5.014-11.4-2.88c-2.528,1.212-4.718,3.78-5.04,7.44c-0.37,4.204,0,9.992,0,15.72c0,3.527,0,7.777,0,11.76
	c0,1.359,0.263,3.03,0,3.84c-0.287,0.885-2.888,2.281-3.84,3c-2.452,1.851-4.572,3.921-6.24,6.48c-0.366-1.38,0.466-2.263,0.48-3.48
	c0.013-1.115-0.461-2.82-0.84-3.84c-1.409-3.794-5.326-5.953-9.72-6.72c0-7.229,0-14.356,0-20.88c0-7.707,0.405-12.777,2.88-18
	c4.373-9.228,12.756-16.436,25.08-17.16C-74.632-105.55-68.608-101.705-63.433-97.676z"/>
<path fill-rule="evenodd" clip-rule="evenodd" fill="#FFFFFF" d="M-262.273-104.756c0.206-0.274,0.916-0.044,1.32-0.12
	C-261.158-104.601-261.868-104.832-262.273-104.756z"/>
<path fill-rule="evenodd" clip-rule="evenodd" fill="#FFFFFF" d="M-255.313-104.756c-0.365-0.075-1.034,0.154-1.2-0.12
	C-256.148-104.801-255.479-105.029-255.313-104.756z"/>
<path fill-rule="evenodd" clip-rule="evenodd" fill="#FFFFFF" d="M-256.393-104.636c0.444,0.077,1.196-0.155,1.44,0.12
	C-255.396-104.592-256.148-104.36-256.393-104.636z"/>
<path fill-rule="evenodd" clip-rule="evenodd" fill="#FFFFFF" d="M-313.153-86.636c0.273,0.167,0.045,0.835,0.12,1.2
	C-313.306-85.602-313.077-86.271-313.153-86.636z"/>
<path fill-rule="evenodd" clip-rule="evenodd" fill="#FFFFFF" d="M-313.273-85.436c0.279,0.641,0.041,1.799,0.12,2.64
	c0,0.04,0,0.08,0,0.12c-0.04,0-0.08,0-0.12,0C-313.273-83.596-313.273-84.516-313.273-85.436z"/>
<path fill-rule="evenodd" clip-rule="evenodd" fill="#FFFFFF" d="M-259.992-84.476c0.642-0.2,2.118-0.2,2.76,0
	C-258.153-84.476-259.073-84.476-259.992-84.476z"/>
<path fill-rule="evenodd" clip-rule="evenodd" fill="#FFFFFF" d="M-185.953-83.636c0.207-0.199,1.233-0.199,1.44,0
	C-184.993-83.636-185.473-83.636-185.953-83.636z"/>
<path fill-rule="evenodd" clip-rule="evenodd" fill="#FFFFFF" d="M-148.033-83.636c0.207-0.199,1.233-0.199,1.44,0
	C-147.073-83.636-147.552-83.636-148.033-83.636z"/>
<path fill-rule="evenodd" clip-rule="evenodd" fill="#FFFFFF" d="M-83.353-83.636c0.207-0.199,1.233-0.199,1.44,0
	C-82.393-83.636-82.873-83.636-83.353-83.636z"/>
<path fill-rule="evenodd" clip-rule="evenodd" fill="#FFFFFF" d="M-45.433-83.636c0.207-0.199,1.233-0.199,1.44,0
	C-44.473-83.636-44.953-83.636-45.433-83.636z"/>
<path fill-rule="evenodd" clip-rule="evenodd" fill="#FFFFFF" d="M-313.153-82.676c0-0.04,0-0.08,0-0.12c0.04,0,0.08,0,0.12,0
	c-0.078,0.602,0.157,1.518-0.12,1.92C-313.153-81.476-313.153-82.076-313.153-82.676z"/>
<path fill-rule="evenodd" clip-rule="evenodd" fill="#FFFFFF" d="M-313.273-82.556c-0.078,0.642,0.158,1.598-0.12,2.04
	C-313.314-81.158-313.55-82.113-313.273-82.556z"/>
<path fill-rule="evenodd" clip-rule="evenodd" fill="#FFFFFF" d="M-319.032-79.436c0.2,1.201,0.2,3.239,0,4.44
	C-319.032-76.476-319.032-77.956-319.032-79.436z"/>
<path fill-rule="evenodd" clip-rule="evenodd" fill="#FFFFFF" d="M-318.793-79.316c0.2,1.121,0.2,3.079,0,4.2
	C-318.793-76.516-318.793-77.916-318.793-79.316z"/>
<path fill-rule="evenodd" clip-rule="evenodd" fill="#FFFFFF" d="M-214.873-77.996c0,0.36,0,0.72,0,1.08c0,0.04,0,0.08,0,0.12
	c-0.04,0-0.08,0-0.12,0C-214.917-77.161-215.146-77.83-214.873-77.996z"/>
<path fill-rule="evenodd" clip-rule="evenodd" fill="#FFFFFF" d="M-117.913-76.796c0.2,9.32,0.2,19.48,0,28.8
	C-117.913-57.596-117.913-67.196-117.913-76.796z"/>
<path fill-rule="evenodd" clip-rule="evenodd" fill="#FFFFFF" d="M-214.993-76.196c0,17.2,0,34.4,0,51.6
	C-215.193-41.516-215.193-59.276-214.993-76.196z"/>
<path fill-rule="evenodd" clip-rule="evenodd" fill="#FFFFFF" d="M-53.473-55.916c0.08-6.56-0.16-13.439,0.12-19.8
	C-53.433-69.156-53.193-62.276-53.473-55.916z"/>
<path fill-rule="evenodd" clip-rule="evenodd" fill="#FFFFFF" d="M-194.113-75.356c0-0.04,0-0.08,0-0.12c0.04,0,0.08,0,0.12,0
	c-0.08,9.4,0.16,19.12-0.12,28.32C-194.113-56.556-194.113-65.956-194.113-75.356z"/>
<path fill-rule="evenodd" clip-rule="evenodd" fill="#FFFFFF" d="M-74.353-75.476c0.28,8.6,0.04,17.72,0.12,26.52
	C-74.513-57.556-74.273-66.676-74.353-75.476z"/>
<path fill-rule="evenodd" clip-rule="evenodd" fill="#FFFFFF" d="M-220.633-68.396c0.273,0.167,0.044,0.835,0.12,1.2
	C-220.786-67.362-220.557-68.031-220.633-68.396z"/>
<path fill-rule="evenodd" clip-rule="evenodd" fill="#FFFFFF" d="M-240.552-67.316c0.276,0.284,0.043,1.077,0.12,1.56
	c-0.04,0-0.08,0-0.12,0c0-0.04,0-0.08,0-0.12C-240.552-66.356-240.552-66.836-240.552-67.316z"/>
<path fill-rule="evenodd" clip-rule="evenodd" fill="#FFFFFF" d="M-220.512-66.356c0.2,0.762,0.2,2.358,0,3.12
	C-220.512-64.276-220.512-65.316-220.512-66.356z"/>
<path fill-rule="evenodd" clip-rule="evenodd" fill="#FFFFFF" d="M-240.673-65.876c0.04,0,0.08,0,0.12,0c0,0.04,0,0.08,0,0.12
	c-0.078,0.602,0.157,1.518-0.12,1.92C-240.673-64.516-240.673-65.196-240.673-65.876z"/>
<path fill-rule="evenodd" clip-rule="evenodd" fill="#FFFFFF" d="M-240.433-65.636c0.199,0.285,0.199,1.395,0,1.68
	C-240.433-64.516-240.433-65.076-240.433-65.636z"/>
<path fill-rule="evenodd" clip-rule="evenodd" fill="#E1E1E1" d="M-156.673-62.876c7.651-0.323,16.327-0.196,18.84,6.48
	c0,0.04,0,0.08,0,0.12c0.554,3.198-0.812,5.622-2.28,7.32c-4.611,5.335-15.219,7.48-23.76,9.12c-1.146,0.22-2.562,0.337-3.24,1.44
	c1.763,0.357,3.618,0.622,5.52,0.84c0.154,0.165,0.521,0.119,0.84,0.12c1.286,0.354,2.712,0.568,4.08,0.84c0.04,0,0.08,0,0.12,0
	c3.601,1.611,9.305,2.227,10.2,6.12c0.648,2.82-2.296,5.96-4.44,7.68c-5.566,4.466-15.059,7.32-22.92,7.32
	c-4.301,0-9.48-1.756-10.44-5.88c-0.894-3.842,1.513-6.557,3.36-9.12c1.335-1.854,2.649-3.571,3.84-5.4
	c-1.773-0.292-6.144-0.204-6.12-2.64c0.021-2.074,4.703-2.823,7.2-3.24c1.536-0.257,2.67,0.016,3.96-0.48
	c0.991-0.381,2.089-1.849,3.12-2.88c3.065-3.065,6.285-6.117,10.92-7.08c0.782,0.16,0.863-0.112,1.68-0.12
	c0.425,1.096-1.623,3.483-2.52,4.56c-1.267,1.521-2.498,2.711-3.24,3.96c4.984-0.732,9.347-1.444,13.44-3.48
	c1.818-0.904,4.942-2.807,4.8-4.8c-0.288-4.039-9.202-3.849-12.48-2.76c-0.04,0-0.08,0-0.12,0c-5.615,0.905-10.666,2.375-15.48,4.08
	c-0.272,0.459,0.41,0.761,0.24,1.44c-0.425,1.704-5.655,1.862-7.44,2.4c-1.324,0.399-2.331,0.734-3.72,1.2
	c-1.601,0.538-4.398,1.519-4.56-0.84c-0.125-1.826,2.326-4.764,3.24-6c2.225-3.009,3.877-4.603,7.56-6.12
	c3.052-1.257,6.715-1.75,10.2-2.76c0.04,0,0.08,0,0.12,0c1.025-0.175,2.113-0.287,3-0.6c0.04,0,0.08,0,0.12,0
	c0.734-0.067,1.454-0.146,2.04-0.36c0.04,0,0.08,0,0.12,0c1.071-0.049,1.967-0.273,3-0.36
	C-157.393-62.716-157.207-62.97-156.673-62.876z M-164.353-34.196c-2.337-0.298-6.583-1.337-7.44,0.96c0,0.04,0,0.08,0,0.12
	c-1.033,0.847-1.831,1.93-2.76,2.88c-0.748,0.893-1.625,1.655-1.92,3c-0.327,0.335,0.01,1.024,0.24,1.2c0,0.04,0,0.08,0,0.12
	c2.286,3.958,11.183,3.282,14.64,0.84c0.04,0,0.08,0,0.12,0c0.8-0.24,1.562-0.518,2.16-0.96c0.958-0.242,1.593-0.807,2.4-1.2
	c1.417-0.399,3.201-1.428,3.12-3.72c-0.926-1.58-2.695-1.611-4.56-2.16c-0.523-0.157-0.998-0.363-1.68-0.36
	c-1.224-0.417-2.68-0.6-4.2-0.72C-164.273-34.196-164.313-34.196-164.353-34.196z"/>
<path fill-rule="evenodd" clip-rule="evenodd" fill="#FFFFFF" d="M-299.952-62.756c0.274,0.206,0.044,0.916,0.12,1.32
	C-300.107-61.641-299.877-62.352-299.952-62.756z"/>
<path fill-rule="evenodd" clip-rule="evenodd" fill="#FFFFFF" d="M-299.713-62.636c0.276,0.284,0.043,1.077,0.12,1.56
	C-299.868-61.36-299.635-62.153-299.713-62.636z"/>
<path fill-rule="evenodd" clip-rule="evenodd" fill="#FFFFFF" d="M-220.633-61.196c0.075-0.365-0.154-1.034,0.12-1.2
	C-220.588-62.031-220.359-61.362-220.633-61.196z"/>
<path fill-rule="evenodd" clip-rule="evenodd" fill="#E1E1E1" d="M-66.073-28.196c3.103-6.822,7.608-13.06,13.2-18.6
	c3.763-3.728,8.071-7.817,12.72-11.04c1.514-1.049,4.222-2.705,5.52-2.76c0.04,0,0.08,0,0.12,0c2.953,1.1,0.332,5.047-1.2,6.72
	c-3.667,4.005-7.372,8.211-11.04,11.88c-4.576,4.576-8.752,8.993-13.32,13.56c-0.654,0.655-1.401,1.347-1.32,2.4
	c0.998-0.253,1.706-1.219,2.52-1.92c3.981-3.426,8.439-6.865,13.08-9.96c1.969-1.313,5.133-3.563,7.44-3
	c1.5,0.366,1.86,1.626,2.76,2.76c0,0.04,0,0.08,0,0.12c0,0.479,0.24,0.72,0.24,1.2c-0.322,0.503,0.028,1.207,0,1.8
	c-2.182,6.138-8.549,8.09-13.68,11.28c0.967,1.85,2.675,3.327,5.16,2.88c4.223-0.76,8.215-5.781,11.52-7.56
	c0.167,0.074,0.018,0.462,0.24,0.48c-0.038,0.278,0.02,0.461,0.12,0.6c0.019,0.662,0.261,1.1,0.36,1.68c0,0.04,0,0.08,0,0.12
	c-2.083,1.558-4.316,3.898-6.84,5.88c-2.37,1.861-5.133,4.009-7.92,4.68c-5.487,1.321-8.43-4.653-10.92-8.04
	c-1.309,0.702-2.064,1.837-3,3.24c-0.721,1.081-1.446,3.25-3,3.24c-1.572-0.01-2.128-2.159-2.52-3.72
	c-0.618-2.462-0.82-4.398-0.48-6.96C-66.206-27.529-66.033-27.756-66.073-28.196z M-48.673-31.436c-1.927,1.264-3.849,2.651-4.8,4.2
	c0.761,0.599,1.755,0.964,2.52,1.56c1.708-1.176,3.513-2.377,5.28-3.6c1.659-1.148,3.974-2.249,4.32-4.68
	C-43.817-34.736-46.675-32.746-48.673-31.436z"/>
<path fill-rule="evenodd" clip-rule="evenodd" fill="#E1E1E1" d="M58.727-25.196c-1.018,0.228-1.761,1.232-2.64,2.04
	c-0.786,0.722-1.641,1.526-2.52,2.28c-1.728,1.481-4.73,4.338-7.08,3.72c-2.214-0.583-4.12-5.126-4.32-7.68
	c-0.436-5.569,4.083-9.238,7.68-11.64c1.659-1.108,3.594-2.011,5.76-2.88c1.901-0.763,4.865-1.962,6.48-1.56
	c0.932,0.232,1.289,1.187,2.16,1.68c3.469-5.394,5.163-11.981,9.96-16.2c1.732-1.524,4.886-2.409,5.28,0.72
	c0.327,2.599-2.235,5.635-3.48,7.56c-2.95,4.562-5.655,8.666-8.64,13.44c-1.852,2.963-3.542,6.164-3.24,9.84
	c0.397,4.821,5.556,0.508,7.2-0.72c1.875-1.399,3.226-2.617,5.04-3.72c1.422,2.194-1.133,3.893-2.64,5.4
	c-2.281,2.281-4.449,4.242-7.32,5.88c-1.348,0.769-3.636,1.705-5.16,1.44C57.596-16.231,58.131-22.047,58.727-25.196z
	 M61.487-35.036c-3.506,1.361-9.089,2.831-11.64,5.64c-0.683,0.753-3.148,5.654-1.08,6.24c1.187,0.336,3.572-1.779,4.08-2.16
	c2.666-1.998,4.53-3.771,6.6-6c0.975-1.049,2.354-2.266,2.16-3.72C61.567-35.036,61.527-35.036,61.487-35.036z"/>
<path fill-rule="evenodd" clip-rule="evenodd" fill="#FFFFFF" d="M-194.113-46.316c0.28,5.28,0.04,11.08,0.12,16.56
	C-194.273-35.036-194.033-40.836-194.113-46.316z"/>
<path fill-rule="evenodd" clip-rule="evenodd" fill="#FFFFFF" d="M-258.673-44.756c-0.881,0.2-2.599,0.2-3.48,0
	C-260.992-44.756-259.833-44.756-258.673-44.756z"/>
<path fill-rule="evenodd" clip-rule="evenodd" fill="#E1E1E1" d="M-96.553-29.156c1.083-3.729,4.254-6.065,8.28-8.64
	c1.763-1.127,3.364-2.086,5.4-3c3.048-1.368,8.112-2.92,9,0.84c-0.084,2.502-1.171,4.399-2.88,6.36
	c-2.124,2.438-5.833,5.488-6.72,0.48c-1.597,0.806-2.777,1.958-4.32,3.12c-1.342,1.011-3.305,1.996-3.84,3.6
	c-1.259,3.774,2.978,5.267,6,5.04c5.51-0.414,10.376-5.805,14.04-7.8c0.085,0.555,0.243,1.038,0.48,1.44c0,0.04,0,0.08,0,0.12
	c0.904,1.332-1.832,3.146-3.12,4.32c-3.282,2.992-7.918,6.837-12.84,7.68c-6.297,1.079-9.251-3.491-9.84-9.24
	c-0.159-1.548,0.189-2.639,0.36-4.2C-96.553-29.076-96.553-29.116-96.553-29.156z"/>
<path fill-rule="evenodd" clip-rule="evenodd" fill="#E1E1E1" d="M-26.473-27.116c0.708-2.749,2.031-5.274,4.08-7.68
	c3.233-3.796,8.295-7.266,14.28-7.2c1.46,0.017,3.35,0.309,4.2,1.44c1.547,2.058-0.351,5.32-1.56,6.72
	c-3.171,3.669-9.348,5.994-14.04,7.8c0.184,0.589-0.386,1.045-0.12,1.32c0,0.04,0,0.08,0,0.12c-0.913,2.44,2.579,3.691,4.8,3.48
	c5.547-0.527,9.676-5.637,13.32-7.68c1.45,2.62-0.859,4.034-2.76,5.76c-3.305,3-7.695,6.509-12.36,7.56
	c-2.964,0.667-6.248-0.182-7.92-2.28c-1.503-1.886-2.24-5.633-2.04-8.16C-26.633-26.396-26.379-26.582-26.473-27.116z
	 M-18.913-29.756c2.944-1.008,5.439-2.361,7.44-4.32c0.993-0.972,2.742-2.422,1.92-3.96C-14.334-37.414-16.903-33.547-18.913-29.756
	z"/>
<path fill-rule="evenodd" clip-rule="evenodd" fill="#E1E1E1" d="M-103.033-27.116c0.025,0.735,0.283,1.237,0.36,1.92
	c-2.654,2.589-6.83,6.294-10.44,8.52c-1.219,0.751-3.042,1.867-4.32,2.04c-6.302,0.851-3.112-8.234-1.56-10.92
	c-2.911,1.703-6.245,5.007-9.36,7.2c-1.005,0.708-2.607,1.91-3.6,2.04c-1.811,0.237-3.525-2.055-4.44-3.36
	c-1.042-1.486-2.025-3.52-2.04-5.16c-0.037-4.24,4.476-7.824,7.68-10.08c3.458-2.434,8.303-4.991,12-5.88
	c4.285-1.03,8.834-1.91,10.2,2.16c0,0.04,0,0.08,0,0.12c-0.192,1.087-1.259,1.3-2.04,1.8c1.008,0.59,1.639,1.649,1.56,3
	c0,0.04,0,0.08,0,0.12c-0.491,1.52-1.967,3.158-3.36,4.68c-1.197,1.308-5.067,7.074-0.12,6.72c2.376-0.17,4.895-2.479,6.6-3.72
	c0.961-0.699,1.739-1.73,2.76-1.68c-0.01,0.17-0.02,0.34,0.12,0.36C-103.033-27.196-103.033-27.156-103.033-27.116z
	 M-130.993-27.356c-0.82,0.597-1.607,2.261-2.28,3.24c-0.002,0.002-0.13,0.284-0.12,0.24c-0.883,3.795,2.747,2.65,4.32,1.68
	c1.113-0.686,1.666-1.419,2.64-1.92c0.131-0.269,0.199-0.602,0.36-0.84c2.808-2.072,5.158-4.602,7.68-6.96
	c1.417-0.703,2.413-1.827,3.24-3.12c-1.42,0.14-2.544,0.576-3.36,1.32c-1.035,0.205-1.88,0.6-2.76,0.96
	c-1.277,0.443-2.545,0.896-3.6,1.56c-1.606,0.554-2.886,1.434-4.2,2.28c-0.671,0.449-1.333,0.906-1.8,1.56
	C-130.913-27.356-130.953-27.356-130.993-27.356z"/>
<path fill-rule="evenodd" clip-rule="evenodd" fill="#E1E1E1" d="M23.327-31.196c-4.352,2.85-7.045,6.086-10.2,9.96
	c-0.933,1.145-1.877,2.552-3.12,3.6c-4.495,3.792-6.796-3.167-6-7.44c0.451-2.418,1.728-5.095,3.36-7.56
	c1.586-2.395,3.695-5.101,5.16-5.76c1.488-0.67,5.43-0.38,5.76,0.84c0.3,1.111-1.19,2.591-1.8,3.36
	c-0.888,1.119-1.567,1.988-2.28,2.76c-1.795,1.945-3.814,3.001-4.44,5.76c1.377,0.841,2.134-0.811,2.76-1.56
	c4.178-5.006,9.913-9.303,15.96-12.84c0.939-0.549,2.423-1.597,3.24-1.32c1.062,0.36,2.097,3.561,1.92,5.04
	c-0.209,1.748-2.44,3.491-3.96,5.16c-1.59,1.746-3.266,3.233-3.96,5.04c-0.384,0.999-0.606,2.685,0.24,3.12
	c1.493,0.767,4.956-1.99,5.76-2.64c1.514-1.223,3.076-2.874,4.68-3.84c0.333,0.706,0.275,1.805,0.6,2.52
	c-1.947,2.241-4.279,4.552-6.84,6.84c-2.305,2.06-6.071,5.625-9.6,4.8c-1.805-0.421-2.861-2.25-2.88-4.32
	C17.643-24.416,21.65-27.769,23.327-31.196z"/>
<path fill-rule="evenodd" clip-rule="evenodd" fill="#E1E1E1" d="M61.607-35.036c0.194,1.454-1.186,2.671-2.16,3.72
	c-2.07,2.229-3.935,4.002-6.6,6c-0.508,0.381-2.893,2.497-4.08,2.16c-2.069-0.586,0.396-5.487,1.08-6.24
	c2.551-2.809,8.134-4.279,11.64-5.64C61.527-35.036,61.567-35.036,61.607-35.036z M61.247-34.796c-3.744,1.621-9.768,2.926-12,6.6
	c-0.458,0.752-1.723,3.86-0.48,4.68c0.903,0.596,3.179-1.512,3.72-1.92c3.705-2.792,7.072-5.358,9.12-9.36c-0.08,0-0.16,0-0.24,0
	C61.327-34.796,61.287-34.796,61.247-34.796z"/>
<path fill-rule="evenodd" clip-rule="evenodd" fill="#E1E1E1" d="M-41.353-33.956c-0.346,2.432-2.661,3.532-4.32,4.68
	c-1.767,1.223-3.573,2.424-5.28,3.6c-0.765-0.596-1.759-0.961-2.52-1.56c0.951-1.549,2.874-2.937,4.8-4.2
	C-46.675-32.746-43.817-34.736-41.353-33.956z M-48.193-31.556c-1.877,1.205-3.778,2.597-5.04,4.32
	c0.827,0.373,1.517,0.883,2.28,1.32c1.416-0.966,2.903-1.945,4.44-3c1.938-1.33,4.503-2.539,4.92-5.04
	C-44.186-34.107-46.41-32.7-48.193-31.556z"/>
<path fill-rule="evenodd" clip-rule="evenodd" fill="#FFFFFF" d="M-262.273-24.356c1.32,0,2.64,0,3.96,0
	C-259.354-24.156-261.232-24.156-262.273-24.356z"/>
<path fill-rule="evenodd" clip-rule="evenodd" fill="#FFFFFF" d="M-315.432-139.436c0.378-0.422,0.982-0.618,1.56-0.84
	C-314.311-139.914-314.927-139.73-315.432-139.436z"/>
<path fill-rule="evenodd" clip-rule="evenodd" fill="#FFFFFF" d="M-324.673-132.236c0.95-1.05,1.95-2.05,3-3
	C-322.623-134.186-323.623-133.186-324.673-132.236z"/>
<path fill-rule="evenodd" clip-rule="evenodd" fill="#FFFFFF" d="M-329.472-124.796c0.222-0.578,0.418-1.181,0.84-1.56
	C-328.927-125.851-329.111-125.234-329.472-124.796z"/>
<path fill-rule="evenodd" clip-rule="evenodd" fill="#FFFFFF" d="M-317.952-68.276c0.35-0.45,0.75-0.85,1.2-1.2
	C-317.102-69.025-317.502-68.625-317.952-68.276z"/>
<path fill-rule="evenodd" clip-rule="evenodd" fill="#FFFFFF" d="M-313.873-116.996c0.47-0.57,0.99-1.09,1.56-1.56
	C-312.782-117.985-313.302-117.466-313.873-116.996z"/>
<path fill-rule="evenodd" clip-rule="evenodd" fill="#FFFFFF" d="M-309.673-120.356c0.247-0.394,0.822-0.458,1.2-0.72
	C-308.719-120.682-309.294-120.618-309.673-120.356z"/>
<path fill-rule="evenodd" clip-rule="evenodd" fill="#FFFFFF" d="M-296.233-47.516c0.481,0.679,0.786,1.534,1.2,2.28
	C-295.577-45.852-295.888-46.7-296.233-47.516z"/>
<path fill-rule="evenodd" clip-rule="evenodd" fill="#FFFFFF" d="M-289.633-37.436c1.05,0.95,2.05,1.95,3,3
	C-287.683-35.386-288.683-36.386-289.633-37.436z"/>
<path fill-rule="evenodd" clip-rule="evenodd" fill="#FFFFFF" d="M-231.793-36.596c0.39-0.49,0.83-0.93,1.32-1.32
	C-230.863-37.426-231.302-36.985-231.793-36.596z"/>
<path fill-rule="evenodd" clip-rule="evenodd" fill="#FFFFFF" d="M-233.233-95.156c0.85,0.75,1.65,1.55,2.4,2.4
	C-231.683-93.506-232.483-94.306-233.233-95.156z"/>
<path fill-rule="evenodd" clip-rule="evenodd" fill="#FFFFFF" d="M-273.673-97.556c0.36,6.32-0.12,13.479,0.24,19.8
	C-273.989-83.855-273.516-90.994-273.673-97.556z"/>
<path fill-rule="evenodd" clip-rule="evenodd" fill="#FFFFFF" d="M-272.593-78.476c0.59-0.69,1.23-1.33,1.92-1.92
	C-271.262-79.706-271.903-79.065-272.593-78.476z"/>
<path fill-rule="evenodd" clip-rule="evenodd" fill="#FFFFFF" d="M-251.233-83.036c0.5,0.18,1.02,0.34,1.32,0.72
	C-250.338-82.571-250.875-82.713-251.233-83.036z"/>
<path fill-rule="evenodd" clip-rule="evenodd" fill="#FFFFFF" d="M-248.113-81.236c0.425,0.335,0.914,0.606,1.2,1.08
	C-247.296-80.533-247.807-80.782-248.113-81.236z"/>
<path fill-rule="evenodd" clip-rule="evenodd" fill="#FFFFFF" d="M-244.633-77.636c0.45,0.31,0.668,0.852,0.96,1.32
	C-244.092-76.656-244.295-77.214-244.633-77.636z"/>
<path fill-rule="evenodd" clip-rule="evenodd" fill="#FFFFFF" d="M-247.393-49.556c0.55-0.65,1.15-1.25,1.8-1.8
	C-246.142-50.706-246.742-50.105-247.393-49.556z"/>
<path fill-rule="evenodd" clip-rule="evenodd" fill="#FFFFFF" d="M-250.153-47.516c0.34-0.419,0.898-0.622,1.32-0.96
	C-249.142-48.026-249.685-47.808-250.153-47.516z"/>
<path fill-rule="evenodd" clip-rule="evenodd" fill="#FFFFFF" d="M-278.953-61.796c-0.28-26.88-0.04-54.279-0.12-81.36
	c-7.32-0.28-15.16-0.04-22.68-0.12c7.28-0.2,15.4-0.2,22.68,0C-278.793-116.356-279.032-88.916-278.953-61.796z"/>
<path fill-rule="evenodd" clip-rule="evenodd" fill="#FFFFFF" d="M-313.873-140.276c3.407-1.393,6.95-2.65,11.52-2.88
	c-16.454,2.345-26.469,11.131-29.4,27c-0.033,0.407,0.093,0.973-0.12,1.2c-0.277,0.363-0.042,1.237-0.12,1.8c0,0.08,0,0.16,0,0.24
	c-0.199,0.168-0.199,1.152,0,1.32c0,0.08,0,0.16,0,0.24c-0.013,0.973-0.009,1.929,0.24,2.64c0,0.04,0,0.08,0,0.12
	c1.392,8.621,5.32,14.308,9.24,20.64c1.647,2.662,3.18,4.978,3.72,8.521c0,0.04,0,0.08,0,0.12c0,1.4,0,2.8,0,4.2
	c0,0.04,0,0.08,0,0.12c-0.374,2.707-0.588,5.572-1.32,7.92c0.655,0.125,1.002-0.595,1.44-0.96c3.076-2.567,5.208-6.586,5.28-12.36
	c0-0.04,0-0.08,0-0.12c0.278-0.442,0.042-1.398,0.12-2.04c0-0.04,0-0.08,0-0.12c0.04,0,0.08,0,0.12,0c0,0.6,0,1.2,0,1.8
	c-0.356,4.645-1.36,8.64-3.6,11.4c-0.45,0.35-0.85,0.75-1.2,1.2c-0.909,0.372-1.25,1.311-2.28,1.56
	c0.518-2.643,1.128-5.192,1.2-8.28c0.2-1.201,0.2-3.239,0-4.44c-0.283-3.621-2.161-6.024-3.84-8.76
	c-3.98-6.485-8.041-12.507-9.24-21.84c-0.077-0.483,0.156-1.276-0.12-1.56c0-0.44,0-0.88,0-1.32c0.276-0.323,0.042-1.157,0.12-1.68
	c0.356-3.924,1.355-7.205,2.64-10.2c0.362-0.438,0.545-1.055,0.84-1.56c1.061-2.219,2.586-3.974,3.96-5.88c1.05-0.95,2.05-1.95,3-3
	c1.985-1.495,3.925-3.035,6.24-4.2C-314.927-139.73-314.311-139.914-313.873-140.276z"/>
<path fill-rule="evenodd" clip-rule="evenodd" fill="#FFFFFF" d="M-331.753-116.156c2.931-15.869,12.946-24.655,29.4-27
	c0.04,0,0.08,0,0.12,0c6.651,0,13.242,0,20.16,0c0.514,0,2.701-0.178,2.88,0c0.267,0.267,0,3.833,0,5.04c0,25.246,0,51.753,0,76.2
	c-0.28-26.8-0.04-54.12-0.12-81.12c-7,0-13.733,0-19.8,0c-6.232,0-11.592,1.329-16.08,3.72
	C-323.727-134.769-329.858-127.165-331.753-116.156z"/>
<path fill-rule="evenodd" clip-rule="evenodd" fill="#FFFFFF" d="M-331.753-116.156c1.895-11.009,8.026-18.613,16.56-23.16
	c4.488-2.391,9.848-3.72,16.08-3.72c6.066,0,12.799,0,19.8,0c0.08,27-0.16,54.32,0.12,81.12c0,0.04,0,0.08,0,0.12
	c0.734,10.673,8.205,18.297,20.4,17.4c10.508-0.773,17.55-8.84,18.36-19.44c0-0.04,0-0.08,0-0.12c0.199-0.285,0.199-1.395,0-1.68
	c0-0.04,0-0.08,0-0.12c-0.077-0.483,0.156-1.276-0.12-1.56c0-0.04,0-0.08,0-0.12c-1.389-9.931-6.452-16.188-16.68-17.28
	c-0.04,0-0.08,0-0.12,0c-5.694-0.483-9.96,1.33-13.08,3.84c-1.04,0.837-1.858,1.844-2.88,2.52c0-3.254,0-6.915,0-10.56
	c0-3.583-0.556-7.483,0.12-10.08c1.43-5.488,9.532-5.471,16.68-5.64c0.04,0,0.08,0,0.12,0c0.245,0.275,0.997,0.043,1.44,0.12
	c0.04,0,0.08,0,0.12,0c19.748,3.012,30.48,15.04,33.84,34.44c0,0.04,0,0.08,0,0.12c1.241,13.241-2.762,23.304-8.52,30.48
	c-5.787,7.211-14.063,12.557-24.84,14.52c-0.04,0-0.08,0-0.12,0c-13.661,1.645-24.055-2.816-31.2-9
	c-7.267-6.288-12.526-15.155-13.92-27c0-0.04,0-0.08,0-0.12c-0.077-0.483,0.156-1.276-0.12-1.56c0-0.04,0-0.08,0-0.12
	c0-20.12,0-40.24,0-60.36c-0.317-0.168-1.372-0.222-1.68,0c-0.04,0-0.08,0-0.12,0c-10.071,1.29-16.721,6.639-16.08,18.24
	c0,0.04,0,0.08,0,0.12c0.707,7.133,3.758,11.922,4.32,19.2c0,0.04,0,0.08,0,0.12c0,0.92,0,1.84,0,2.76c0,0.04,0,0.08,0,0.12
	c-0.277,0.442-0.042,1.398-0.12,2.04c0,0.04,0,0.08,0,0.12c-0.486,5.954-2.455,11.065-6.48,13.08c0.494-2.426,1.008-4.832,1.08-7.68
	c0-0.04,0-0.08,0-0.12c0.2-1.121,0.2-3.079,0-4.2c0-0.04,0-0.08,0-0.12c-1.007-5.805-4.705-10.23-7.32-14.76
	c-2.525-4.374-4.62-8.593-5.64-14.4c0-0.04,0-0.08,0-0.12c-0.082-0.878-0.044-1.876-0.24-2.64c0-0.08,0-0.16,0-0.24
	c0-0.44,0-0.88,0-1.32c0-0.08,0-0.16,0-0.24c0.277-0.363,0.042-1.238,0.12-1.8C-331.66-115.183-331.785-115.749-331.753-116.156z
	 M-302.233-142.916c-14.92,1.029-25.822,11.283-28.8,23.88c-2.94,12.438,3.234,21.853,7.92,29.52c1.7,2.78,3.676,5.662,4.32,8.76
	c0.945,4.545-0.343,9.432-0.84,13.08c4.751-2.494,5.821-8.545,6.12-14.88c0.318-6.737-2.011-12.263-3.36-17.64
	c-0.787-3.137-1.295-6.554-0.84-9.48c1.329-8.537,8.641-13.526,18.12-13.56c0,19.099,0,39.119,0,57.96
	c0,6.19,1.15,11.601,3.12,16.32c5.13,12.294,17.022,23.259,33.72,24.24c6.228,0.366,11.656-0.828,16.68-2.76
	c9.083-3.493,15.964-9.841,20.4-18.24c4.501-8.524,6.367-20.623,2.88-32.04c-2.845-9.315-8.913-17.024-16.92-21.72
	c-5.627-3.3-14.354-5.935-23.76-4.8c-2.536,0.306-5.67,0.868-7.56,2.16c-2.259,1.544-2.16,3.684-2.16,7.2c0,5.537,0,11.001,0,16.2
	c0.381,0.268,0.574-0.342,0.72-0.48c4.199-3.972,10.853-7.364,19.08-5.04c6.409,1.81,11.253,7.21,12.72,14.52
	c1.729,8.619-1.505,15.797-6.12,20.16c-4.293,4.059-12.61,7.047-20.88,4.08c-6.529-2.343-10.865-7.496-11.64-15.6
	c-0.409-4.277-0.12-8.931-0.12-13.56c0-22.812,0-45.739,0-68.28C-287.245-142.522-294.629-143.44-302.233-142.916z"/>
<path fill-rule="evenodd" clip-rule="evenodd" fill="#FFFFFF" d="M-299.593-60.956c1.394,11.845,6.653,20.712,13.92,27
	c7.146,6.184,17.54,10.645,31.2,9c-13.52,1.946-24.061-2.76-31.2-8.88C-293.008-40.124-298.383-48.907-299.593-60.956z"/>
<path fill-rule="evenodd" clip-rule="evenodd" fill="#FFFFFF" d="M-301.393-123.116c0.308-0.222,1.363-0.168,1.68,0
	c0,20.12,0,40.24,0,60.36c-0.218-17.357-0.12-38.209-0.12-56.52c0-1.013,0.152-3.701,0-3.84
	C-299.908-123.185-301.545-123.054-301.393-123.116z"/>
<path fill-rule="evenodd" clip-rule="evenodd" fill="#FFFFFF" d="M-317.593-104.876c-0.641-11.601,6.009-16.95,16.08-18.24
	C-311.368-121.531-317.971-116.694-317.593-104.876z"/>
<path fill-rule="evenodd" clip-rule="evenodd" fill="#FFFFFF" d="M-331.992-111.356c0.196,0.764,0.158,1.762,0.24,2.64
	C-332.002-109.427-332.005-110.383-331.992-111.356z"/>
<path fill-rule="evenodd" clip-rule="evenodd" fill="#FFFFFF" d="M-331.753-108.596c1.02,5.807,3.115,10.026,5.64,14.4
	c2.615,4.53,6.313,8.956,7.32,14.76c-0.54-3.543-2.072-5.859-3.72-8.521C-326.432-94.288-330.361-99.975-331.753-108.596z"/>
<path fill-rule="evenodd" clip-rule="evenodd" fill="#FFFFFF" d="M-199.032-101.876c0.3-0.379,0.82-0.54,1.32-0.72
	C-198.07-102.273-198.608-102.131-199.032-101.876z"/>
<path fill-rule="evenodd" clip-rule="evenodd" fill="#FFFFFF" d="M-205.633-97.076c0.35-0.45,0.75-0.85,1.2-1.2
	C-204.782-97.826-205.182-97.426-205.633-97.076z"/>
<path fill-rule="evenodd" clip-rule="evenodd" fill="#FFFFFF" d="M-214.993-24.476c5.241,0.279,11,0.04,16.44,0.12
	C-203.714-24.235-210.031-23.997-214.993-24.476z"/>
<path fill-rule="evenodd" clip-rule="evenodd" fill="#FFFFFF" d="M-176.953-75.836c0.437,3.043-0.276,7.236,0.36,10.08
	c0.08,0,0.16,0,0.24,0c0.022,0.102-0.047,0.113-0.12,0.12c-0.807-0.316-0.48-1.489-0.48-2.28
	C-176.953-70.334-176.953-73.394-176.953-75.836z"/>
<path fill-rule="evenodd" clip-rule="evenodd" fill="#FFFFFF" d="M-156.073-75.236c0-0.04,0-0.08,0-0.12c0.04,0,0.08,0,0.12,0
	c-0.217,1.595,0.444,4.812-0.36,5.64C-155.769-71.092-156.221-73.464-156.073-75.236z"/>
<path fill-rule="evenodd" clip-rule="evenodd" fill="#FFFFFF" d="M-138.793-75.476c0.431,2.528-0.268,6.188,0.36,8.52
	c-0.097-0.022-0.12-0.12-0.24-0.12C-138.951-69.638-138.714-72.714-138.793-75.476z"/>
<path fill-rule="evenodd" clip-rule="evenodd" fill="#FFFFFF" d="M-138.433-37.676c-0.53-0.198-0.722-3.708,0.24-3.96
	c-0.803,0.567-0.481,2.866-0.36,3.96C-138.513-37.676-138.473-37.676-138.433-37.676z"/>
<path fill-rule="evenodd" clip-rule="evenodd" fill="#FFFFFF" d="M-121.513-89.756c0.38,0.301,0.54,0.82,0.72,1.32
	C-121.115-88.793-121.258-89.331-121.513-89.756z"/>
<path fill-rule="evenodd" clip-rule="evenodd" fill="#FFFFFF" d="M-123.313-92.876c-0.623-0.538-0.999-1.321-1.56-1.92
	C-124.206-94.302-123.814-93.534-123.313-92.876z"/>
<path fill-rule="evenodd" clip-rule="evenodd" fill="#FFFFFF" d="M-127.993-98.156c0.85,0.75,1.65,1.55,2.4,2.4
	C-126.443-96.506-127.243-97.306-127.993-98.156z"/>
<path fill-rule="evenodd" clip-rule="evenodd" fill="#FFFFFF" d="M-160.273-101.996c0.458-0.463,1.143-0.697,1.8-0.96
	C-158.991-102.554-159.687-102.33-160.273-101.996z"/>
<path fill-rule="evenodd" clip-rule="evenodd" fill="#FFFFFF" d="M-163.153-100.196c0.31-0.45,0.852-0.668,1.32-0.96
	C-162.174-100.736-162.731-100.534-163.153-100.196z"/>
<path fill-rule="evenodd" clip-rule="evenodd" fill="#FFFFFF" d="M-171.433-101.876c-0.425-0.255-0.962-0.397-1.32-0.72
	C-172.253-102.416-171.733-102.255-171.433-101.876z"/>
<path fill-rule="evenodd" clip-rule="evenodd" fill="#FFFFFF" d="M-96.913-101.636c0.537-0.503,1.304-0.776,2.04-1.08
	C-95.471-102.274-96.247-102.01-96.913-101.636z"/>
<path fill-rule="evenodd" clip-rule="evenodd" fill="#FFFFFF" d="M-104.233-95.996c0.43-0.53,0.91-1.01,1.44-1.44
	C-103.222-96.906-103.702-96.426-104.233-95.996z"/>
<path fill-rule="evenodd" clip-rule="evenodd" fill="#FFFFFF" d="M-112.393-76.676c0,6.56,0,14.146,0,21.12
	c0,1.954-0.254,6.298,0.36,7.08c-0.08,0-0.16,0-0.24,0C-112.749-57.29-112.514-67.548-112.393-76.676z"/>
<path fill-rule="evenodd" clip-rule="evenodd" fill="#FFFFFF" d="M-99.193-37.916c0.43-0.53,0.91-1.01,1.44-1.44
	C-98.182-38.826-98.663-38.346-99.193-37.916z"/>
<path fill-rule="evenodd" clip-rule="evenodd" fill="#FFFFFF" d="M-91.993-43.556c0.734-0.442,0.48-2.374,0.48-3.96
	c0-9.442-0.098-19.685,0.12-28.32c0,8.182,0,18.981,0,28.08C-91.393-46.138-91.084-43.799-91.993-43.556z"/>
<path fill-rule="evenodd" clip-rule="evenodd" fill="#FFFFFF" d="M-60.313-48.956c0.35-0.45,0.75-0.85,1.2-1.2
	C-59.463-49.706-59.863-49.306-60.313-48.956z"/>
<path fill-rule="evenodd" clip-rule="evenodd" fill="#FFFFFF" d="M-59.113-50.276c1.63-1.73,3.31-3.41,5.04-5.04
	C-55.703-53.586-57.383-51.906-59.113-50.276z"/>
<path fill-rule="evenodd" clip-rule="evenodd" fill="#FFFFFF" d="M-51.553-80.516c0.39-0.49,0.83-0.93,1.32-1.32
	C-50.623-81.346-51.063-80.906-51.553-80.516z"/>
<path fill-rule="evenodd" clip-rule="evenodd" fill="#FFFFFF" d="M-32.833-45.596c-0.709-0.227-0.435-1.005,0.12-1.2
	C-33.104-46.457-33.376-45.97-32.833-45.596z"/>
<path fill-rule="evenodd" clip-rule="evenodd" fill="#FFFFFF" d="M-15.793-47.396c0.882-0.397,0.324-2.236,0.48-3.36
	c0-1.24,0-2.48,0-3.72c0-2.44,0-4.88,0-7.32c0-4.88,0-9.76,0-14.64c0.216,6.469,0.121,14.326,0.12,21.72
	c0,1.686,0.578,5.961-0.12,7.08C-15.39-47.512-15.451-47.48-15.793-47.396z"/>
<path fill-rule="evenodd" clip-rule="evenodd" fill="#FFFFFF" d="M-25.153-97.916c0.69,0.59,1.331,1.23,1.92,1.92
	C-23.923-96.586-24.563-97.226-25.153-97.916z"/>
<path fill-rule="evenodd" clip-rule="evenodd" fill="#FFFFFF" d="M-28.153-100.316c0.408,0.312,0.907,0.533,1.2,0.96
	c-0.43-0.25-0.77-0.59-1.2-0.84C-28.153-100.236-28.153-100.276-28.153-100.316z"/>
<path fill-rule="evenodd" clip-rule="evenodd" fill="#FFFFFF" d="M-197.713-102.596c3.861-1.699,8.222-2.898,13.92-2.76
	c0,0.04,0,0.08,0,0.12c-1.561,0-3.169-0.049-4.44,0.24c-0.04,0-0.08,0-0.12,0c-15.514,2.435-24.457,12.071-26.52,28.08
	c0-0.36,0-0.72,0-1.08c0.985-8.456,4.473-14.407,9.24-19.08c0.45-0.35,0.85-0.75,1.2-1.2c1.739-1.261,3.415-2.585,5.4-3.6
	C-198.608-102.131-198.07-102.273-197.713-102.596z"/>
<path fill-rule="evenodd" clip-rule="evenodd" fill="#FFFFFF" d="M-158.473-102.956c3.58-1.5,7.603-2.557,12.84-2.4
	c0,0.04,0,0.08,0,0.12c-1.561,0-3.169-0.049-4.44,0.24c-0.521,0.16-1.158,0.202-1.8,0.24c-5.958,0.962-10.246,3.595-13.92,6.84
	c-4.366-3.434-9.19-6.41-16.32-7.08c-0.04,0-0.08,0-0.12,0c-0.207-0.353-1.233,0.113-1.44-0.24c0.4,0,0.8,0,1.2,0
	c3.721,0.399,6.849,1.391,9.72,2.64c0.357,0.322,0.895,0.465,1.32,0.72c2.031,1.049,3.768,2.392,5.52,3.72
	c1.023-0.577,1.75-1.451,2.76-2.04c0.422-0.338,0.979-0.541,1.32-0.96c0.602-0.198,0.984-0.616,1.56-0.84
	C-159.687-102.33-158.991-102.554-158.473-102.956z"/>
<path fill-rule="evenodd" clip-rule="evenodd" fill="#FFFFFF" d="M-188.233-104.996c1.271-0.289,2.879-0.241,4.44-0.24
	c0.04,0,0.08,0,0.12,0c0.207,0.353,1.233-0.113,1.44,0.24C-184.233-105.138-186.233-105.138-188.233-104.996z"/>
<path fill-rule="evenodd" clip-rule="evenodd" fill="#FFFFFF" d="M-150.073-104.996c1.271-0.289,2.879-0.241,4.44-0.24
	c0.04,0,0.08,0,0.12,0c12.723,1.538,20.553,7.618,24.84,17.52c1.093,2.525,1.976,5.203,2.4,8.16c0.446,3.113,0.24,6.589,0.24,10.32
	c0,6.877,0,14.297,0,21.24c-4.191,0.973-7.809,2.332-11.16,4.08c-3.389,1.769-6.303,3.938-9.36,6c0.228-1.384-0.312-2.037,0-3
	c0.318-0.982,2.281-1.806,2.88-2.4c2.385-2.366,4.374-6.037,4.8-10.2c0.612-5.979-2.843-10.334-6-12.6
	c-0.392-0.282-1.532-0.838-1.68-1.2c-0.366-0.896,0-2.683,0-3.96c0-1.517,0-2.938,0-4.08c0.28,2.36,0.04,5.24,0.12,7.8
	c2.562,2.137,5.341,3.875,6.6,7.08c3.153,8.023-1.271,16.246-6.6,19.56c0,0.92,0,1.84,0,2.76c5.61-3.95,11.866-8.294,20.28-9.84
	c0-7.344,0-15.155,0-22.32c0-3.91,0.132-7.434-0.48-10.68c-0.562-2.975-1.596-5.804-2.88-8.28
	C-126.592-99.067-135.123-105.431-150.073-104.996z"/>
<path fill-rule="evenodd" clip-rule="evenodd" fill="#FFFFFF" d="M-138.552-75.356c0,1.142,0,2.563,0,4.08
	c0,1.277-0.366,3.064,0,3.96c0.147,0.362,1.288,0.918,1.68,1.2c3.157,2.266,6.612,6.622,6,12.6c-0.426,4.163-2.415,7.833-4.8,10.2
	c-0.599,0.594-2.562,1.418-2.88,2.4c-0.312,0.963,0.228,1.616,0,3c3.057-2.062,5.971-4.231,9.36-6
	c3.351-1.749,6.969-3.107,11.16-4.08c0-6.942,0-14.363,0-21.24c0-3.731,0.207-7.207-0.24-10.32c-0.424-2.957-1.307-5.635-2.4-8.16
	c-4.288-9.902-12.117-15.982-24.84-17.52c0.36,0,0.72,0,1.08,0c7.117,0.723,12.133,3.547,16.44,7.08c0.75,0.85,1.55,1.65,2.4,2.4
	c0.117,0.442,0.525,0.595,0.72,0.96c0.562,0.599,0.938,1.382,1.56,1.92c0.559,1.081,1.266,2.014,1.8,3.12
	c0.255,0.425,0.397,0.963,0.72,1.32c1.466,3.374,2.587,7.092,2.88,11.64c0,9.6,0,19.2,0,28.8c0,0.04,0,0.08,0,0.12
	c-8.427,1.813-14.8,5.68-20.52,10.2c-0.04,0-0.08,0-0.12,0c-0.121-1.094-0.443-3.393,0.36-3.96c5.261-2.921,8.845-10.881,6.24-18.36
	c-1.107-3.178-3.706-5.336-6.48-6.96c-0.628-2.332,0.071-5.991-0.36-8.52c-0.406-4.914-3.01-7.631-7.8-8.16
	c-0.207-0.199-1.233-0.199-1.44,0c-4.819,0.581-7.519,3.281-7.92,8.28c-0.04,0-0.08,0-0.12,0c0.263-4.897,3.052-7.267,7.08-8.4
	c0.199-0.201,0.705-0.095,1.08-0.12c5.452,0.028,8.122,2.838,9.24,7.2C-138.45-76.418-138.592-75.797-138.552-75.356z"/>
<path fill-rule="evenodd" clip-rule="evenodd" fill="#FFFFFF" d="M-86.593-104.876c1.489-0.311,3.717-0.521,5.4-0.24
	C-83.146-105.189-84.838-105-86.593-104.876z"/>
<path fill-rule="evenodd" clip-rule="evenodd" fill="#FFFFFF" d="M-78.553-104.876c6.534,0.866,11.211,3.589,15.24,6.96
	c4.942-4.138,11.076-7.724,20.28-7.2c-9.363-0.203-15.256,3.064-20.16,7.32C-67.373-101.096-72.119-103.83-78.553-104.876z"/>
<path fill-rule="evenodd" clip-rule="evenodd" fill="#FFFFFF" d="M-188.233-104.996c2-0.142,4-0.142,6,0c0.04,0,0.08,0,0.12,0
	c6.864,0.936,11.99,3.61,16.2,7.2c3.821-3.179,8.188-5.812,14.04-6.96c0.643-0.038,1.28-0.08,1.8-0.24
	c14.949-0.436,23.48,5.929,28.56,15.72c1.285,2.476,2.319,5.305,2.88,8.28c0.612,3.246,0.48,6.77,0.48,10.68
	c0,7.165,0,14.976,0,22.32c-8.415,1.546-14.67,5.89-20.28,9.84c0-0.92,0-1.84,0-2.76c5.33-3.314,9.753-11.536,6.6-19.56
	c-1.259-3.206-4.038-4.943-6.6-7.08c-0.08-2.56,0.16-5.44-0.12-7.8c-0.039-0.441,0.102-1.062-0.12-1.32
	c-0.849-4.552-4.01-7.431-9.24-7.2c-0.375,0.025-0.881-0.081-1.08,0.12c-4.31,0.93-6.933,3.547-7.2,8.52c0,1.64,0,3.28,0,4.92
	c-0.117,0.003-0.093,0.147-0.12,0.24c-7.112,1.007-13.812,2.427-20.28,4.08c-0.08-3.2,0.16-6.72-0.12-9.72c0-0.04,0-0.08,0-0.12
	c-0.568-4.88-3.337-8.078-8.4-8.16c-4.362-0.07-7.821,2.688-8.88,6.36c-0.891,3.09-0.36,7.839-0.36,11.76
	c0,11.597-0.097,25.29,0.12,36c0,0.04,0,0.08,0,0.12c-0.191,2.416-1.24,4.201-3.24,4.92c-2.009,0.722-5.46,0.24-8.52,0.24
	c-3.139,0-6.251,0-8.76,0c0-13.286,0-26.603,0-39.96c0-4.463-0.283-8.961,0.12-13.2c0.738-7.76,4.031-13.719,8.28-18.36
	c4.186-4.572,10.469-7.735,18-8.88C-188.313-104.996-188.273-104.996-188.233-104.996z M-186.673-104.996
	c-8.107,0.476-14.442,3.882-18.96,8.4c-4.479,4.479-7.87,10.368-8.76,18.24c-0.474,4.195-0.24,8.665-0.24,13.2
	c0,13.489,0,26.922,0,40.44c6.958-1,18.758,2.738,20.16-3.72c0.33-1.516,0-3.801,0-5.88c0-10.254,0-20.616,0-30.72
	c0-4.282-0.477-8.788,0.24-12.12c0.941-4.374,4.886-7.028,9.12-6.96c8.681,0.14,9.19,8.072,8.64,18
	c6.381-1.62,12.841-3.159,20.04-3.96c0.008-4.424-0.232-7.571,1.56-10.2c3.6-5.279,12.587-4.794,15.48,0.84
	c1.477,2.876,1.035,7.482,1.08,12c2.892,2.024,5.398,3.794,6.6,7.08c2.45,6.703-0.101,13.46-3.6,17.04
	c-0.692,0.708-2.677,1.523-3,2.52c-0.252,0.778,0.196,1.737,0,2.4c5.515-3.925,11.809-8.111,20.04-9.72
	c-0.155-9.764,0.208-19.286,0-27.96c-0.205-8.564-3.73-15.187-8.04-19.92c-4.383-4.813-10.892-8.278-19.08-8.88
	c-9.001-0.662-15.217,2.968-20.52,7.2C-171.212-101.65-177.15-105.555-186.673-104.996z"/>
<path fill-rule="evenodd" clip-rule="evenodd" fill="#FFFFFF" d="M-86.593-104.876c1.755-0.125,3.446-0.313,5.4-0.24
	c0.04,0,0.08,0,0.12,0c0.692,0.188,1.576,0.184,2.4,0.24c0.04,0,0.08,0,0.12,0c6.434,1.046,11.18,3.78,15.36,7.08
	c4.904-4.256,10.797-7.523,20.16-7.32c0.04,0,0.08,0,0.12,0c16.354,2.085,25.171,11.709,27.36,27.96c0,0.04,0,0.08,0,0.12
	c0,9.72,0,19.44,0,29.16c-4.028,1.623-7.855,3.791-10.68,6.6c-0.881,0.877-1.466,2.205-2.52,2.76
	c-0.455-2.949-1.282-4.875-3.12-6.72c-0.373-0.374-1.064-0.73-1.08-0.84c-0.008-0.056,1.169-1.541,1.56-2.04
	c2.734-3.496,6.924-8.311,4.44-14.4c-1.374-3.369-4.538-4.821-9-5.16c0.763-8.904-0.545-16.32-8.76-16.32
	c-4.894,0-8.387,3.192-8.88,8.28c0,0.04,0,0.08,0,0.12c-0.219,4.692-0.12,9.523-0.12,14.52c0,1.541,0.328,3.516,0,4.8
	c-0.297,1.162-2.516,2.635-3.6,3.72c-3.2,3.199-5.631,6.214-8.28,9.84c-0.468,0.641-0.779,1.51-1.56,1.8
	c-0.527-4.433-2.887-7.033-6.84-8.04c-0.08-8.76,0.16-17.84-0.12-26.4c0-0.04,0-0.08,0-0.12c-0.301-4.739-2.695-7.385-6.84-8.28
	c-0.04,0-0.08,0-0.12,0c-5.966-0.741-9.965,2.496-10.56,7.92c0,0.04,0,0.08,0,0.12c-0.28,10.24-0.04,21-0.12,31.44
	c-2.205,2.089-5.268,3.473-7.32,5.76c-1.083,1.207-1.727,2.884-3,3.72c-0.388-1.423,0.466-2.361,0.48-3.6
	c0.013-1.099-0.459-2.856-0.84-3.84c-1.47-3.797-5.422-5.92-9.72-6.6c0.074-9.846-0.152-19.992,0.12-29.64c0-0.04,0-0.08,0-0.12
	c2.583-14.617,11.004-23.396,25.32-26.28C-86.673-104.876-86.633-104.876-86.593-104.876z M-84.073-104.996
	c-12.324,0.724-20.707,7.932-25.08,17.16c-2.475,5.223-2.88,10.293-2.88,18c0,6.524,0,13.651,0,20.88
	c4.394,0.768,8.312,2.926,9.72,6.72c0.378,1.02,0.853,2.725,0.84,3.84c-0.014,1.217-0.846,2.1-0.48,3.48
	c1.668-2.559,3.789-4.629,6.24-6.48c0.952-0.719,3.553-2.115,3.84-3c0.263-0.81,0-2.481,0-3.84c0-3.983,0-8.233,0-11.76
	c0-5.729-0.37-11.516,0-15.72c0.322-3.66,2.512-6.228,5.04-7.44c4.449-2.134,9.453-0.178,11.4,2.88c1.54,2.418,1.56,5.439,1.56,9.36
	c0,7.221,0,15.168,0,21.84c3.88,1.04,6.213,3.627,6.84,7.92c2.899-3.752,6.181-7.98,9.72-11.52c0.965-0.965,3.209-2.582,3.48-3.6
	c0.319-1.199,0-3.155,0-4.8c0-4.674-0.297-10.319,0-14.4c0.373-5.122,4.049-8.64,9.12-8.64c8.02,0,9.778,7.295,8.88,16.32
	c5.786,0.12,9.948,3.857,9.84,9.24c-0.114,5.684-4.575,9.027-6.84,12.48c2.253,1.547,3.61,3.99,4.2,7.2
	c1.029-0.659,1.711-1.753,2.64-2.64c2.844-2.714,6.264-4.994,10.32-6.36c-0.179-9.757,0.24-19.299,0-27.96
	c-0.243-8.751-3.669-15.182-8.04-20.04c-4.415-4.907-10.79-8.396-19.08-9c-9.074-0.66-15.234,3.004-20.64,7.2
	C-68.608-101.705-74.632-105.55-84.073-104.996z"/>
<path fill-rule="evenodd" clip-rule="evenodd" fill="#FFFFFF" d="M-81.073-105.116c0.895-0.015,1.746,0.014,2.4,0.24
	C-79.497-104.932-80.381-104.927-81.073-105.116z"/>
<path fill-rule="evenodd" clip-rule="evenodd" fill="#FFFFFF" d="M-42.913-105.116c8.314,0.536,14.642,3.961,18.96,8.64
	c4.337,4.699,7.942,10.884,8.4,19.32C-17.742-93.406-26.559-103.03-42.913-105.116z"/>
<path fill-rule="evenodd" clip-rule="evenodd" fill="#FFFFFF" d="M-214.873-76.916c2.063-16.009,11.006-25.645,26.52-28.08
	c-7.531,1.145-13.814,4.308-18,8.88c-4.249,4.641-7.542,10.6-8.28,18.36c-0.403,4.239-0.12,8.737-0.12,13.2
	c0,13.357,0,26.674,0,39.96c2.508,0,5.621,0,8.76,0c3.06,0,6.511,0.482,8.52-0.24c2-0.719,3.049-2.504,3.24-4.92
	c0.045,2.326-1.04,4.118-2.88,4.92c-1.923,0.838-5.536,0.36-8.64,0.36c-3.271,0-6.463,0-9,0c-0.28-17.201-0.04-34.92-0.12-52.32
	C-214.873-76.836-214.873-76.876-214.873-76.916z"/>
<path fill-rule="evenodd" clip-rule="evenodd" fill="#FFFFFF" d="M-182.113-104.996c7.13,0.669,11.954,3.646,16.32,7.08
	c3.674-3.245,7.962-5.878,13.92-6.84c-5.852,1.148-10.219,3.781-14.04,6.96C-170.123-101.386-175.249-104.06-182.113-104.996z"/>
<path fill-rule="evenodd" clip-rule="evenodd" fill="#FFFFFF" d="M-112.033-78.596c2.435-14.766,10.858-23.542,25.32-26.28
	C-101.029-101.991-109.449-93.213-112.033-78.596z"/>
<path fill-rule="evenodd" clip-rule="evenodd" fill="#FFFFFF" d="M-262.273-104.756c0.404-0.076,1.115,0.155,1.32-0.12
	c0.24,0,0.48,0,0.72,0c1,0,2,0,3,0c0.24,0,0.48,0,0.72,0c0.166,0.274,0.835,0.045,1.2,0.12c9.656,0.904,16.441,4.679,22.08,9.6
	c0.75,0.85,1.55,1.65,2.4,2.4c5.281,6.239,9.252,13.788,10.2,24.36c0.075,0.365-0.154,1.034,0.12,1.2c0,0.28,0,0.56,0,0.84
	c0,1.04,0,2.08,0,3.12c0,0.28,0,0.56,0,0.84c-0.274,0.167-0.045,0.835-0.12,1.2c-0.984,10.056-4.86,17.22-9.84,23.28
	c-0.49,0.39-0.93,0.83-1.32,1.32c-6.405,6.515-14.492,11.348-26.52,12.24c-1.32,0-2.64,0-3.96,0
	c-10.779-0.701-18.145-4.815-24.36-10.08c-0.95-1.05-1.95-2.05-3-3c-1.944-2.456-3.883-4.917-5.4-7.8
	c-0.414-0.746-0.719-1.601-1.2-2.28c-1.763-4.077-3.142-8.538-3.6-13.92c-0.076-0.404,0.155-1.115-0.12-1.32c0-0.32,0-0.64,0-0.96
	c0-19.76,0-39.52,0-59.28c-0.483,0.077-1.276-0.156-1.56,0.12c-2.813,0.107-4.938,0.902-6.96,1.8c-0.378,0.262-0.954,0.326-1.2,0.72
	c-1.059,0.422-1.819,1.141-2.64,1.8c-0.57,0.47-1.09,0.99-1.56,1.56c-2.22,2.66-3.853,5.907-3.6,11.04
	c0.075,0.365-0.154,1.033,0.12,1.2c0.666,6.775,3.497,11.383,4.2,18.12c0.075,0.365-0.154,1.034,0.12,1.2c0,0.88,0,1.76,0,2.64
	c-0.04,0-0.08,0-0.12,0c-0.079-0.841,0.159-1.999-0.12-2.64c0-0.04,0-0.08,0-0.12c-0.396-7.445-3.458-12.222-4.32-19.2
	c0-0.04,0-0.08,0-0.12c-0.379-11.818,6.224-16.655,16.08-18.24c0.04,0,0.08,0,0.12,0c-0.152,0.062,1.485-0.069,1.56,0
	c0.152,0.139,0,2.827,0,3.84c0,18.311-0.098,39.163,0.12,56.52c0,0.04,0,0.08,0,0.12c0.077,0.483-0.156,1.276,0.12,1.56
	c0,0.04,0,0.08,0,0.12c1.21,12.049,6.584,20.832,13.92,27.12c7.14,6.12,17.68,10.826,31.2,8.88c0.04,0,0.08,0,0.12,0
	c11.118-1.696,19.115-7.395,24.96-14.64c5.757-7.137,9.939-17.286,8.4-30.36c0-0.04,0-0.08,0-0.12
	c-1.053-10.025-5.418-17.569-10.8-23.4c-5.361-5.81-13.05-9.995-23.04-11.04c-0.04,0-0.08,0-0.12,0
	c-0.244-0.275-0.996-0.043-1.44-0.12c-0.04,0-0.08,0-0.12,0c-6.73-0.076-15.704,0.042-16.92,5.64c-0.31,1.426,0,3.313,0,5.04
	c0,5.144,0,10.595,0,15.84c0.71-0.018,1.031-0.782,1.44-1.2c3.193-3.262,7.741-5.672,14.64-5.4c0.04,0,0.08,0,0.12,0
	c10.083,1.236,15.139,7.501,16.68,17.28c0,0.04,0,0.08,0,0.12c0,0.48,0,0.96,0,1.44c-0.04,0-0.08,0-0.12,0
	c-0.089-4.391-1.354-7.605-3-10.44c-0.292-0.468-0.51-1.01-0.96-1.32c-0.624-0.977-1.333-1.867-2.28-2.52
	c-0.286-0.474-0.774-0.745-1.2-1.08c-0.56-0.4-1.078-0.842-1.8-1.08c-0.3-0.379-0.82-0.54-1.32-0.72
	c-1.712-0.768-3.566-1.394-6-1.44c-0.642-0.2-2.118-0.2-2.76,0c-4.755,0.165-7.993,1.847-10.68,4.08c-0.69,0.59-1.33,1.23-1.92,1.92
	c-0.243,0.277-0.399,0.641-0.84,0.72c-0.359-6.32,0.12-13.479-0.24-19.8C-273.43-103.514-267.623-103.906-262.273-104.756z"/>
<path fill-rule="evenodd" clip-rule="evenodd" fill="#FFFFFF" d="M-317.593-104.756c0.862,6.978,3.924,11.755,4.32,19.2
	C-313.835-92.834-316.885-97.623-317.593-104.756z"/>
<path fill-rule="evenodd" clip-rule="evenodd" fill="#FFFFFF" d="M-257.353-84.716c-6.899-0.272-11.446,2.138-14.64,5.4
	c-0.409,0.418-0.73,1.183-1.44,1.2c0-5.246,0-10.697,0-15.84c0-1.727-0.31-3.613,0-5.04c1.217-5.598,10.19-5.716,16.92-5.64
	c-7.148,0.169-15.25,0.152-16.68,5.64c-0.676,2.597-0.12,6.496-0.12,10.08c0,3.646,0,7.306,0,10.56
	c1.022-0.676,1.84-1.683,2.88-2.52C-267.313-83.386-263.047-85.199-257.353-84.716z"/>
<path fill-rule="evenodd" clip-rule="evenodd" fill="#FFFFFF" d="M-254.833-104.516c9.99,1.045,17.679,5.23,23.04,11.04
	c5.382,5.831,9.747,13.375,10.8,23.4C-224.352-89.476-235.085-101.503-254.833-104.516z"/>
<path fill-rule="evenodd" clip-rule="evenodd" fill="#FFFFFF" d="M-313.393-80.396c-0.072,5.774-2.204,9.793-5.28,12.36
	c-0.438,0.365-0.785,1.085-1.44,0.96c0.732-2.348,0.946-5.213,1.32-7.92c-0.072,2.848-0.586,5.254-1.08,7.68
	C-315.847-69.331-313.879-74.442-313.393-80.396z"/>
<path fill-rule="evenodd" clip-rule="evenodd" fill="#FFFFFF" d="M-240.552-67.436c-1.541-9.779-6.597-16.044-16.68-17.28
	C-247.005-83.624-241.942-77.367-240.552-67.436z"/>
<path fill-rule="evenodd" clip-rule="evenodd" fill="#FFFFFF" d="M-156.193-75.236c0.267-4.973,2.89-7.59,7.2-8.52
	c-4.027,1.133-6.817,3.503-7.08,8.4c0,0.04,0,0.08,0,0.12C-156.113-75.236-156.153-75.236-156.193-75.236z"/>
<path fill-rule="evenodd" clip-rule="evenodd" fill="#FFFFFF" d="M-194.233-29.876c-0.217-10.71-0.12-24.403-0.12-36
	c0-3.921-0.531-8.67,0.36-11.76c1.06-3.671,4.519-6.43,8.88-6.36c5.062,0.082,7.832,3.279,8.4,8.16
	c-0.466-10.729-17.201-10.409-17.4,0.36c0,0.04,0,0.08,0,0.12C-194.393-60.436-194.153-44.996-194.233-29.876z"/>
<path fill-rule="evenodd" clip-rule="evenodd" fill="#FFFFFF" d="M-147.913-83.876c5.23-0.23,8.392,2.648,9.24,7.2
	C-139.791-81.038-142.461-83.848-147.913-83.876z"/>
<path fill-rule="evenodd" clip-rule="evenodd" fill="#FFFFFF" d="M-91.633-75.836c0.594-5.424,4.594-8.661,10.56-7.92
	C-87.285-84.268-90.741-81.039-91.633-75.836z"/>
<path fill-rule="evenodd" clip-rule="evenodd" fill="#FFFFFF" d="M-53.593-75.716c0.493-5.088,3.986-8.28,8.88-8.28
	c8.215,0,9.522,7.416,8.76,16.32c4.462,0.339,7.626,1.792,9,5.16c2.484,6.089-1.706,10.904-4.44,14.4
	c-0.391,0.5-1.568,1.984-1.56,2.04c0.016,0.109,0.708,0.466,1.08,0.84c1.838,1.845,2.665,3.771,3.12,6.72
	c1.054-0.556,1.639-1.883,2.52-2.76c2.824-2.809,6.651-4.977,10.68-6.6c0-9.72,0-19.44,0-29.16c0.28,9.52,0.04,19.56,0.12,29.28
	c-4.208,1.549-7.79,3.74-10.68,6.6c-0.926,0.916-1.527,2.15-2.64,2.88c-0.518-3.522-2.034-6.046-4.32-7.8
	c2.884-3.914,8.88-9.518,6-16.44c-1.26-3.028-4.541-4.959-8.88-4.92c-0.399-3.185,0.123-6.151-0.12-8.76
	c-0.417-4.469-3.833-7.604-8.52-7.68C-49.27-83.951-53.075-80.564-53.593-75.716z"/>
<path fill-rule="evenodd" clip-rule="evenodd" fill="#FFFFFF" d="M-194.113-75.476c0.199-10.769,16.934-11.089,17.4-0.36
	c0,0.04,0,0.08,0,0.12c0,3.28,0,6.56,0,9.84c6.596-1.523,13.025-3.214,20.4-3.96c0.093-0.106,0.129-0.271,0.12-0.48
	c0-1.64,0-3.28,0-4.92c0.04,0,0.08,0,0.12,0c-0.148,1.772,0.304,4.144-0.24,5.52c-7.217,0.783-13.708,2.292-20.04,3.96
	c-0.08,0-0.16,0-0.24,0c-0.636-2.844,0.077-7.037-0.36-10.08c-0.502-4.618-2.925-7.314-7.56-7.8c-0.207-0.199-1.233-0.199-1.44,0
	c-4.827,0.573-7.574,3.226-8.04,8.16C-194.032-75.476-194.073-75.476-194.113-75.476z"/>
<path fill-rule="evenodd" clip-rule="evenodd" fill="#FFFFFF" d="M-53.593-75.716c0.518-4.849,4.323-8.235,9-8.16
	c4.687,0.076,8.104,3.211,8.52,7.68c0.243,2.609-0.279,5.576,0.12,8.76c4.339-0.04,7.62,1.892,8.88,4.92
	c2.88,6.922-3.116,12.526-6,16.44c2.287,1.753,3.803,4.277,4.32,7.8c1.112-0.73,1.714-1.964,2.64-2.88
	c2.891-2.86,6.473-5.051,10.68-6.6c-0.08-9.72,0.16-19.76-0.12-29.28c0-0.04,0-0.08,0-0.12c-0.458-8.436-4.063-14.621-8.4-19.32
	c-4.318-4.679-10.646-8.104-18.96-8.64c-0.04,0-0.08,0-0.12,0c-9.204-0.524-15.338,3.062-20.28,7.2
	c-4.029-3.371-8.706-6.094-15.24-6.96c-0.04,0-0.08,0-0.12,0c-0.655-0.226-1.505-0.254-2.4-0.24c-0.04,0-0.08,0-0.12,0
	c-1.683-0.282-3.911-0.071-5.4,0.24c-0.04,0-0.08,0-0.12,0c-14.462,2.738-22.886,11.514-25.32,26.28c0,0.04,0,0.08,0,0.12
	c-0.351,0.129,0.111,1.07-0.24,1.2c0.546-8.374,3.954-13.886,8.04-18.72c0.53-0.43,1.01-0.91,1.44-1.44
	c1.873-1.487,3.69-3.03,5.88-4.2c0.666-0.374,1.441-0.639,2.04-1.08c3.811-1.629,8.093-2.788,13.68-2.64
	c0.166,0.274,0.835,0.045,1.2,0.12c7.188,0.732,12.276,3.563,16.68,7.08c4.283-3.437,9.098-6.342,16.08-7.08
	c0.365-0.075,1.034,0.154,1.2-0.12c1,0,2,0,3,0c0.167,0.274,0.835,0.045,1.2,0.12c5.637,0.563,9.891,2.509,13.68,4.92
	c0,0.04,0,0.08,0,0.12c0.431,0.25,0.77,0.59,1.2,0.84c0.635,0.445,1.099,1.061,1.8,1.44c0.59,0.69,1.23,1.33,1.92,1.92
	c4.208,4.952,7.4,10.92,7.92,19.56c0,4.88,0,9.76,0,14.64c0,2.44,0,4.88,0,7.32c0,1.24,0,2.479,0,3.72
	c-0.156,1.124,0.402,2.962-0.48,3.36c-3.996,1.458-7.457,3.534-10.2,6.24c-0.966,0.954-1.548,2.292-2.76,3
	c-0.735-3.105-1.758-5.922-4.08-7.44c-0.543-0.374-0.271-0.861,0.12-1.2c2.12-3.215,6.253-6.437,6.36-11.76
	c0.107-5.378-3.737-8.772-9.72-8.76c-0.15-5.736,0.432-11.088-2.52-14.04c-1.237-1.237-2.985-2.08-5.4-2.28
	c-0.207-0.199-1.233-0.199-1.44,0c-2.141,0.06-3.52,0.881-4.8,1.8c-0.49,0.39-0.93,0.83-1.32,1.32c-0.919,1.28-1.74,2.659-1.8,4.8
	c-0.28,6.36-0.04,13.24-0.12,19.8c-0.149,0.251-0.349,0.451-0.6,0.6c-1.73,1.63-3.41,3.31-5.04,5.04c0,0.04,0,0.08,0,0.12
	c-0.45,0.35-0.85,0.75-1.2,1.2c-1.205,1.349-2.365,2.759-3.48,4.2c-1.101,1.423-1.951,3.089-3.36,4.2
	c-0.715-4.446-3.101-7.219-7.08-8.4c-0.08-8.8,0.16-17.92-0.12-26.52c-0.392-4.848-2.845-7.635-7.56-8.16
	c-0.207-0.199-1.233-0.199-1.44,0c-4.763,0.517-7.419,3.141-8.04,7.8c-0.218,8.635-0.12,18.878-0.12,28.32
	c0,1.586,0.254,3.518-0.48,3.96c-2.104,1.215-3.916,2.724-5.76,4.2c-0.53,0.43-1.01,0.91-1.44,1.44
	c-0.502,0.609-0.953,1.226-1.44,1.92c-0.399,0.568-0.713,1.542-1.56,1.68c-0.665-1.549,0.344-2.692,0.36-4.08
	c0.044-3.874-2.868-7.886-6.36-9.24c-1.157-0.449-2.618-0.494-3.84-0.84c-0.614-0.782-0.36-5.126-0.36-7.08c0-6.975,0-14.56,0-21.12
	c0.01-0.19-0.058-0.458,0.12-0.48c0,8.039,0,16.377,0,24.84c0,1.067-0.245,3.051,0,3.48c0.43,0.755,3.32,0.747,4.2,1.08
	c1.916,0.724,4.576,3.109,5.52,5.4c0.453,1.099,0.856,2.605,0.84,3.96c-0.016,1.353-1.031,2.482-0.36,3.84
	c1.161-0.712,1.706-2.275,2.64-3.36c2.147-2.49,5.305-4.137,7.8-6.24c0-10.52,0-21.04,0-31.56c0-0.04,0-0.08,0-0.12
	c0.891-5.203,4.347-8.432,10.56-7.92c0.04,0,0.08,0,0.12,0c4.031,1.009,6.369,3.712,6.84,8.28c0,0.04,0,0.08,0,0.12
	c0,8.8,0,17.6,0,26.4c3.988,1.093,6.371,3.79,6.96,8.28c0.808-0.428,1.177-1.349,1.68-2.04c2.508-3.443,5.07-6.51,8.28-9.72
	c1.031-1.031,3.275-2.543,3.6-3.6c0.338-1.097,0-3.466,0-4.92c0-4.678,0-10.209,0-14.64C-53.593-75.636-53.593-75.676-53.593-75.716
	z"/>
<path fill-rule="evenodd" clip-rule="evenodd" fill="#FFFFFF" d="M-80.953-83.756c4.145,0.895,6.539,3.542,6.84,8.28
	C-74.584-80.044-76.922-82.747-80.953-83.756z"/>
<path fill-rule="evenodd" clip-rule="evenodd" fill="#FFFFFF" d="M-112.273-77.276c0.351-0.129-0.111-1.071,0.24-1.2
	c-0.272,9.647-0.046,19.794-0.12,29.64c4.298,0.68,8.25,2.803,9.72,6.6c0.381,0.984,0.853,2.741,0.84,3.84
	c-0.015,1.239-0.868,2.177-0.48,3.6c1.273-0.835,1.917-2.513,3-3.72c2.052-2.287,5.116-3.671,7.32-5.76
	c0.08-10.44-0.16-21.2,0.12-31.44c0,10.52,0,21.04,0,31.56c-2.496,2.103-5.653,3.75-7.8,6.24c-0.935,1.085-1.479,2.648-2.64,3.36
	c-0.67-1.358,0.345-2.487,0.36-3.84c0.016-1.355-0.387-2.861-0.84-3.96c-0.944-2.291-3.604-4.676-5.52-5.4
	c-0.88-0.333-3.77-0.325-4.2-1.08c-0.245-0.429,0-2.413,0-3.48c0-8.463,0-16.801,0-24.84
	C-112.273-77.196-112.273-77.236-112.273-77.276z"/>
<path fill-rule="evenodd" clip-rule="evenodd" fill="#FFFFFF" d="M-53.593-75.596c0,4.43,0,9.962,0,14.64
	c0,1.454,0.338,3.823,0,4.92c-0.325,1.057-2.569,2.569-3.6,3.6c-3.21,3.209-5.772,6.276-8.28,9.72
	c-0.503,0.691-0.872,1.612-1.68,2.04c-0.589-4.491-2.973-7.188-6.96-8.28c0-8.8,0-17.6,0-26.4c0.28,8.56,0.04,17.64,0.12,26.4
	c3.953,1.007,6.313,3.607,6.84,8.04c0.781-0.29,1.092-1.159,1.56-1.8c2.649-3.626,5.081-6.641,8.28-9.84
	c1.084-1.085,3.303-2.558,3.6-3.72c0.328-1.284,0-3.259,0-4.8C-53.713-66.072-53.812-70.903-53.593-75.596z"/>
<path fill-rule="evenodd" clip-rule="evenodd" fill="#FFFFFF" d="M-194.233-29.876c0.08-15.12-0.16-30.56,0.12-45.48
	c0,9.4,0,18.8,0,28.2c0,0.28,0,0.56,0,0.84c0.08,5.48-0.16,11.28,0.12,16.56c-0.207,3.113-1.781,4.858-4.56,5.4
	c-5.44-0.08-11.2,0.16-16.44-0.12c0-0.04,0-0.08,0-0.12c0-17.2,0-34.4,0-51.6c0-0.2,0-0.4,0-0.6c0.04,0,0.08,0,0.12,0
	c0.08,17.4-0.16,35.12,0.12,52.32c2.537,0,5.729,0,9,0c3.104,0,6.717,0.478,8.64-0.36c1.84-0.802,2.925-2.594,2.88-4.92
	C-194.233-29.796-194.233-29.836-194.233-29.876z"/>
<path fill-rule="evenodd" clip-rule="evenodd" fill="#FFFFFF" d="M-220.993-69.956c1.54,13.075-2.643,23.224-8.4,30.36
	c-5.845,7.245-13.842,12.944-24.96,14.64c10.777-1.962,19.054-7.309,24.84-14.52C-223.755-46.652-219.752-56.715-220.993-69.956z"/>
<path fill-rule="evenodd" clip-rule="evenodd" fill="#FFFFFF" d="M-156.193-70.316c0.009,0.209-0.027,0.374-0.12,0.48
	c-7.375,0.746-13.804,2.437-20.4,3.96c0-3.28,0-6.56,0-9.84c0.28,3,0.04,6.52,0.12,9.72c6.467-1.653,13.167-3.073,20.28-4.08
	C-156.286-70.169-156.309-70.312-156.193-70.316z"/>
<path fill-rule="evenodd" clip-rule="evenodd" fill="#FFFFFF" d="M-240.552-65.756c0.04,0,0.08,0,0.12,0c0,0.04,0,0.08,0,0.12
	c0,0.56,0,1.12,0,1.68c0,0.04,0,0.08,0,0.12c-1.051,10.294-7.684,18.535-18.36,19.32c-12.155,0.894-19.401-6.656-20.4-17.28
	c0-0.04,0-0.08,0-0.12c0-24.446,0-50.954,0-76.2c0-1.207,0.267-4.773,0-5.04c-0.179-0.178-2.366,0-2.88,0c-6.918,0-13.509,0-20.16,0
	c0.037-0.163,0.3-0.1,0.48-0.12c7.52,0.08,15.36-0.16,22.68,0.12c0.08,27.081-0.16,54.479,0.12,81.36
	c0.888,10.393,6.665,15.896,16.8,17.04c0.881,0.2,2.599,0.2,3.48,0c3.544-0.216,6.174-1.346,8.52-2.76
	c0.468-0.292,1.01-0.51,1.32-0.96c0.61-0.23,0.936-0.744,1.44-1.08c0.65-0.55,1.25-1.15,1.8-1.8c2.62-3.18,4.724-6.875,4.92-12.48
	C-240.395-64.238-240.631-65.154-240.552-65.756z"/>
<path fill-rule="evenodd" clip-rule="evenodd" fill="#FFFFFF" d="M-160.873-62.396c0.824-0.217,2.213-0.505,3-0.36
	C-158.906-62.669-159.802-62.445-160.873-62.396z"/>
<path fill-rule="evenodd" clip-rule="evenodd" fill="#FFFFFF" d="M-163.033-62.036c0.567-0.233,1.274-0.327,2.04-0.36
	C-161.579-62.182-162.299-62.103-163.033-62.036z"/>
<path fill-rule="evenodd" clip-rule="evenodd" fill="#FFFFFF" d="M-166.153-61.436c0.859-0.341,1.941-0.459,3-0.6
	C-164.039-61.723-165.128-61.611-166.153-61.436z"/>
<path fill-rule="evenodd" clip-rule="evenodd" fill="#FFFFFF" d="M-156.313-54.836c-5.419,1.141-10.698,2.422-15.48,4.2
	c1.82,2.485-2.651,2.807-5.04,3.24c-1.589,0.288-3.007,0.926-4.56,1.44c-1.785,0.591-5.703,2.33-6-0.479
	c-0.216-2.049,2.336-5.124,3.36-6.48c1.45-1.92,2.812-3.857,4.92-4.92c1.964-0.99,4.209-1.484,6.24-2.04
	c2.147-0.588,4.279-1.188,6.6-1.56c-3.485,1.01-7.148,1.502-10.2,2.76c-3.682,1.517-5.335,3.111-7.56,6.12
	c-0.915,1.236-3.366,4.174-3.24,6c0.162,2.358,2.959,1.377,4.56,0.84c1.389-0.466,2.396-0.801,3.72-1.2
	c1.785-0.538,7.015-0.696,7.44-2.4c0.169-0.679-0.512-0.981-0.24-1.44C-166.978-52.461-161.927-53.931-156.313-54.836z"/>
<path fill-rule="evenodd" clip-rule="evenodd" fill="#FFFFFF" d="M-156.193-52.316c0.194-0.034,0.207,0.114,0.36,0.12
	c-1.256,3.504-4.004,5.516-6,8.28c5.938-1.08,13.828-2.208,17.04-6.12c1.059-1.29,1.075-2.929-0.36-3.96
	c-2.333-1.676-7.781-1.418-11.04-0.84c3.278-1.089,12.192-1.279,12.48,2.76c0.142,1.993-2.982,3.896-4.8,4.8
	c-4.093,2.036-8.456,2.748-13.44,3.48c0.742-1.249,1.973-2.439,3.24-3.96C-157.815-48.833-155.768-51.22-156.193-52.316z"/>
<path fill-rule="evenodd" clip-rule="evenodd" fill="#E1E1E1" d="M-156.552-36.596c2.099,0.626,4.191,1.088,6.24,2.04
	c1.998,0.928,4.6,2.564,4.2,5.64c-0.259,1.993-2.472,4.455-3.96,5.76c-2.917,2.559-8.12,5.105-13.8,6.48
	c-7.37,1.783-17.304,2.475-20.04-3.36c-0.541-1.154-0.788-3.589-0.36-5.04c1.202-4.076,4.864-6.74,6.96-10.56
	c-1.92-0.547-5.909-0.304-5.88-2.88c0.027-2.414,5.808-3.208,8.28-3.48c1.016-0.112,2.136-0.019,3-0.36
	c0.989-0.39,2.074-1.833,3.12-2.88c3.02-3.02,6.158-6.194,10.92-6.96c-4.635,0.963-7.855,4.015-10.92,7.08
	c-1.031,1.031-2.129,2.499-3.12,2.88c-1.29,0.496-2.424,0.223-3.96,0.48c-2.497,0.417-7.179,1.167-7.2,3.24
	c-0.024,2.436,4.347,2.347,6.12,2.64c-1.191,1.83-2.504,3.547-3.84,5.4c-1.847,2.563-4.254,5.278-3.36,9.12
	c0.959,4.125,6.139,5.88,10.44,5.88c7.861,0,17.354-2.854,22.92-7.32c2.144-1.72,5.088-4.86,4.44-7.68
	C-147.248-34.369-152.951-34.985-156.552-36.596z"/>
<path fill-rule="evenodd" clip-rule="evenodd" fill="#FFFFFF" d="M-160.753-37.436c1.461,0.179,2.871,0.41,4.08,0.84
	C-158.041-36.868-159.467-37.082-160.753-37.436z"/>
<path fill-rule="evenodd" clip-rule="evenodd" fill="#FFFFFF" d="M-137.833-56.276c0.438,1.551,0.252,3.215-0.24,4.44
	c-3.077,7.665-15.636,10.249-24.96,12c-1.319,0.248-2.913,0.269-3.84,1.32c1.586,0.494,3.677,0.483,5.28,0.96
	c-1.902-0.219-3.757-0.483-5.52-0.84c0.678-1.103,2.093-1.22,3.24-1.44c8.541-1.64,19.149-3.785,23.76-9.12
	C-138.645-50.654-137.279-53.078-137.833-56.276z"/>
<path fill-rule="evenodd" clip-rule="evenodd" fill="#FFFFFF" d="M-156.673-62.876c8.301-0.777,16.972,0.037,18.84,6.48
	C-140.346-63.072-149.021-63.199-156.673-62.876z"/>
<path fill-rule="evenodd" clip-rule="evenodd" fill="#FFFFFF" d="M-279.193-61.796c0.999,10.624,8.245,18.174,20.4,17.28
	c10.676-0.786,17.309-9.026,18.36-19.32c-0.81,10.6-7.852,18.667-18.36,19.44C-270.988-43.499-278.459-51.123-279.193-61.796z"/>
<path fill-rule="evenodd" clip-rule="evenodd" fill="#E1E1E1" d="M-66.073-28.196c4.886-10.934,12.701-19.221,21.48-26.4
	c2.892-2.364,5.951-4.912,9.72-6.12c0.14-0.02,0.213,0.026,0.24,0.12c-1.298,0.055-4.006,1.71-5.52,2.76
	c-4.649,3.223-8.957,7.312-12.72,11.04C-58.465-41.256-62.97-35.018-66.073-28.196z"/>
<path fill-rule="evenodd" clip-rule="evenodd" fill="#E1E1E1" d="M-66.313-27.236c-0.34,2.562-0.138,4.498,0.48,6.96
	c0.392,1.561,0.948,3.71,2.52,3.72c1.554,0.009,2.279-2.159,3-3.24c0.936-1.403,1.691-2.538,3-3.24
	c2.49,3.387,5.433,9.361,10.92,8.04c2.787-0.671,5.55-2.818,7.92-4.68c2.524-1.981,4.758-4.322,6.84-5.88
	c-2.061,1.969-4.466,4.172-7.2,6.36c-2.284,1.827-5.604,4.56-9,4.56c-5.028,0-7.116-5.083-9.6-8.28
	c-1.202,1.044-1.944,2.049-2.88,3.48c-0.741,1.133-1.41,3.17-3.24,3c-2.393-0.222-3.171-6.147-3.12-8.88
	C-66.661-25.941-66.541-26.786-66.313-27.236z"/>
<path fill-rule="evenodd" clip-rule="evenodd" fill="#FFFFFF" d="M-31.993-27.356c0.171,0.432,0.511,1.325,0.36,1.68
	C-31.732-26.256-31.974-26.694-31.993-27.356z"/>
<path fill-rule="evenodd" clip-rule="evenodd" fill="#E1E1E1" d="M-35.353-35.036c-1.909,6.331-8.313,8.167-13.44,11.28
	c3.641,6.334,10.324-0.249,13.92-3c0.348-0.266,2.483-2.526,2.76-1.2c-0.222-0.018-0.073-0.406-0.24-0.48
	c-3.305,1.779-7.297,6.8-11.52,7.56c-2.485,0.447-4.193-1.03-5.16-2.88C-43.902-26.945-37.534-28.897-35.353-35.036z"/>
<path fill-rule="evenodd" clip-rule="evenodd" fill="#FFFFFF" d="M-35.593-38.036c0.158,0.248,0.48,0.952,0.24,1.2
	C-35.353-37.315-35.593-37.556-35.593-38.036z"/>
<path fill-rule="evenodd" clip-rule="evenodd" fill="#E1E1E1" d="M-35.593-38.156c-0.9-1.134-1.26-2.394-2.76-2.76
	c-2.307-0.563-5.471,1.687-7.44,3c-4.641,3.095-9.099,6.534-13.08,9.96c-0.814,0.701-1.522,1.667-2.52,1.92
	c-0.081-1.053,0.666-1.746,1.32-2.4c4.568-4.567,8.744-8.984,13.32-13.56c3.668-3.668,7.373-7.875,11.04-11.88
	c1.531-1.672,4.153-5.62,1.2-6.72c3.182,1.036,0.406,5.066-1.08,6.84c-7.522,8.978-15.897,16.978-24.12,25.2
	c-0.61,0.61-1.699,1.167-1.44,2.28c4.016-3.128,10.134-8.453,15.36-11.88c1.75-1.147,4.258-2.763,6.12-3
	C-37.132-41.479-36.445-39.854-35.593-38.156z"/>
<path fill-rule="evenodd" clip-rule="evenodd" fill="#E1E1E1" d="M65.447-21.716c4.821-1.139,7.158-4.762,11.04-6.84
	c1.435,2.393-0.742,3.862-2.4,5.52c-2.774,2.774-7.366,7.135-11.52,7.56c-4.679,0.478-4.912-4.625-4.08-9.36
	c-1.839,0.979-3.316,2.955-5.28,4.56c-1.453,1.188-4.037,3.759-6.6,3.36c-2.496-0.389-4.305-5.287-4.56-7.92
	c-0.356-3.683,1.533-6.342,3.36-8.28c1.499-1.589,4.547-3.829,7.08-5.16c3.475-1.827,9.39-4.491,11.64-1.2
	c3.072-4.859,5.626-12.28,9.96-16.08c1.561-1.369,4.986-2.572,5.52,0.6c0.482,2.867-2.17,5.963-3.36,7.8
	c-3.131,4.835-5.666,8.666-8.64,13.56c-1.697,2.792-3.752,5.693-3.24,9.84C64.471-22.913,64.736-22.181,65.447-21.716z
	 M61.247-15.596c1.524,0.265,3.812-0.671,5.16-1.44c2.871-1.638,5.04-3.6,7.32-5.88c1.507-1.507,4.062-3.206,2.64-5.4
	c-1.814,1.103-3.166,2.321-5.04,3.72c-1.644,1.228-6.803,5.541-7.2,0.72c-0.303-3.676,1.388-6.877,3.24-9.84
	c2.985-4.774,5.69-8.878,8.64-13.44c1.245-1.925,3.807-4.961,3.48-7.56c-0.394-3.129-3.547-2.244-5.28-0.72
	c-4.797,4.218-6.491,10.806-9.96,16.2c-0.872-0.494-1.228-1.448-2.16-1.68c-1.615-0.402-4.579,0.797-6.48,1.56
	c-2.166,0.87-4.101,1.772-5.76,2.88c-3.597,2.401-8.116,6.071-7.68,11.64c0.2,2.554,2.105,7.098,4.32,7.68
	c2.35,0.618,5.353-2.239,7.08-3.72c0.879-0.754,1.734-1.558,2.52-2.28c0.879-0.808,1.622-1.812,2.64-2.04
	C58.131-22.047,57.596-16.231,61.247-15.596z"/>
<path fill-rule="evenodd" clip-rule="evenodd" fill="#E1E1E1" d="M-71.113-27.716c-0.237-0.402-0.395-0.885-0.48-1.44
	c-3.664,1.995-8.529,7.386-14.04,7.8c-3.022,0.227-7.259-1.266-6-5.04c0.535-1.604,2.498-2.589,3.84-3.6
	c1.543-1.161,2.723-2.314,4.32-3.12c0.887,5.008,4.596,1.958,6.72-0.48c1.708-1.961,2.796-3.858,2.88-6.36
	c-0.888-3.76-5.952-2.208-9-0.84c-2.036,0.914-3.637,1.873-5.4,3c-4.026,2.575-7.197,4.911-8.28,8.64
	c0.708-2.565,2.152-4.425,3.96-5.88c1.771-1.426,4.366-3.137,6.72-4.44c2.473-1.369,5.197-2.758,8.04-3
	c2.771-0.236,4.456,1.261,4.08,3.96c-0.231,1.661-1.605,3.742-2.88,5.16c-1.754,1.95-6.082,5.577-6.96,0.48
	c-1.793,1.681-5.527,3.363-7.2,5.4c-2.726,3.319,1.128,6.27,5.16,5.88c5.974-0.578,9.674-5.246,13.8-7.68
	C-71.25-29.099-71.303-28.286-71.113-27.716z"/>
<path fill-rule="evenodd" clip-rule="evenodd" fill="#E1E1E1" d="M-96.553-29.036c-0.171,1.561-0.519,2.652-0.36,4.2
	c0.589,5.75,3.542,10.319,9.84,9.24c4.922-0.843,9.559-4.688,12.84-7.68c1.288-1.174,4.024-2.988,3.12-4.32
	c1.201,1.521-2.02,3.45-3.36,4.68c-3.389,3.111-8.812,7.756-14.64,7.68c-5.344-0.069-8.28-5.306-7.92-11.28
	C-96.987-27.278-96.81-28.381-96.553-29.036z"/>
<path fill-rule="evenodd" clip-rule="evenodd" fill="#E1E1E1" d="M-19.633-24.716c-0.266-0.274,0.304-0.73,0.12-1.32
	c4.692-1.807,10.869-4.131,14.04-7.8c1.209-1.399,3.107-4.662,1.56-6.72c-0.85-1.131-2.74-1.424-4.2-1.44
	c-5.984-0.066-11.047,3.404-14.28,7.2c-2.049,2.406-3.373,4.932-4.08,7.68c2.053-7.588,8.638-14.436,17.28-15
	c2.744-0.179,5.622,0.514,6,2.76c0.376,2.236-1.021,4.315-2.04,5.52c-3.173,3.752-9.41,6.095-14.16,7.92
	C-19.364-25.407-19.503-25.066-19.633-24.716z"/>
<path fill-rule="evenodd" clip-rule="evenodd" fill="#E1E1E1" d="M-26.593-25.916c-0.2,2.527,0.537,6.274,2.04,8.16
	c1.672,2.098,4.956,2.948,7.92,2.28c4.666-1.051,9.056-4.56,12.36-7.56c1.901-1.727,4.21-3.141,2.76-5.76
	c-3.644,2.043-7.773,7.153-13.32,7.68c-2.222,0.211-5.713-1.04-4.8-3.48c-0.062,2.534,1.957,3.462,4.68,3.24
	c5.523-0.451,9.961-5.626,13.44-7.68c0.097,0.517,0.827,1.743,0.72,2.52c-0.134,0.972-2.428,2.762-3.48,3.72
	c-3.39,3.086-8.335,7.225-13.56,7.68c-3.677,0.321-6.053-1.035-7.44-3.36C-26.181-19.998-27.12-23.659-26.593-25.916z"/>
<path fill-rule="evenodd" clip-rule="evenodd" fill="#E1E1E1" d="M-108.553-38.636c-1.365-4.07-5.915-3.19-10.2-2.16
	c-3.697,0.889-8.542,3.446-12,5.88c-3.205,2.256-7.717,5.84-7.68,10.08c0.015,1.641,0.999,3.674,2.04,5.16
	c0.915,1.305,2.629,3.597,4.44,3.36c0.993-0.13,2.595-1.333,3.6-2.04c3.115-2.192,6.449-5.497,9.36-7.2
	c-1.552,2.686-4.742,11.771,1.56,10.92c1.278-0.173,3.101-1.289,4.32-2.04c3.61-2.226,7.786-5.931,10.44-8.52
	c-0.077-0.683-0.335-1.185-0.36-1.92c0.269,0.531,0.324,1.276,0.48,1.92c-2.542,2.705-6.687,6.293-10.44,8.64
	c-1.796,1.123-5.687,3.386-7.68,1.08c-2.34-2.708,0.535-7.303,1.44-9.72c-3.027,1.971-6.003,4.835-9.48,7.2
	c-1.087,0.74-2.37,1.925-3.84,1.8c-1.42-0.121-2.858-1.709-3.6-2.64c-1.284-1.61-2.41-4.155-2.4-6c0.011-2.165,1.7-4.798,3.24-6.48
	c3.459-3.779,11.137-8.225,16.44-9.6C-114.794-41.973-109.46-42.926-108.553-38.636z"/>
<path fill-rule="evenodd" clip-rule="evenodd" fill="#E1E1E1" d="M-109.033-33.596c-0.49,1.591-1.657,3.134-3,4.68
	c-1.005,1.157-4.892,5.796-1.56,6.48c3.008,0.618,6.358-2.802,8.28-4.2c0.326-0.237,2.08-1.908,2.28-0.6
	c-0.14-0.02-0.13-0.19-0.12-0.36c-1.021-0.051-1.799,0.98-2.76,1.68c-1.706,1.241-4.224,3.55-6.6,3.72
	c-4.947,0.354-1.077-5.412,0.12-6.72C-111-30.438-109.524-32.076-109.033-33.596z"/>
<path fill-rule="evenodd" clip-rule="evenodd" fill="#FFFFFF" d="M-108.553-38.516c0.161,0.882-1.085,1.394-1.8,1.8
	c0.825,0.673,1.654,1.506,1.32,3c0.079-1.351-0.551-2.41-1.56-3C-109.812-37.215-108.745-37.429-108.553-38.516z"/>
<path fill-rule="evenodd" clip-rule="evenodd" fill="#E1E1E1" d="M26.087-23.156c4.88-0.672,6.768-4.588,10.44-6.6
	c0.065,0.874,0.724,1.951,0.6,2.76c-0.137,0.889-1.97,2.331-2.76,3.12c-2.872,2.872-5.956,6.154-9.48,7.92
	c-3.227,1.618-7.003,0.708-7.32-3.12c-0.428-5.166,3.691-8.454,5.28-11.64c-4.672,3.267-7.23,6.822-10.92,11.28
	c-1.513,1.828-4.075,4.428-6.36,2.28c-1.447-1.361-2.125-4.516-1.8-7.44c0.326-2.933,1.785-5.51,3.48-8.04
	c1.493-2.23,3.417-5.221,5.4-6c1.636-0.643,5.41-0.214,5.76,0.96c0.384,1.285-1.056,2.71-1.68,3.48c-1.716,2.119-3.183,3.5-4.92,5.4
	c-0.775,0.848-1.94,1.771-1.8,3.12c1.335,0.263,1.974-1.154,2.64-1.92c4.242-4.882,9.659-9.102,15.72-12.6
	c0.967-0.558,2.312-1.599,3.24-1.44c1.15,0.196,2.428,3.804,2.28,5.28c-0.107,1.069-1.477,2.511-2.28,3.36
	c-1.784,1.887-3.813,3.51-5.16,5.88C25.838-26.043,25.01-24.41,26.087-23.156z M17.687-19.676c0.019,2.07,1.075,3.898,2.88,4.32
	c3.529,0.825,7.295-2.74,9.6-4.8c2.561-2.289,4.893-4.6,6.84-6.84c-0.325-0.714-0.267-1.813-0.6-2.52
	c-1.604,0.966-3.166,2.617-4.68,3.84c-0.805,0.65-4.268,3.407-5.76,2.64c-0.846-0.435-0.624-2.121-0.24-3.12
	c0.694-1.807,2.37-3.294,3.96-5.04c1.52-1.669,3.751-3.412,3.96-5.16c0.177-1.479-0.857-4.68-1.92-5.04
	c-0.817-0.276-2.301,0.771-3.24,1.32c-6.047,3.537-11.782,7.834-15.96,12.84c-0.625,0.75-1.382,2.401-2.76,1.56
	c0.626-2.759,2.645-3.815,4.44-5.76c0.713-0.772,1.392-1.641,2.28-2.76c0.61-0.769,2.101-2.249,1.8-3.36
	c-0.33-1.221-4.272-1.51-5.76-0.84c-1.465,0.66-3.574,3.365-5.16,5.76c-1.632,2.465-2.909,5.142-3.36,7.56
	c-0.796,4.272,1.505,11.231,6,7.44c1.243-1.048,2.188-2.455,3.12-3.6c3.155-3.874,5.848-7.11,10.2-9.96
	C21.65-27.769,17.643-24.416,17.687-19.676z"/>
<path fill-rule="evenodd" clip-rule="evenodd" fill="#FFFFFF" d="M-124.873-31.196c1.055-0.665,2.323-1.117,3.6-1.56
	C-122.401-32.165-123.685-31.728-124.873-31.196z"/>
<path fill-rule="evenodd" clip-rule="evenodd" fill="#E1E1E1" d="M-130.873-27.356c0.466-0.654,1.129-1.111,1.8-1.56
	C-129.616-28.339-130.316-27.919-130.873-27.356z"/>
<path fill-rule="evenodd" clip-rule="evenodd" fill="#FFFFFF" d="M-171.793-33.236c0.856-2.297,5.103-1.258,7.44-0.96
	C-166.908-34.263-170.738-35.397-171.793-33.236z"/>
<path fill-rule="evenodd" clip-rule="evenodd" fill="#FFFFFF" d="M-174.552-30.236c0.929-0.95,1.727-2.033,2.76-2.88
	C-172.722-32.166-173.52-31.083-174.552-30.236z"/>
<path fill-rule="evenodd" clip-rule="evenodd" fill="#E1E1E1" d="M-176.473-27.236c-0.104,0.584,0.164,0.796,0.24,1.2
	C-176.463-26.212-176.8-26.9-176.473-27.236z"/>
<path fill-rule="evenodd" clip-rule="evenodd" fill="#E1E1E1" d="M-176.233-25.916c2.474,3.7,10.979,2.982,14.64,0.84
	C-165.05-22.634-173.947-21.958-176.233-25.916z"/>
<path fill-rule="evenodd" clip-rule="evenodd" fill="#E1E1E1" d="M-161.473-25.076c0.647-0.393,1.435-0.646,2.16-0.96
	C-159.91-25.594-160.673-25.316-161.473-25.076z"/>
<path fill-rule="evenodd" clip-rule="evenodd" fill="#E1E1E1" d="M-158.353-33.116c1.865,0.548,3.634,0.58,4.56,2.16
	c0.081,2.292-1.704,3.321-3.12,3.72c1.207-0.775,3.112-1.734,3-3.24C-154.054-32.387-156.776-32.283-158.353-33.116z"/>
<path fill-rule="evenodd" clip-rule="evenodd" fill="#FFFFFF" d="M-164.233-34.196c1.52,0.12,2.976,0.304,4.2,0.72
	C-161.418-33.731-162.896-33.893-164.233-34.196z"/>
</svg>
