<?xml version="1.0" encoding="UTF-8" standalone="no"?>
<!-- Generator: Adobe Illustrator 15.1.0, SVG Export Plug-In . SVG Version: 6.00 Build 0)  -->

<svg
   xmlns:sketch="http://www.bohemiancoding.com/sketch/ns"
   xmlns:dc="http://purl.org/dc/elements/1.1/"
   xmlns:cc="http://creativecommons.org/ns#"
   xmlns:rdf="http://www.w3.org/1999/02/22-rdf-syntax-ns#"
   xmlns:svg="http://www.w3.org/2000/svg"
   xmlns="http://www.w3.org/2000/svg"
   xmlns:xlink="http://www.w3.org/1999/xlink"
   xmlns:sodipodi="http://sodipodi.sourceforge.net/DTD/sodipodi-0.dtd"
   xmlns:inkscape="http://www.inkscape.org/namespaces/inkscape"
   version="1.1"
   id="Ebene_1"
   x="0px"
   y="0px"
   width="598.11475"
   height="250.9765"
   viewBox="-331.753 -143.296 598.11474 250.97651"
   enable-background="new -331.753 -143.296 411.268 128.487"
   xml:space="preserve"
   inkscape:version="0.48.4 r9939"
   sodipodi:docname="logo_backend.svg"><metadata
     id="metadata355"><rdf:RDF><cc:Work
         rdf:about=""><dc:format>image/svg+xml</dc:format><dc:type
           rdf:resource="http://purl.org/dc/dcmitype/StillImage" /></cc:Work></rdf:RDF></metadata><defs
     id="defs353"><linearGradient
       inkscape:collect="always"
       xlink:href="#linearGradient-2"
       id="linearGradient3056"
       gradientUnits="userSpaceOnUse"
       gradientTransform="scale(1.6395646,0.60991801)"
       x1="679.38605"
       y1="362.85251"
       x2="686.67444"
       y2="62.525795" /><linearGradient
       x1="0.43118447"
       y1="0.98481005"
       x2="0.45508412"
       y2="0"
       id="linearGradient-2"><stop
         stop-color="#03D67F"
         offset="0%"
         id="stop16" /><stop
         stop-color="#CBF066"
         offset="100%"
         id="stop18" /></linearGradient><linearGradient
       inkscape:collect="always"
       xlink:href="#linearGradient-2"
       id="linearGradient3054"
       gradientUnits="userSpaceOnUse"
       gradientTransform="matrix(1.6395646,0,0,0.60991803,898.30508,38.135593)"
       x1="131.49359"
       y1="300.32669"
       x2="138.782"
       y2="0" /><linearGradient
       x1="0.43118447"
       y1="0.98481005"
       x2="0.45508412"
       y2="0"
       id="linearGradient3016"><stop
         stop-color="#03D67F"
         offset="0%"
         id="stop3018" /><stop
         stop-color="#CBF066"
         offset="100%"
         id="stop3020" /></linearGradient><linearGradient
       y2="0"
       x2="138.782"
       y1="300.32669"
       x1="131.49359"
       gradientTransform="matrix(1.6395646,0,0,0.60991803,898.30508,38.135593)"
       gradientUnits="userSpaceOnUse"
       id="linearGradient3024"
       xlink:href="#linearGradient-2"
       inkscape:collect="always" /></defs><sodipodi:namedview
     pagecolor="#ffffff"
     bordercolor="#666666"
     borderopacity="1"
     objecttolerance="10"
     gridtolerance="10"
     guidetolerance="10"
     inkscape:pageopacity="0"
     inkscape:pageshadow="2"
     inkscape:window-width="1078"
     inkscape:window-height="738"
     id="namedview351"
     showgrid="false"
     fit-margin-top="0"
     fit-margin-left="0"
     fit-margin-right="0"
     fit-margin-bottom="0"
     inkscape:zoom="0.84616356"
     inkscape:cx="133.00122"
     inkscape:cy="139.36983"
     inkscape:window-x="0"
     inkscape:window-y="1006"
     inkscape:window-maximized="0"
     inkscape:current-layer="Ebene_1" /><g
     id="Bmm"
     sketch:type="MSLayerGroup"
     transform="translate(-1230.0581,-181.43161)"
     style="fill:url(#linearGradient3056);stroke:none"><path
       d="m 1338.1199,145.08914 0,-0.004 0,0.004 0,0 z m -32.4058,0.0426 c 0,-0.023 0,-0.039 0,0.0106 l 0,0.0567 c 0,-0.039 0,-0.18778 0,-0.0673 l 0,0 z m -27.7759,69.7267 c 0,-0.0177 0,-0.004 0,0.0319 0,0.0372 0,0.0514 0,0.0337 0,0.0283 0,0.0408 0,-0.0337 0,-0.0744 0,-0.0602 0,-0.0319 l 0,0 z m -49.1566,9.23548 c -0.4802,0 -1.1401,0.0901 -1.5972,0.005 l -22.8931,0 0,-78.94778 c 0,-8.02421 -6.1831,-13.95055 -14.1938,-13.95055 -7.8898,0 -14.298,5.59788 -14.4918,13.45257 0.2618,0.004 0.2618,72.38395 0.2618,72.38395 -0.076,4.22578 -3.1378,7.06181 -7.3762,7.06181 l -24.6005,0 0,-79.44223 c -0.1903,-7.85645 -6.2436,-13.4561 -14.1351,-13.4561 -8.0107,0 -14.2887,5.43365 -14.2887,13.4561 l 0,70.61453 c -0.3112,4.00681 -3.3673,8.8277 -7.4473,8.8277 l -24.5294,0 0,-79.41044 c 0,-26.01513 19.898,-46.103217 45.8723,-46.103217 11.7618,0 22.8992,3.794187 31.1465,10.942527 8.2473,-7.14834 17.5617,-10.942527 29.3252,-10.942527 25.9743,0 46.4337,20.056297 46.4337,46.071427 l 0,72.38042 c 0,3.81256 -2.4673,6.25303 -6.0813,6.91524 -0.4571,0.0848 -0.9231,0.14127 -1.4051,0.14127 z m 162.037,0 c -0.4802,0 -1.14,0.0901 -1.5971,0.005 l -22.8932,0 0,-78.94778 c 0,-8.02421 -6.183,-13.95055 -14.1937,-13.95055 -7.8898,0 -14.298,5.59788 -14.4919,13.45257 0.2619,0.004 0.2619,72.38395 0.2619,72.38395 -0.077,4.22578 -3.1379,7.06181 -7.3762,7.06181 l -24.6006,0 0,-79.44223 c -0.1903,-7.85645 -6.2435,-13.4561 -14.1351,-13.4561 -8.0107,0 -14.2886,5.43365 -14.2886,13.4561 l 0,70.61453 c -0.3113,4.00681 -3.3673,8.8277 -7.4474,8.8277 l -24.5294,0 0,-79.41044 c 0,-26.01513 19.898,-46.103217 45.8724,-46.103217 11.7617,0 22.8992,3.794187 31.1464,10.942527 8.2473,-7.14834 17.5617,-10.942527 29.3252,-10.942527 25.9744,0 46.4338,20.056297 46.4338,46.071427 l 0,72.38042 c 0,3.81256 -2.4673,6.25303 -6.0814,6.91524 -0.4571,0.0848 -0.9231,0.14127 -1.4051,0.14127 z m -214.7357,-79.00481 0,-0.004 0,0.004 0,0 z m -32.4054,0.0426 c 0,-0.023 0,-0.039 0,0.0106 l 0,0.0567 c 0,-0.039 0,-0.18778 0,-0.0673 l 0,0 z m -27.7763,69.7267 c 0,-0.0177 0,-0.004 0,0.0319 0,0.0372 0,0.0514 0,0.0337 0,0.0283 0,0.0425 0,-0.0337 0,-0.0744 0,-0.0602 0,-0.0319 l 0,0 z M 950.25636,162.135 l 0,-92.113136 c -15.72963,0 -28.89852,9.896351 -28.89852,24.800237 -0.0709,12.433789 7.09261,22.721739 7.09261,35.428399 0,23.58822 -9.10514,24.51318 -11.36413,27.66371 1.00005,-2.34783 3.48779,-16.54117 1.62243,-23.07612 -2.99663,-10.49882 -20.40367,-27.18174 -20.40367,-48.262653 0,-26.749383 22.88608,-48.434528 51.11822,-48.434528 l 32.71226,-0.0053 0,125.771361 c 0,17.57954 12.37014,28.88282 29.80734,28.88282 17.4354,0 31.571,-14.25004 31.571,-31.8278 0,-17.57953 -11.3766,-31.39367 -28.8138,-31.39367 -9.9615,0 -17.33306,4.04537 -23.11885,11.31037 l 0,-33.65645 c 0.36881,-2.03952 1.03781,-3.93905 5.03095,-5.97679 6.417,-2.160017 11.1726,-2.875886 18.0879,-2.875886 34.5269,0 59.5309,27.185286 59.5309,61.995276 0,34.80999 -27.9156,63.77077 -62.4424,63.77077 -34.52681,0 -61.53224,-27.1906 -61.53224,-62.00059 z"
       id="logo"
       sketch:type="MSShapeGroup"
       style="fill:url(#linearGradient3024)"
       inkscape:connector-curvature="0" /></g><path
     clip-rule="evenodd"
     d="m -34.284958,45.753137 c 9.716225,-0.410187 20.734126,-0.248906 23.925457,8.229137 0,0.0508 0,0.101595 0,0.152392 0.7035395,4.061232 -1.031182,7.13954 -2.895437,9.295879 -5.855642,6.775069 -19.327046,9.499067 -30.173509,11.58175 -1.45534,0.279384 -3.25356,0.427966 -4.11457,1.828697 2.23889,0.453365 4.59461,0.789896 7.01001,1.06674 0.195569,0.209538 0.661632,0.151122 1.06674,0.152392 1.633128,0.449554 3.444046,0.721319 5.181309,1.06674 0.0508,0 0.101594,0 0.152391,0 4.573014,2.045855 11.816687,2.828131 12.953274,7.771964 0.822913,3.581199 -2.915757,7.568775 -5.638484,9.753052 -7.068423,5.6715 -19.12386,9.29588 -29.10677,9.29588 -5.46196,0 -12.03892,-2.23 -13.25805,-7.467182 -1.13532,-4.879067 1.9214,-8.326923 4.26696,-11.58175 1.69535,-2.354448 3.36404,-4.534916 4.87652,-6.857616 -2.25158,-0.370819 -7.80244,-0.259065 -7.77196,-3.352611 0.0267,-2.633833 5.97248,-3.585009 9.14349,-4.11457 1.95061,-0.326371 3.39071,0.02032 5.02892,-0.609565 1.25849,-0.483843 2.65288,-2.348099 3.96217,-3.657395 3.89233,-3.892332 7.981505,-7.768154 13.867624,-8.991096 0.993085,0.203189 1.095949,-0.142232 2.133481,-0.152391 0.539719,1.391842 -2.061095,4.423162 -3.200221,5.790875 -1.608999,1.931562 -3.172282,3.442777 -4.114569,5.028918 6.329325,-0.929588 11.870024,-1.833777 17.067842,-4.419352 2.308731,-1.148016 6.275988,-3.56469 6.095658,-6.095658 -0.365739,-5.129243 -11.685884,-4.887956 -15.84871,-3.505004 -0.0508,0 -0.101595,0 -0.152392,0 -7.13065,1.149286 -13.545063,3.016081 -19.658493,5.18131 -0.34542,0.582897 0.52067,0.966416 0.30478,1.828697 -0.53972,2.163959 -7.18145,2.364608 -9.44827,3.047829 -1.68139,0.506702 -2.9602,0.932128 -4.72414,1.523915 -2.03315,0.683221 -5.58514,1.929021 -5.79087,-1.06674 -0.15874,-2.31889 2.95385,-6.049941 4.11457,-7.619573 2.82559,-3.821216 4.92351,-5.845482 9.60066,-7.771964 3.87582,-1.5963 8.52757,-2.222375 12.95327,-3.505003 0.0508,0 0.1016,0 0.15239,0 1.30168,-0.222238 2.68336,-0.36447 3.80979,-0.761957 0.0508,0 0.1016,0 0.15239,0 0.93213,-0.08509 1.846479,-0.18541 2.590657,-0.457175 0.0508,0 0.101594,0 0.152391,0 1.360094,-0.06223 2.49795,-0.34669 3.809786,-0.457174 0.609566,0.0508 0.845773,-0.271765 1.523915,-0.152391 z m -9.753049,36.421556 c -2.96783,-0.378439 -8.35994,-1.697895 -9.44827,1.219131 0,0.0508 0,0.101595 0,0.152392 -1.31184,1.075629 -2.32524,2.450962 -3.50501,3.657394 -0.9499,1.134047 -2.06363,2.101733 -2.43826,3.809787 -0.41527,0.425426 0.0127,1.300407 0.30478,1.523914 0,0.0508 0,0.101594 0,0.152392 2.90306,5.026378 14.20162,4.167906 18.59176,1.06674 0.0508,0 0.101594,0 0.152391,0 1.015943,-0.304783 1.983629,-0.657823 2.743046,-1.219132 1.216592,-0.307323 2.022997,-1.024832 3.047829,-1.523914 1.799489,-0.506702 4.065042,-1.813459 3.962178,-4.724135 -1.175954,-2.006488 -3.422458,-2.045855 -5.790875,-2.743046 -0.664173,-0.199379 -1.267389,-0.460984 -2.133481,-0.457175 -1.554392,-0.52956 -3.403409,-0.761957 -5.333698,-0.914348 -0.0508,0 -0.1016,0 -0.15239,0 z"
     id="path83"
     inkscape:connector-curvature="0"
     style="fill:#60b5d4;fill-opacity:1;fill-rule:evenodd;stroke:#e8e8e8;stroke-opacity:1" /><path
     clip-rule="evenodd"
     d="m 80.770588,89.794265 c 3.940589,-8.663454 9.661618,-16.585269 16.763059,-23.620674 4.778733,-4.734295 10.249593,-9.927034 16.153493,-14.020014 1.92267,-1.332155 5.36163,-3.435157 7.01,-3.505003 0.0508,0 0.10159,0 0.15239,0 3.7501,1.396922 0.42162,6.40933 -1.52392,8.533921 -4.65682,5.086065 -9.3619,10.427385 -14.02,15.086754 -5.811193,5.811193 -11.114415,11.420469 -16.91545,17.220233 -0.830533,0.831804 -1.77917,1.710594 -1.676306,3.047829 1.267389,-0.321292 2.166499,-1.548043 3.200221,-2.438263 5.055586,-4.350776 10.716925,-8.718061 16.610665,-12.64849 2.50049,-1.667417 6.51854,-4.524756 9.44827,-3.809786 1.90489,0.464794 2.36207,2.064904 3.505,3.505003 0,0.0508 0,0.101594 0,0.152391 0,0.608296 0.30478,0.914349 0.30478,1.523915 -0.40892,0.638774 0.0356,1.532804 0,2.285872 -2.77098,7.794822 -10.85662,10.273723 -17.37262,14.324796 1.22802,2.349368 3.39706,4.225053 6.55283,3.657394 5.36291,-0.965145 10.43246,-7.341458 14.62958,-9.600661 0.21207,0.09398 0.0229,0.586707 0.30478,0.609566 -0.0483,0.35304 0.0254,0.585437 0.15239,0.761957 0.0241,0.840693 0.33145,1.396922 0.45717,2.133481 0,0.0508 0,0.101594 0,0.152391 -2.64526,1.978549 -5.48101,4.950182 -8.6863,7.467183 -3.00973,2.36333 -6.51855,5.09114 -10.05784,5.94326 -6.968093,1.67758 -10.705494,-5.90897 -13.867616,-10.210223 -1.662337,0.89149 -2.621133,2.332859 -3.809786,4.114573 -0.915619,1.37279 -1.836317,4.12726 -3.809787,4.11457 -1.996328,-0.0127 -2.702408,-2.74178 -3.20022,-4.724139 -0.784816,-3.126565 -1.041342,-5.585147 -0.609566,-8.838704 0.135882,-0.372089 0.35558,-0.660363 0.304783,-1.219132 z m 22.096752,-4.114569 c -2.44715,1.60519 -4.887948,3.366581 -6.09565,5.333701 0.966416,0.760687 2.228725,1.224211 3.20022,1.981089 2.16903,-1.493437 4.46126,-3.018621 6.70522,-4.571744 2.10681,-1.457878 5.0467,-2.85607 5.48609,-5.943266 -3.1291,-0.990545 -6.75856,1.536613 -9.29588,3.20022 z"
     id="path91"
     inkscape:connector-curvature="0"
     style="fill:#60b5d4;fill-opacity:1;fill-rule:evenodd;stroke:#e8e8e8;stroke-opacity:1" /><path
     clip-rule="evenodd"
     d="m 239.25768,93.604051 c -1.29278,0.289544 -2.23634,1.564553 -3.35261,2.590655 -0.99816,0.916888 -2.08395,1.937911 -3.20022,2.895437 -2.19444,1.880767 -6.00676,5.508947 -8.9911,4.724137 -2.81162,-0.74037 -5.2321,-6.509656 -5.48609,-9.753054 -0.55369,-7.072233 5.18512,-11.731602 9.75306,-14.781971 2.10681,-1.407081 4.56412,-2.553827 7.31478,-3.657395 2.41414,-0.968955 6.17821,-2.4916 8.22914,-1.981088 1.18358,0.294623 1.63694,1.507405 2.74305,2.13348 4.40538,-6.849996 6.55664,-15.215016 12.64849,-20.572846 2.19952,-1.935371 6.20487,-3.059258 6.70522,0.914349 0.41527,3.300545 -2.83829,7.156048 -4.41935,9.600661 -3.74629,5.793415 -7.18145,11.005203 -10.97218,17.067842 -2.35191,3.762799 -4.49809,7.827841 -4.11457,12.496099 0.50416,6.122323 7.05572,0.645124 9.14348,-0.914348 2.38112,-1.776631 4.09679,-3.323404 6.40045,-4.724135 1.80583,2.786223 -1.43883,4.943832 -3.35262,6.857615 -2.8967,2.896707 -5.64991,5.387041 -9.29587,7.467181 -1.71187,0.97657 -4.61747,2.16523 -6.55284,1.8287 -4.63651,-0.80641 -3.95709,-8.192313 -3.20022,-12.191319 z m 3.50501,-12.496098 c -4.45237,1.728373 -11.54239,3.595168 -14.78197,7.162398 -0.86737,0.956256 -3.99774,7.180177 -1.37153,7.924355 1.50741,0.426696 4.53619,-2.259203 5.18131,-2.743046 3.38563,-2.537318 5.75278,-4.788901 8.38153,-7.619573 1.23818,-1.332155 2.98941,-2.877658 2.74305,-4.724134 -0.0508,0 -0.1016,0 -0.15239,0 z"
     id="path93"
     inkscape:connector-curvature="0"
     style="fill:#60b5d4;fill-opacity:1;fill-rule:evenodd;stroke:#e8e8e8;stroke-opacity:1" /><path
     clip-rule="evenodd"
     d="m 42.063158,88.575134 c 1.375332,-4.735565 5.402279,-7.702118 10.515012,-10.972185 2.238885,-1.431209 4.272041,-2.649071 6.857615,-3.809786 3.870743,-1.737262 10.301662,-3.708192 11.429359,1.06674 -0.106674,3.177362 -1.487087,5.586417 -3.657395,8.076747 -2.697328,3.096086 -7.407494,6.969369 -8.533921,0.609566 -2.028076,1.023562 -3.526592,2.48652 -5.486092,3.962177 -1.704244,1.283898 -4.197114,2.534778 -4.876526,4.571744 -1.598841,4.792711 3.781848,6.688714 7.619572,6.400441 6.997308,-0.525751 13.17678,-7.371937 17.829799,-9.905444 0.107944,0.70481 0.308593,1.318186 0.609566,1.828697 0,0.0508 0,0.101594 0,0.152391 1.148016,1.691545 -2.326509,3.995196 -3.962177,5.486092 -4.167906,3.799627 -10.055296,8.682506 -16.305885,9.753056 -7.996742,1.37025 -11.748114,-4.43332 -12.496102,-11.734144 -0.201918,-1.96585 0.240017,-3.351342 0.457175,-5.333701 0,-0.0508 0,-0.101594 0,-0.152391 z"
     id="path99"
     inkscape:connector-curvature="0"
     style="fill:#60b5d4;fill-opacity:1;fill-rule:evenodd;stroke:#e8e8e8;stroke-opacity:1" /><path
     clip-rule="evenodd"
     d="m 131.05976,91.165788 c 0.89911,-3.491034 2.57922,-6.697604 5.18131,-9.753053 4.10568,-4.820649 10.53406,-9.227302 18.13458,-9.143486 1.8541,0.02159 4.25426,0.392408 5.3337,1.828697 1.96458,2.613513 -0.44575,6.756021 -1.98109,8.533921 -4.02694,4.659369 -11.87129,7.611953 -17.8298,9.905444 0.23367,0.747988 -0.49019,1.327076 -0.15239,1.676306 0,0.0508 0,0.101594 0,0.152392 -1.15944,3.098626 3.27515,4.687307 6.09566,4.419352 7.04429,-0.669253 12.28783,-7.158589 16.91545,-9.753053 1.84139,3.327213 -1.09087,5.122892 -3.50501,7.314789 -4.19711,3.809783 -9.7721,8.265963 -15.69631,9.600663 -3.76407,0.84704 -7.93452,-0.23113 -10.05784,-2.89544 -1.9087,-2.39508 -2.84464,-7.153507 -2.59065,-10.362617 -0.0508,-0.609566 0.27176,-0.845773 0.15239,-1.523915 z m 9.60066,-3.352612 c 3.73867,-1.280088 6.90714,-2.998301 9.44827,-5.486092 1.26104,-1.234371 3.48214,-3.075767 2.43826,-5.028918 -6.07153,0.789896 -9.33397,5.70071 -11.88653,10.51501 z"
     id="path101"
     inkscape:connector-curvature="0"
     style="fill:#60b5d4;fill-opacity:1;fill-rule:evenodd;stroke:#e8e8e8;stroke-opacity:1" /><path
     clip-rule="evenodd"
     d="m 33.834019,91.165788 c 0.03175,0.933398 0.35939,1.570902 0.457175,2.438263 -3.370391,3.287846 -8.673614,7.992929 -13.258056,10.819789 -1.548043,0.95372 -3.863123,2.37096 -5.486092,2.59066 -8.0030925,1.08071 -3.952019,-10.456594 -1.98109,-13.867623 -3.6967624,2.162689 -7.9307055,6.358533 -11.8865335,9.143483 -1.276278,0.89911 -3.310704,2.42557 -4.571743,2.59066 -2.299841,0.30097 -4.476499,-2.60971 -5.638484,-4.26696 -1.323266,-1.887116 -2.5716045,-4.470151 -2.5906535,-6.552834 -0.04699,-5.384498 5.6842005,-9.935923 9.7530515,-12.800882 4.391414,-3.091007 10.5442181,-6.338214 15.2391455,-7.467181 5.441645,-1.308027 11.218551,-2.425564 12.953274,2.743046 0,0.0508 0,0.101594 0,0.152392 -0.243827,1.380412 -1.598841,1.650907 -2.590655,2.285871 1.280088,0.749258 2.081413,2.094113 1.981089,3.809786 0,0.0508 0,0.101595 0,0.152392 -0.623535,1.930292 -2.49795,4.010435 -4.266961,5.943266 -1.520104,1.661067 -6.434728,8.983476 -0.152391,8.533922 3.017351,-0.215888 6.216301,-3.148154 8.38153,-4.724135 1.220401,-0.887681 2.208406,-2.196977 3.505003,-2.133481 -0.0127,0.215888 -0.0254,0.431776 0.152391,0.457175 0,0.0508 0,0.101594 0,0.152391 z M -1.6731895,90.861005 c -1.041341,0.758148 -2.040775,2.871309 -2.895437,4.114569 -0.0025,0.0025 -0.165091,0.36066 -0.152392,0.304783 -1.121347,4.819383 3.488495,3.365311 5.486092,2.133481 1.413431,-0.871172 2.115702,-1.802029 3.352612,-2.438264 0.166361,-0.34161 0.252716,-0.764497 0.457175,-1.06674 3.56596,-2.631292 6.5502925,-5.844212 9.7530525,-8.838704 1.79949,-0.89276 3.064339,-2.32016 4.11457,-3.962177 -1.803299,0.17779 -3.230699,0.731479 -4.266961,1.676305 -1.314376,0.260336 -2.387466,0.761958 -3.505003,1.219132 -1.6216994,0.562579 -3.2319695,1.137856 -4.5717445,1.981089 -2.039505,0.70354 -3.665014,1.821078 -5.333701,2.895437 -0.852122,0.570198 -1.692815,1.150556 -2.285871,1.981089 -0.0508,0 -0.101595,0 -0.152392,0 z"
     id="path103"
     inkscape:connector-curvature="0"
     style="fill:#60b5d4;fill-opacity:1;fill-rule:evenodd;stroke:#e8e8e8;stroke-opacity:1" /><path
     clip-rule="evenodd"
     d="m 194.30221,85.984479 c -5.52673,3.619297 -8.94665,7.728786 -12.95328,12.64849 -1.18484,1.454071 -2.38365,3.240861 -3.96218,4.571741 -5.70833,4.81557 -8.63043,-4.021862 -7.61957,-9.448267 0.57274,-3.070688 2.19444,-6.470287 4.26696,-9.600661 2.01411,-3.04148 4.69239,-6.477907 6.55283,-7.31479 1.88966,-0.850852 6.89572,-0.482573 7.31479,1.06674 0.38098,1.410891 -1.51121,3.290385 -2.28587,4.266961 -1.12769,1.42105 -1.98998,2.524618 -2.89543,3.505003 -2.27953,2.470011 -4.84351,3.811056 -5.63849,7.31479 1.74869,1.06801 2.71003,-1.029913 3.505,-1.981089 5.30577,-6.357264 12.58881,-11.814147 20.26807,-16.305885 1.19246,-0.697191 3.07703,-2.028076 4.11457,-1.676306 1.34866,0.457174 2.66304,4.522216 2.43826,6.400441 -0.26542,2.219835 -3.09863,4.433321 -5.02892,6.552832 -2.01918,2.217295 -4.14759,4.10568 -5.02892,6.400441 -0.48765,1.268659 -0.76957,3.409758 0.30479,3.962177 1.896,0.974036 6.29376,-2.527158 7.31479,-3.352611 1.92267,-1.553123 3.9063,-3.649776 5.94326,-4.876527 0.42289,0.89657 0.34923,2.292222 0.76196,3.200221 -2.47255,2.84591 -5.43402,5.780715 -8.68631,8.68631 -2.92719,2.61605 -7.70974,7.14335 -12.19132,6.09566 -2.29222,-0.53464 -3.63326,-2.85734 -3.65739,-5.48609 -0.0559,-6.019464 5.03272,-10.277535 7.1624,-14.629581 z"
     id="path105"
     inkscape:connector-curvature="0"
     style="fill:#60b5d4;fill-opacity:1;fill-rule:evenodd;stroke:#e8e8e8;stroke-opacity:1" /><path
     clip-rule="evenodd"
     d="m 242.91508,81.107953 c 0.24636,1.846476 -1.50614,3.391979 -2.74305,4.724134 -2.62875,2.830672 -4.99717,5.082255 -8.38153,7.619573 -0.64512,0.483843 -3.6739,3.171012 -5.18131,2.743046 -2.62748,-0.744178 0.50289,-6.968099 1.37153,-7.924355 3.23958,-3.56723 10.3296,-5.434025 14.78197,-7.162398 0.0508,0 0.10159,0 0.15239,0 z m -0.45718,0.304782 c -4.75461,2.058555 -12.40466,3.715812 -15.23914,8.38153 -0.58163,0.954987 -2.18809,4.901925 -0.60957,5.943267 1.14675,0.756877 4.03711,-1.920133 4.72414,-2.438264 4.70508,-3.545641 8.98093,-6.804278 11.58175,-11.886533 -0.1016,0 -0.20319,0 -0.30479,0 -0.0508,0 -0.10159,0 -0.15239,0 z"
     id="path107"
     inkscape:connector-curvature="0"
     style="fill:#60b5d4;fill-opacity:1;fill-rule:evenodd;stroke:#e8e8e8;stroke-opacity:1" /><path
     clip-rule="evenodd"
     d="m 112.16322,82.479476 c -0.43939,3.088466 -3.37928,4.485388 -5.48609,5.943266 -2.24396,1.553123 -4.53746,3.078307 -6.70522,4.571744 -0.971495,-0.756878 -2.233804,-1.220402 -3.20022,-1.981089 1.207702,-1.96712 3.64977,-3.729781 6.09565,-5.333701 2.53732,-1.663607 6.16678,-4.190765 9.29588,-3.20022 z m -8.68631,3.047829 c -2.38366,1.530264 -4.797787,3.298004 -6.400437,5.486092 1.050231,0.473683 1.926482,1.121347 2.895437,1.676306 1.79822,-1.226752 3.6866,-2.470012 5.63848,-3.809787 2.46112,-1.689005 5.71849,-3.224349 6.24805,-6.40044 -3.29293,-0.19176 -6.11725,1.59503 -8.38153,3.047829 z"
     id="path109"
     inkscape:connector-curvature="0"
     style="fill:#60b5d4;fill-opacity:1;fill-rule:evenodd;stroke:#e8e8e8;stroke-opacity:1" /><path
     clip-rule="evenodd"
     d="m -11.121458,77.755341 c -0.673062,-0.251446 -0.916888,-4.708896 0.304782,-5.028918 -1.019752,0.72005 -0.610835,3.639616 -0.457173,5.028918 0.0508,0 0.101594,0 0.152391,0 z"
     id="path177"
     inkscape:connector-curvature="0"
     style="fill:#60b5d4;fill-opacity:1;fill-rule:evenodd;stroke:#e8e8e8;stroke-opacity:1" /><path
     clip-rule="evenodd"
     d="m 38.710546,77.450558 c 0.546069,-0.673062 1.155635,-1.282628 1.828697,-1.828698 -0.544799,0.673063 -1.155635,1.282628 -1.828697,1.828698 z"
     id="path197"
     inkscape:connector-curvature="0"
     style="fill:#60b5d4;fill-opacity:1;fill-rule:evenodd;stroke:#e8e8e8;stroke-opacity:1" /><path
     clip-rule="evenodd"
     d="m 88.085378,63.430545 c 0.444475,-0.571468 0.952446,-1.07944 1.523914,-1.523915 -0.444475,0.571468 -0.952447,1.07944 -1.523914,1.523915 z"
     id="path201"
     inkscape:connector-curvature="0"
     style="fill:#60b5d4;fill-opacity:1;fill-rule:evenodd;stroke:#e8e8e8;stroke-opacity:1" /><path
     clip-rule="evenodd"
     d="m 89.609292,61.754239 c 2.069984,-2.196977 4.203464,-4.330457 6.400441,-6.400442 -2.069984,2.196978 -4.203464,4.330458 -6.400441,6.400442 z"
     id="path203"
     inkscape:connector-curvature="0"
     style="fill:#60b5d4;fill-opacity:1;fill-rule:evenodd;stroke:#e8e8e8;stroke-opacity:1" /><path
     clip-rule="evenodd"
     d="m 122.98301,67.697505 c -0.90038,-0.288274 -0.55242,-1.276278 0.15239,-1.523914 -0.49654,0.430506 -0.84196,1.048961 -0.15239,1.523914 z"
     id="path207"
     inkscape:connector-curvature="0"
     style="fill:#60b5d4;fill-opacity:1;fill-rule:evenodd;stroke:#e8e8e8;stroke-opacity:1" /><path
     clip-rule="evenodd"
     d="m -39.618659,46.362702 c 1.046422,-0.275574 2.810353,-0.641314 3.809786,-0.457174 -1.311836,0.110484 -2.449692,0.394948 -3.809786,0.457174 z"
     id="path283"
     inkscape:connector-curvature="0"
     style="fill:#60b5d4;fill-opacity:1;fill-rule:evenodd;stroke:#e8e8e8;stroke-opacity:1" /><path
     clip-rule="evenodd"
     d="m -42.361707,46.819877 c 0.720052,-0.295894 1.617891,-0.415267 2.590657,-0.457175 -0.744178,0.271765 -1.658527,0.372089 -2.590657,0.457175 z"
     id="path285"
     inkscape:connector-curvature="0"
     style="fill:#60b5d4;fill-opacity:1;fill-rule:evenodd;stroke:#e8e8e8;stroke-opacity:1" /><path
     clip-rule="evenodd"
     d="m -46.323887,47.581834 c 1.09087,-0.433046 2.46494,-0.582897 3.80979,-0.761957 -1.12516,0.397487 -2.50811,0.539719 -3.80979,0.761957 z"
     id="path287"
     inkscape:connector-curvature="0"
     style="fill:#60b5d4;fill-opacity:1;fill-rule:evenodd;stroke:#e8e8e8;stroke-opacity:1" /><path
     clip-rule="evenodd"
     d="m -33.827784,55.963363 c -6.881743,1.448989 -13.585693,3.075768 -19.658493,5.333701 2.31127,3.155773 -3.36658,3.56469 -6.40044,4.114569 -2.01792,0.36574 -3.81868,1.175954 -5.79088,1.828698 -2.26682,0.750528 -7.2424,2.958934 -7.61957,-0.608296 -0.27431,-2.602084 2.96655,-6.507115 4.26696,-8.229138 1.8414,-2.438264 3.57104,-4.898115 6.24805,-6.24805 2.49414,-1.257229 5.34513,-1.884574 7.92435,-2.590654 2.72654,-0.746718 5.43403,-1.508676 8.38153,-1.981089 -4.4257,1.282628 -9.07745,1.907433 -12.95327,3.505003 -4.67588,1.926482 -6.77507,3.950748 -9.60066,7.771964 -1.16199,1.569632 -4.27458,5.300683 -4.11457,7.619572 0.20573,2.994492 3.75772,1.748692 5.79087,1.066741 1.76394,-0.591787 3.04275,-1.017213 4.72414,-1.523915 2.26682,-0.683222 8.90855,-0.88387 9.44827,-3.047829 0.21462,-0.862281 -0.6502,-1.2458 -0.30478,-1.828697 6.1147,-2.166499 12.529113,-4.033294 19.658493,-5.18258 z"
     id="path289"
     inkscape:connector-curvature="0"
     style="fill:#60b5d4;fill-opacity:1;fill-rule:evenodd;stroke:#e8e8e8;stroke-opacity:1" /><path
     clip-rule="evenodd"
     d="m -33.675392,59.163584 c 0.246366,-0.04318 0.262875,0.144772 0.457174,0.152391 -1.59503,4.449831 -5.084795,7.004927 -7.619572,10.51501 7.540837,-1.371523 17.560574,-2.804002 21.639585,-7.771963 1.344855,-1.638209 1.365174,-3.719622 -0.457174,-5.028919 -2.962744,-2.1284 -9.881315,-1.800759 -14.020013,-1.06674 4.162826,-1.382952 15.482971,-1.624239 15.84871,3.505004 0.18033,2.530968 -3.786927,4.947642 -6.095658,6.095658 -5.197818,2.585575 -10.738517,3.489764 -17.067842,4.419352 0.942287,-1.586141 2.50557,-3.097356 4.114569,-5.028918 1.140396,-1.367713 3.73994,-4.399033 3.200221,-5.790875 z"
     id="path291"
     inkscape:connector-curvature="0"
     style="fill:#60b5d4;fill-opacity:1;fill-rule:evenodd;stroke:#e8e8e8;stroke-opacity:1" /><path
     clip-rule="evenodd"
     d="m -34.131297,79.126864 c 2.665581,0.794975 5.322272,1.381682 7.924356,2.590654 2.537317,1.178494 5.841672,3.256098 5.3337,7.162398 -0.328911,2.530968 -3.139263,5.657533 -5.028917,7.31479 -3.704383,3.249748 -10.311822,6.482984 -17.525019,8.229134 -9.35937,2.26429 -21.97484,3.14308 -25.44937,-4.26696 -0.68703,-1.465494 -1.0007,-4.557771 -0.45717,-6.400437 1.52645,-5.17623 6.17693,-8.55932 8.8387,-13.410448 -2.43826,-0.694651 -7.50401,-0.386058 -7.46718,-3.657394 0.0343,-3.065608 7.37574,-4.073932 10.51501,-4.419352 1.29025,-0.142232 2.71257,-0.02413 3.80978,-0.457175 1.25596,-0.495272 2.63384,-2.327779 3.96218,-3.657395 3.83519,-3.835184 7.820224,-7.865938 13.867624,-8.838704 -5.886119,1.222942 -9.975294,5.098764 -13.867624,8.991096 -1.30929,1.309296 -2.70368,3.173552 -3.96218,3.657395 -1.6382,0.629884 -3.0783,0.283194 -5.02891,0.609565 -3.17101,0.529561 -9.11682,1.482007 -9.14349,4.11457 -0.0305,3.093546 5.52038,2.980522 7.77196,3.352611 -1.51248,2.32397 -3.1799,4.504438 -4.87652,6.857616 -2.34556,3.254827 -5.40228,6.702683 -4.26696,11.58175 1.21786,5.238452 7.79609,7.467182 13.25805,7.467182 9.98291,0 22.038347,-3.62438 29.10677,-9.29588 2.722727,-2.184277 6.461397,-6.171853 5.638483,-9.753052 -1.137856,-4.943833 -8.380259,-5.726109 -12.953273,-7.771964 z"
     id="path293"
     inkscape:connector-curvature="0"
     style="fill:#60b5d4;fill-opacity:1;fill-rule:evenodd;stroke:#e8e8e8;stroke-opacity:1" /><path
     clip-rule="evenodd"
     d="m -39.466267,78.060124 c 1.855366,0.227317 3.645965,0.52067 5.181309,1.06674 -1.737263,-0.345421 -3.548181,-0.617186 -5.181309,-1.06674 z"
     id="path295"
     inkscape:connector-curvature="0"
     style="fill:#60b5d4;fill-opacity:1;fill-rule:evenodd;stroke:#e8e8e8;stroke-opacity:1" /><path
     clip-rule="evenodd"
     d="m -10.359501,54.134666 c 0.5562285,1.969659 0.320022,4.082821 -0.304783,5.638484 -3.90757,9.734004 -19.856605,13.015499 -31.697423,15.239145 -1.67503,0.314942 -3.6993,0.34161 -4.87652,1.676306 2.0141,0.627344 4.66952,0.613375 6.70522,1.219131 -2.4154,-0.278114 -4.77112,-0.613375 -7.01001,-1.06674 0.86101,-1.400731 2.65796,-1.549313 4.11457,-1.828697 10.846463,-2.082683 24.317867,-4.806681 30.173509,-11.58175 1.864255,-2.156339 3.5989765,-5.234647 2.895437,-9.295879 z"
     id="path297"
     inkscape:connector-curvature="0"
     style="fill:#60b5d4;fill-opacity:1;fill-rule:evenodd;stroke:#e8e8e8;stroke-opacity:1" /><path
     clip-rule="evenodd"
     d="m -34.284958,45.753137 c 10.541678,-0.986735 21.55323,0.04699 23.925457,8.229137 -3.191331,-8.478043 -14.207962,-8.639324 -23.925457,-8.229137 z"
     id="path299"
     inkscape:connector-curvature="0"
     style="fill:#60b5d4;fill-opacity:1;fill-rule:evenodd;stroke:#e8e8e8;stroke-opacity:1" /><path
     clip-rule="evenodd"
     d="m 80.770588,89.794265 c 6.204872,-13.885401 16.129365,-24.4093 27.278062,-33.526119 3.67264,-3.002111 7.55735,-6.237889 12.34371,-7.771963 0.17779,-0.0254 0.27049,0.03302 0.30478,0.152391 -1.64837,0.06985 -5.08733,2.171578 -7.01,3.505003 -5.9039,4.09298 -11.37476,9.285719 -16.153493,14.020014 -7.101441,7.035405 -12.82247,14.95722 -16.763059,23.620674 z"
     id="path303"
     inkscape:connector-curvature="0"
     style="fill:#60b5d4;fill-opacity:1;fill-rule:evenodd;stroke:#e8e8e8;stroke-opacity:1" /><path
     clip-rule="evenodd"
     d="m 80.465805,91.013397 c -0.431776,3.253557 -0.17525,5.712139 0.609566,8.838704 0.497812,1.982359 1.203892,4.711439 3.20022,4.724139 1.97347,0.0114 2.894168,-2.74178 3.809787,-4.11457 1.188653,-1.781714 2.147449,-3.223083 3.809786,-4.114573 3.162122,4.301253 6.899523,11.887803 13.867616,10.210223 3.53929,-0.85212 7.04811,-3.57866 10.05784,-5.94326 3.20529,-2.515731 6.04231,-5.488634 8.6863,-7.467183 -2.61732,2.50049 -5.67149,5.298143 -9.14348,8.076743 -2.90051,2.32016 -7.11668,5.79088 -11.42936,5.79088 -6.385194,0 -9.036805,-6.45505 -12.191308,-10.515011 -1.526454,1.325805 -2.468741,2.602084 -3.657394,4.419351 -0.941018,1.43883 -1.7906,4.02567 -4.11457,3.80979 -3.038939,-0.28193 -4.026944,-7.806255 -3.962177,-11.27697 0.01524,-0.793706 0.16763,-1.866795 0.457174,-2.438263 z"
     id="path305"
     inkscape:connector-curvature="0"
     style="fill:#60b5d4;fill-opacity:1;fill-rule:evenodd;stroke:#e8e8e8;stroke-opacity:1" /><path
     clip-rule="evenodd"
     d="m 124.04975,90.861005 c 0.21716,0.548609 0.64893,1.682656 0.45717,2.133481 -0.12572,-0.736559 -0.43304,-1.292788 -0.45717,-2.133481 z"
     id="path307"
     inkscape:connector-curvature="0"
     style="fill:#60b5d4;fill-opacity:1;fill-rule:evenodd;stroke:#e8e8e8;stroke-opacity:1" /><path
     clip-rule="evenodd"
     d="m 119.78279,81.107953 c -2.42429,8.039918 -10.55691,10.371508 -17.06784,14.324796 4.62381,8.043731 13.11075,-0.316213 17.67741,-3.809787 0.44193,-0.337801 3.15323,-3.207839 3.505,-1.523914 -0.28193,-0.02286 -0.0927,-0.515591 -0.30478,-0.609566 -4.19712,2.259203 -9.26667,8.635516 -14.62958,9.600661 -3.15577,0.567659 -5.32481,-1.308026 -6.55283,-3.657394 6.516,-4.049803 14.60291,-6.528704 17.37262,-14.324796 z"
     id="path309"
     inkscape:connector-curvature="0"
     style="fill:#60b5d4;fill-opacity:1;fill-rule:evenodd;stroke:#e8e8e8;stroke-opacity:1" /><path
     clip-rule="evenodd"
     d="m 119.47801,77.298166 c 0.20065,0.314943 0.60956,1.208973 0.30478,1.523915 0,-0.608296 -0.30478,-0.914349 -0.30478,-1.523915 z"
     id="path311"
     inkscape:connector-curvature="0"
     style="fill:#60b5d4;fill-opacity:1;fill-rule:evenodd;stroke:#e8e8e8;stroke-opacity:1" /><path
     clip-rule="evenodd"
     d="m 119.47801,77.145775 c -1.14293,-1.440099 -1.60011,-3.040209 -3.505,-3.505003 -2.92973,-0.71497 -6.94778,2.142369 -9.44827,3.809786 -5.89374,3.930429 -11.555079,8.297714 -16.610665,12.64849 -1.033722,0.89022 -1.932832,2.116971 -3.200221,2.438263 -0.102864,-1.337235 0.845773,-2.217295 1.676306,-3.047829 5.801035,-5.799764 11.104257,-11.40904 16.91545,-17.220233 4.6581,-4.658099 9.36318,-10.000689 14.02,-15.086754 1.94427,-2.123321 5.27402,-7.136999 1.52392,-8.533921 4.04091,1.315646 0.51559,6.433459 -1.37152,8.686313 -9.5524,11.40142 -20.188051,21.56085 -30.630675,32.002204 -0.774657,0.774656 -2.157609,1.482007 -1.828698,2.895437 5.100034,-3.972337 12.869458,-10.734707 19.506103,-15.086753 2.22237,-1.456608 5.40735,-3.508813 7.77196,-3.809786 3.22689,-0.410187 4.09933,1.653447 5.18131,3.809786 z"
     id="path313"
     inkscape:connector-curvature="0"
     style="fill:#60b5d4;fill-opacity:1;fill-rule:evenodd;stroke:#e8e8e8;stroke-opacity:1" /><path
     clip-rule="evenodd"
     d="m 247.7916,98.023403 c 6.12233,-1.446449 9.09015,-6.0474 14.02002,-8.686312 1.82234,3.038939 -0.94229,4.904465 -3.04783,7.010006 -3.52278,3.522783 -9.3543,9.060943 -14.62958,9.600663 -5.942,0.60702 -6.23789,-5.87342 -5.18131,-11.886534 -2.3354,1.24326 -4.21108,3.752639 -6.70522,5.790875 -1.84521,1.508679 -5.12671,4.773659 -8.38153,4.266959 -3.16975,-0.494 -5.46705,-6.714112 -5.79088,-10.057834 -0.45209,-4.677148 1.9468,-8.053888 4.26696,-10.51501 1.90362,-2.017917 5.77437,-4.862557 8.9911,-6.552833 4.413,-2.320159 11.92463,-5.703249 14.78197,-1.523914 3.90122,-6.170584 7.14462,-15.594725 12.64849,-20.420454 1.98236,-1.738533 6.33186,-3.266257 7.01,0.761957 0.61211,3.640886 -2.75574,7.572585 -4.26696,9.905444 -3.97614,6.140106 -7.19541,11.005203 -10.97218,17.220234 -2.15507,3.545641 -4.76477,7.229704 -4.11457,12.496099 0.13207,1.07055 0.4686,2.000137 1.37152,2.590654 z m -5.3337,7.771967 c 1.93537,0.33653 4.84097,-0.85213 6.55284,-1.8287 3.64596,-2.08014 6.40044,-4.571744 9.29587,-7.467181 1.91379,-1.913783 5.15845,-4.071392 3.35262,-6.857615 -2.30366,1.400731 -4.0206,2.947504 -6.40045,4.724135 -2.08776,1.559472 -8.63932,7.036671 -9.14348,0.914348 -0.38479,-4.668258 1.76266,-8.7333 4.11457,-12.496099 3.79073,-6.062639 7.22589,-11.274427 10.97218,-17.067842 1.58106,-2.444613 4.83462,-6.300116 4.41935,-9.600661 -0.50035,-3.973607 -4.50443,-2.84972 -6.70522,-0.914349 -6.09185,5.35656 -8.24311,13.72285 -12.64849,20.572846 -1.10738,-0.627345 -1.55947,-1.838857 -2.74305,-2.13348 -2.05093,-0.510512 -5.815,1.012133 -8.22914,1.981088 -2.75066,1.104838 -5.20797,2.250314 -7.31478,3.657395 -4.56794,3.049099 -10.30675,7.709738 -9.75306,14.781971 0.25399,3.243398 2.6732,9.013954 5.48609,9.753054 2.98434,0.78481 6.79793,-2.84337 8.9911,-4.724137 1.11627,-0.957526 2.20206,-1.978549 3.20022,-2.895437 1.11627,-1.026102 2.05983,-2.301111 3.35261,-2.590655 -0.75687,3.999006 -1.43629,11.384909 3.20022,12.191319 z"
     id="path315"
     inkscape:connector-curvature="0"
     style="fill:#60b5d4;fill-opacity:1;fill-rule:evenodd;stroke:#e8e8e8;stroke-opacity:1" /><path
     clip-rule="evenodd"
     d="m 74.370147,90.403831 c -0.300973,-0.510511 -0.501622,-1.123887 -0.609566,-1.828697 -4.653019,2.533507 -10.831222,9.379693 -17.829799,9.905444 -3.837724,0.288273 -9.218413,-1.60773 -7.619572,-6.400441 0.679412,-2.036966 3.172282,-3.287846 4.876526,-4.571744 1.9595,-1.474387 3.458016,-2.938615 5.486092,-3.962177 1.126427,6.359803 5.836593,2.48652 8.533921,-0.609566 2.169038,-2.49033 3.550721,-4.899385 3.657395,-8.076747 -1.127697,-4.774932 -7.558616,-2.804002 -11.429359,-1.06674 -2.585574,1.160715 -4.61873,2.378577 -6.857615,3.809786 -5.112733,3.270067 -9.13968,6.23662 -10.515012,10.972185 0.899109,-3.257368 2.732889,-5.619435 5.02892,-7.467181 2.249044,-1.810919 5.544509,-3.983767 8.533921,-5.638484 3.140534,-1.738532 6.59982,-3.502463 10.210227,-3.809786 3.518973,-0.299703 5.658803,1.60138 5.181309,5.028918 -0.293353,2.109351 -2.038235,4.752073 -3.657394,6.552832 -2.227455,2.476361 -7.723707,7.082392 -8.838704,0.609566 -2.276982,2.13475 -7.018896,4.27077 -9.143487,6.857615 -3.461826,4.214893 1.43248,7.962453 6.552832,7.467181 7.586554,-0.734019 12.285291,-6.662046 17.525016,-9.753053 0.740369,0.224777 0.673063,1.25723 0.914349,1.981089 z"
     id="path317"
     inkscape:connector-curvature="0"
     style="fill:#60b5d4;fill-opacity:1;fill-rule:evenodd;stroke:#e8e8e8;stroke-opacity:1" /><path
     clip-rule="evenodd"
     d="m 42.063158,88.727525 c -0.217158,1.982359 -0.659093,3.367851 -0.457175,5.333701 0.747988,7.302094 4.49809,13.104394 12.496102,11.734144 6.250589,-1.07055 12.139249,-5.953429 16.305885,-9.753056 1.635668,-1.490896 5.110193,-3.794547 3.962177,-5.486092 1.525185,1.931562 -2.565256,4.381254 -4.26696,5.943267 -4.303789,3.950751 -11.190612,9.849571 -18.591757,9.753051 -6.786499,-0.0876 -10.515013,-6.73824 -10.057838,-14.324795 0.05842,-0.967685 0.283194,-2.368417 0.609566,-3.20022 z"
     id="path319"
     inkscape:connector-curvature="0"
     style="fill:#60b5d4;fill-opacity:1;fill-rule:evenodd;stroke:#e8e8e8;stroke-opacity:1" /><path
     clip-rule="evenodd"
     d="m 139.74607,94.213617 c -0.3378,-0.34796 0.38606,-0.927048 0.15239,-1.676306 5.95851,-2.294761 13.80286,-5.246075 17.8298,-9.905444 1.53534,-1.77663 3.94567,-5.920408 1.98109,-8.533921 -1.07944,-1.436289 -3.4796,-1.808379 -5.3337,-1.828697 -7.59925,-0.08381 -14.0289,4.322837 -18.13458,9.143486 -2.60209,3.055449 -4.28347,6.263289 -5.18131,9.753053 2.60716,-9.636219 10.96964,-18.332691 21.94437,-19.048931 3.48468,-0.227317 7.13953,0.652744 7.61957,3.505003 0.47749,2.839561 -1.2966,5.479743 -2.59066,7.010007 -4.02948,4.764773 -11.95003,7.740216 -17.98219,10.057836 0.0368,0.646393 -0.13969,1.079439 -0.30478,1.523914 z"
     id="path321"
     inkscape:connector-curvature="0"
     style="fill:#60b5d4;fill-opacity:1;fill-rule:evenodd;stroke:#e8e8e8;stroke-opacity:1" /><path
     clip-rule="evenodd"
     d="m 130.90737,92.689703 c -0.25399,3.20911 0.68195,7.967537 2.59065,10.362617 2.12332,2.66431 6.29377,3.74375 10.05784,2.89544 5.92548,-1.3347 11.50047,-5.79088 15.69631,-9.600663 2.41414,-2.193167 5.3464,-3.988846 3.50501,-7.314789 -4.62762,2.594464 -9.87116,9.0838 -16.91545,9.753053 -2.82178,0.267955 -7.2551,-1.320726 -6.09566,-4.419352 -0.0787,3.217999 2.48525,4.396493 5.94327,4.114569 7.01381,-0.572738 12.64975,-7.144619 17.06784,-9.753053 0.12318,0.656553 1.05023,2.213486 0.91434,3.20022 -0.17017,1.234371 -3.08338,3.507544 -4.41935,4.724135 -4.30505,3.919 -10.58485,9.17523 -17.22023,9.75305 -4.66953,0.40765 -7.68688,-1.31437 -9.44827,-4.26696 -1.15309,-1.93283 -2.34556,-6.582038 -1.6763,-9.448267 z"
     id="path323"
     inkscape:connector-curvature="0"
     style="fill:#60b5d4;fill-opacity:1;fill-rule:evenodd;stroke:#e8e8e8;stroke-opacity:1" /><path
     clip-rule="evenodd"
     d="M 26.824013,76.536209 C 25.09056,71.367599 19.312384,72.485136 13.870739,73.793163 9.1758116,74.92213 3.0230075,78.169337 -1.3684065,81.260344 c -4.070121,2.864959 -9.8000385,7.416384 -9.7530515,12.800882 0.01905,2.083953 1.2686575,4.665718 2.5906535,6.552834 1.161985,1.65725 3.338643,4.56793 5.638484,4.26696 1.261039,-0.16509 3.295465,-1.69282 4.571743,-2.59066 3.955828,-2.78368 8.1897711,-6.980794 11.8865335,-9.143483 -1.970929,3.411029 -6.0220025,14.948333 1.98109,13.867623 1.622969,-0.2197 3.938049,-1.63694 5.486092,-2.59066 4.584442,-2.82686 9.887665,-7.531943 13.258056,-10.819789 -0.09778,-0.867361 -0.425426,-1.504865 -0.457175,-2.438263 0.341611,0.674332 0.411457,1.620429 0.609566,2.438263 -3.228159,3.435158 -8.492013,7.991659 -13.258056,10.972189 -2.280792,1.42613 -7.222085,4.29997 -9.753053,1.37152 -2.9716335,-3.43897 0.679412,-9.274291 1.828697,-12.343709 -3.8440744,2.50303 -7.6233825,6.140106 -12.0389245,9.143489 -1.380413,0.93974 -3.009731,2.44461 -4.876527,2.28587 -1.803298,-0.15366 -3.629456,-2.17031 -4.571743,-3.35261 -1.630588,-2.044587 -3.0605275,-5.276556 -3.0478275,-7.619574 0.01397,-2.749396 2.1588775,-6.093118 4.1145675,-8.229139 4.392684,-4.79906 14.143196,-10.445163 20.8776295,-12.191315 5.18004,-1.342315 11.953839,-2.552557 13.105665,2.895437 z"
     id="path325"
     inkscape:connector-curvature="0"
     style="fill:#60b5d4;fill-opacity:1;fill-rule:evenodd;stroke:#e8e8e8;stroke-opacity:1" /><path
     clip-rule="evenodd"
     d="m 26.214447,82.93665 c -0.622265,2.020457 -2.104272,3.979957 -3.809786,5.943266 -1.276279,1.469308 -6.212492,7.360507 -1.981089,8.229139 3.819946,0.784816 8.074207,-3.558341 10.51501,-5.333701 0.413997,-0.300973 2.641452,-2.423024 2.895437,-0.761957 -0.17779,-0.0254 -0.16509,-0.241287 -0.152391,-0.457175 -1.296597,-0.06477 -2.284602,1.244531 -3.505003,2.133481 -2.166499,1.575981 -5.364179,4.508247 -8.38153,4.724135 -6.282337,0.449554 -1.367713,-6.872855 0.152391,-8.533922 1.769011,-1.932831 3.643426,-4.012974 4.266961,-5.943266 z"
     id="path327"
     inkscape:connector-curvature="0"
     style="fill:#60b5d4;fill-opacity:1;fill-rule:evenodd;stroke:#e8e8e8;stroke-opacity:1" /><path
     clip-rule="evenodd"
     d="m 26.824013,76.688601 c 0.204458,1.120077 -1.377873,1.77028 -2.285872,2.285871 1.047691,0.854662 2.100462,1.912513 1.676306,3.809786 0.100324,-1.715673 -0.699731,-3.060528 -1.981089,-3.809786 0.991814,-0.633694 2.346828,-0.905459 2.590655,-2.285871 z"
     id="path329"
     inkscape:connector-curvature="0"
     style="fill:#60b5d4;fill-opacity:1;fill-rule:evenodd;stroke:#e8e8e8;stroke-opacity:1" /><path
     clip-rule="evenodd"
     d="m 197.80721,96.194706 c 6.19725,-0.853392 8.59488,-5.826433 13.25805,-8.38153 0.0825,1.109918 0.91943,2.477631 0.76196,3.505004 -0.17398,1.128966 -2.50176,2.960203 -3.505,3.962177 -3.64724,3.647236 -7.5637,7.815143 -12.03893,10.057833 -4.09806,2.05475 -8.89331,0.89911 -9.29587,-3.96218 -0.54353,-6.560447 4.6873,-10.735972 6.70522,-14.781965 -5.93311,4.148857 -9.18159,8.663454 -13.86762,14.324795 -1.9214,2.32143 -5.17496,5.62324 -8.07675,2.89544 -1.83759,-1.72838 -2.6986,-5.735 -2.28587,-9.448271 0.414,-3.724701 2.26682,-6.997308 4.41935,-10.210227 1.896,-2.831942 4.33935,-6.630298 6.85762,-7.619573 2.0776,-0.816564 6.87031,-0.271765 7.31479,1.219132 0.48765,1.631858 -1.34105,3.441507 -2.13348,4.419352 -2.1792,2.690979 -4.04219,4.44475 -6.24805,6.857615 -0.9842,1.076899 -2.46367,2.249044 -2.28588,3.962178 1.69536,0.333991 2.50684,-1.465498 3.35262,-2.438264 5.38703,-6.199792 12.26624,-11.558891 19.96328,-16.001102 1.22802,-0.70862 2.93607,-2.030616 4.11457,-1.828697 1.46041,0.248906 3.08338,4.830809 2.89543,6.705224 -0.13588,1.357553 -1.87568,3.188791 -2.89543,4.26696 -2.26556,2.396356 -4.84224,4.45745 -6.55284,7.467181 -0.77338,1.362634 -1.82488,3.436427 -0.45717,5.028918 z m -10.6674,4.419354 c 0.0241,2.62875 1.36517,4.95018 3.65739,5.48609 4.48158,1.04769 9.26413,-3.47961 12.19132,-6.09566 3.25229,-2.906865 6.21376,-5.84167 8.68631,-8.68631 -0.41273,-0.90673 -0.33907,-2.302381 -0.76196,-3.200221 -2.03696,1.226751 -4.02059,3.323404 -5.94326,4.876527 -1.0223,0.825453 -5.42006,4.326647 -7.31479,3.352611 -1.07436,-0.552419 -0.79244,-2.693518 -0.30479,-3.962177 0.88133,-2.294761 3.00974,-4.183146 5.02892,-6.400441 1.93029,-2.119511 4.7635,-4.332997 5.02892,-6.552832 0.22478,-1.878225 -1.08833,-5.943267 -2.43826,-6.400441 -1.03754,-0.3505 -2.92211,0.979115 -4.11457,1.676306 -7.67926,4.491738 -14.9623,9.948621 -20.26807,16.305885 -0.7937,0.952446 -1.75504,3.049099 -3.505,1.981089 0.79498,-3.503734 3.35896,-4.844779 5.63849,-7.31479 0.90545,-0.980385 1.76774,-2.083953 2.89543,-3.505003 0.77466,-0.976576 2.66812,-2.85607 2.28587,-4.266961 -0.41907,-1.550583 -5.42513,-1.917592 -7.31479,-1.06674 -1.86044,0.838153 -4.53872,4.27331 -6.55283,7.31479 -2.07252,3.130374 -3.69422,6.529973 -4.26696,9.600661 -1.01086,5.425135 1.91124,14.262567 7.61957,9.448267 1.57853,-1.33088 2.77861,-3.11767 3.96218,-4.571741 4.00663,-4.919704 7.42655,-9.029193 12.95328,-12.64849 -2.12968,4.352046 -7.21828,8.610117 -7.1624,14.629581 z"
     id="path331"
     inkscape:connector-curvature="0"
     style="fill:#60b5d4;fill-opacity:1;fill-rule:evenodd;stroke:#e8e8e8;stroke-opacity:1" /><path
     clip-rule="evenodd"
     d="m 6.0987745,85.984479 c 1.339775,-0.844503 2.9500451,-1.41851 4.5717445,-1.981089 -1.4324804,0.750528 -3.0630695,1.305487 -4.5717445,1.981089 z"
     id="path333"
     inkscape:connector-curvature="0"
     style="fill:#60b5d4;fill-opacity:1;fill-rule:evenodd;stroke:#e8e8e8;stroke-opacity:1" /><path
     clip-rule="evenodd"
     d="m -1.5207975,90.861005 c 0.591787,-0.830533 1.433749,-1.410891 2.285871,-1.981089 -0.689571,0.732749 -1.578521,1.266119 -2.285871,1.981089 z"
     id="path335"
     inkscape:connector-curvature="0"
     style="fill:#60b5d4;fill-opacity:1;fill-rule:evenodd;stroke:#e8e8e8;stroke-opacity:1" /><path
     clip-rule="evenodd"
     d="m -53.486277,83.393824 c 1.08706,-2.917026 6.48044,-1.59757 9.44827,-1.219131 -3.24467,-0.08509 -8.1085,-1.525185 -9.44827,1.219131 z"
     id="path337"
     inkscape:connector-curvature="0"
     style="fill:#60b5d4;fill-opacity:1;fill-rule:evenodd;stroke:#e8e8e8;stroke-opacity:1" /><path
     clip-rule="evenodd"
     d="m -56.990017,87.20361 c 1.17977,-1.206432 2.19317,-2.581765 3.50501,-3.657394 -1.18104,1.206432 -2.19444,2.581765 -3.50501,3.657394 z"
     id="path339"
     inkscape:connector-curvature="0"
     style="fill:#60b5d4;fill-opacity:1;fill-rule:evenodd;stroke:#e8e8e8;stroke-opacity:1" /><path
     clip-rule="evenodd"
     d="m -59.429547,91.013397 c -0.13207,0.741638 0.20827,1.010863 0.30478,1.523914 -0.29208,-0.223507 -0.72005,-1.097218 -0.30478,-1.523914 z"
     id="path341"
     inkscape:connector-curvature="0"
     style="fill:#60b5d4;fill-opacity:1;fill-rule:evenodd;stroke:#e8e8e8;stroke-opacity:1" /><path
     clip-rule="evenodd"
     d="m -59.124767,92.689703 c 3.14181,4.698736 13.94255,3.786927 18.59176,1.06674 -4.39014,3.101166 -15.6887,3.959638 -18.59176,-1.06674 z"
     id="path343"
     inkscape:connector-curvature="0"
     style="fill:#60b5d4;fill-opacity:1;fill-rule:evenodd;stroke:#e8e8e8;stroke-opacity:1" /><path
     clip-rule="evenodd"
     d="m -40.380616,93.756443 c 0.821644,-0.499082 1.822348,-0.820374 2.743046,-1.219132 -0.758147,0.561309 -1.727103,0.914349 -2.743046,1.219132 z"
     id="path345"
     inkscape:connector-curvature="0"
     style="fill:#60b5d4;fill-opacity:1;fill-rule:evenodd;stroke:#e8e8e8;stroke-opacity:1" /><path
     clip-rule="evenodd"
     d="m -36.418438,83.546216 c 2.368417,0.695921 4.614921,0.736558 5.790875,2.743046 0.102864,2.910676 -2.163959,4.217433 -3.962178,4.724135 1.532804,-0.984195 3.952018,-2.202057 3.809786,-4.114569 -0.17906,-2.426834 -3.635806,-2.294762 -5.638483,-3.352612 z"
     id="path347"
     inkscape:connector-curvature="0"
     style="fill:#60b5d4;fill-opacity:1;fill-rule:evenodd;stroke:#e8e8e8;stroke-opacity:1" /><path
     clip-rule="evenodd"
     d="m -43.885617,82.174693 c 1.930289,0.152391 3.779306,0.386058 5.333698,0.914348 -1.758851,-0.323831 -3.635808,-0.52956 -5.333698,-0.914348 z"
     id="path349"
     inkscape:connector-curvature="0"
     style="fill:#60b5d4;fill-opacity:1;fill-rule:evenodd;stroke:#e8e8e8;stroke-opacity:1" /></svg>