<?xml version="1.0" encoding="UTF-8" standalone="no"?>
<!-- Created with Inkscape (http://www.inkscape.org/) -->

<svg
   xmlns:dc="http://purl.org/dc/elements/1.1/"
   xmlns:cc="http://creativecommons.org/ns#"
   xmlns:rdf="http://www.w3.org/1999/02/22-rdf-syntax-ns#"
   xmlns:svg="http://www.w3.org/2000/svg"
   xmlns="http://www.w3.org/2000/svg"
   xmlns:sodipodi="http://sodipodi.sourceforge.net/DTD/sodipodi-0.dtd"
   xmlns:inkscape="http://www.inkscape.org/namespaces/inkscape"
   id="svg2"
   version="1.1"
   inkscape:version="0.48.4 r9939"
   width="529.7925"
   height="538.11875"
   xml:space="preserve"
   sodipodi:docname="BMM Icons Reden Icon green.ai"><metadata
     id="metadata8"><rdf:RDF><cc:Work
         rdf:about=""><dc:format>image/svg+xml</dc:format><dc:type
           rdf:resource="http://purl.org/dc/dcmitype/StillImage" /><dc:title></dc:title></cc:Work></rdf:RDF></metadata><defs
     id="defs6"><clipPath
       clipPathUnits="userSpaceOnUse"
       id="clipPath16"><path
         d="m 0,430.495 423.834,0 L 423.834,0 0,0 0,430.495 z"
         id="path18" /></clipPath></defs><sodipodi:namedview
     pagecolor="#ffffff"
     bordercolor="#666666"
     borderopacity="1"
     objecttolerance="10"
     gridtolerance="10"
     guidetolerance="10"
     inkscape:pageopacity="0"
     inkscape:pageshadow="2"
     inkscape:window-width="640"
     inkscape:window-height="480"
     id="namedview4"
     showgrid="false"
     inkscape:zoom="0.43856489"
     inkscape:cx="264.89624"
     inkscape:cy="269.05939"
     inkscape:window-x="0"
     inkscape:window-y="420"
     inkscape:window-maximized="0"
     inkscape:current-layer="g10" /><g
     id="g10"
     inkscape:groupmode="layer"
     inkscape:label="BMM Icons Reden Icon green"
     transform="matrix(1.25,0,0,-1.25,0,538.11875)"><g
       id="g12"><g
         id="g14"
         clip-path="url(#clipPath16)"><g
           id="g20"
           transform="translate(211.917,423.4946)"><path
             d="m 0,0 c -112.993,0 -204.917,-91.923 -204.917,-204.911 0,-112.986 91.924,-204.91 204.917,-204.91 37.421,0 72.521,10.098 102.747,27.692 -4.147,0.94 -8.208,2.191 -12.109,3.816 C 63.523,-392.543 32.689,-400.61 0,-400.61 c -107.915,0 -195.706,87.777 -195.706,195.699 0,107.91 87.791,195.701 195.706,195.701 107.915,0 195.706,-87.791 195.706,-195.701 0,-36.256 -9.935,-70.214 -27.194,-99.348 1.461,-1.65 1.644,-4.304 0.55,-6.205 1.42,-1.709 2.467,-3.535 3.076,-5.466 20.722,32.012 32.779,70.13 32.779,111.019 C 204.917,-91.923 112.987,0 0,0"
             style="fill:#009b5b;fill-opacity:1;fill-rule:nonzero;stroke:none"
             id="path22" /></g><g
           id="g24"
           transform="translate(211.917,423.4946)"><path
             d="m 0,0 c -112.993,0 -204.917,-91.923 -204.917,-204.911 0,-112.986 91.924,-204.91 204.917,-204.91 37.421,0 72.521,10.098 102.747,27.692 -4.147,0.94 -8.208,2.191 -12.109,3.816 C 63.523,-392.543 32.689,-400.61 0,-400.61 c -107.915,0 -195.706,87.777 -195.706,195.699 0,107.91 87.791,195.701 195.706,195.701 107.915,0 195.706,-87.791 195.706,-195.701 0,-36.256 -9.935,-70.214 -27.194,-99.348 1.461,-1.65 1.644,-4.304 0.55,-6.205 1.42,-1.709 2.467,-3.535 3.076,-5.466 20.722,32.012 32.779,70.13 32.779,111.019 C 204.917,-91.923 112.987,0 0,0 z"
             style="fill:none;stroke:#009b5b;stroke-opacity:1;stroke-width:14;stroke-linecap:butt;stroke-linejoin:miter;stroke-miterlimit:10;stroke-dasharray:none"
             id="path26" /></g><g
           id="g28"
           transform="translate(390.4521,155.3877)"><path
             d="m 0,0 c -4.064,-11.904 -12.548,-21.765 -20.482,-31.813 l 7.273,-92.05 -72.032,22.297 c -1.457,-0.546 -2.91,-1.104 -4.356,-1.678 -0.71,-0.52 -1.432,-1.022 -2.168,-1.507 -0.231,-0.213 -0.46,-0.429 -0.694,-0.639 -0.544,-0.588 -1.083,-1.18 -1.611,-1.783 -0.744,-0.848 -1.573,-1.326 -2.411,-1.52 -1.911,-1.417 -3.928,-2.693 -6.101,-3.762 -1.119,-0.551 -2.211,-0.666 -3.203,-0.479 -0.183,-0.088 -0.363,-0.183 -0.547,-0.271 -0.915,-0.436 -1.812,-0.586 -2.65,-0.522 -2.5,-1.224 -5.01,-2.33 -7.573,-3.242 L 12.281,-155.388 0,0 z"
             style="fill:#009b5b;fill-opacity:1;fill-rule:nonzero;stroke:none"
             id="path30" /></g><g
           id="g32"
           transform="translate(158.3086,210.8154)"><path
             d="m 0,0 c 0,-15.832 -12.834,-28.667 -28.667,-28.667 -15.832,0 -28.667,12.835 -28.667,28.667 0,15.832 12.835,28.667 28.667,28.667 C -12.834,28.667 0,15.832 0,0 z"
             style="fill:none;stroke:#009b5b;stroke-opacity:1;stroke-width:10;stroke-linecap:butt;stroke-linejoin:miter;stroke-miterlimit:10;stroke-dasharray:none"
             id="path34" /></g><g
           id="g36"
           transform="translate(240.584,210.8154)"><path
             d="m 0,0 c 0,-15.832 -12.834,-28.667 -28.667,-28.667 -15.832,0 -28.667,12.835 -28.667,28.667 0,15.832 12.835,28.667 28.667,28.667 C -12.834,28.667 0,15.832 0,0 z"
             style="fill:none;stroke:#009b5b;stroke-opacity:1;stroke-width:10;stroke-linecap:butt;stroke-linejoin:miter;stroke-miterlimit:10;stroke-dasharray:none"
             id="path38" /></g><g
           id="g40"
           transform="translate(325.5557,210.8154)"><path
             d="m 0,0 c 0,-15.832 -12.834,-28.667 -28.667,-28.667 -15.832,0 -28.667,12.835 -28.667,28.667 0,15.832 12.835,28.667 28.667,28.667 C -12.834,28.667 0,15.832 0,0 z"
             style="fill:none;stroke:#009b5b;stroke-opacity:1;stroke-width:10;stroke-linecap:butt;stroke-linejoin:miter;stroke-miterlimit:10;stroke-dasharray:none"
             id="path42" /></g></g></g></g></svg>