<svg xmlns="http://www.w3.org/2000/svg" xmlns:xlink="http://www.w3.org/1999/xlink" width="138.22" height="246.605"><g><defs><rect id="a" x="107.373" width="30.848" height="246.605"/></defs><clipPath id="b"><use xlink:href="#a" overflow="visible"/></clipPath><polygon opacity=".5" clip-path="url(#b)" fill="#E8E8E8" points="138.22,246.504 105.103,223.535 105.103,0 138.22,22.962"/><polygon opacity=".44" fill="#545454" points="138.22,239.182 107.373,217.781 107.373,9.569 138.22,30.956"/><path fill="#E8E8E8" d="M11.593 22.94c-6.404 0-11.593 5.183-11.593 11.586v200.4c0 6.396 5.189 11.578 11.593 11.578h126.627v-223.564h-126.627z" opacity=".5"/><path fill="#E8E8E8" d="M20.281 30.963c-5.956 0-10.784 4.835-10.784 10.791v186.637c0 5.963 4.828 10.791 10.784 10.791h117.939v-208.219h-117.939z" opacity=".79"/><g opacity=".86"><path fill-rule="evenodd" clip-rule="evenodd" fill="#fff" d="M90.547 135.387l-.13-.238c-.42-.643-.824-1.301-1.258-1.93l-.072-.102c-.072-.129-.13-.268-.231-.375l-.072-.102c-.102-.16-.174-.348-.304-.477l-.072-.102c-.072-.16-.174-.297-.26-.441-.116-.174-.217-.354-.348-.505 0-.059-.028-.094-.072-.102-4.076-6.389-8.167-12.749-12.271-19.109 0-.058-.029-.087-.073-.102-.145-.253-.274-.513-.477-.716-.058-.209-.202-.347-.304-.506-.043-.014-.072-.043-.072-.101-.072-.13-.13-.282-.231-.376 0-.058-.028-.087-.072-.102-.043-.101-.087-.202-.173-.274l-.059-.102c-.086-.122-.145-.267-.245-.368-.044-.015-.072-.043-.072-.102-.361-.614-.752-1.214-1.143-1.799l-.043-.072v-.029c-4.481-.08-9.121-.015-13.675-.036-.535.021-1.171-.043-1.662.036v.065l.043.036c.043.166.173.275.26.405.274.549.65 1.005.954 1.525.361.549.708 1.127 1.084 1.662.043.015.072.051.072.108.087.145.173.304.274.44.029.044.029.123.102.13 4.336 6.758 8.673 13.523 13.024 20.259.043.014.072.043.072.102.188.318.375.621.578.918-.015.086.043.107.101.137.044.145.145.217.202.34.044.014.072.043.072.102l.059.137c.375.549.723 1.121 1.084 1.662l.072.139-.029.137c-.361.541-.708 1.084-1.055 1.627l-.102.172h-.029l-.043.102c-.174.305-.376.57-.535.883h-.043l-.029.1c-4.48 6.932-8.947 13.885-13.399 20.838h-.043l-.058.131c-.506.773-.997 1.547-1.503 2.312-.318.527-.665 1.025-.983 1.561-.058.08-.145.152-.159.275l-.043.029v.072c.448.072 1.055.006 1.561.027 4.583-.021 9.251.045 13.776-.027v-.037l.043-.064c.579-.875 1.143-1.758 1.691-2.652 0-.059.029-.088.072-.102.102-.152.217-.305.304-.477.058-.08.145-.152.174-.268l.058-.102c4.438-6.873 8.861-13.748 13.27-20.635l.072-.102.231-.34.072-.137c0-.059.029-.088.072-.102.087-.107.174-.23.231-.375h.043l.029-.102c.115-.139.202-.311.304-.471 0-.064.028-.094.072-.107.376-.564.752-1.15 1.113-1.729l.173-.273h.029c.001-.055.102-.162.001-.199z"/><defs><filter id="c" filterUnits="userSpaceOnUse" x="57.128" y="107.216" width="33.464" height="56.481"><feColorMatrix values="-1 0 0 0 1 0 -1 0 0 1 0 0 -1 0 1 0 0 0 1 0" color-interpolation-filters="sRGB" result="source"/></filter></defs><mask maskUnits="userSpaceOnUse" x="57.128" y="107.216" width="33.464" height="56.481" id="d"><image overflow="visible" width="157" height="253" xlink:href="2E977E14.jpg" transform="matrix(.24 0 0 .24 55.128 105.216)" filter="url(#c)"/></mask><path fill-rule="evenodd" clip-rule="evenodd" d="M90.547 135.387l-.13-.238c-.42-.643-.824-1.301-1.258-1.93l-.072-.102c-.072-.129-.13-.268-.231-.375l-.072-.102c-.102-.16-.174-.348-.304-.477l-.072-.102c-.072-.16-.174-.297-.26-.441-.116-.174-.217-.354-.348-.505 0-.059-.028-.094-.072-.102-4.076-6.389-8.167-12.749-12.271-19.109 0-.058-.029-.087-.073-.102-.145-.253-.274-.513-.477-.716-.058-.209-.202-.347-.304-.506-.043-.014-.072-.043-.072-.101-.072-.13-.13-.282-.231-.376 0-.058-.028-.087-.072-.102-.043-.101-.087-.202-.173-.274l-.059-.102c-.086-.122-.145-.267-.245-.368-.044-.015-.072-.043-.072-.102-.361-.614-.752-1.214-1.143-1.799l-.043-.072v-.029c-4.481-.08-9.121-.015-13.675-.036-.535.021-1.171-.043-1.662.036v.065l.043.036c.043.166.173.275.26.405.274.549.65 1.005.954 1.525.361.549.708 1.127 1.084 1.662.043.015.072.051.072.108.087.145.173.304.274.44.029.044.029.123.102.13 4.336 6.758 8.673 13.523 13.024 20.259.043.014.072.043.072.102.188.318.375.621.578.918-.015.086.043.107.101.137.044.145.145.217.202.34.044.014.072.043.072.102l.059.137c.375.549.723 1.121 1.084 1.662l.072.139-.029.137c-.361.541-.708 1.084-1.055 1.627l-.102.172h-.029l-.043.102c-.174.305-.376.57-.535.883h-.043l-.029.1c-4.48 6.932-8.947 13.885-13.399 20.838h-.043l-.058.131c-.506.773-.997 1.547-1.503 2.312-.318.527-.665 1.025-.983 1.561-.058.08-.145.152-.159.275l-.043.029v.072c.448.072 1.055.006 1.561.027 4.583-.021 9.251.045 13.776-.027v-.037l.043-.064c.579-.875 1.143-1.758 1.691-2.652 0-.059.029-.088.072-.102.102-.152.217-.305.304-.477.058-.08.145-.152.174-.268l.058-.102c4.438-6.873 8.861-13.748 13.27-20.635l.072-.102.231-.34.072-.137c0-.059.029-.088.072-.102.087-.107.174-.23.231-.375h.043l.029-.102c.115-.139.202-.311.304-.471 0-.064.028-.094.072-.107.376-.564.752-1.15 1.113-1.729l.173-.273h.029c.001-.055.102-.162.001-.199z" mask="url(#d)"/></g></g></svg>