<?xml version="1.0" encoding="utf-8"?>
<!-- Generator: Adobe Illustrator 15.1.0, SVG Export Plug-In . SVG Version: 6.00 Build 0)  -->
<!DOCTYPE svg PUBLIC "-//W3C//DTD SVG 1.1//EN" "http://www.w3.org/Graphics/SVG/1.1/DTD/svg11.dtd">
<svg version="1.1" id="Ebene_1" xmlns="http://www.w3.org/2000/svg" xmlns:xlink="http://www.w3.org/1999/xlink" x="0px" y="0px"
	 width="80.75px" height="5.833px" viewBox="0 0 80.75 5.833" enable-background="new 0 0 80.75 5.833" xml:space="preserve">
<g>
	<defs>
		<rect id="SVGID_1_" x="-10.729" y="-0.083" width="99.5" height="26.375"/>
	</defs>
	<clipPath id="SVGID_2_">
		<use xlink:href="#SVGID_1_"  overflow="visible"/>
	</clipPath>
	<g clip-path="url(#SVGID_2_)">
		<g>
			<g>
				<defs>
					<rect id="SVGID_3_" x="-6.667" y="-1.167" width="95.75" height="18.106"/>
				</defs>
				<clipPath id="SVGID_4_">
					<use xlink:href="#SVGID_3_"  overflow="visible"/>
				</clipPath>
				<g clip-path="url(#SVGID_4_)">
					<path fill="#FFFFFF" d="M48.188-2.14c0,0.834-1.055,1.511-2.351,1.511L3.015,4.149c-1.296,0-2.347-0.678-2.347-1.512v-5.047
						c0-0.834,1.05-1.511,2.347-1.511h42.826c1.297,0,2.348,0.677,2.348,1.511V-2.14L48.188-2.14z"/>
					<path fill="#FEFEFE" d="M48.169-2.146c0,0.831-1.048,1.506-2.339,1.506L3.138,4.112C1.846,4.112,0.8,3.438,0.8,2.604v-5.019
						c0-0.83,1.046-1.505,2.338-1.505H45.83c1.291,0,2.339,0.674,2.339,1.505V-2.146z"/>
					<path fill="#FDFDFD" d="M48.149-2.15c0,0.827-1.043,1.499-2.33,1.499L3.26,4.075c-1.286,0-2.328-0.671-2.328-1.5v-4.991
						c0-0.829,1.042-1.5,2.328-1.5h42.56c1.287,0,2.33,0.671,2.33,1.5V-2.15L48.149-2.15z"/>
					<path fill="#FCFCFC" d="M48.13-2.154c0,0.825-1.039,1.493-2.318,1.493L3.384,4.038c-1.281,0-2.318-0.668-2.318-1.495v-4.961
						c0-0.825,1.037-1.493,2.318-1.493H45.81c1.28,0,2.319,0.668,2.319,1.493L48.13-2.154L48.13-2.154z"/>
					<path fill="#FBFBFB" d="M48.11-2.16c0,0.822-1.034,1.488-2.312,1.488L3.508,4.002c-1.276,0-2.31-0.667-2.31-1.49v-4.935
						c0-0.821,1.034-1.486,2.31-1.486h42.293c1.275,0,2.312,0.666,2.312,1.486v0.264L48.11-2.16L48.11-2.16z"/>
					<path fill="#FAFAFA" d="M48.091-2.165c0,0.818-1.029,1.481-2.301,1.481L3.63,3.965c-1.271,0-2.3-0.667-2.3-1.483v-4.908
						c0-0.819,1.029-1.48,2.3-1.48h42.16c1.271,0,2.301,0.663,2.301,1.48V-2.165z"/>
					<path fill="#F9F9F9" d="M48.071-2.169c0,0.815-1.026,1.475-2.291,1.475L3.753,3.926c-1.266,0-2.291-0.661-2.291-1.475v-4.882
						c0-0.815,1.025-1.475,2.291-1.475H45.78c1.265,0,2.291,0.661,2.291,1.475V-2.169z"/>
					<path fill="#F8F8F8" d="M48.054-2.174c0,0.812-1.021,1.47-2.283,1.47L3.877,3.889c-1.26,0-2.281-0.659-2.281-1.471v-4.854
						c0-0.811,1.021-1.469,2.281-1.469h41.894c1.26,0,2.283,0.659,2.283,1.469V-2.174z"/>
					<path fill="#F7F7F7" d="M48.033-2.18c0,0.808-1.019,1.464-2.272,1.464L4,3.852c-1.255,0-2.272-0.656-2.272-1.464v-4.825
						C1.728-3.246,2.745-3.9,4-3.9h41.761c1.254,0,2.272,0.656,2.272,1.463V-2.18z"/>
					<path fill="#F6F6F6" d="M48.015-2.185c0,0.804-1.015,1.458-2.265,1.458L4.123,3.813c-1.25,0-2.263-0.651-2.263-1.458v-4.797
						c0-0.805,1.013-1.458,2.263-1.458H45.75c1.25,0,2.265,0.653,2.265,1.458V-2.185z"/>
					<path fill="#F5F5F5" d="M47.994-2.188c0,0.8-1.011,1.451-2.255,1.451L4.246,3.776c-1.245,0-2.253-0.649-2.253-1.453v-4.769
						c0-0.801,1.009-1.451,2.253-1.451h41.493c1.244,0,2.255,0.65,2.255,1.451V-2.188z"/>
					<path fill="#F4F4F4" d="M47.976-2.192c0,0.797-1.006,1.444-2.246,1.444L4.37,3.739c-1.24,0-2.244-0.645-2.244-1.446v-4.74
						c0-0.797,1.004-1.444,2.244-1.444h41.359c1.24,0,2.246,0.647,2.246,1.444V-2.192L47.976-2.192z"/>
					<path fill="#F3F3F3" d="M47.955-2.198c0,0.794-1.001,1.438-2.235,1.438L4.493,3.704c-1.234,0-2.235-0.646-2.235-1.439V-2.45
						c0-0.794,1-1.438,2.235-1.438H45.72c1.234,0,2.235,0.645,2.235,1.438V-2.198z"/>
					<path fill="#F2F2F2" d="M47.937-2.204c0,0.791-0.998,1.433-2.227,1.433L4.616,3.665c-1.229,0-2.225-0.641-2.225-1.434v-4.686
						c0-0.79,0.996-1.432,2.225-1.432H45.71c1.229,0,2.227,0.642,2.227,1.432V-2.204z"/>
					<path fill="#F1F1F1" d="M47.916-2.209c0,0.788-0.993,1.428-2.217,1.428L4.739,3.629c-1.225,0-2.216-0.642-2.216-1.432v-4.657
						c0-0.788,0.992-1.427,2.216-1.427h40.96c1.224,0,2.217,0.639,2.217,1.427V-2.209L47.916-2.209z"/>
					<path fill="#F0F0F0" d="M47.896-2.214c0,0.785-0.987,1.422-2.207,1.422L4.862,3.592c-1.219,0-2.206-0.637-2.206-1.423v-4.631
						c0-0.785,0.987-1.421,2.206-1.421H45.69c1.221,0,2.207,0.636,2.207,1.421v0.247H47.896z"/>
					<path fill="#EFEFEF" d="M47.878-2.218c0,0.78-0.984,1.414-2.197,1.414L4.985,3.555c-1.214,0-2.197-0.635-2.197-1.416v-4.604
						c0-0.782,0.983-1.416,2.197-1.416h40.694c1.215,0,2.198,0.634,2.198,1.416L47.878-2.218L47.878-2.218z"/>
					<path fill="#EEEEEE" d="M47.858-2.224c0,0.778-0.98,1.409-2.189,1.409L5.108,3.518c-1.209,0-2.188-0.631-2.188-1.411v-4.575
						c0-0.777,0.979-1.409,2.188-1.409h40.561c1.209,0,2.189,0.632,2.189,1.409V-2.224z"/>
					<path fill="#EDEDED" d="M47.838-2.229c0,0.775-0.976,1.404-2.179,1.404L5.231,3.479c-1.204,0-2.179-0.626-2.179-1.401v-4.548
						c0-0.775,0.975-1.403,2.179-1.403h40.428c1.203,0,2.179,0.628,2.179,1.403V-2.229z"/>
					<path fill="#ECECEC" d="M47.819-2.233c0,0.772-0.973,1.397-2.17,1.397L5.355,3.442c-1.199,0-2.169-0.625-2.169-1.396v-4.521
						c0-0.771,0.971-1.396,2.169-1.396h40.294c1.197,0,2.17,0.625,2.17,1.396V-2.233z"/>
					<path fill="#EBEBEB" d="M47.8-2.238c0,0.768-0.968,1.391-2.16,1.391L5.478,3.405c-1.193,0-2.16-0.624-2.16-1.393v-4.491
						c0-0.768,0.967-1.391,2.16-1.391H45.64c1.192,0,2.16,0.624,2.16,1.391V-2.238z"/>
					<path fill="#EAEAEA" d="M47.78-2.244c0,0.765-0.965,1.385-2.151,1.385L5.601,3.367c-1.188,0-2.151-0.621-2.151-1.387v-4.464
						c0-0.765,0.962-1.385,2.151-1.385h40.028c1.188,0,2.151,0.62,2.151,1.385V-2.244L47.78-2.244z"/>
					<path fill="#E9E9E9" d="M47.761-2.249c0,0.761-0.959,1.379-2.142,1.379L5.724,3.33c-1.183,0-2.142-0.617-2.142-1.378v-4.438
						c0-0.761,0.958-1.379,2.142-1.379h39.895c1.183,0,2.142,0.618,2.142,1.379V-2.249L47.761-2.249z"/>
					<path fill="#E8E8E8" d="M47.741-2.252c0,0.757-0.955,1.373-2.133,1.373L5.847,3.295c-1.178,0-2.132-0.616-2.132-1.375v-4.409
						c0-0.757,0.954-1.374,2.132-1.374h39.761c1.178,0,2.133,0.616,2.133,1.374V-2.252z"/>
					<path fill="#E7E7E7" d="M47.724-2.257c0,0.754-0.951,1.367-2.125,1.367L5.971,3.256c-1.173,0-2.123-0.61-2.123-1.367v-4.381
						c0-0.753,0.95-1.367,2.123-1.367h39.627c1.174,0,2.125,0.613,2.125,1.367V-2.257L47.724-2.257z"/>
					<path fill="#E6E6E6" d="M47.703-2.264c0,0.75-0.947,1.36-2.114,1.36L6.094,3.22c-1.167,0-2.113-0.609-2.113-1.362v-4.353
						c0-0.751,0.946-1.361,2.113-1.361h39.495c1.167,0,2.114,0.609,2.114,1.361V-2.264z"/>
					<path fill="#E5E5E5" d="M47.685-2.27c0,0.748-0.941,1.355-2.104,1.355L6.216,3.183c-1.162,0-2.104-0.606-2.104-1.356v-4.325
						c0-0.748,0.942-1.355,2.104-1.355h39.362c1.162,0,2.104,0.607,2.104,1.355v0.229H47.685z"/>
					<path fill="#E4E4E4" d="M47.664-2.273c0,0.745-0.938,1.349-2.097,1.349L6.34,3.146c-1.158,0-2.095-0.604-2.095-1.349v-4.298
						c0-0.745,0.938-1.349,2.095-1.349h39.228c1.158,0,2.099,0.604,2.099,1.349L47.664-2.273L47.664-2.273z"/>
					<path fill="#E3E3E3" d="M47.646-2.276c0,0.741-0.938,1.342-2.086,1.342L6.463,3.106c-1.152,0-2.085-0.601-2.085-1.343v-4.27
						c0-0.742,0.934-1.344,2.085-1.344h39.095c1.151,0,2.086,0.602,2.086,1.344v0.229L47.646-2.276L47.646-2.276z"/>
					<path fill="#E2E2E2" d="M47.625-2.284c0,0.739-0.931,1.338-2.076,1.338L6.586,3.07c-1.147,0-2.076-0.6-2.076-1.338v-4.243
						c0-0.738,0.929-1.337,2.076-1.337h38.963c1.146,0,2.076,0.6,2.076,1.337V-2.284L47.625-2.284z"/>
					<path fill="#E1E1E1" d="M47.604-2.288c0,0.734-0.926,1.331-2.066,1.331L6.709,3.032c-1.142,0-2.067-0.596-2.067-1.332v-4.213
						c0-0.734,0.925-1.331,2.067-1.331h38.829c1.143,0,2.066,0.597,2.066,1.331V-2.288z"/>
					<path fill="#E0E0E0" d="M47.586-2.292c0,0.731-0.921,1.324-2.058,1.324L6.833,2.996c-1.137,0-2.057-0.594-2.057-1.326v-4.187
						c0-0.731,0.92-1.325,2.057-1.325h38.695c1.138,0,2.059,0.594,2.059,1.325L47.586-2.292L47.586-2.292z"/>
					<path fill="#DFDFDF" d="M47.567-2.297c0,0.728-0.918,1.318-2.049,1.318L6.956,2.959c-1.132,0-2.048-0.59-2.048-1.318v-4.16
						c0-0.728,0.917-1.318,2.048-1.318h38.562c1.131,0,2.049,0.591,2.049,1.318V-2.297z"/>
					<path fill="#DEDEDE" d="M47.548-2.303c0,0.725-0.914,1.312-2.04,1.312L7.079,2.92c-1.127,0-2.039-0.586-2.039-1.312v-4.132
						c0-0.725,0.912-1.312,2.039-1.312h38.429c1.126,0,2.04,0.588,2.04,1.312V-2.303z"/>
					<path fill="#DDDDDD" d="M47.526-2.309c0,0.721-0.908,1.307-2.028,1.307L7.202,2.885c-1.121,0-2.029-0.586-2.029-1.309v-4.104
						c0-0.721,0.908-1.307,2.029-1.307h38.296c1.12,0,2.028,0.584,2.028,1.307V-2.309z"/>
					<path fill="#DCDCDC" d="M47.509-2.312c0,0.718-0.904,1.301-2.021,1.301L7.326,2.847c-1.117,0-2.021-0.583-2.021-1.302v-4.076
						c0-0.718,0.904-1.301,2.021-1.301h38.161c1.117,0,2.021,0.583,2.021,1.301L47.509-2.312L47.509-2.312z"/>
					<path fill="#DBDBDB" d="M47.489-2.316c0,0.714-0.9,1.295-2.012,1.295L7.449,2.811c-1.111,0-2.011-0.581-2.011-1.295v-4.049
						c0-0.714,0.9-1.295,2.011-1.295h38.028c1.109,0,2.013,0.581,2.013,1.295L47.489-2.316L47.489-2.316z"/>
					<path fill="#DADADA" d="M47.47-2.322c0,0.711-0.896,1.289-2.002,1.289L7.571,2.772c-1.105,0-2.001-0.577-2.001-1.29v-4.021
						c0-0.711,0.896-1.288,2.001-1.288h37.896c1.104,0,2.003,0.577,2.003,1.288V-2.322L47.47-2.322z"/>
					<path fill="#D9D9D9" d="M47.45-2.328c0,0.708-0.893,1.283-1.993,1.283L7.695,2.734c-1.101,0-1.993-0.575-1.993-1.283v-3.992
						c0-0.709,0.892-1.284,1.993-1.284h37.762c1.101,0,1.993,0.575,1.993,1.284V-2.328z"/>
					<path fill="#D8D8D8" d="M47.431-2.333c0,0.705-0.889,1.276-1.98,1.276L7.818,2.698c-1.095,0-1.983-0.572-1.983-1.278v-3.965
						c0-0.705,0.888-1.277,1.983-1.277h37.628c1.096,0,1.984,0.572,1.984,1.277V-2.333L47.431-2.333z"/>
					<path fill="#D7D7D7" d="M47.411-2.336c0,0.702-0.885,1.27-1.975,1.27L7.941,2.662c-1.09,0-1.973-0.571-1.973-1.271v-3.938
						c0-0.701,0.883-1.27,1.973-1.27h37.496c1.09,0,1.977,0.569,1.977,1.27L47.411-2.336L47.411-2.336z"/>
					<path fill="#D6D6D6" d="M47.392-2.343c0,0.699-0.879,1.265-1.965,1.265L8.064,2.623C6.979,2.623,6.1,2.059,6.1,1.357v-3.91
						c0-0.699,0.879-1.265,1.964-1.265h37.362c1.085,0,1.966,0.566,1.966,1.265V-2.343L47.392-2.343z"/>
					<path fill="#D5D5D5" d="M47.372-2.348c0,0.695-0.876,1.258-1.955,1.258L8.187,2.586c-1.08,0-1.955-0.563-1.955-1.258v-3.882
						c0-0.695,0.875-1.26,1.955-1.26h37.23c1.079,0,1.955,0.563,1.955,1.26V-2.348z"/>
					<path fill="#D4D4D4" d="M47.353-2.353c0,0.691-0.871,1.252-1.942,1.252L8.311,2.549c-1.075,0-1.945-0.562-1.945-1.252v-3.854
						c0-0.691,0.871-1.252,1.945-1.252h37.097c1.073,0,1.944,0.561,1.944,1.252V-2.353L47.353-2.353z"/>
					<path fill="#D3D3D3" d="M47.334-2.356c0,0.688-0.867,1.247-1.937,1.247L8.434,2.513c-1.07,0-1.936-0.558-1.936-1.247v-3.826
						c0-0.688,0.866-1.247,1.936-1.247h36.963c1.066,0,1.937,0.558,1.937,1.247V-2.356z"/>
					<path fill="#D2D2D2" d="M47.313-2.361c0,0.685-0.862,1.241-1.93,1.241L8.557,2.476c-1.064,0-1.927-0.556-1.927-1.241v-3.799
						c0-0.684,0.862-1.24,1.927-1.24h36.831c1.063,0,1.928,0.556,1.928,1.24v0.204L47.313-2.361L47.313-2.361z"/>
					<path fill="#D1D1D1" d="M47.294-2.368c0,0.682-0.857,1.235-1.918,1.235L8.68,2.438c-1.06,0-1.917-0.552-1.917-1.233v-3.772
						c0-0.681,0.858-1.234,1.917-1.234h36.696c1.061,0,1.918,0.553,1.918,1.234V-2.368z"/>
					<path fill="#D0D0D0" d="M47.274-2.372c0,0.677-0.854,1.228-1.907,1.228L8.803,2.398c-1.055,0-1.908-0.549-1.908-1.228v-3.744
						c0-0.678,0.853-1.229,1.908-1.229h36.564c1.054,0,1.907,0.55,1.907,1.229V-2.372z"/>
					<path fill="#CFCFCF" d="M47.256-2.376c0,0.674-0.851,1.223-1.899,1.223L8.927,2.363c-1.05,0-1.898-0.547-1.898-1.223v-3.715
						c0-0.676,0.849-1.224,1.898-1.224h36.429c1.049,0,1.897,0.547,1.897,1.224L47.256-2.376L47.256-2.376z"/>
					<path fill="#CECECE" d="M47.235-2.382c0,0.672-0.846,1.218-1.889,1.218L9.049,2.326c-1.044,0-1.889-0.545-1.889-1.218v-3.687
						c0-0.672,0.845-1.218,1.889-1.218h36.298c1.043,0,1.889,0.545,1.889,1.218V-2.382L47.235-2.382z"/>
					<path fill="#CDCDCD" d="M47.217-2.388c0,0.667-0.843,1.211-1.881,1.211L9.173,2.289c-1.04,0-1.881-0.542-1.881-1.211v-3.66
						c0-0.668,0.841-1.21,1.881-1.21h36.163c1.038,0,1.881,0.542,1.881,1.21V-2.388z"/>
					<path fill="#CCCCCC" d="M47.196-2.393c0,0.665-0.838,1.204-1.87,1.204l-36.03,3.44c-1.034,0-1.871-0.542-1.871-1.208v-3.633
						c0-0.666,0.837-1.205,1.871-1.205h36.03c1.032,0,1.87,0.539,1.87,1.205V-2.393z"/>
					<path fill="#CBCBCB" d="M47.179-2.396c0,0.662-0.834,1.198-1.861,1.198L9.419,2.214c-1.029,0-1.862-0.537-1.862-1.199v-3.604
						c0-0.662,0.833-1.198,1.862-1.198h35.896c1.029,0,1.863,0.536,1.863,1.198V-2.396L47.179-2.396z"/>
					<path fill="#CACACA" d="M47.159-2.4c0,0.658-0.83,1.191-1.854,1.191L9.542,2.178c-1.023,0-1.852-0.534-1.852-1.193v-3.577
						c0-0.658,0.829-1.191,1.852-1.191h35.764c1.023,0,1.854,0.534,1.854,1.191L47.159-2.4L47.159-2.4z"/>
					<path fill="#C9C9C9" d="M47.14-2.406c0,0.655-0.826,1.187-1.844,1.187L9.665,2.141c-1.019,0-1.843-0.532-1.843-1.188v-3.549
						c0-0.656,0.824-1.187,1.843-1.187h35.631c1.018,0,1.844,0.531,1.844,1.187V-2.406z"/>
					<path fill="#C8C8C8" d="M47.12-2.412c0,0.653-0.821,1.181-1.834,1.181L9.789,2.104c-1.013,0-1.833-0.529-1.833-1.182V-2.6
						c0-0.653,0.82-1.181,1.833-1.181h35.498c1.013,0,1.834,0.528,1.834,1.181L47.12-2.412L47.12-2.412z"/>
					<path fill="#C7C7C7" d="M47.101-2.417c0,0.648-0.813,1.174-1.824,1.174L9.912,2.065c-1.008,0-1.824-0.526-1.824-1.175v-3.494
						c0-0.649,0.816-1.176,1.824-1.176h35.364c1.008,0,1.824,0.527,1.824,1.176V-2.417L47.101-2.417z"/>
					<path fill="#C6C6C6" d="M47.081-2.421c0,0.646-0.812,1.169-1.814,1.169L10.035,2.029c-1.002,0-1.815-0.524-1.815-1.17v-3.466
						c0-0.645,0.812-1.168,1.815-1.168h35.231c1.002,0,1.812,0.524,1.812,1.168L47.081-2.421L47.081-2.421z"/>
					<path fill="#C5C5C5" d="M47.062-2.428c0,0.642-0.809,1.162-1.807,1.162L10.158,1.992c-0.998,0-1.806-0.521-1.806-1.164v-3.439
						c0-0.642,0.808-1.163,1.806-1.163h35.097c0.998,0,1.807,0.521,1.807,1.163V-2.428z"/>
					<path fill="#C4C4C4" d="M47.042-2.432c0,0.638-0.805,1.157-1.797,1.157L10.281,1.954c-0.993,0-1.796-0.517-1.796-1.157v-3.41
						c0-0.639,0.803-1.157,1.796-1.157h34.964c0.992,0,1.797,0.518,1.797,1.157V-2.432z"/>
					<path fill="#C3C3C3" d="M47.022-2.436c0,0.635-0.801,1.15-1.787,1.15L10.404,1.917c-0.987,0-1.786-0.515-1.786-1.15v-3.384
						c0-0.635,0.799-1.15,1.786-1.15h34.832c0.986,0,1.787,0.515,1.787,1.15V-2.436L47.022-2.436z"/>
					<path fill="#C2C2C2" d="M47.003-2.44c0,0.63-0.796,1.145-1.777,1.145L10.527,1.879c-0.982,0-1.777-0.513-1.777-1.146v-3.354
						c0-0.632,0.795-1.145,1.777-1.145h34.699c0.98,0,1.776,0.512,1.776,1.145L47.003-2.44L47.003-2.44z"/>
					<path fill="#C1C1C1" d="M46.983-2.446c0,0.628-0.793,1.139-1.771,1.139L10.65,1.844c-0.978,0-1.769-0.511-1.769-1.14v-3.327
						c0-0.629,0.791-1.14,1.769-1.14h34.564c0.977,0,1.77,0.509,1.77,1.14V-2.446L46.983-2.446z"/>
					<path fill="#C0C0C0" d="M46.964-2.452c0,0.625-0.787,1.133-1.758,1.133L10.773,1.805c-0.972,0-1.759-0.507-1.759-1.133v-3.299
						c0-0.625,0.787-1.133,1.759-1.133h34.433c0.971,0,1.758,0.507,1.758,1.133V-2.452z"/>
					<path fill="#BFBFBF" d="M46.944-2.457c0,0.623-0.782,1.127-1.75,1.127L10.897,1.769c-0.967,0-1.75-0.504-1.75-1.127V-2.63
						c0-0.623,0.783-1.127,1.75-1.127h34.297c0.968,0,1.75,0.504,1.75,1.127V-2.457z"/>
					<path fill="#BEBEBE" d="M46.925-2.46c0,0.618-0.777,1.12-1.738,1.12L11.02,1.73c-0.962,0-1.74-0.502-1.74-1.121v-3.244
						c0-0.62,0.778-1.12,1.74-1.12h34.167c0.961,0,1.738,0.501,1.738,1.12V-2.46z"/>
					<path fill="#BDBDBD" d="M46.905-2.466c0,0.616-0.774,1.114-1.73,1.114L11.143,1.693c-0.956,0-1.73-0.5-1.73-1.114v-3.217
						c0-0.616,0.774-1.114,1.73-1.114h34.032c0.956,0,1.73,0.499,1.73,1.114V-2.466L46.905-2.466z"/>
					<path fill="#BCBCBC" d="M46.888-2.472c0,0.612-0.771,1.107-1.723,1.107l-33.898,3.02c-0.952,0-1.722-0.497-1.722-1.108v-3.188
						c0-0.613,0.77-1.109,1.722-1.109h33.898c0.95,0,1.723,0.497,1.723,1.109V-2.472z"/>
					<path fill="#BBBBBB" d="M46.867-2.476c0,0.609-0.767,1.103-1.712,1.103L11.39,1.62c-0.946,0-1.712-0.495-1.712-1.104v-3.162
						c0-0.609,0.766-1.103,1.712-1.103h33.765c0.945,0,1.713,0.494,1.713,1.103L46.867-2.476L46.867-2.476z"/>
					<path fill="#BABABA" d="M46.849-2.479c0,0.605-0.764,1.096-1.703,1.096L11.513,1.583c-0.941,0-1.703-0.491-1.703-1.097v-3.134
						c0-0.605,0.761-1.097,1.703-1.097h33.632c0.938,0,1.703,0.492,1.703,1.097V-2.479L46.849-2.479z"/>
					<path fill="#B9B9B9" d="M46.828-2.485c0,0.602-0.759,1.091-1.692,1.091l-33.5,2.939c-0.936,0-1.694-0.488-1.694-1.091v-3.105
						c0-0.602,0.758-1.09,1.694-1.09h33.5c0.934,0,1.692,0.488,1.692,1.09V-2.485z"/>
					<path fill="#B8B8B8" d="M46.81-2.49c0,0.598-0.754,1.084-1.686,1.084L11.759,1.507c-0.931,0-1.684-0.486-1.684-1.084v-3.078
						c0-0.599,0.753-1.084,1.684-1.084h33.365c0.932,0,1.686,0.486,1.686,1.084V-2.49z"/>
					<path fill="#B7B7B7" d="M46.79-2.496c0,0.595-0.75,1.079-1.675,1.079L11.883,1.472c-0.926,0-1.675-0.483-1.675-1.079v-3.05
						c0-0.595,0.749-1.078,1.675-1.078h33.232c0.925,0,1.675,0.483,1.675,1.078V-2.496z"/>
					<path fill="#B6B6B6" d="M46.771-2.5c0,0.591-0.746,1.072-1.666,1.072l-33.099,2.86c-0.92,0-1.666-0.48-1.666-1.072v-3.023
						c0-0.592,0.745-1.072,1.666-1.072h33.099c0.92,0,1.666,0.48,1.666,1.072V-2.5z"/>
					<path fill="#B5B5B5" d="M46.751-2.505c0,0.587-0.742,1.066-1.656,1.066L12.128,1.396c-0.915,0-1.656-0.478-1.656-1.067v-2.995
						c0-0.589,0.741-1.067,1.656-1.067h32.967c0.914,0,1.656,0.478,1.656,1.067V-2.505z"/>
					<path fill="#B4B4B4" d="M46.731-2.512c0,0.585-0.738,1.062-1.647,1.062L12.252,1.358c-0.91,0-1.647-0.476-1.647-1.061v-2.967
						c0-0.585,0.737-1.06,1.647-1.06h32.832c0.909,0,1.647,0.474,1.647,1.06V-2.512z"/>
					<path fill="#B3B3B3" d="M46.712-2.515c0,0.582-0.732,1.053-1.638,1.053L12.375,1.321c-0.905,0-1.638-0.472-1.638-1.055v-2.94
						c0-0.582,0.733-1.054,1.638-1.054h32.699c0.903,0,1.638,0.472,1.638,1.054V-2.515z"/>
					<path fill="#B2B2B2" d="M46.692-2.52c0,0.579-0.729,1.048-1.629,1.048L12.498,1.285c-0.9,0-1.628-0.47-1.628-1.049v-2.912
						c0-0.579,0.728-1.048,1.628-1.048h32.565c0.897,0,1.629,0.469,1.629,1.048V-2.52z"/>
					<path fill="#B1B1B1" d="M46.673-2.525c0,0.577-0.725,1.043-1.619,1.043l-32.433,2.73c-0.895,0-1.619-0.467-1.619-1.043v-2.883
						c0-0.576,0.725-1.043,1.619-1.043h32.433c0.896,0,1.619,0.467,1.619,1.043V-2.525z"/>
					<path fill="#B0B0B0" d="M46.653-2.53c0,0.572-0.721,1.036-1.609,1.036l-32.3,2.704c-0.89,0-1.609-0.464-1.609-1.037v-2.855
						c0-0.572,0.72-1.037,1.609-1.037h32.3c0.889,0,1.609,0.465,1.609,1.037V-2.53z"/>
					<path fill="#AFAFAF" d="M46.636-2.536c0,0.568-0.718,1.03-1.602,1.03L12.867,1.173c-0.884,0-1.6-0.462-1.6-1.03v-2.83
						c0-0.568,0.715-1.03,1.6-1.03h32.167c0.884,0,1.602,0.462,1.602,1.03V-2.536z"/>
					<path fill="#AFAEAE" d="M46.614-2.541c0,0.564-0.713,1.025-1.59,1.025L12.991,1.137c-0.879,0-1.591-0.459-1.591-1.026v-2.8
						c0-0.565,0.711-1.024,1.591-1.024h32.033c0.879,0,1.591,0.458,1.591,1.024L46.614-2.541L46.614-2.541z"/>
					<path fill="#AEADAD" d="M46.595-2.544c0,0.56-0.707,1.018-1.58,1.018L13.114,1.098c-0.874,0-1.582-0.456-1.582-1.019v-2.773
						c0-0.562,0.708-1.018,1.582-1.018h31.901c0.873,0,1.58,0.457,1.58,1.018V-2.544z"/>
					<path fill="#ADACAC" d="M46.576-2.55c0,0.559-0.704,1.012-1.573,1.012l-31.766,2.6c-0.869,0-1.572-0.455-1.572-1.012v-2.746
						c0-0.559,0.703-1.013,1.572-1.013h31.766c0.869,0,1.573,0.454,1.573,1.013V-2.55z"/>
					<path fill="#ACABAB" d="M46.558-2.555c0,0.555-0.701,1.006-1.562,1.006L13.36,1.024c-0.864,0-1.562-0.452-1.562-1.007V-2.7
						c0-0.556,0.698-1.007,1.562-1.007h31.633c0.863,0,1.562,0.451,1.562,1.007v0.145H46.558z"/>
					<path fill="#ABAAAA" d="M46.537-2.56c0,0.551-0.695,1-1.554,1l-31.5,2.546c-0.859,0-1.554-0.448-1.554-1v-2.69
						c0-0.553,0.695-1,1.554-1h31.5c0.855,0,1.554,0.447,1.554,1V-2.56L46.537-2.56z"/>
					<path fill="#AAA9A9" d="M46.519-2.565c0,0.549-0.689,0.995-1.545,0.995L13.606,0.95c-0.854,0-1.544-0.446-1.544-0.995v-2.663
						c0-0.548,0.691-0.994,1.544-0.994h31.368c0.854,0,1.545,0.445,1.545,0.994V-2.565z"/>
					<path fill="#A9A8A8" d="M46.498-2.569c0,0.545-0.687,0.987-1.535,0.987L13.729,0.912c-0.849,0-1.535-0.441-1.535-0.987V-2.71
						c0-0.545,0.687-0.988,1.535-0.988h31.234c0.849,0,1.535,0.442,1.535,0.988V-2.569z"/>
					<path fill="#A8A7A7" d="M46.479-2.573c0,0.542-0.687,0.982-1.525,0.982L13.853,0.875c-0.843,0-1.526-0.44-1.526-0.984v-2.605
						c0-0.543,0.683-0.983,1.526-0.983h31.101c0.842,0,1.525,0.439,1.525,0.983V-2.573z"/>
					<path fill="#A7A6A6" d="M46.459-2.58c0,0.54-0.679,0.976-1.517,0.976L13.976,0.838c-0.838,0-1.516-0.438-1.516-0.978v-2.579
						c0-0.54,0.678-0.977,1.516-0.977h30.966c0.838,0,1.517,0.438,1.517,0.977V-2.58z"/>
					<path fill="#A6A5A5" d="M46.438-2.583c0,0.535-0.674,0.969-1.506,0.969L14.099,0.8c-0.833,0-1.507-0.435-1.507-0.97v-2.552
						c0-0.536,0.674-0.97,1.507-0.97h30.833c0.832,0,1.508,0.435,1.508,0.97v0.138H46.438z"/>
					<path fill="#A5A4A4" d="M46.421-2.59c0,0.533-0.671,0.965-1.498,0.965L14.222,0.764c-0.828,0-1.498-0.432-1.498-0.965v-2.522
						c0-0.533,0.67-0.964,1.498-0.964h30.701c0.827,0,1.498,0.432,1.498,0.964V-2.59z"/>
					<path fill="#A4A3A3" d="M46.401-2.596c0,0.529-0.666,0.958-1.488,0.958L14.346,0.727c-0.823,0-1.489-0.43-1.489-0.958v-2.496
						c0-0.529,0.666-0.958,1.489-0.958h30.567c0.822,0,1.488,0.429,1.488,0.958V-2.596z"/>
					<path fill="#A3A2A2" d="M46.382-2.599c0,0.524-0.662,0.951-1.479,0.951L14.469,0.688c-0.817,0-1.479-0.426-1.479-0.952v-2.469
						c0-0.526,0.662-0.952,1.479-0.952h30.434c0.816,0,1.479,0.426,1.479,0.952V-2.599z"/>
					<path fill="#A2A1A1" d="M46.362-2.604c0,0.521-0.658,0.946-1.471,0.946L14.59,0.652c-0.812,0-1.47-0.424-1.47-0.946v-2.44
						c0-0.522,0.657-0.946,1.47-0.946h30.304c0.812,0,1.469,0.423,1.469,0.946V-2.604L46.362-2.604z"/>
					<path fill="#A1A0A0" d="M46.343-2.609c0,0.52-0.652,0.942-1.46,0.942L14.715,0.614c-0.808,0-1.46-0.421-1.46-0.941v-2.412
						c0-0.519,0.652-0.941,1.46-0.941h30.168c0.808,0,1.46,0.422,1.46,0.941V-2.609z"/>
					<path fill="#A09F9F" d="M46.323-2.614c0,0.515-0.649,0.934-1.451,0.934L14.838,0.579c-0.802,0-1.451-0.419-1.451-0.935v-2.385
						c0-0.517,0.649-0.935,1.451-0.935h30.034c0.802,0,1.451,0.418,1.451,0.935V-2.614z"/>
					<path fill="#9F9E9E" d="M46.304-2.62c0,0.511-0.645,0.928-1.441,0.928L14.961,0.541c-0.797,0-1.441-0.416-1.441-0.928v-2.356
						c0-0.514,0.645-0.929,1.441-0.929h29.901c0.797,0,1.441,0.415,1.441,0.929V-2.62L46.304-2.62z"/>
					<path fill="#9E9D9D" d="M46.284-2.625c0,0.507-0.641,0.922-1.432,0.922L15.084,0.503c-0.791,0-1.432-0.414-1.432-0.922v-2.329
						c0-0.51,0.641-0.922,1.432-0.922h29.769c0.791,0,1.435,0.412,1.435,0.922L46.284-2.625L46.284-2.625z"/>
					<path fill="#9D9C9C" d="M46.265-2.628c0,0.504-0.637,0.916-1.423,0.916L15.208,0.465c-0.787,0-1.422-0.412-1.422-0.916v-2.302
						c0-0.506,0.636-0.916,1.422-0.916h29.634c0.786,0,1.423,0.41,1.423,0.916V-2.628z"/>
					<path fill="#9C9B9B" d="M46.245-2.635c0,0.502-0.633,0.911-1.413,0.911L15.331,0.429c-0.782,0-1.414-0.408-1.414-0.91v-2.275
						c0-0.502,0.632-0.91,1.414-0.91h29.501c0.78,0,1.413,0.408,1.413,0.91V-2.635z"/>
					<path fill="#9B9A9A" d="M46.226-2.639c0,0.499-0.627,0.905-1.4,0.905l-29.37,2.126c-0.777,0-1.404-0.406-1.404-0.905v-2.246
						c0-0.5,0.627-0.905,1.404-0.905h29.368c0.775,0,1.402,0.405,1.402,0.905V-2.639L46.226-2.639z"/>
					<path fill="#9A9999" d="M46.206-2.644c0,0.496-0.624,0.897-1.395,0.897l-29.234,2.1c-0.771,0-1.396-0.403-1.396-0.898v-2.219
						c0-0.496,0.624-0.898,1.396-0.898h29.234c0.771,0,1.395,0.402,1.395,0.898V-2.644z"/>
					<path fill="#999898" d="M46.187-2.648c0,0.492-0.619,0.893-1.385,0.893L15.7,0.317c-0.766,0-1.386-0.4-1.386-0.894v-2.191
						c0-0.492,0.62-0.892,1.386-0.892h29.102c0.766,0,1.385,0.4,1.385,0.892V-2.648z"/>
					<path fill="#989797" d="M46.168-2.653c0,0.489-0.616,0.886-1.376,0.886L15.823,0.28c-0.761,0-1.376-0.398-1.376-0.886v-2.163
						c0-0.489,0.616-0.886,1.376-0.886h28.969c0.76,0,1.376,0.397,1.376,0.886V-2.653z"/>
					<path fill="#979696" d="M46.147-2.659c0,0.485-0.611,0.88-1.365,0.88L15.946,0.243c-0.755,0-1.367-0.395-1.367-0.881v-2.135
						c0-0.485,0.611-0.88,1.367-0.88h28.836c0.754,0,1.365,0.395,1.365,0.88V-2.659z"/>
					<path fill="#969595" d="M46.129-2.664c0,0.481-0.606,0.874-1.356,0.874L16.069,0.206c-0.75,0-1.357-0.392-1.357-0.874v-2.108
						c0-0.482,0.607-0.874,1.357-0.874h28.702c0.75,0,1.357,0.392,1.357,0.874L46.129-2.664L46.129-2.664z"/>
					<path fill="#959494" d="M46.108-2.668c0,0.479-0.604,0.867-1.348,0.867L16.193,0.167c-0.746,0-1.348-0.388-1.348-0.868v-2.079
						c0-0.479,0.603-0.868,1.348-0.868h28.568c0.745,0,1.35,0.388,1.35,0.868v0.11L46.108-2.668L46.108-2.668z"/>
					<path fill="#949393" d="M46.09-2.673c0,0.475-0.599,0.862-1.339,0.862L16.316,0.131c-0.741,0-1.339-0.386-1.339-0.863v-2.052
						c0-0.476,0.598-0.862,1.339-0.862h28.435c0.74,0,1.339,0.386,1.339,0.862V-2.673z"/>
					<path fill="#939292" d="M46.069-2.679c0,0.472-0.594,0.856-1.328,0.856L16.439,0.095c-0.735,0-1.33-0.383-1.33-0.857v-2.024
						c0-0.473,0.595-0.857,1.33-0.857h28.302c0.734,0,1.328,0.384,1.328,0.857V-2.679z"/>
					<path fill="#929191" d="M46.052-2.683c0,0.468-0.591,0.85-1.32,0.85l-28.168,1.89c-0.73,0-1.32-0.382-1.32-0.851v-1.997
						c0-0.468,0.59-0.85,1.32-0.85h28.168c0.729,0,1.318,0.382,1.318,0.85L46.052-2.683L46.052-2.683z"/>
					<path fill="#919090" d="M46.032-2.688c0,0.465-0.588,0.844-1.311,0.844L16.686,0.02c-0.725,0-1.311-0.378-1.311-0.844v-1.969
						c0-0.465,0.586-0.845,1.311-0.845h28.036c0.725,0,1.312,0.379,1.312,0.845L46.032-2.688L46.032-2.688z"/>
					<path fill="#908F8F" d="M46.013-2.692c0,0.462-0.582,0.837-1.302,0.837L16.809-0.018c-0.72,0-1.302-0.377-1.302-0.839v-1.94
						c0-0.463,0.582-0.839,1.302-0.839h27.902c0.72,0,1.302,0.375,1.302,0.839V-2.692z"/>
					<path fill="#8F8E8E" d="M45.993-2.698c0,0.46-0.578,0.832-1.292,0.832L16.932-0.056c-0.715,0-1.292-0.374-1.292-0.832V-2.8
						c0-0.46,0.577-0.832,1.292-0.832h27.77c0.714,0,1.292,0.373,1.292,0.832L45.993-2.698L45.993-2.698z"/>
					<path fill="#8E8E8D" d="M45.974-2.704c0,0.456-0.574,0.825-1.283,0.825L17.055-0.093c-0.709,0-1.283-0.37-1.283-0.826v-1.885
						c0-0.456,0.574-0.825,1.283-0.825H44.69c0.709,0,1.283,0.37,1.283,0.825V-2.704L45.974-2.704z"/>
					<path fill="#8D8D8C" d="M45.954-2.708c0,0.452-0.57,0.819-1.273,0.819l-27.501,1.76c-0.704,0-1.273-0.368-1.273-0.82v-1.858
						c0-0.453,0.569-0.821,1.273-0.821h27.501c0.702,0,1.272,0.368,1.272,0.821L45.954-2.708L45.954-2.708z"/>
					<path fill="#8C8C8B" d="M45.935-2.712c0,0.449-0.562,0.814-1.264,0.814l-27.37,1.732c-0.699,0-1.265-0.364-1.265-0.814v-1.831
						c0-0.449,0.565-0.814,1.265-0.814h27.37c0.698,0,1.264,0.365,1.264,0.814V-2.712z"/>
					<path fill="#8B8B8A" d="M45.915-2.718c0,0.445-0.562,0.808-1.255,0.808L17.425-0.204c-0.694,0-1.255-0.363-1.255-0.808v-1.803
						c0-0.445,0.561-0.808,1.255-0.808H44.66c0.692,0,1.255,0.363,1.255,0.808V-2.718z"/>
					<path fill="#8A8A89" d="M45.896-2.723c0,0.443-0.56,0.802-1.246,0.802L17.546-0.24C16.857-0.24,16.3-0.6,16.3-1.042v-1.774
						c0-0.443,0.557-0.802,1.246-0.802h27.104c0.688,0,1.244,0.359,1.244,0.802v0.094H45.896z"/>
					<path fill="#898988" d="M45.876-2.728c0,0.439-0.553,0.795-1.234,0.795L17.671-0.278c-0.684,0-1.236-0.357-1.236-0.795v-1.748
						c0-0.439,0.552-0.796,1.236-0.796h26.971c0.685,0,1.234,0.357,1.234,0.796V-2.728z"/>
					<path fill="#888887" d="M45.856-2.732c0,0.435-0.549,0.789-1.229,0.789L17.794-0.315c-0.679,0-1.227-0.354-1.227-0.789v-1.718
						c0-0.438,0.548-0.791,1.227-0.791H44.63c0.678,0,1.227,0.354,1.227,0.791V-2.732L45.856-2.732z"/>
					<path fill="#878786" d="M45.838-2.737c0,0.431-0.545,0.784-1.218,0.784L17.917-0.353c-0.673,0-1.218-0.352-1.218-0.784v-1.691
						c0-0.433,0.544-0.785,1.218-0.785H44.62c0.673,0,1.218,0.352,1.218,0.785V-2.737z"/>
					<path fill="#868685" d="M45.817-2.743c0,0.428-0.541,0.778-1.207,0.778L18.04-0.389c-0.668,0-1.208-0.349-1.208-0.779v-1.664
						c0-0.429,0.54-0.778,1.208-0.778h26.57c0.666,0,1.207,0.349,1.207,0.778V-2.743z"/>
					<path fill="#858584" d="M45.799-2.748c0,0.425-0.536,0.772-1.198,0.772L18.163-0.427c-0.663,0-1.198-0.346-1.198-0.771v-1.636
						c0-0.425,0.535-0.772,1.198-0.772h26.438c0.662,0,1.198,0.346,1.198,0.772V-2.748z"/>
					<path fill="#848483" d="M45.778-2.752c0,0.422-0.531,0.765-1.188,0.765L18.286-0.463c-0.658,0-1.189-0.343-1.189-0.767v-1.608
						c0-0.423,0.531-0.766,1.189-0.766H44.59c0.657,0,1.188,0.342,1.188,0.766V-2.752z"/>
					<path fill="#838382" d="M45.761-2.757c0,0.419-0.529,0.76-1.181,0.76L18.41-0.501c-0.653,0-1.18-0.34-1.18-0.76v-1.58
						c0-0.42,0.527-0.761,1.18-0.761h26.17c0.651,0,1.181,0.341,1.181,0.761V-2.757z"/>
					<path fill="#828281" d="M45.741-2.762c0,0.416-0.524,0.753-1.172,0.753l-26.036,1.47c-0.648,0-1.172-0.339-1.172-0.754v-1.551
						c0-0.417,0.523-0.755,1.172-0.755h26.036c0.646,0,1.172,0.338,1.172,0.755V-2.762z"/>
					<path fill="#818180" d="M45.722-2.768c0,0.412-0.52,0.748-1.162,0.748L18.656-0.577c-0.643,0-1.162-0.336-1.162-0.747v-1.525
						c0-0.412,0.52-0.748,1.162-0.748H44.56c0.644,0,1.162,0.335,1.162,0.748V-2.768L45.722-2.768z"/>
					<path fill="#80807F" d="M45.702-2.772c0,0.41-0.516,0.742-1.152,0.742L18.779-0.613c-0.637,0-1.152-0.333-1.152-0.743v-1.497
						c0-0.41,0.515-0.743,1.152-0.743H44.55c0.637,0,1.152,0.333,1.152,0.743V-2.772z"/>
					<path fill="#7F7F7E" d="M45.683-2.776c0,0.405-0.512,0.735-1.144,0.735L18.902-0.65c-0.632,0-1.143-0.331-1.143-0.735v-1.47
						c0-0.406,0.511-0.736,1.143-0.736h25.637c0.632,0,1.144,0.331,1.144,0.736V-2.776z"/>
					<path fill="#7E7E7D" d="M45.663-2.783c0,0.402-0.508,0.73-1.135,0.73L19.025-0.688c-0.627,0-1.134-0.329-1.134-0.73v-1.442
						c0-0.402,0.507-0.729,1.134-0.729h25.503c0.627,0,1.135,0.328,1.135,0.729V-2.783z"/>
					<path fill="#7D7D7C" d="M45.644-2.788c0,0.399-0.502,0.724-1.123,0.724L19.148-0.725c-0.622,0-1.124-0.325-1.124-0.723v-1.415
						c0-0.4,0.502-0.725,1.124-0.725h25.371c0.621,0,1.125,0.325,1.125,0.725V-2.788L45.644-2.788z"/>
					<path fill="#7C7C7B" d="M45.624-2.792c0,0.396-0.499,0.717-1.115,0.717L19.271-0.762c-0.617,0-1.115-0.322-1.115-0.718v-1.387
						c0-0.396,0.498-0.718,1.115-0.718h25.237c0.616,0,1.115,0.322,1.115,0.718L45.624-2.792L45.624-2.792z"/>
					<path fill="#7B7B7A" d="M45.604-2.797c0,0.392-0.494,0.711-1.105,0.711L19.395-0.799c-0.612,0-1.106-0.319-1.106-0.711v-1.357
						c0-0.394,0.494-0.713,1.106-0.713h25.104c0.611,0,1.105,0.32,1.105,0.713V-2.797z"/>
					<path fill="#7A7A79" d="M45.585-2.8c0,0.387-0.49,0.705-1.096,0.705L19.518-0.836c-0.606,0-1.096-0.316-1.096-0.705v-1.331
						c0-0.389,0.49-0.706,1.096-0.706h24.971c0.605,0,1.096,0.316,1.096,0.706V-2.8z"/>
					<path fill="#797978" d="M45.565-2.808c0,0.385-0.486,0.701-1.086,0.701L19.642-0.873c-0.602,0-1.087-0.314-1.087-0.701v-1.304
						c0-0.385,0.485-0.701,1.087-0.701h24.837c0.601,0,1.086,0.314,1.086,0.701V-2.808L45.565-2.808z"/>
					<path fill="#787877" d="M45.546-2.812c0,0.383-0.48,0.694-1.076,0.694L19.765-0.911c-0.596,0-1.078-0.312-1.078-0.694v-1.275
						c0-0.383,0.482-0.694,1.078-0.694H44.47c0.596,0,1.076,0.312,1.076,0.694V-2.812z"/>
					<path fill="#777776" d="M45.526-2.816c0,0.379-0.479,0.687-1.067,0.687L19.887-0.947c-0.591,0-1.068-0.308-1.068-0.688v-1.248
						c0-0.38,0.477-0.688,1.068-0.688h24.572c0.59,0,1.067,0.308,1.067,0.688V-2.816z"/>
					<path fill="#767675" d="M45.507-2.821c0,0.376-0.473,0.681-1.058,0.681L20.011-0.984c-0.586,0-1.059-0.305-1.059-0.682v-1.221
						c0-0.375,0.473-0.682,1.059-0.682h24.438c0.585,0,1.058,0.305,1.058,0.682V-2.821z"/>
					<path fill="#757574" d="M45.487-2.827c0,0.373-0.469,0.675-1.049,0.675L20.134-1.022c-0.581,0-1.05-0.303-1.05-0.675v-1.193
						c0-0.372,0.469-0.675,1.05-0.675h24.305c0.58,0,1.049,0.304,1.049,0.675V-2.827L45.487-2.827z"/>
					<path fill="#747473" d="M45.468-2.833c0,0.37-0.465,0.67-1.039,0.67L20.257-1.06c-0.575,0-1.041-0.301-1.041-0.669v-1.165
						c0-0.37,0.465-0.67,1.041-0.67h24.172c0.574,0,1.039,0.301,1.039,0.67V-2.833L45.468-2.833z"/>
					<path fill="#737372" d="M45.448-2.836c0,0.365-0.461,0.664-1.03,0.664L20.38-1.097c-0.571,0-1.031-0.298-1.031-0.665v-1.137
						c0-0.366,0.46-0.664,1.031-0.664h24.038c0.569,0,1.03,0.298,1.03,0.664V-2.836L45.448-2.836z"/>
					<path fill="#727271" d="M45.431-2.841c0,0.363-0.457,0.658-1.021,0.658l-23.907,1.05c-0.565,0-1.021-0.296-1.021-0.659v-1.109
						c0-0.362,0.457-0.657,1.021-0.657h23.905c0.563,0,1.021,0.295,1.021,0.657v0.06H45.431z"/>
					<path fill="#717170" d="M45.41-2.847c0,0.359-0.452,0.651-1.013,0.651L20.627-1.17c-0.561,0-1.013-0.293-1.013-0.651v-1.082
						c0-0.36,0.452-0.652,1.013-0.652h23.771c0.562,0,1.015,0.292,1.015,0.652L45.41-2.847L45.41-2.847z"/>
					<path fill="#70706F" d="M45.392-2.852c0,0.355-0.449,0.646-1.002,0.646L20.75-1.208c-0.556,0-1.003-0.29-1.003-0.646v-1.054
						c0-0.357,0.448-0.646,1.003-0.646h23.638c0.555,0,1.002,0.289,1.002,0.646v0.057L45.392-2.852L45.392-2.852z"/>
					<path fill="#6F6F6E" d="M45.371-2.855c0,0.352-0.444,0.639-0.993,0.639L20.873-1.246c-0.55,0-0.994-0.287-0.994-0.639v-1.026
						c0-0.354,0.444-0.641,0.994-0.641h23.506c0.548,0,0.993,0.287,0.993,0.641L45.371-2.855L45.371-2.855z"/>
					<path fill="#6E6E6D" d="M45.353-2.861c0,0.349-0.438,0.634-0.981,0.634L20.996-1.283c-0.545,0-0.984-0.284-0.984-0.633v-0.999
						c0-0.35,0.439-0.634,0.984-0.634h23.372c0.544,0,0.982,0.284,0.982,0.634v0.052L45.353-2.861L45.353-2.861z"/>
					<path fill="#6D6D6C" d="M45.332-2.867c0,0.346-0.437,0.627-0.976,0.627l-23.237,0.92c-0.54,0-0.975-0.282-0.975-0.628v-0.97
						c0-0.346,0.435-0.627,0.975-0.627h23.237c0.539,0,0.976,0.281,0.976,0.627V-2.867z"/>
					<path fill="#6C6C6B" d="M45.313-2.872c0,0.342-0.436,0.623-0.967,0.623L21.242-1.357c-0.534,0-0.966-0.279-0.966-0.621v-0.943
						c0-0.343,0.432-0.623,0.966-0.623h23.104c0.531,0,0.967,0.279,0.967,0.623V-2.872z"/>
					<path fill="#6B6B6A" d="M45.294-2.876c0,0.339-0.428,0.616-0.956,0.616L21.365-1.394c-0.529,0-0.956-0.276-0.956-0.617v-0.914
						c0-0.34,0.427-0.617,0.956-0.617h22.973c0.528,0,0.956,0.276,0.956,0.617V-2.876z"/>
					<path fill="#6A6A69" d="M45.274-2.88c0,0.336-0.424,0.609-0.947,0.609l-22.838,0.84c-0.524,0-0.947-0.274-0.947-0.61v-0.887
						c0-0.336,0.423-0.61,0.947-0.61h22.839c0.522,0,0.946,0.274,0.946,0.61V-2.88L45.274-2.88z"/>
					<path fill="#696968" d="M45.255-2.886c0,0.332-0.419,0.604-0.938,0.604L21.612-1.469c-0.519,0-0.938-0.27-0.938-0.604v-0.859
						c0-0.333,0.419-0.604,0.938-0.604h22.706c0.521,0,0.938,0.271,0.938,0.604L45.255-2.886L45.255-2.886z"/>
					<path fill="#686867" d="M45.235-2.892c0,0.33-0.416,0.598-0.928,0.598L21.735-1.506c-0.514,0-0.929-0.268-0.929-0.597v-0.831
						c0-0.33,0.415-0.599,0.929-0.599h22.573c0.512,0,0.928,0.268,0.928,0.599V-2.892L45.235-2.892z"/>
					<path fill="#676766" d="M45.216-2.896c0,0.326-0.41,0.592-0.918,0.592l-22.44,0.76c-0.508,0-0.919-0.265-0.919-0.591v-0.804
						c0-0.327,0.411-0.591,0.919-0.591h22.439c0.509,0,0.918,0.265,0.918,0.591L45.216-2.896L45.216-2.896z"/>
					<path fill="#666665" d="M45.196-2.9c0,0.322-0.406,0.585-0.909,0.585L21.981-1.581c-0.503,0-0.909-0.263-0.909-0.586v-0.776
						c0-0.324,0.406-0.585,0.909-0.585h22.307c0.502,0,0.908,0.262,0.908,0.585V-2.9L45.196-2.9z"/>
					<path fill="#656564" d="M45.177-2.906c0,0.319-0.402,0.58-0.898,0.58L22.104-1.618c-0.499,0-0.9-0.261-0.9-0.58v-0.748
						c0-0.32,0.402-0.58,0.9-0.58h22.172c0.498,0,0.897,0.26,0.897,0.58L45.177-2.906L45.177-2.906z"/>
					<path fill="#646463" d="M45.157-2.912c0,0.316-0.396,0.574-0.891,0.574L22.226-1.654c-0.493,0-0.891-0.258-0.891-0.575v-0.72
						c0-0.317,0.398-0.575,0.891-0.575h22.041c0.491,0,0.892,0.258,0.892,0.575L45.157-2.912L45.157-2.912z"/>
					<path fill="#636362" d="M45.138-2.917c0,0.312-0.394,0.567-0.881,0.567L22.351-1.691c-0.488,0-0.882-0.256-0.882-0.568v-0.693
						c0-0.313,0.394-0.568,0.882-0.568h21.906c0.487,0,0.881,0.255,0.881,0.568V-2.917z"/>
					<path fill="#626261" d="M45.119-2.919c0,0.309-0.39,0.562-0.872,0.562L22.474-1.729c-0.482,0-0.872-0.252-0.872-0.562v-0.665
						c0-0.309,0.39-0.562,0.872-0.562h21.773c0.482,0,0.872,0.252,0.872,0.562V-2.919L45.119-2.919z"/>
					<path fill="#616160" d="M45.101-2.924c0,0.304-0.387,0.554-0.863,0.554l-21.64,0.604c-0.478,0-0.863-0.25-0.863-0.555v-0.638
						c0-0.306,0.385-0.556,0.863-0.556h21.64c0.477,0,0.863,0.25,0.863,0.556V-2.924L45.101-2.924z"/>
					<path fill="#60605F" d="M45.08-2.931c0,0.303-0.382,0.549-0.854,0.549L22.72-1.804c-0.473,0-0.854-0.247-0.854-0.549v-0.61
						c0-0.303,0.381-0.55,0.854-0.55h21.505c0.473,0,0.854,0.247,0.854,0.55L45.08-2.931L45.08-2.931z"/>
					<path fill="#5F5F5E" d="M45.062-2.936c0,0.299-0.379,0.543-0.845,0.543L22.844-1.841c-0.468,0-0.845-0.245-0.845-0.543v-0.582
						c0-0.301,0.376-0.544,0.845-0.544h21.373c0.466,0,0.845,0.244,0.845,0.544V-2.936z"/>
					<path fill="#5E5E5D" d="M45.041-2.939c0,0.296-0.373,0.538-0.834,0.538l-21.24,0.525c-0.462,0-0.835-0.242-0.835-0.538V-2.97
						c0-0.296,0.373-0.537,0.835-0.537h21.24c0.461,0,0.834,0.242,0.834,0.537V-2.939z"/>
					<path fill="#5D5D5C" d="M45.021-2.945c0,0.293-0.369,0.532-0.824,0.532L23.089-1.915c-0.457,0-0.825-0.239-0.825-0.532v-0.527
						c0-0.293,0.368-0.532,0.825-0.532h21.107c0.455,0,0.824,0.239,0.824,0.532V-2.945L45.021-2.945z"/>
					<path fill="#5C5C5B" d="M45.002-2.951c0,0.289-0.364,0.526-0.815,0.526L23.213-1.952c-0.452,0-0.817-0.237-0.817-0.526v-0.5
						c0-0.29,0.365-0.525,0.817-0.525h20.974c0.451,0,0.815,0.236,0.815,0.525V-2.951z"/>
					<path fill="#5B5B5A" d="M44.981-2.956c0,0.286-0.359,0.519-0.808,0.519L23.334-1.99c-0.447,0-0.807-0.233-0.807-0.521v-0.471
						c0-0.286,0.36-0.52,0.807-0.52h20.841c0.445,0,0.809,0.233,0.809,0.52v0.025L44.981-2.956L44.981-2.956z"/>
					<path fill="#5A5A59" d="M44.963-2.959c0,0.282-0.354,0.512-0.796,0.512l-20.708,0.42c-0.441,0-0.797-0.23-0.797-0.512v-0.443
						c0-0.283,0.356-0.515,0.797-0.515h20.708c0.441,0,0.796,0.23,0.796,0.515V-2.959z"/>
					<path fill="#595958" d="M44.942-2.963c0,0.279-0.354,0.506-0.787,0.506L23.583-2.064c-0.437,0-0.789-0.227-0.789-0.506v-0.417
						c0-0.28,0.352-0.508,0.789-0.508h20.572c0.437,0,0.789,0.229,0.789,0.508v0.023L44.942-2.963L44.942-2.963z"/>
					<path fill="#585857" d="M44.924-2.971c0,0.276-0.347,0.501-0.778,0.501L23.706-2.101c-0.432,0-0.779-0.226-0.779-0.501V-2.99
						c0-0.277,0.348-0.502,0.779-0.502h20.439c0.432,0,0.776,0.226,0.776,0.502L44.924-2.971L44.924-2.971z"/>
					<path fill="#575756" d="M44.905-2.976c0,0.273-0.344,0.496-0.771,0.496L23.827-2.14c-0.427,0-0.771-0.221-0.771-0.496v-0.36
						c0-0.273,0.344-0.496,0.771-0.496h20.307c0.428,0,0.771,0.223,0.771,0.496V-2.976L44.905-2.976z"/>
					<path fill="#565655" d="M44.886-2.979c0,0.269-0.34,0.489-0.76,0.489L23.952-2.175c-0.421,0-0.76-0.221-0.76-0.489v-0.333
						c0-0.27,0.339-0.49,0.76-0.49h20.174c0.42,0,0.76,0.22,0.76,0.49V-2.979L44.886-2.979z"/>
					<path fill="#555554" d="M44.866-2.984c0,0.267-0.336,0.483-0.75,0.483L24.075-2.212c-0.416,0-0.75-0.218-0.75-0.484v-0.305
						c0-0.267,0.335-0.484,0.75-0.484h20.041c0.416,0,0.75,0.217,0.75,0.484V-2.984z"/>
					<path fill="#545453" d="M44.847-2.99c0,0.263-0.33,0.478-0.74,0.478L24.198-2.25c-0.411,0-0.742-0.214-0.742-0.478v-0.277
						c0-0.263,0.332-0.478,0.742-0.478h19.908c0.41,0,0.74,0.215,0.74,0.478V-2.99L44.847-2.99z"/>
					<path fill="#535352" d="M44.827-2.996c0,0.26-0.326,0.47-0.73,0.47L24.321-2.288c-0.406,0-0.732-0.212-0.732-0.47v-0.25
						c0-0.26,0.327-0.472,0.732-0.472h19.774c0.405,0,0.731,0.212,0.731,0.472L44.827-2.996L44.827-2.996z"/>
					<path fill="#525251" d="M44.808-3c0,0.256-0.322,0.465-0.722,0.465l-19.642,0.21c-0.4,0-0.723-0.208-0.723-0.465v-0.221
						c0-0.257,0.323-0.466,0.723-0.466h19.642c0.399,0,0.722,0.209,0.722,0.466V-3z"/>
					<path fill="#515150" d="M44.788-3.004c0,0.252-0.318,0.459-0.712,0.459L24.568-2.361c-0.396,0-0.714-0.207-0.714-0.46v-0.195
						c0-0.253,0.318-0.46,0.714-0.46h19.508c0.394,0,0.712,0.206,0.712,0.46V-3.004z"/>
					<path fill="#50504F" d="M44.769-3.01c0,0.25-0.312,0.454-0.703,0.454L24.691-2.397c-0.391,0-0.705-0.204-0.705-0.454v-0.167
						c0-0.25,0.314-0.453,0.705-0.453h19.375c0.392,0,0.703,0.203,0.703,0.453V-3.01z"/>
					<path fill="#4F4F4E" d="M44.749-3.015c0,0.247-0.311,0.447-0.693,0.447L24.814-2.436c-0.385,0-0.695-0.201-0.695-0.447v-0.139
						c0-0.247,0.31-0.448,0.695-0.448h19.242c0.383,0,0.693,0.201,0.693,0.448V-3.015z"/>
					<path fill="#4E4E4D" d="M44.729-3.02c0,0.242-0.308,0.44-0.688,0.44L24.937-2.474c-0.38,0-0.686-0.199-0.686-0.442v-0.11
						c0-0.244,0.306-0.443,0.686-0.443h19.108c0.379,0,0.685,0.198,0.685,0.443V-3.02L44.729-3.02z"/>
					<path fill="#4D4D4C" d="M44.71-3.023c0,0.239-0.301,0.435-0.675,0.435L25.06-2.512c-0.375,0-0.676-0.195-0.676-0.435v-0.083
						c0-0.241,0.301-0.436,0.676-0.436h18.975c0.374,0,0.675,0.195,0.675,0.436V-3.023z"/>
					<path fill="#4C4C4B" d="M44.69-3.028c0,0.236-0.297,0.429-0.666,0.429L25.183-2.547c-0.37,0-0.667-0.193-0.667-0.429v-0.056
						c0-0.236,0.297-0.429,0.667-0.429h18.841c0.369,0,0.668,0.193,0.668,0.429v0.004H44.69z"/>
					<path fill="#4B4B4A" d="M44.672-3.034c0,0.233-0.293,0.423-0.657,0.423L25.307-2.583c-0.365,0-0.658-0.191-0.658-0.424v-0.027
						c0-0.234,0.293-0.423,0.658-0.423h18.708C44.378-3.458,44.672-3.269,44.672-3.034L44.672-3.034z"/>
					<path fill="#262626" d="M44.651-3.04c0,0.229-0.289,0.417-0.646,0.417H25.43c-0.359,0-0.648-0.188-0.648-0.417l0,0
						c0-0.23,0.289-0.417,0.648-0.417h18.575C44.362-3.458,44.651-3.27,44.651-3.04L44.651-3.04z"/>
				</g>
			</g>
		</g>
	</g>
	<g clip-path="url(#SVGID_2_)">
		<g>
			<defs>
				<rect id="SVGID_5_" x="-6.667" y="-1.167" width="95.75" height="18.106"/>
			</defs>
			<clipPath id="SVGID_6_">
				<use xlink:href="#SVGID_5_"  overflow="visible"/>
			</clipPath>
			<g clip-path="url(#SVGID_6_)">
				<path fill="#FFFFFF" d="M32.417-2.14c0,0.834,1.05,1.511,2.346,1.511L77.59,4.149c1.296,0,2.347-0.676,2.347-1.511V-2.41
					c0-0.834-1.051-1.511-2.347-1.511H34.763c-1.296,0-2.346,0.677-2.346,1.511V-2.14z"/>
				<path fill="#FEFEFE" d="M32.437-2.146c0,0.831,1.047,1.506,2.336,1.506l42.694,4.751c1.29,0,2.337-0.674,2.337-1.507v-5.019
					c0-0.83-1.047-1.505-2.337-1.505H34.772c-1.291,0-2.336,0.674-2.336,1.505L32.437-2.146L32.437-2.146z"/>
				<path fill="#FDFDFD" d="M32.456-2.15c0,0.827,1.042,1.499,2.326,1.499l42.561,4.726c1.286,0,2.328-0.671,2.328-1.5v-4.991
					c0-0.829-1.042-1.5-2.328-1.5H34.782c-1.285,0-2.326,0.671-2.326,1.5V-2.15z"/>
				<path fill="#FCFCFC" d="M32.476-2.154c0,0.825,1.037,1.493,2.316,1.493L77.22,4.038c1.281,0,2.319-0.668,2.319-1.495v-4.961
					c0-0.825-1.038-1.493-2.319-1.493H34.792c-1.279,0-2.316,0.668-2.316,1.493V-2.154z"/>
				<path fill="#FBFBFB" d="M32.495-2.16c0,0.822,1.033,1.488,2.307,1.488l42.294,4.674c1.274,0,2.312-0.667,2.312-1.49v-4.935
					c0-0.821-1.034-1.486-2.312-1.486H34.802c-1.273,0-2.307,0.666-2.307,1.486V-2.16z"/>
				<path fill="#FAFAFA" d="M32.515-2.165c0,0.818,1.028,1.481,2.297,1.481l42.162,4.647c1.271,0,2.301-0.665,2.301-1.482v-4.908
					c0-0.819-1.028-1.479-2.301-1.479H34.812c-1.27,0-2.297,0.663-2.297,1.479V-2.165z"/>
				<path fill="#F9F9F9" d="M32.533-2.169c0,0.815,1.024,1.475,2.288,1.475l42.03,4.621c1.266,0,2.289-0.661,2.289-1.475v-4.882
					c0-0.814-1.023-1.475-2.289-1.475h-42.03c-1.264,0-2.288,0.661-2.288,1.475V-2.169z"/>
				<path fill="#F8F8F8" d="M32.554-2.174c0,0.812,1.021,1.47,2.278,1.47l41.896,4.594c1.26,0,2.281-0.659,2.281-1.471v-4.854
					c0-0.811-1.021-1.469-2.281-1.469H34.833c-1.259,0-2.279,0.659-2.279,1.469V-2.174L32.554-2.174z"/>
				<path fill="#F7F7F7" d="M32.573-2.18c0,0.808,1.017,1.464,2.27,1.464l41.762,4.569c1.256,0,2.271-0.656,2.271-1.465v-4.825
					c0-0.808-1.021-1.463-2.271-1.463H34.843c-1.253,0-2.27,0.655-2.27,1.463V-2.18L32.573-2.18z"/>
				<path fill="#F6F6F6" d="M32.592-2.185c0,0.804,1.013,1.458,2.261,1.458l41.628,4.54c1.248,0,2.264-0.651,2.264-1.457V-2.44
					c0-0.805-1.016-1.458-2.264-1.458H34.853c-1.248,0-2.26,0.653-2.26,1.458L32.592-2.185L32.592-2.185z"/>
				<path fill="#F5F5F5" d="M32.61-2.188c0,0.8,1.009,1.451,2.252,1.451l41.497,4.513c1.244,0,2.252-0.649,2.252-1.452v-4.769
					c0-0.801-1.008-1.451-2.252-1.451H34.862c-1.243,0-2.252,0.65-2.252,1.451V-2.188z"/>
				<path fill="#F4F4F4" d="M32.631-2.192c0,0.797,1.005,1.444,2.242,1.444l41.362,4.491c1.24,0,2.244-0.646,2.244-1.448v-4.741
					c0-0.797-1.004-1.444-2.244-1.444H34.873c-1.237,0-2.242,0.646-2.242,1.444V-2.192z"/>
				<path fill="#F3F3F3" d="M32.649-2.198c0,0.794,1,1.438,2.232,1.438L76.11,3.704c1.234,0,2.234-0.646,2.234-1.439V-2.45
					c0-0.794-1-1.438-2.234-1.438H34.883c-1.233,0-2.231,0.645-2.231,1.438v0.252L32.649-2.198L32.649-2.198z"/>
				<path fill="#F2F2F2" d="M32.669-2.204c0,0.791,0.996,1.433,2.223,1.433l41.095,4.437c1.229,0,2.228-0.642,2.228-1.435v-4.686
					c0-0.79-0.995-1.432-2.228-1.432H34.894c-1.229,0-2.224,0.642-2.224,1.432L32.669-2.204L32.669-2.204z"/>
				<path fill="#F1F1F1" d="M32.688-2.209c0,0.788,0.992,1.428,2.215,1.428l40.962,4.411c1.224,0,2.217-0.642,2.217-1.432v-4.657
					c0-0.788-0.993-1.427-2.217-1.427H34.903c-1.223,0-2.215,0.639-2.215,1.427V-2.209z"/>
				<path fill="#F0F0F0" d="M32.708-2.214c0,0.785,0.986,1.422,2.206,1.422l40.829,4.385c1.219,0,2.207-0.637,2.207-1.423v-4.631
					c0-0.785-0.988-1.421-2.207-1.421H34.914c-1.218,0-2.206,0.636-2.206,1.421V-2.214z"/>
				<path fill="#EFEFEF" d="M32.728-2.218c0,0.78,0.983,1.414,2.196,1.414L75.62,3.555c1.213,0,2.197-0.635,2.197-1.416v-4.604
					c0-0.782-0.984-1.416-2.197-1.416H34.924c-1.213,0-2.196,0.634-2.196,1.416V-2.218z"/>
				<path fill="#EEEEEE" d="M32.747-2.224c0,0.778,0.979,1.409,2.188,1.409l40.562,4.331c1.209,0,2.188-0.631,2.188-1.41v-4.575
					c0-0.777-0.979-1.409-2.188-1.409H34.935c-1.209,0-2.188,0.632-2.188,1.409V-2.224z"/>
				<path fill="#EDEDED" d="M32.767-2.229c0,0.775,0.975,1.404,2.178,1.404l40.43,4.305c1.203,0,2.181-0.627,2.181-1.403v-4.547
					c0-0.775-0.978-1.403-2.181-1.403H34.942c-1.202,0-2.176,0.628-2.176,1.403L32.767-2.229L32.767-2.229z"/>
				<path fill="#ECECEC" d="M32.786-2.233c0,0.772,0.97,1.397,2.167,1.397l40.296,4.278c1.197,0,2.169-0.625,2.169-1.396v-4.521
					c0-0.771-0.972-1.396-2.169-1.396H34.954c-1.197,0-2.167,0.625-2.167,1.396L32.786-2.233L32.786-2.233z"/>
				<path fill="#EBEBEB" d="M32.806-2.238c0,0.768,0.967,1.391,2.158,1.391l40.163,4.253c1.192,0,2.16-0.624,2.16-1.393v-4.491
					c0-0.768-0.968-1.391-2.16-1.391H34.964c-1.191,0-2.158,0.624-2.158,1.391V-2.238z"/>
				<path fill="#EAEAEA" d="M32.825-2.244c0,0.765,0.962,1.385,2.148,1.385l40.03,4.226c1.188,0,2.148-0.619,2.148-1.386v-4.464
					c0-0.765-0.963-1.385-2.148-1.385h-40.03c-1.187,0-2.148,0.62-2.148,1.385V-2.244z"/>
				<path fill="#E9E9E9" d="M32.845-2.249c0,0.761,0.957,1.379,2.139,1.379l39.896,4.2c1.184,0,2.143-0.619,2.143-1.378v-4.438
					c0-0.761-0.959-1.379-2.143-1.379H34.983c-1.183,0-2.139,0.618-2.139,1.379L32.845-2.249L32.845-2.249z"/>
				<path fill="#E8E8E8" d="M32.864-2.252c0,0.757,0.953,1.373,2.13,1.373l39.763,4.174c1.178,0,2.133-0.615,2.133-1.375v-4.409
					c0-0.757-0.955-1.374-2.133-1.374H34.994c-1.177,0-2.13,0.616-2.13,1.374V-2.252z"/>
				<path fill="#E7E7E7" d="M32.884-2.257c0,0.754,0.949,1.367,2.121,1.367l39.629,4.146c1.174,0,2.123-0.61,2.123-1.367v-4.381
					c0-0.753-0.949-1.367-2.123-1.367H35.005c-1.172,0-2.121,0.613-2.121,1.367V-2.257z"/>
				<path fill="#E6E6E6" d="M32.901-2.264c0,0.75,0.947,1.36,2.113,1.36l39.497,4.122c1.168,0,2.111-0.609,2.111-1.362v-4.353
					c0-0.751-0.943-1.361-2.111-1.361H35.015c-1.166,0-2.111,0.609-2.111,1.361v0.232L32.901-2.264L32.901-2.264z"/>
				<path fill="#E5E5E5" d="M32.922-2.27c0,0.748,0.94,1.355,2.103,1.355l39.363,4.096c1.162,0,2.104-0.607,2.104-1.356V-2.5
					c0-0.748-0.941-1.355-2.104-1.355H35.024c-1.162,0-2.104,0.607-2.104,1.355L32.922-2.27L32.922-2.27z"/>
				<path fill="#E4E4E4" d="M32.94-2.273c0,0.745,0.938,1.349,2.094,1.349l39.23,4.07c1.154,0,2.094-0.604,2.094-1.349v-4.298
					c0-0.745-0.938-1.349-2.094-1.349h-39.23c-1.156,0-2.094,0.604-2.094,1.349V-2.273z"/>
				<path fill="#E3E3E3" d="M32.961-2.276c0,0.741,0.933,1.342,2.083,1.342l39.098,4.042c1.15,0,2.084-0.602,2.084-1.343v-4.27
					c0-0.742-0.934-1.344-2.084-1.344H35.045c-1.151,0-2.083,0.602-2.083,1.344L32.961-2.276L32.961-2.276z"/>
				<path fill="#E2E2E2" d="M32.979-2.284c0,0.739,0.93,1.338,2.074,1.338L74.019,3.07c1.146,0,2.076-0.6,2.076-1.338v-4.243
					c0-0.738-0.933-1.337-2.076-1.337H35.056c-1.146,0-2.074,0.6-2.074,1.337v0.227H32.979z"/>
				<path fill="#E1E1E1" d="M33-2.288c0,0.734,0.924,1.331,2.065,1.331l38.831,3.99c1.142,0,2.064-0.596,2.064-1.332v-4.213
					c0-0.734-0.926-1.331-2.064-1.331H35.065C33.923-3.843,33-3.246,33-2.512V-2.288z"/>
				<path fill="#E0E0E0" d="M33.019-2.292c0,0.731,0.92,1.324,2.057,1.324l38.696,3.965c1.138,0,2.059-0.594,2.059-1.326v-4.187
					c0-0.731-0.921-1.325-2.059-1.325H35.075c-1.135,0-2.057,0.594-2.057,1.325L33.019-2.292L33.019-2.292z"/>
				<path fill="#DFDFDF" d="M33.039-2.297c0,0.728,0.916,1.318,2.046,1.318l38.564,3.937c1.131,0,2.047-0.59,2.047-1.316v-4.159
					c0-0.728-0.916-1.318-2.047-1.318H35.085c-1.13,0-2.046,0.591-2.046,1.318V-2.297z"/>
				<path fill="#DEDEDE" d="M33.058-2.303c0,0.725,0.912,1.312,2.037,1.312l38.431,3.91c1.125,0,2.037-0.586,2.037-1.312v-4.132
					c0-0.725-0.912-1.312-2.037-1.312H35.095c-1.125,0-2.037,0.588-2.037,1.312V-2.303z"/>
				<path fill="#DDDDDD" d="M33.077-2.309c0,0.721,0.908,1.307,2.027,1.307l38.297,3.886c1.121,0,2.029-0.586,2.029-1.308v-4.104
					c0-0.721-0.908-1.307-2.029-1.307H35.104c-1.119,0-2.027,0.584-2.027,1.307V-2.309z"/>
				<path fill="#DCDCDC" d="M33.097-2.312c0,0.718,0.904,1.301,2.02,1.301L73.28,2.847c1.115,0,2.021-0.583,2.021-1.302v-4.076
					c0-0.718-0.901-1.301-2.021-1.301H35.115c-1.115,0-2.019,0.583-2.019,1.301L33.097-2.312L33.097-2.312z"/>
				<path fill="#DBDBDB" d="M33.117-2.316c0,0.714,0.899,1.295,2.009,1.295l38.029,3.833c1.111,0,2.012-0.58,2.012-1.296v-4.048
					c0-0.714-0.9-1.295-2.012-1.295H35.126c-1.109,0-2.009,0.581-2.009,1.295V-2.316z"/>
				<path fill="#DADADA" d="M33.136-2.322c0,0.711,0.895,1.289,2,1.289l37.897,3.806c1.104,0,2.001-0.577,2.001-1.29v-4.021
					c0-0.711-0.896-1.288-2.001-1.288H35.136c-1.105,0-2,0.577-2,1.288V-2.322z"/>
				<path fill="#D9D9D9" d="M33.155-2.328c0,0.708,0.891,1.283,1.99,1.283l37.765,3.78c1.101,0,1.991-0.575,1.991-1.283V-2.54
					c0-0.709-0.895-1.284-1.991-1.284H35.145c-1.101,0-1.99,0.575-1.99,1.284V-2.328z"/>
				<path fill="#D8D8D8" d="M33.175-2.333c0,0.705,0.887,1.276,1.98,1.276l37.632,3.755c1.095,0,1.981-0.572,1.981-1.278v-3.965
					c0-0.705-0.89-1.277-1.981-1.277H35.155c-1.094,0-1.98,0.572-1.98,1.277V-2.333L33.175-2.333z"/>
				<path fill="#D7D7D7" d="M33.194-2.336c0,0.702,0.883,1.27,1.972,1.27l37.498,3.729c1.09,0,1.974-0.571,1.974-1.271v-3.938
					c0-0.701-0.884-1.27-1.974-1.27H35.166c-1.089,0-1.972,0.569-1.972,1.27V-2.336z"/>
				<path fill="#D6D6D6" d="M33.213-2.343c0,0.699,0.878,1.265,1.963,1.265L72.54,2.623c1.085,0,1.965-0.564,1.965-1.266v-3.91
					c0-0.699-0.88-1.265-1.965-1.265H35.176c-1.084,0-1.963,0.566-1.963,1.265V-2.343z"/>
				<path fill="#D5D5D5" d="M33.233-2.348c0,0.695,0.875,1.258,1.953,1.258l37.23,3.675c1.08,0,1.955-0.563,1.955-1.258v-3.882
					c0-0.695-0.875-1.26-1.955-1.26h-37.23c-1.08,0-1.953,0.563-1.953,1.26V-2.348z"/>
				<path fill="#D4D4D4" d="M33.252-2.353c0,0.691,0.87,1.252,1.944,1.252l37.098,3.647c1.074,0,1.945-0.562,1.945-1.252v-3.853
					c0-0.691-0.871-1.252-1.945-1.252H35.196c-1.074,0-1.944,0.561-1.944,1.252V-2.353z"/>
				<path fill="#D3D3D3" d="M33.272-2.356c0,0.688,0.865,1.247,1.934,1.247l36.965,3.622c1.069,0,1.936-0.558,1.936-1.247v-3.826
					c0-0.688-0.863-1.247-1.936-1.247H35.207c-1.067,0-1.935,0.558-1.935,1.247V-2.356L33.272-2.356z"/>
				<path fill="#D2D2D2" d="M33.291-2.361c0,0.685,0.862,1.241,1.925,1.241l36.832,3.596c1.064,0,1.928-0.556,1.928-1.241v-3.799
					c0-0.684-0.863-1.24-1.928-1.24H35.216c-1.062,0-1.925,0.556-1.925,1.24V-2.361z"/>
				<path fill="#D1D1D1" d="M33.312-2.368c0,0.682,0.856,1.235,1.916,1.235l36.698,3.569c1.06,0,1.917-0.553,1.917-1.234v-3.771
					c0-0.682-0.857-1.234-1.917-1.234h-36.7c-1.058,0-1.916,0.553-1.916,1.234v0.202L33.312-2.368L33.312-2.368z"/>
				<path fill="#D0D0D0" d="M33.33-2.372c0,0.677,0.854,1.228,1.905,1.228l36.566,3.542c1.056,0,1.908-0.549,1.908-1.228v-3.744
					c0-0.678-0.854-1.229-1.908-1.229H35.235c-1.053,0-1.905,0.55-1.905,1.229V-2.372z"/>
				<path fill="#CFCFCF" d="M33.351-2.376c0,0.674,0.85,1.223,1.896,1.223l36.432,3.517c1.049,0,1.898-0.547,1.898-1.223v-3.715
					c0-0.676-0.85-1.224-1.898-1.224H35.247c-1.048,0-1.896,0.547-1.896,1.224V-2.376z"/>
				<path fill="#CECECE" d="M33.369-2.382c0,0.672,0.845,1.218,1.888,1.218l36.299,3.491c1.043,0,1.889-0.545,1.889-1.218v-3.687
					c0-0.672-0.846-1.218-1.889-1.218H35.257c-1.043,0-1.888,0.545-1.888,1.218V-2.382z"/>
				<path fill="#CDCDCD" d="M33.39-2.388c0,0.667,0.84,1.211,1.877,1.211l36.166,3.466c1.037,0,1.879-0.542,1.879-1.211v-3.66
					c0-0.668-0.842-1.21-1.879-1.21H35.267c-1.037,0-1.877,0.542-1.877,1.21V-2.388z"/>
				<path fill="#CCCCCC" d="M33.408-2.393c0,0.665,0.837,1.204,1.87,1.204l36.032,3.44c1.032,0,1.871-0.542,1.871-1.208v-3.633
					c0-0.666-0.839-1.205-1.871-1.205H35.276c-1.032,0-1.869,0.539-1.869,1.205L33.408-2.393L33.408-2.393z"/>
				<path fill="#CBCBCB" d="M33.429-2.396c0,0.662,0.832,1.198,1.858,1.198l35.899,3.412c1.025,0,1.858-0.537,1.858-1.199v-3.604
					c0-0.662-0.833-1.198-1.858-1.198H35.287c-1.026,0-1.858,0.536-1.858,1.198V-2.396z"/>
				<path fill="#CACACA" d="M33.446-2.4c0,0.658,0.828,1.191,1.851,1.191l35.765,3.386c1.023,0,1.854-0.534,1.854-1.193v-3.577
					c0-0.658-0.829-1.191-1.854-1.191H35.297c-1.022,0-1.851,0.534-1.851,1.191V-2.4z"/>
				<path fill="#C9C9C9" d="M33.466-2.406c0,0.655,0.824,1.187,1.842,1.187l35.63,3.361c1.02,0,1.845-0.532,1.845-1.188v-3.55
					c0-0.655-0.825-1.187-1.845-1.187h-35.63c-1.018,0-1.842,0.531-1.842,1.187V-2.406z"/>
				<path fill="#C8C8C8" d="M33.485-2.412c0,0.653,0.82,1.181,1.832,1.181l35.499,3.334c1.014,0,1.834-0.529,1.834-1.182V-2.6
					c0-0.653-0.82-1.181-1.834-1.181H35.317c-1.012,0-1.832,0.528-1.832,1.181V-2.412z"/>
				<path fill="#C7C7C7" d="M33.505-2.417c0,0.648,0.814,1.174,1.822,1.174l35.365,3.308c1.009,0,1.824-0.526,1.824-1.175v-3.494
					c0-0.649-0.815-1.176-1.824-1.176H35.328c-1.007,0-1.822,0.527-1.822,1.176L33.505-2.417L33.505-2.417z"/>
				<path fill="#C6C6C6" d="M33.524-2.421c0,0.646,0.812,1.169,1.812,1.169l35.231,3.282c1.004,0,1.813-0.524,1.813-1.17v-3.466
					c0-0.645-0.812-1.168-1.813-1.168h-35.23c-1.001,0-1.812,0.524-1.812,1.168L33.524-2.421L33.524-2.421z"/>
				<path fill="#C5C5C5" d="M33.544-2.428c0,0.642,0.809,1.162,1.803,1.162l35.099,3.257c0.998,0,1.807-0.521,1.807-1.165v-3.438
					c0-0.642-0.809-1.163-1.807-1.163H35.347c-0.996,0-1.803,0.521-1.803,1.163V-2.428z"/>
				<path fill="#C4C4C4" d="M33.563-2.432c0,0.638,0.803,1.157,1.795,1.157l34.965,3.228c0.992,0,1.797-0.517,1.797-1.157v-3.41
					c0-0.639-0.805-1.157-1.797-1.157H35.358c-0.992,0-1.795,0.518-1.795,1.157V-2.432L33.563-2.432z"/>
				<path fill="#C3C3C3" d="M33.583-2.436c0,0.635,0.799,1.15,1.785,1.15L70.2,1.917c0.986,0,1.787-0.515,1.787-1.15v-3.384
					c0-0.635-0.801-1.15-1.787-1.15H35.368c-0.986,0-1.785,0.515-1.785,1.15V-2.436z"/>
				<path fill="#C2C2C2" d="M33.603-2.44c0,0.63,0.795,1.145,1.775,1.145l34.699,3.177c0.982,0,1.777-0.513,1.777-1.146v-3.354
					c0-0.632-0.795-1.146-1.777-1.146H35.378c-0.98,0-1.775,0.512-1.775,1.146V-2.44z"/>
				<path fill="#C1C1C1" d="M33.622-2.446c0,0.628,0.791,1.139,1.766,1.139l34.566,3.151c0.977,0,1.768-0.511,1.768-1.14v-3.327
					c0-0.629-0.791-1.14-1.768-1.14H35.388c-0.976,0-1.766,0.509-1.766,1.14V-2.446z"/>
				<path fill="#C0C0C0" d="M33.642-2.452c0,0.625,0.787,1.133,1.758,1.133l34.433,3.123c0.973,0,1.759-0.507,1.759-1.133v-3.299
					c0-0.625-0.786-1.133-1.759-1.133H35.397c-0.971,0-1.758,0.507-1.758,1.133v0.177L33.642-2.452L33.642-2.452z"/>
				<path fill="#BFBFBF" d="M33.661-2.457c0,0.623,0.781,1.127,1.747,1.127l34.3,3.097c0.967,0,1.75-0.504,1.75-1.127v-3.272
					c0-0.623-0.783-1.127-1.75-1.127h-34.3c-0.966,0-1.747,0.504-1.747,1.127V-2.457z"/>
				<path fill="#BEBEBE" d="M33.681-2.46c0,0.618,0.777,1.12,1.738,1.12l34.167,3.072c0.961,0,1.74-0.502,1.74-1.121v-3.244
					c0-0.62-0.779-1.12-1.74-1.12H35.418c-0.96,0-1.739,0.501-1.739,1.12v0.173H33.681z"/>
				<path fill="#BDBDBD" d="M33.699-2.466c0,0.616,0.772,1.114,1.729,1.114L69.46,1.691c0.957,0,1.73-0.5,1.73-1.114V-2.64
					c0-0.616-0.773-1.114-1.73-1.114H35.429c-0.957,0-1.729,0.499-1.729,1.114L33.699-2.466L33.699-2.466z"/>
				<path fill="#BCBCBC" d="M33.72-2.472c0,0.612,0.77,1.107,1.719,1.107l33.9,3.02c0.951,0,1.721-0.498,1.721-1.109v-3.188
					c0-0.613-0.77-1.109-1.721-1.109h-33.9c-0.949,0-1.719,0.497-1.719,1.109V-2.472z"/>
				<path fill="#BBBBBB" d="M33.737-2.476c0,0.609,0.767,1.103,1.712,1.103l33.767,2.993c0.945,0,1.713-0.495,1.713-1.104v-3.161
					c0-0.609-0.768-1.103-1.713-1.103H35.449c-0.945,0-1.712,0.494-1.712,1.103V-2.476z"/>
				<path fill="#BABABA" d="M33.758-2.479c0,0.605,0.761,1.096,1.701,1.096l33.634,2.966c0.94,0,1.702-0.491,1.702-1.097v-3.134
					c0-0.605-0.762-1.097-1.702-1.097H35.459c-0.94,0-1.701,0.492-1.701,1.097V-2.479z"/>
				<path fill="#B9B9B9" d="M33.776-2.485c0,0.602,0.758,1.091,1.693,1.091l33.5,2.939c0.936,0,1.69-0.488,1.69-1.091v-3.105
					c0-0.602-0.761-1.09-1.69-1.09h-33.5c-0.936,0-1.693,0.488-1.693,1.09V-2.485z"/>
				<path fill="#B8B8B8" d="M33.796-2.49c0,0.598,0.753,1.084,1.684,1.084l33.365,2.914c0.932,0,1.688-0.486,1.688-1.084v-3.078
					c0-0.599-0.756-1.084-1.688-1.084H35.479c-0.931,0-1.684,0.486-1.684,1.084L33.796-2.49L33.796-2.49z"/>
				<path fill="#B7B7B7" d="M33.815-2.496c0,0.595,0.75,1.079,1.674,1.079l33.235,2.888c0.926,0,1.674-0.483,1.674-1.079v-3.05
					c0-0.595-0.748-1.078-1.674-1.078H35.489c-0.924,0-1.674,0.483-1.674,1.078V-2.496z"/>
				<path fill="#B6B6B6" d="M33.835-2.5c0,0.591,0.745,1.072,1.664,1.072l33.102,2.86c0.92,0,1.664-0.48,1.664-1.072v-3.023
					c0-0.592-0.744-1.072-1.664-1.072H35.499c-0.919,0-1.664,0.48-1.664,1.072V-2.5z"/>
				<path fill="#B5B5B5" d="M33.854-2.505c0,0.587,0.74,1.066,1.653,1.066l32.969,2.836c0.916,0,1.654-0.478,1.654-1.067v-2.995
					c0-0.589-0.738-1.067-1.654-1.067H35.509c-0.914,0-1.654,0.478-1.654,1.067L33.854-2.505L33.854-2.505z"/>
				<path fill="#B4B4B4" d="M33.874-2.512c0,0.585,0.736,1.062,1.646,1.062l32.834,2.809C69.263,1.359,70,0.883,70,0.298v-2.967
					c0-0.585-0.737-1.06-1.646-1.06H35.521c-0.91,0-1.646,0.474-1.646,1.06L33.874-2.512L33.874-2.512z"/>
				<path fill="#B3B3B3" d="M33.894-2.515c0,0.582,0.732,1.053,1.635,1.053l32.701,2.783c0.906,0,1.641-0.472,1.641-1.055v-2.94
					c0-0.582-0.73-1.054-1.641-1.054H35.528c-0.902,0-1.635,0.472-1.635,1.054L33.894-2.515L33.894-2.515z"/>
				<path fill="#B2B2B2" d="M33.913-2.52c0,0.579,0.729,1.048,1.627,1.048l32.566,2.757c0.897,0,1.629-0.47,1.629-1.049v-2.912
					c0-0.579-0.729-1.048-1.629-1.048H35.54c-0.898,0-1.627,0.469-1.627,1.048V-2.52z"/>
				<path fill="#B1B1B1" d="M33.933-2.525c0,0.577,0.725,1.043,1.617,1.043l32.434,2.73c0.895,0,1.619-0.467,1.619-1.043v-2.883
					c0-0.576-0.728-1.043-1.619-1.043H35.55c-0.895,0-1.617,0.467-1.617,1.043V-2.525z"/>
				<path fill="#B0B0B0" d="M33.952-2.53c0,0.572,0.72,1.036,1.607,1.036L67.86,1.209c0.89,0,1.609-0.464,1.609-1.037v-2.855
					c0-0.572-0.723-1.037-1.609-1.037h-32.3c-0.888,0-1.607,0.465-1.607,1.037L33.952-2.53L33.952-2.53z"/>
				<path fill="#AFAFAF" d="M33.972-2.536c0,0.568,0.717,1.03,1.6,1.03l32.166,2.679c0.886,0,1.602-0.462,1.602-1.03v-2.83
					c0-0.568-0.716-1.03-1.602-1.03H35.569c-0.883,0-1.598,0.462-1.598,1.03L33.972-2.536L33.972-2.536z"/>
				<path fill="#AFAEAE" d="M33.991-2.541c0,0.564,0.711,1.025,1.589,1.025l32.034,2.651c0.879,0,1.591-0.459,1.591-1.026v-2.8
					c0-0.565-0.712-1.024-1.591-1.024H35.58c-0.878,0-1.589,0.458-1.589,1.024V-2.541z"/>
				<path fill="#AEADAD" d="M34.011-2.544c0,0.56,0.706,1.018,1.579,1.018l31.901,2.625c0.873,0,1.58-0.456,1.58-1.019v-2.773
					c0-0.562-0.707-1.018-1.58-1.018H35.59c-0.873,0-1.579,0.457-1.579,1.018V-2.544z"/>
				<path fill="#ADACAC" d="M34.028-2.55c0,0.559,0.703,1.012,1.572,1.012l31.768,2.599c0.869,0,1.572-0.455,1.572-1.012v-2.746
					c0-0.559-0.703-1.013-1.572-1.013H35.601c-0.867,0-1.57,0.454-1.57,1.013v0.146h-0.003V-2.55z"/>
				<path fill="#ACABAB" d="M34.05-2.555c0,0.555,0.698,1.006,1.561,1.006l31.635,2.572c0.862,0,1.562-0.452,1.562-1.007v-2.717
					c0-0.556-0.699-1.007-1.562-1.007H35.61c-0.862,0-1.562,0.451-1.562,1.007L34.05-2.555L34.05-2.555z"/>
				<path fill="#ABAAAA" d="M34.067-2.56c0,0.551,0.695,1,1.553,1l31.502,2.546c0.857,0,1.553-0.448,1.553-1v-2.69
					c0-0.553-0.695-1-1.553-1H35.62c-0.857,0-1.553,0.447-1.553,1V-2.56z"/>
				<path fill="#AAA9A9" d="M34.088-2.565c0,0.549,0.69,0.995,1.543,0.995l31.367,2.52c0.854,0,1.544-0.446,1.544-0.995v-2.663
					c0-0.548-0.689-0.994-1.544-0.994H35.631c-0.853,0-1.543,0.445-1.543,0.994V-2.565z"/>
				<path fill="#A9A8A8" d="M34.106-2.569c0,0.545,0.687,0.987,1.533,0.987l31.234,2.494c0.851,0,1.535-0.441,1.535-0.987V-2.71
					c0-0.545-0.688-0.988-1.535-0.988H35.642c-0.848,0-1.533,0.442-1.533,0.988v0.141H34.106z"/>
				<path fill="#A8A7A7" d="M34.127-2.573c0,0.542,0.683,0.982,1.524,0.982l31.101,2.469c0.845,0,1.526-0.441,1.526-0.984v-2.606
					c0-0.543-0.684-0.983-1.526-0.983H35.651c-0.842,0-1.524,0.439-1.524,0.983V-2.573z"/>
				<path fill="#A7A6A6" d="M34.145-2.58c0,0.54,0.679,0.976,1.516,0.976l30.968,2.442c0.839,0,1.517-0.438,1.517-0.978v-2.579
					c0-0.54-0.678-0.977-1.517-0.977H35.661c-0.837,0-1.516,0.438-1.516,0.977V-2.58z"/>
				<path fill="#A6A5A5" d="M34.166-2.583c0,0.535,0.673,0.969,1.505,0.969L66.506,0.8c0.833,0,1.507-0.435,1.507-0.97v-2.552
					c0-0.536-0.674-0.97-1.507-0.97H35.671c-0.832,0-1.505,0.435-1.505,0.97V-2.583z"/>
				<path fill="#A5A4A4" d="M34.185-2.59c0,0.533,0.67,0.965,1.496,0.965l30.702,2.389c0.827,0,1.497-0.432,1.497-0.965v-2.522
					c0-0.533-0.67-0.964-1.497-0.964H35.681c-0.826,0-1.496,0.432-1.496,0.964V-2.59z"/>
				<path fill="#A4A3A3" d="M34.204-2.596c0,0.529,0.666,0.958,1.486,0.958l30.568,2.363c0.822,0,1.488-0.43,1.488-0.959v-2.496
					c0-0.529-0.666-0.958-1.488-0.958H35.69c-0.82,0-1.486,0.429-1.486,0.958V-2.596z"/>
				<path fill="#A3A2A2" d="M34.224-2.599c0,0.524,0.662,0.951,1.478,0.951l30.436,2.337c0.817,0,1.479-0.426,1.479-0.952v-2.469
					c0-0.526-0.661-0.952-1.479-0.952H35.701c-0.815,0-1.478,0.426-1.478,0.952L34.224-2.599L34.224-2.599z"/>
				<path fill="#A2A1A1" d="M34.243-2.604c0,0.521,0.656,0.946,1.469,0.946l30.303,2.311c0.812,0,1.469-0.424,1.469-0.946v-2.44
					c0-0.522-0.655-0.946-1.469-0.946H35.712c-0.812,0-1.469,0.423-1.469,0.946V-2.604z"/>
				<path fill="#A1A0A0" d="M34.263-2.609c0,0.52,0.653,0.942,1.459,0.942L65.89,0.614c0.81,0,1.461-0.421,1.461-0.941v-2.412
					c0-0.519-0.651-0.941-1.461-0.941H35.722c-0.806,0-1.459,0.422-1.459,0.941V-2.609z"/>
				<path fill="#A09F9F" d="M34.282-2.614c0,0.515,0.648,0.934,1.449,0.934l30.036,2.258c0.803,0,1.449-0.419,1.449-0.935v-2.385
					c0-0.517-0.646-0.935-1.449-0.935H35.731c-0.801,0-1.449,0.418-1.449,0.935V-2.614z"/>
				<path fill="#9F9E9E" d="M34.302-2.62c0,0.511,0.645,0.928,1.439,0.928l29.902,2.232c0.797,0,1.438-0.416,1.438-0.928v-2.356
					c0-0.514-0.646-0.929-1.438-0.929H35.741c-0.795,0-1.439,0.415-1.439,0.929V-2.62z"/>
				<path fill="#9E9D9D" d="M34.321-2.625c0,0.507,0.64,0.922,1.431,0.922l29.769,2.205c0.793,0,1.435-0.414,1.435-0.922v-2.33
					c0-0.509-0.642-0.921-1.435-0.921H35.752c-0.791,0-1.431,0.412-1.431,0.921V-2.625z"/>
				<path fill="#9D9C9C" d="M34.34-2.628c0,0.504,0.636,0.916,1.423,0.916l29.634,2.179c0.785,0,1.422-0.412,1.422-0.916v-2.302
					c0-0.506-0.637-0.916-1.422-0.916H35.763c-0.787,0-1.423,0.41-1.423,0.916V-2.628z"/>
				<path fill="#9C9B9B" d="M34.36-2.635c0,0.502,0.631,0.911,1.412,0.911l29.502,2.152c0.781,0,1.414-0.408,1.414-0.91v-2.275
					c0-0.502-0.633-0.91-1.414-0.91H35.772c-0.78,0-1.412,0.408-1.412,0.91V-2.635z"/>
				<path fill="#9B9A9A" d="M34.379-2.639c0,0.499,0.627,0.905,1.403,0.905l29.369,2.126c0.773,0,1.404-0.406,1.404-0.905v-2.246
					c0-0.5-0.631-0.905-1.404-0.905H35.782c-0.775,0-1.403,0.405-1.403,0.905V-2.639z"/>
				<path fill="#9A9999" d="M34.397-2.644c0,0.496,0.625,0.897,1.395,0.897l29.236,2.101c0.771,0,1.395-0.403,1.395-0.898v-2.219
					c0-0.496-0.624-0.898-1.395-0.898H35.792c-0.77,0-1.395,0.402-1.395,0.898V-2.644z"/>
				<path fill="#999898" d="M34.418-2.648c0,0.492,0.619,0.893,1.384,0.893l29.103,2.074c0.767,0,1.386-0.4,1.386-0.893v-2.192
					c0-0.492-0.619-0.892-1.386-0.892H35.804c-0.766,0-1.385,0.4-1.385,0.892L34.418-2.648L34.418-2.648z"/>
				<path fill="#989797" d="M34.437-2.653c0,0.489,0.615,0.886,1.375,0.886L64.783,0.28c0.76,0,1.376-0.398,1.376-0.886v-2.163
					c0-0.489-0.616-0.886-1.376-0.886H35.812c-0.76,0-1.375,0.397-1.375,0.886V-2.653z"/>
				<path fill="#979696" d="M34.457-2.659c0,0.485,0.61,0.88,1.364,0.88l28.838,2.021c0.755,0,1.365-0.395,1.365-0.881v-2.135
					c0-0.485-0.61-0.88-1.365-0.88H35.821c-0.754,0-1.364,0.395-1.364,0.88V-2.659z"/>
				<path fill="#969595" d="M34.478-2.664c0,0.481,0.605,0.874,1.355,0.874l28.702,1.996c0.751,0,1.358-0.392,1.358-0.874v-2.109
					c0-0.482-0.607-0.874-1.358-0.874H35.833c-0.75,0-1.355,0.392-1.355,0.874V-2.664z"/>
				<path fill="#959494" d="M34.496-2.668c0,0.479,0.603,0.867,1.347,0.867l28.569,1.969c0.745,0,1.349-0.388,1.349-0.868v-2.079
					c0-0.479-0.604-0.868-1.349-0.868H35.843c-0.744,0-1.347,0.389-1.347,0.868V-2.668z"/>
				<path fill="#949393" d="M34.517-2.673c0,0.475,0.598,0.862,1.336,0.862L64.29,0.13c0.738,0,1.339-0.386,1.339-0.863v-2.052
					c0-0.476-0.601-0.862-1.339-0.862H35.853c-0.74,0-1.336,0.386-1.336,0.862V-2.673z"/>
				<path fill="#939292" d="M34.535-2.679c0,0.472,0.594,0.856,1.327,0.856l28.304,1.917c0.735,0,1.329-0.383,1.329-0.857v-2.024
					c0-0.473-0.594-0.857-1.329-0.857H35.862c-0.733,0-1.327,0.384-1.327,0.857V-2.679z"/>
				<path fill="#929191" d="M34.556-2.683c0,0.468,0.588,0.85,1.317,0.85l28.17,1.89c0.729,0,1.319-0.382,1.319-0.851v-1.997
					c0-0.468-0.59-0.85-1.319-0.85h-28.17c-0.729,0-1.317,0.382-1.317,0.85V-2.683z"/>
				<path fill="#919090" d="M34.574-2.688c0,0.465,0.585,0.844,1.31,0.844l28.037,1.864c0.725,0,1.311-0.378,1.311-0.844v-1.969
					c0-0.465-0.586-0.845-1.311-0.845H35.883c-0.724,0-1.31,0.379-1.31,0.845L34.574-2.688L34.574-2.688z"/>
				<path fill="#908F8F" d="M34.593-2.692c0,0.462,0.582,0.837,1.301,0.837l27.903,1.838c0.72,0,1.302-0.377,1.302-0.839v-1.94
					c0-0.463-0.582-0.839-1.302-0.839H35.894c-0.719,0-1.301,0.375-1.301,0.839V-2.692L34.593-2.692z"/>
				<path fill="#8F8E8E" d="M34.612-2.698c0,0.46,0.578,0.832,1.291,0.832l27.77,1.811c0.715,0,1.293-0.374,1.293-0.832V-2.8
					c0-0.46-0.578-0.832-1.293-0.832h-27.77c-0.713,0-1.291,0.373-1.291,0.832V-2.698z"/>
				<path fill="#8E8E8D" d="M34.632-2.704c0,0.456,0.573,0.825,1.281,0.825L63.55-0.094c0.711,0,1.283-0.37,1.283-0.826v-1.885
					c0-0.456-0.572-0.825-1.283-0.825H35.913c-0.708,0-1.281,0.37-1.281,0.825V-2.704L34.632-2.704z"/>
				<path fill="#8D8D8C" d="M34.651-2.708c0,0.452,0.568,0.819,1.271,0.819L63.425-0.13c0.705,0,1.274-0.368,1.274-0.82v-1.858
					c0-0.453-0.569-0.821-1.274-0.821H35.924c-0.702,0-1.272,0.368-1.272,0.821L34.651-2.708L34.651-2.708z"/>
				<path fill="#8C8C8B" d="M34.671-2.712c0,0.449,0.564,0.814,1.264,0.814l27.369,1.732c0.699,0,1.266-0.364,1.266-0.814v-1.831
					c0-0.449-0.563-0.814-1.266-0.814H35.935c-0.699,0-1.264,0.365-1.264,0.814V-2.712z"/>
				<path fill="#8B8B8A" d="M34.69-2.718c0,0.445,0.561,0.808,1.252,0.808l27.239,1.707c0.692,0,1.254-0.362,1.254-0.808v-1.803
					c0-0.445-0.562-0.808-1.254-0.808H35.944c-0.693,0-1.254,0.363-1.254,0.808V-2.718L34.69-2.718z"/>
				<path fill="#8A8A89" d="M34.71-2.723c0,0.443,0.557,0.802,1.244,0.802l27.104,1.68c0.689,0,1.246-0.359,1.246-0.802v-1.774
					c0-0.443-0.557-0.802-1.246-0.802H35.954c-0.688,0-1.244,0.359-1.244,0.802V-2.723z"/>
				<path fill="#898988" d="M34.729-2.728c0,0.439,0.551,0.795,1.234,0.795l26.972,1.654c0.686,0,1.235-0.357,1.235-0.795v-1.748
					c0-0.439-0.553-0.796-1.235-0.796H35.964c-0.684,0-1.234,0.357-1.234,0.796L34.729-2.728L34.729-2.728z"/>
				<path fill="#888887" d="M34.749-2.732c0,0.435,0.548,0.789,1.225,0.789l26.837,1.628c0.679,0,1.228-0.354,1.228-0.789v-1.718
					c0-0.438-0.549-0.791-1.228-0.791H35.974c-0.677,0-1.225,0.354-1.225,0.791V-2.732z"/>
				<path fill="#878786" d="M34.769-2.737c0,0.431,0.543,0.784,1.215,0.784l26.705,1.601c0.672,0,1.219-0.352,1.219-0.784v-1.691
					c0-0.433-0.547-0.785-1.219-0.785H35.983c-0.672,0-1.215,0.352-1.215,0.785L34.769-2.737L34.769-2.737z"/>
				<path fill="#868685" d="M34.787-2.743c0,0.428,0.54,0.778,1.207,0.778l26.571,1.576c0.668,0,1.207-0.349,1.207-0.779v-1.664
					c0-0.429-0.539-0.778-1.207-0.778H35.994c-0.667,0-1.207,0.349-1.207,0.778V-2.743z"/>
				<path fill="#858584" d="M34.808-2.748c0,0.425,0.535,0.772,1.197,0.772l26.438,1.549c0.662,0,1.199-0.346,1.199-0.771v-1.636
					c0-0.425-0.537-0.772-1.199-0.772H36.005c-0.662,0-1.197,0.346-1.197,0.772V-2.748z"/>
				<path fill="#848483" d="M34.826-2.752c0,0.422,0.53,0.765,1.188,0.765l26.303,1.522c0.658,0,1.188-0.343,1.188-0.766v-1.607
					c0-0.423-0.53-0.766-1.188-0.766H36.015c-0.656,0-1.188,0.342-1.188,0.766L34.826-2.752L34.826-2.752z"/>
				<path fill="#838382" d="M34.847-2.757c0,0.419,0.526,0.76,1.178,0.76l26.171,1.496c0.652,0,1.181-0.34,1.181-0.76v-1.58
					c0-0.42-0.526-0.761-1.181-0.761H36.024c-0.651,0-1.178,0.341-1.178,0.761L34.847-2.757L34.847-2.757z"/>
				<path fill="#828281" d="M34.865-2.762c0,0.416,0.522,0.753,1.169,0.753l26.037,1.47c0.648,0,1.172-0.339,1.172-0.754v-1.551
					c0-0.417-0.523-0.755-1.172-0.755H36.035c-0.646,0-1.169,0.338-1.169,0.755L34.865-2.762L34.865-2.762z"/>
				<path fill="#818180" d="M34.886-2.768c0,0.412,0.518,0.748,1.159,0.748l25.904,1.443c0.643,0,1.161-0.336,1.161-0.747v-1.525
					c0-0.412-0.521-0.748-1.161-0.748H36.045c-0.642,0-1.159,0.335-1.159,0.748V-2.768z"/>
				<path fill="#80807F" d="M34.903-2.772c0,0.41,0.515,0.742,1.152,0.742l25.771,1.418c0.638,0,1.151-0.333,1.151-0.743v-1.497
					c0-0.41-0.517-0.743-1.151-0.743h-25.77c-0.638,0-1.152,0.333-1.152,0.743L34.903-2.772L34.903-2.772z"/>
				<path fill="#7F7F7E" d="M34.923-2.776c0,0.405,0.512,0.735,1.143,0.735L61.703-0.65c0.632,0,1.144-0.331,1.144-0.735v-1.47
					c0-0.406-0.512-0.736-1.144-0.736H36.065c-0.631,0-1.143,0.331-1.143,0.736L34.923-2.776L34.923-2.776z"/>
				<path fill="#7E7E7D" d="M34.942-2.783c0,0.402,0.507,0.73,1.133,0.73L61.58-0.688c0.626,0,1.134-0.329,1.134-0.73v-1.442
					c0-0.402-0.508-0.729-1.134-0.729H36.075c-0.626,0-1.133,0.328-1.133,0.729V-2.783z"/>
				<path fill="#7D7D7C" d="M34.962-2.788c0,0.399,0.502,0.724,1.123,0.724l25.371,1.338c0.622,0,1.125-0.325,1.125-0.723v-1.415
					c0-0.4-0.503-0.725-1.125-0.725H36.085c-0.62,0-1.123,0.325-1.123,0.725V-2.788z"/>
				<path fill="#7C7C7B" d="M34.981-2.792c0,0.396,0.498,0.717,1.113,0.717l25.239,1.314c0.617,0,1.115-0.322,1.115-0.718v-1.387
					c0-0.396-0.498-0.718-1.115-0.718H36.097c-0.617,0-1.115,0.322-1.115,0.718L34.981-2.792L34.981-2.792z"/>
				<path fill="#7B7B7A" d="M35.001-2.797c0,0.392,0.494,0.711,1.104,0.711L61.21-0.798c0.611,0,1.105-0.319,1.105-0.711v-1.357
					c0-0.394-0.494-0.713-1.105-0.713H36.104C35.495-3.58,35-3.26,35-2.867L35.001-2.797L35.001-2.797z"/>
				<path fill="#7A7A79" d="M35.021-2.8c0,0.387,0.49,0.705,1.096,0.705l24.971,1.26c0.604,0,1.099-0.316,1.099-0.705v-1.331
					c0-0.389-0.49-0.706-1.099-0.706H36.116c-0.605,0-1.096,0.316-1.096,0.706L35.021-2.8L35.021-2.8z"/>
				<path fill="#797978" d="M35.04-2.808c0,0.385,0.484,0.701,1.086,0.701l24.838,1.233c0.602,0,1.088-0.314,1.088-0.701v-1.304
					c0-0.385-0.486-0.701-1.088-0.701H36.126c-0.602,0-1.086,0.314-1.086,0.701V-2.808z"/>
				<path fill="#787877" d="M35.06-2.812c0,0.383,0.481,0.694,1.076,0.694L60.841-0.91c0.596,0,1.078-0.312,1.078-0.694v-1.275
					c0-0.383-0.482-0.694-1.078-0.694H36.136c-0.595,0-1.076,0.312-1.076,0.694V-2.812z"/>
				<path fill="#777776" d="M35.079-2.816c0,0.379,0.477,0.687,1.066,0.687l24.572,1.182c0.593,0,1.068-0.308,1.068-0.688v-1.248
					c0-0.38-0.479-0.688-1.068-0.688H36.145c-0.59,0-1.066,0.308-1.066,0.688V-2.816z"/>
				<path fill="#767675" d="M35.099-2.821c0,0.376,0.473,0.681,1.057,0.681l24.439,1.155c0.586,0,1.059-0.305,1.059-0.682v-1.22
					c0-0.375-0.473-0.682-1.059-0.682h-24.44c-0.584,0-1.057,0.305-1.057,0.682L35.099-2.821L35.099-2.821z"/>
				<path fill="#757574" d="M35.118-2.827c0,0.373,0.469,0.675,1.048,0.675l24.306,1.129c0.58,0,1.049-0.303,1.049-0.675v-1.193
					c0-0.372-0.469-0.675-1.049-0.675H36.166c-0.58,0-1.048,0.304-1.048,0.675V-2.827z"/>
				<path fill="#747473" d="M35.138-2.833c0,0.37,0.463,0.67,1.039,0.67L60.349-1.06c0.574,0,1.041-0.301,1.041-0.669v-1.165
					c0-0.37-0.467-0.67-1.041-0.67H36.177c-0.574,0-1.039,0.301-1.039,0.67V-2.833z"/>
				<path fill="#737372" d="M35.157-2.836c0,0.365,0.46,0.664,1.029,0.664l24.04,1.076c0.569,0,1.03-0.298,1.03-0.665v-1.137
					c0-0.366-0.461-0.664-1.03-0.664H36.187c-0.569,0-1.029,0.298-1.029,0.664L35.157-2.836L35.157-2.836z"/>
				<path fill="#727271" d="M35.176-2.841c0,0.363,0.457,0.658,1.021,0.658l23.906,1.05c0.564,0,1.021-0.296,1.021-0.659v-1.109
					c0-0.362-0.457-0.657-1.021-0.657H36.196c-0.563,0-1.021,0.295-1.021,0.657L35.176-2.841L35.176-2.841z"/>
				<path fill="#717170" d="M35.194-2.847c0,0.359,0.453,0.651,1.012,0.651l23.771,1.024c0.562,0,1.014-0.293,1.014-0.651v-1.082
					c0-0.36-0.452-0.652-1.014-0.652H36.207c-0.56,0-1.011,0.292-1.011,0.652v0.057L35.194-2.847L35.194-2.847z"/>
				<path fill="#70706F" d="M35.215-2.852c0,0.355,0.448,0.646,1.002,0.646l23.64,0.998c0.557,0,1.002-0.29,1.002-0.646v-1.054
					c0-0.357-0.445-0.646-1.002-0.646h-23.64c-0.554,0-1.002,0.289-1.002,0.646V-2.852z"/>
				<path fill="#6F6F6E" d="M35.233-2.855c0,0.352,0.445,0.639,0.992,0.639l23.506,0.971c0.551,0,0.994-0.287,0.994-0.639v-1.026
					c0-0.354-0.443-0.641-0.994-0.641H36.228c-0.549,0-0.992,0.287-0.992,0.641v0.055H35.233z"/>
				<path fill="#6E6E6D" d="M35.253-2.861c0,0.349,0.439,0.634,0.982,0.634l23.374,0.945c0.545,0,0.983-0.284,0.983-0.633v-0.999
					c0-0.35-0.438-0.634-0.983-0.634H36.237c-0.543,0-0.983,0.284-0.983,0.634L35.253-2.861L35.253-2.861z"/>
				<path fill="#6D6D6C" d="M35.272-2.867c0,0.346,0.436,0.627,0.975,0.627L59.485-1.32c0.539,0,0.976-0.282,0.976-0.628v-0.97
					c0-0.346-0.437-0.627-0.976-0.627H36.247c-0.539,0-0.975,0.281-0.975,0.627V-2.867z"/>
				<path fill="#6C6C6B" d="M35.292-2.872c0,0.342,0.432,0.623,0.964,0.623L59.36-1.356c0.535,0,0.967-0.279,0.967-0.621V-2.92
					c0-0.343-0.432-0.623-0.967-0.623H36.257c-0.533,0-0.964,0.279-0.964,0.623L35.292-2.872L35.292-2.872z"/>
				<path fill="#6B6B6A" d="M35.312-2.876c0,0.339,0.428,0.616,0.957,0.616l22.973,0.866c0.528,0,0.954-0.276,0.954-0.617v-0.914
					c0-0.34-0.426-0.617-0.954-0.617H36.269c-0.528,0-0.957,0.276-0.957,0.617V-2.876z"/>
				<path fill="#6A6A69" d="M35.331-2.88c0,0.336,0.423,0.609,0.945,0.609l22.841,0.84c0.522,0,0.946-0.274,0.946-0.61v-0.887
					c0-0.336-0.424-0.61-0.946-0.61H36.276c-0.522,0-0.945,0.274-0.945,0.61V-2.88z"/>
				<path fill="#696968" d="M35.351-2.886c0,0.332,0.418,0.604,0.937,0.604l22.705,0.812c0.52,0,0.938-0.27,0.938-0.604v-0.859
					c0-0.333-0.418-0.604-0.938-0.604H36.287c-0.519,0-0.937,0.271-0.937,0.604L35.351-2.886L35.351-2.886z"/>
				<path fill="#686867" d="M35.37-2.892c0,0.33,0.415,0.598,0.928,0.598L58.87-1.506c0.516,0,0.929-0.268,0.929-0.597v-0.831
					c0-0.33-0.413-0.599-0.929-0.599H36.298c-0.513,0-0.928,0.268-0.928,0.599V-2.892z"/>
				<path fill="#676766" d="M35.39-2.896c0,0.326,0.41,0.592,0.918,0.592l22.439,0.76c0.509,0,0.919-0.265,0.919-0.591v-0.804
					c0-0.327-0.41-0.591-0.919-0.591H36.308c-0.508,0-0.918,0.265-0.918,0.591V-2.896z"/>
				<path fill="#666665" d="M35.409-2.9c0,0.322,0.406,0.585,0.908,0.585l22.307,0.735c0.504,0,0.91-0.263,0.91-0.586v-0.776
					c0-0.324-0.406-0.585-0.91-0.585H36.317c-0.502,0-0.908,0.262-0.908,0.585V-2.9z"/>
				<path fill="#656564" d="M35.429-2.906c0,0.319,0.401,0.58,0.899,0.58l22.173,0.709c0.498,0,0.9-0.261,0.9-0.58v-0.748
					c0-0.32-0.402-0.58-0.9-0.58H36.328c-0.498,0-0.899,0.26-0.899,0.58V-2.906z"/>
				<path fill="#646463" d="M35.448-2.912c0,0.316,0.398,0.574,0.89,0.574l22.04,0.683c0.493,0,0.891-0.258,0.891-0.575v-0.72
					c0-0.317-0.396-0.575-0.891-0.575h-22.04c-0.491,0-0.89,0.258-0.89,0.575V-2.912z"/>
				<path fill="#636362" d="M35.468-2.917c0,0.312,0.393,0.567,0.881,0.567l21.906,0.657c0.488,0,0.881-0.256,0.881-0.568v-0.693
					c0-0.313-0.393-0.568-0.881-0.568H36.349c-0.488,0-0.881,0.255-0.881,0.568V-2.917z"/>
				<path fill="#626261" d="M35.487-2.919c0,0.309,0.39,0.562,0.871,0.562l21.773,0.629c0.481,0,0.872-0.252,0.872-0.562v-0.665
					c0-0.309-0.391-0.562-0.872-0.562H36.358c-0.481,0-0.871,0.252-0.871,0.562V-2.919L35.487-2.919z"/>
				<path fill="#616160" d="M35.506-2.924c0,0.304,0.386,0.554,0.862,0.554l21.641,0.604c0.479,0,0.862-0.25,0.862-0.555v-0.638
					c0-0.306-0.386-0.556-0.862-0.556H36.368c-0.477,0-0.862,0.25-0.862,0.556V-2.924z"/>
				<path fill="#60605F" d="M35.524-2.931c0,0.303,0.381,0.549,0.854,0.549l21.508,0.578c0.471,0,0.854-0.247,0.854-0.549v-0.61
					c0-0.303-0.384-0.55-0.854-0.55H36.378c-0.473,0-0.854,0.247-0.854,0.55V-2.931z"/>
				<path fill="#5F5F5E" d="M35.545-2.936c0,0.299,0.376,0.543,0.843,0.543l21.373,0.551c0.469,0,0.846-0.245,0.846-0.543v-0.582
					c0-0.301-0.377-0.544-0.846-0.544H36.39c-0.468,0-0.844,0.244-0.844,0.544L35.545-2.936L35.545-2.936z"/>
				<path fill="#5E5E5D" d="M35.563-2.939c0,0.296,0.373,0.538,0.834,0.538l21.241,0.525c0.463,0,0.836-0.242,0.836-0.538V-2.97
					c0-0.296-0.373-0.537-0.836-0.537H36.397c-0.461,0-0.834,0.242-0.834,0.537V-2.939z"/>
				<path fill="#5D5D5C" d="M35.584-2.945c0,0.293,0.369,0.532,0.825,0.532l21.107,0.499c0.457,0,0.823-0.239,0.823-0.532v-0.527
					c0-0.293-0.366-0.532-0.823-0.532H36.409c-0.456,0-0.825,0.239-0.825,0.532V-2.945z"/>
				<path fill="#5C5C5B" d="M35.604-2.951c0,0.289,0.363,0.526,0.814,0.526l20.976,0.474c0.451,0,0.814-0.237,0.814-0.526v-0.5
					c0-0.29-0.363-0.525-0.814-0.525H36.419c-0.451,0-0.814,0.236-0.814,0.525L35.604-2.951L35.604-2.951z"/>
				<path fill="#5B5B5A" d="M35.623-2.956c0,0.286,0.36,0.519,0.806,0.519L57.271-1.99c0.444,0,0.808-0.233,0.808-0.521v-0.471
					c0-0.286-0.36-0.52-0.808-0.52H36.429c-0.445,0-0.806,0.233-0.806,0.52V-2.956z"/>
				<path fill="#5A5A59" d="M35.642-2.959c0,0.282,0.356,0.512,0.797,0.512l20.708,0.42c0.439,0,0.797-0.23,0.797-0.512v-0.444
					c0-0.283-0.354-0.515-0.797-0.515H36.438c-0.44,0-0.797,0.23-0.797,0.515L35.642-2.959L35.642-2.959z"/>
				<path fill="#595958" d="M35.662-2.963c0,0.279,0.353,0.506,0.787,0.506l20.573,0.393c0.438,0,0.789-0.227,0.789-0.506v-0.417
					c0-0.28-0.354-0.508-0.789-0.508H36.449c-0.435,0-0.787,0.229-0.787,0.508V-2.963L35.662-2.963z"/>
				<path fill="#585857" d="M35.681-2.971c0,0.276,0.348,0.501,0.778,0.501l20.44,0.369c0.432,0,0.779-0.226,0.779-0.501V-2.99
					c0-0.277-0.351-0.502-0.779-0.502h-20.44c-0.431,0-0.778,0.226-0.778,0.502V-2.971z"/>
				<path fill="#575756" d="M35.701-2.976c0,0.273,0.343,0.496,0.769,0.496l20.306,0.341c0.429,0,0.771-0.221,0.771-0.496v-0.36
					c0-0.273-0.343-0.496-0.771-0.496H36.47c-0.426,0-0.77,0.222-0.77,0.496L35.701-2.976L35.701-2.976z"/>
				<path fill="#565655" d="M35.72-2.979c0,0.269,0.34,0.489,0.76,0.489l20.173,0.315c0.421,0,0.761-0.221,0.761-0.489v-0.333
					c0-0.27-0.34-0.49-0.761-0.49H36.479c-0.42,0-0.76,0.22-0.76,0.49L35.72-2.979L35.72-2.979z"/>
				<path fill="#555554" d="M35.74-2.984c0,0.267,0.334,0.483,0.75,0.483l20.04,0.289c0.416,0,0.752-0.218,0.752-0.484v-0.305
					c0-0.267-0.336-0.484-0.752-0.484H36.49c-0.416,0-0.75,0.217-0.75,0.484V-2.984z"/>
				<path fill="#545453" d="M35.759-2.99c0,0.263,0.331,0.478,0.741,0.478L56.408-2.25c0.411,0,0.741-0.214,0.741-0.478v-0.277
					c0-0.263-0.33-0.478-0.741-0.478H36.5c-0.41,0-0.741,0.215-0.741,0.478V-2.99z"/>
				<path fill="#535352" d="M35.778-2.996c0,0.26,0.326,0.47,0.73,0.47l19.775,0.238c0.405,0,0.731-0.212,0.731-0.471v-0.25
					c0-0.26-0.326-0.472-0.731-0.472H36.511c-0.406,0-0.732,0.212-0.732,0.472L35.778-2.996L35.778-2.996z"/>
				<path fill="#525251" d="M35.798-3c0,0.256,0.323,0.465,0.723,0.465l19.642,0.209c0.398,0,0.725-0.208,0.725-0.465v-0.221
					c0-0.257-0.322-0.466-0.725-0.466H36.521c-0.399,0-0.723,0.209-0.723,0.466V-3z"/>
				<path fill="#515150" d="M35.817-3.004c0,0.252,0.318,0.459,0.711,0.459l19.509,0.184c0.396,0,0.714-0.207,0.714-0.46v-0.195
					c0-0.253-0.318-0.46-0.714-0.46H36.53c-0.395,0-0.713,0.206-0.713,0.46V-3.004L35.817-3.004z"/>
				<path fill="#50504F" d="M35.836-3.01c0,0.25,0.313,0.454,0.704,0.454l19.374,0.157c0.392,0,0.705-0.204,0.705-0.454v-0.166
					c0-0.25-0.313-0.453-0.705-0.453H36.54c-0.389,0-0.704,0.203-0.704,0.453V-3.01L35.836-3.01z"/>
				<path fill="#4F4F4E" d="M35.856-3.015c0,0.247,0.31,0.447,0.692,0.447L55.79-2.436c0.385,0,0.693-0.201,0.693-0.447v-0.139
					c0-0.247-0.312-0.448-0.693-0.448H36.55c-0.384,0-0.693,0.201-0.693,0.448L35.856-3.015L35.856-3.015z"/>
				<path fill="#4E4E4D" d="M35.875-3.02c0,0.242,0.306,0.44,0.685,0.44l19.108,0.105c0.379,0,0.685-0.199,0.685-0.442v-0.11
					c0-0.244-0.306-0.443-0.685-0.443H36.562c-0.379,0-0.686,0.198-0.686,0.443L35.875-3.02L35.875-3.02z"/>
				<path fill="#4D4D4C" d="M35.895-3.023c0,0.239,0.301,0.435,0.674,0.435l18.976,0.078c0.375,0,0.677-0.195,0.677-0.435v-0.083
					c0-0.241-0.302-0.436-0.677-0.436H36.569c-0.373,0-0.674,0.195-0.674,0.436V-3.023z"/>
				<path fill="#4C4C4B" d="M35.914-3.028c0,0.236,0.298,0.429,0.667,0.429l18.841,0.053c0.37,0,0.667-0.193,0.667-0.43v-0.056
					c0-0.236-0.297-0.429-0.667-0.429H36.581c-0.369,0-0.667,0.193-0.667,0.429V-3.028z"/>
				<path fill="#4B4B4A" d="M35.935-3.034c0,0.233,0.291,0.423,0.655,0.423l18.708,0.027c0.364,0,0.658-0.191,0.658-0.424v-0.027
					c0-0.234-0.294-0.423-0.658-0.423H36.59C36.226-3.458,35.935-3.269,35.935-3.034L35.935-3.034z"/>
				<path fill="#262626" d="M35.953-3.04c0,0.229,0.289,0.417,0.647,0.417h18.574c0.359,0,0.647-0.188,0.647-0.417l0,0
					c0-0.23-0.288-0.417-0.647-0.417H36.601C36.242-3.458,35.953-3.27,35.953-3.04L35.953-3.04z"/>
			</g>
		</g>
	</g>
</g>
</svg>
