<?xml version="1.0" encoding="utf-8"?>
<!-- Generator: Adobe Illustrator 15.1.0, SVG Export Plug-In . SVG Version: 6.00 Build 0)  -->
<!DOCTYPE svg PUBLIC "-//W3C//DTD SVG 1.1//EN" "http://www.w3.org/Graphics/SVG/1.1/DTD/svg11.dtd">
<svg version="1.1" xmlns="http://www.w3.org/2000/svg" xmlns:xlink="http://www.w3.org/1999/xlink" x="0px" y="0px"
	 width="138.22px" height="246.605px" viewBox="0 0 138.22 246.605" enable-background="new 0 0 138.22 246.605"
	 xml:space="preserve">
<g id="BG">
</g>
<g id="ICONS">
	<g>
		<defs>
			<rect id="SVGID_1_" x="107.373" width="30.848" height="246.605"/>
		</defs>
		<clipPath id="SVGID_2_">
			<use xlink:href="#SVGID_1_"  overflow="visible"/>
		</clipPath>
		<polygon opacity="0.5" clip-path="url(#SVGID_2_)" fill="#E8E8E8" points="138.22,246.504 105.103,223.535 105.103,0 
			138.22,22.962 		"/>
	</g>
	<polygon opacity="0.44" fill="#545454" points="138.22,239.182 107.373,217.781 107.373,9.569 138.22,30.956 	"/>
	<g opacity="0.5">
		<path fill="#E8E8E8" d="M11.593,22.94C5.189,22.94,0,28.123,0,34.526v200.4c0,6.396,5.189,11.578,11.593,11.578H138.22V22.94
			H11.593z"/>
	</g>
	<g opacity="0.79">
		<path fill="#E8E8E8" d="M20.281,30.963c-5.956,0-10.784,4.835-10.784,10.791v186.637c0,5.963,4.828,10.791,10.784,10.791H138.22
			V30.963H20.281z"/>
	</g>
	<g opacity="0.86">
		<g>
			<path fill-rule="evenodd" clip-rule="evenodd" fill="#FFFFFF" d="M90.547,135.387c-0.015-0.107-0.102-0.152-0.13-0.238
				c-0.42-0.643-0.824-1.301-1.258-1.93c-0.044-0.014-0.072-0.051-0.072-0.102c-0.072-0.129-0.13-0.268-0.231-0.375
				c-0.044-0.016-0.072-0.043-0.072-0.102c-0.102-0.16-0.174-0.348-0.304-0.477c-0.043-0.016-0.072-0.045-0.072-0.102
				c-0.072-0.16-0.174-0.297-0.26-0.441c-0.116-0.174-0.217-0.354-0.348-0.505c0-0.059-0.028-0.094-0.072-0.102
				c-4.076-6.389-8.167-12.749-12.271-19.109c0-0.058-0.029-0.087-0.073-0.102c-0.145-0.253-0.274-0.513-0.477-0.716
				c-0.058-0.209-0.202-0.347-0.304-0.506c-0.043-0.014-0.072-0.043-0.072-0.101c-0.072-0.13-0.13-0.282-0.231-0.376
				c0-0.058-0.028-0.087-0.072-0.102c-0.043-0.101-0.087-0.202-0.173-0.274c-0.044-0.015-0.059-0.043-0.059-0.102
				c-0.086-0.122-0.145-0.267-0.245-0.368c-0.044-0.015-0.072-0.043-0.072-0.102c-0.361-0.614-0.752-1.214-1.143-1.799
				c-0.014-0.029,0-0.072-0.043-0.072c0-0.007,0-0.021,0-0.029c-4.481-0.08-9.121-0.015-13.675-0.036
				c-0.535,0.021-1.171-0.043-1.662,0.036c-0.029,0-0.043,0.058,0,0.065c0,0.021,0,0.043,0.043,0.036
				c0.043,0.166,0.173,0.275,0.26,0.405c0.274,0.549,0.65,1.005,0.954,1.525c0.361,0.549,0.708,1.127,1.084,1.662
				c0.043,0.015,0.072,0.051,0.072,0.108c0.087,0.145,0.173,0.304,0.274,0.44c0.029,0.044,0.029,0.123,0.102,0.13
				c4.336,6.758,8.673,13.523,13.024,20.259c0.043,0.014,0.072,0.043,0.072,0.102c0.188,0.318,0.375,0.621,0.578,0.918
				c-0.015,0.086,0.043,0.107,0.101,0.137c0.044,0.145,0.145,0.217,0.202,0.34c0.044,0.014,0.072,0.043,0.072,0.102
				c-0.043,0.107,0.102,0.029,0.059,0.137c0.375,0.549,0.723,1.121,1.084,1.662c0.015,0.066,0.028,0.117,0.072,0.139
				c0.015,0.064-0.029,0.072-0.029,0.137c-0.361,0.541-0.708,1.084-1.055,1.627c-0.015,0.078-0.072,0.107-0.102,0.172
				c-0.015,0-0.029,0-0.029,0c0,0.045-0.043,0.045-0.043,0.102c-0.174,0.305-0.376,0.57-0.535,0.883c-0.014,0-0.028,0-0.043,0
				c0,0.043-0.043,0.043-0.029,0.1c-4.48,6.932-8.947,13.885-13.399,20.838c-0.015,0-0.029,0-0.043,0
				c-0.015,0.051-0.043,0.086-0.058,0.131c-0.506,0.773-0.997,1.547-1.503,2.312c-0.318,0.527-0.665,1.025-0.983,1.561
				c-0.058,0.08-0.145,0.152-0.159,0.275c-0.029,0-0.043,0-0.043,0.029c-0.029,0-0.043,0.057,0,0.072
				c0.448,0.072,1.055,0.006,1.561,0.027c4.583-0.021,9.251,0.045,13.776-0.027c0-0.016,0-0.029,0-0.037
				c0.029-0.008,0.043-0.029,0.043-0.064c0.579-0.875,1.143-1.758,1.691-2.652c0-0.059,0.029-0.088,0.072-0.102
				c0.102-0.152,0.217-0.305,0.304-0.477c0.058-0.08,0.145-0.152,0.174-0.268c0.043-0.016,0.058-0.045,0.058-0.102
				c4.438-6.873,8.861-13.748,13.27-20.635c0.044-0.016,0.072-0.043,0.072-0.102c0.116-0.08,0.13-0.252,0.231-0.34
				c0.029-0.051,0.058-0.086,0.072-0.137c0-0.059,0.029-0.088,0.072-0.102c0.087-0.107,0.174-0.23,0.231-0.375
				c0.015,0,0.028,0,0.043,0c0-0.045,0.044-0.045,0.029-0.102c0.115-0.139,0.202-0.311,0.304-0.471c0-0.064,0.028-0.094,0.072-0.107
				c0.376-0.564,0.752-1.15,1.113-1.729c0.043-0.115,0.145-0.158,0.173-0.273c0.015,0,0.029,0,0.029,0
				C90.547,135.531,90.648,135.424,90.547,135.387z"/>
		</g>
		<defs>
			<filter id="Adobe_OpacityMaskFilter" filterUnits="userSpaceOnUse" x="57.128" y="107.216" width="33.464" height="56.481">
				
					<feColorMatrix  type="matrix" values="-1 0 0 0 1  0 -1 0 0 1  0 0 -1 0 1  0 0 0 1 0" color-interpolation-filters="sRGB" result="source"/>
			</filter>
		</defs>
		<mask maskUnits="userSpaceOnUse" x="57.128" y="107.216" width="33.464" height="56.481" id="SVGID_3_">
			<g filter="url(#Adobe_OpacityMaskFilter)">
				
					<image overflow="visible" width="157" height="253" xlink:href="2E977E14.jpg"  transform="matrix(0.24 0 0 0.24 55.1284 105.2163)">
				</image>
			</g>
		</mask>
		<g mask="url(#SVGID_3_)">
			<path fill-rule="evenodd" clip-rule="evenodd" d="M90.547,135.387c-0.015-0.107-0.102-0.152-0.13-0.238
				c-0.42-0.643-0.824-1.301-1.258-1.93c-0.044-0.014-0.072-0.051-0.072-0.102c-0.072-0.129-0.13-0.268-0.231-0.375
				c-0.044-0.016-0.072-0.043-0.072-0.102c-0.102-0.16-0.174-0.348-0.304-0.477c-0.043-0.016-0.072-0.045-0.072-0.102
				c-0.072-0.16-0.174-0.297-0.26-0.441c-0.116-0.174-0.217-0.354-0.348-0.505c0-0.059-0.028-0.094-0.072-0.102
				c-4.076-6.389-8.167-12.749-12.271-19.109c0-0.058-0.029-0.087-0.073-0.102c-0.145-0.253-0.274-0.513-0.477-0.716
				c-0.058-0.209-0.202-0.347-0.304-0.506c-0.043-0.014-0.072-0.043-0.072-0.101c-0.072-0.13-0.13-0.282-0.231-0.376
				c0-0.058-0.028-0.087-0.072-0.102c-0.043-0.101-0.087-0.202-0.173-0.274c-0.044-0.015-0.059-0.043-0.059-0.102
				c-0.086-0.122-0.145-0.267-0.245-0.368c-0.044-0.015-0.072-0.043-0.072-0.102c-0.361-0.614-0.752-1.214-1.143-1.799
				c-0.014-0.029,0-0.072-0.043-0.072c0-0.007,0-0.021,0-0.029c-4.481-0.08-9.121-0.015-13.675-0.036
				c-0.535,0.021-1.171-0.043-1.662,0.036c-0.029,0-0.043,0.058,0,0.065c0,0.021,0,0.043,0.043,0.036
				c0.043,0.166,0.173,0.275,0.26,0.405c0.274,0.549,0.65,1.005,0.954,1.525c0.361,0.549,0.708,1.127,1.084,1.662
				c0.043,0.015,0.072,0.051,0.072,0.108c0.087,0.145,0.173,0.304,0.274,0.44c0.029,0.044,0.029,0.123,0.102,0.13
				c4.336,6.758,8.673,13.523,13.024,20.259c0.043,0.014,0.072,0.043,0.072,0.102c0.188,0.318,0.375,0.621,0.578,0.918
				c-0.015,0.086,0.043,0.107,0.101,0.137c0.044,0.145,0.145,0.217,0.202,0.34c0.044,0.014,0.072,0.043,0.072,0.102
				c-0.043,0.107,0.102,0.029,0.059,0.137c0.375,0.549,0.723,1.121,1.084,1.662c0.015,0.066,0.028,0.117,0.072,0.139
				c0.015,0.064-0.029,0.072-0.029,0.137c-0.361,0.541-0.708,1.084-1.055,1.627c-0.015,0.078-0.072,0.107-0.102,0.172
				c-0.015,0-0.029,0-0.029,0c0,0.045-0.043,0.045-0.043,0.102c-0.174,0.305-0.376,0.57-0.535,0.883c-0.014,0-0.028,0-0.043,0
				c0,0.043-0.043,0.043-0.029,0.1c-4.48,6.932-8.947,13.885-13.399,20.838c-0.015,0-0.029,0-0.043,0
				c-0.015,0.051-0.043,0.086-0.058,0.131c-0.506,0.773-0.997,1.547-1.503,2.312c-0.318,0.527-0.665,1.025-0.983,1.561
				c-0.058,0.08-0.145,0.152-0.159,0.275c-0.029,0-0.043,0-0.043,0.029c-0.029,0-0.043,0.057,0,0.072
				c0.448,0.072,1.055,0.006,1.561,0.027c4.583-0.021,9.251,0.045,13.776-0.027c0-0.016,0-0.029,0-0.037
				c0.029-0.008,0.043-0.029,0.043-0.064c0.579-0.875,1.143-1.758,1.691-2.652c0-0.059,0.029-0.088,0.072-0.102
				c0.102-0.152,0.217-0.305,0.304-0.477c0.058-0.08,0.145-0.152,0.174-0.268c0.043-0.016,0.058-0.045,0.058-0.102
				c4.438-6.873,8.861-13.748,13.27-20.635c0.044-0.016,0.072-0.043,0.072-0.102c0.116-0.08,0.13-0.252,0.231-0.34
				c0.029-0.051,0.058-0.086,0.072-0.137c0-0.059,0.029-0.088,0.072-0.102c0.087-0.107,0.174-0.23,0.231-0.375
				c0.015,0,0.028,0,0.043,0c0-0.045,0.044-0.045,0.029-0.102c0.115-0.139,0.202-0.311,0.304-0.471c0-0.064,0.028-0.094,0.072-0.107
				c0.376-0.564,0.752-1.15,1.113-1.729c0.043-0.115,0.145-0.158,0.173-0.273c0.015,0,0.029,0,0.029,0
				C90.547,135.531,90.648,135.424,90.547,135.387z"/>
		</g>
	</g>
</g>
</svg>
