<?xml version="1.0" encoding="UTF-8" standalone="no"?>
<svg
   xmlns:sketch="http://www.bohemiancoding.com/sketch/ns"
   xmlns:dc="http://purl.org/dc/elements/1.1/"
   xmlns:cc="http://creativecommons.org/ns#"
   xmlns:rdf="http://www.w3.org/1999/02/22-rdf-syntax-ns#"
   xmlns:svg="http://www.w3.org/2000/svg"
   xmlns="http://www.w3.org/2000/svg"
   xmlns:xlink="http://www.w3.org/1999/xlink"
   xmlns:sodipodi="http://sodipodi.sourceforge.net/DTD/sodipodi-0.dtd"
   xmlns:inkscape="http://www.inkscape.org/namespaces/inkscape"
   width="138.22"
   height="246.605"
   id="svg2"
   version="1.1"
   inkscape:version="0.48.4 r9939"
   sodipodi:docname="albumnext.svg">
  <metadata
     id="metadata38">
    <rdf:RDF>
      <cc:Work
         rdf:about="">
        <dc:format>image/svg+xml</dc:format>
        <dc:type
           rdf:resource="http://purl.org/dc/dcmitype/StillImage" />
      </cc:Work>
    </rdf:RDF>
  </metadata>
  <defs
     id="defs36">
    <defs
       id="defs6">
      <rect
         height="246.605"
         width="30.848"
         x="107.373"
         id="a" />
    </defs>
    <clipPath
       id="b">
      <use
         id="use10"
         overflow="visible"
         xlink:href="#a" />
    </clipPath>
  </defs>
  <sodipodi:namedview
     pagecolor="#ffffff"
     bordercolor="#666666"
     borderopacity="1"
     objecttolerance="10"
     gridtolerance="10"
     guidetolerance="10"
     inkscape:pageopacity="0"
     inkscape:pageshadow="2"
     inkscape:window-width="1006"
     inkscape:window-height="643"
     id="namedview34"
     showgrid="false"
     inkscape:zoom="0.95699602"
     inkscape:cx="-116.88868"
     inkscape:cy="121.21263"
     inkscape:window-x="1600"
     inkscape:window-y="0"
     inkscape:window-maximized="0"
     inkscape:current-layer="svg2" />
  <polygon
     style="opacity:0.5;fill:#e8e8e8"
     id="polygon12"
     points="105.103,0 138.22,22.962 138.22,246.504 105.103,223.535 "
     clip-path="url(#b)" />
  <polygon
     style="opacity:0.43999999;fill:#545454"
     id="polygon14"
     points="107.373,9.569 138.22,30.956 138.22,239.182 107.373,217.781 " />
  <path
     style="opacity:0.5;fill:#e8e8e8"
     inkscape:connector-curvature="0"
     id="path16"
     d="M 11.593,22.94 C 5.189,22.94 0,28.123 0,34.526 v 200.4 c 0,6.396 5.189,11.578 11.593,11.578 H 138.22 V 22.94 H 11.593 z" />
  <path
     style="opacity:0.79000005;fill:#e8e8e8"
     inkscape:connector-curvature="0"
     id="path18"
     d="m 20.281,30.963 c -5.956,0 -10.784,4.835 -10.784,10.791 v 186.637 c 0,5.963 4.828,10.791 10.784,10.791 H 138.22 V 30.963 H 20.281 z" />
  <g
     sketch:type="MSPage"
     id="Assets"
     style="fill:#ffffff;stroke:none;fill-opacity:1;opacity:0.5"
     transform="matrix(2.9408973,0,0,2.9408973,49.7397,96.230685)">
    <g
       transform="translate(-135,-359)"
       sketch:type="MSArtboardGroup"
       id="Style"
       style="fill:#ffffff;fill-opacity:1">
      <g
         transform="translate(122,359)"
         sketch:type="MSLayerGroup"
         id="Icon_Next"
         style="fill:#ffffff;fill-opacity:1">
        <path
           transform="matrix(-0.70710678,0.70710678,0.70710678,0.70710678,14,-5.7989899)"
           sketch:type="MSShapeGroup"
           id="Next"
           d="m 6,22 17.008197,0 C 23.544694,22 24,22.447715 24,23 c 0,0.556135 -0.444045,1 -0.991803,1 L 4.9918031,24 C 4.7248814,24 4.4780574,23.889176 4.2974046,23.709787 4.1098812,23.527595 4,23.280733 4,23.008197 L 4,4.9918031 C 4,4.4553056 4.4477152,4 5,4 5.5561352,4 6,4.4440454 6,4.9918031 L 6,22 z"
           inkscape:connector-curvature="0"
           style="fill:#ffffff;fill-opacity:1" />
      </g>
    </g>
  </g>
</svg>
