<?xml version="1.0" encoding="UTF-8" standalone="no"?>
<svg
   xmlns:sketch="http://www.bohemiancoding.com/sketch/ns"
   xmlns:dc="http://purl.org/dc/elements/1.1/"
   xmlns:cc="http://creativecommons.org/ns#"
   xmlns:rdf="http://www.w3.org/1999/02/22-rdf-syntax-ns#"
   xmlns:svg="http://www.w3.org/2000/svg"
   xmlns="http://www.w3.org/2000/svg"
   xmlns:xlink="http://www.w3.org/1999/xlink"
   xmlns:sodipodi="http://sodipodi.sourceforge.net/DTD/sodipodi-0.dtd"
   xmlns:inkscape="http://www.inkscape.org/namespaces/inkscape"
   width="138.22"
   height="246.605"
   id="svg2"
   version="1.1"
   inkscape:version="0.48.4 r9939"
   sodipodi:docname="albumprevious.svg">
  <metadata
     id="metadata38">
    <rdf:RDF>
      <cc:Work
         rdf:about="">
        <dc:format>image/svg+xml</dc:format>
        <dc:type
           rdf:resource="http://purl.org/dc/dcmitype/StillImage" />
      </cc:Work>
    </rdf:RDF>
  </metadata>
  <defs
     id="defs36">
    <defs
       id="defs6">
      <rect
         height="246.605"
         width="30.848"
         id="a" />
    </defs>
    <clipPath
       id="b">
      <use
         id="use10"
         overflow="visible"
         xlink:href="#a" />
    </clipPath>
  </defs>
  <sodipodi:namedview
     pagecolor="#ffffff"
     bordercolor="#666666"
     borderopacity="1"
     objecttolerance="10"
     gridtolerance="10"
     guidetolerance="10"
     inkscape:pageopacity="0"
     inkscape:pageshadow="2"
     inkscape:window-width="640"
     inkscape:window-height="480"
     id="namedview34"
     showgrid="false"
     inkscape:zoom="0.95699602"
     inkscape:cx="69.110001"
     inkscape:cy="123.3025"
     inkscape:window-x="1813"
     inkscape:window-y="290"
     inkscape:window-maximized="0"
     inkscape:current-layer="svg2" />
  <polygon
     style="opacity:0.5;fill:#e8e8e8"
     id="polygon12"
     points="33.117,0 0,22.962 0,246.504 33.117,223.535 "
     clip-path="url(#b)" />
  <polygon
     style="opacity:0.43999999;fill:#545454"
     id="polygon14"
     points="30.847,9.569 0,30.956 0,239.182 30.847,217.781 " />
  <path
     style="opacity:0.5;fill:#e8e8e8"
     inkscape:connector-curvature="0"
     id="path16"
     d="m 126.626,22.94 c 6.404,0 11.594,5.182 11.594,11.585 v 200.4 c 0,6.396 -5.189,11.578 -11.594,11.578 H 0 V 22.94 h 126.626 z" />
  <path
     style="opacity:0.79000005;fill:#e8e8e8"
     inkscape:connector-curvature="0"
     id="path18"
     d="m 117.939,30.963 c 5.955,0 10.783,4.835 10.783,10.791 v 186.637 c 0,5.963 -4.828,10.791 -10.783,10.791 H 0 V 30.963 h 117.939 z" />
  <g
     sketch:type="MSPage"
     id="Assets"
     style="opacity:0.5;fill:#ffffff;fill-opacity:1;stroke:none"
     transform="matrix(-2.9408973,0,0,2.9408973,84.347086,96.753149)">
    <g
       transform="translate(-135,-359)"
       sketch:type="MSArtboardGroup"
       id="Style"
       style="fill:#ffffff;fill-opacity:1">
      <g
         transform="translate(122,359)"
         sketch:type="MSLayerGroup"
         id="Icon_Next"
         style="fill:#ffffff;fill-opacity:1">
        <path
           transform="matrix(-0.70710678,0.70710678,0.70710678,0.70710678,14,-5.7989899)"
           sketch:type="MSShapeGroup"
           id="Next"
           d="m 6,22 17.008197,0 C 23.544694,22 24,22.447715 24,23 c 0,0.556135 -0.444045,1 -0.991803,1 L 4.9918031,24 C 4.7248814,24 4.4780574,23.889176 4.2974046,23.709787 4.1098812,23.527595 4,23.280733 4,23.008197 L 4,4.9918031 C 4,4.4553056 4.4477152,4 5,4 5.5561352,4 6,4.4440454 6,4.9918031 L 6,22 z"
           inkscape:connector-curvature="0"
           style="fill:#ffffff;fill-opacity:1" />
      </g>
    </g>
  </g>
</svg>
