<svg xmlns="http://www.w3.org/2000/svg" xmlns:xlink="http://www.w3.org/1999/xlink" width="80.75" height="5.833"><defs><rect id="a" x="-10.729" y="-.083" width="99.5" height="26.375"/></defs><clipPath id="b"><use xlink:href="#a" overflow="visible"/></clipPath><g clip-path="url(#b)"><defs><rect id="c" x="-6.667" y="-1.167" width="95.75" height="18.106"/></defs><clipPath id="d"><use xlink:href="#c" overflow="visible"/></clipPath><g clip-path="url(#d)"><path fill="#fff" d="M48.188-2.14c0 .834-1.055 1.511-2.351 1.511l-42.822 4.778c-1.296 0-2.347-.678-2.347-1.512v-5.047c0-.834 1.05-1.511 2.347-1.511h42.826c1.297 0 2.348.677 2.348 1.511v.27h-.001z"/><path fill="#FEFEFE" d="M48.169-2.146c0 .831-1.048 1.506-2.339 1.506l-42.692 4.752c-1.292 0-2.338-.674-2.338-1.508v-5.019c0-.83 1.046-1.505 2.338-1.505h42.692c1.291 0 2.339.674 2.339 1.505v.269z"/><path fill="#FDFDFD" d="M48.149-2.15c0 .827-1.043 1.499-2.33 1.499l-42.559 4.726c-1.286 0-2.328-.671-2.328-1.5v-4.991c0-.829 1.042-1.5 2.328-1.5h42.56c1.287 0 2.33.671 2.33 1.5v.266h-.001z"/><path fill="#FCFCFC" d="M48.13-2.154c0 .825-1.039 1.493-2.318 1.493l-42.428 4.699c-1.281 0-2.318-.668-2.318-1.495v-4.961c0-.825 1.037-1.493 2.318-1.493h42.426c1.28 0 2.319.668 2.319 1.493l.001.264z"/><path fill="#FBFBFB" d="M48.11-2.16c0 .822-1.034 1.488-2.312 1.488l-42.29 4.674c-1.276 0-2.31-.667-2.31-1.49v-4.935c0-.821 1.034-1.486 2.31-1.486h42.293c1.275 0 2.312.666 2.312 1.486v.264l-.003-.001z"/><path fill="#FAFAFA" d="M48.091-2.165c0 .818-1.029 1.481-2.301 1.481l-42.16 4.649c-1.271 0-2.3-.667-2.3-1.483v-4.908c0-.819 1.029-1.48 2.3-1.48h42.16c1.271 0 2.301.663 2.301 1.48v.261z"/><path fill="#F9F9F9" d="M48.071-2.169c0 .815-1.026 1.475-2.291 1.475l-42.027 4.62c-1.266 0-2.291-.661-2.291-1.475v-4.882c0-.815 1.025-1.475 2.291-1.475h42.027c1.265 0 2.291.661 2.291 1.475v.262z"/><path fill="#F8F8F8" d="M48.054-2.174c0 .812-1.021 1.47-2.283 1.47l-41.894 4.593c-1.26 0-2.281-.659-2.281-1.471v-4.854c0-.811 1.021-1.469 2.281-1.469h41.894c1.26 0 2.283.659 2.283 1.469v.262z"/><path fill="#F7F7F7" d="M48.033-2.18c0 .808-1.019 1.464-2.272 1.464l-41.761 4.568c-1.255 0-2.272-.656-2.272-1.464v-4.825c0-.809 1.017-1.463 2.272-1.463h41.761c1.254 0 2.272.656 2.272 1.463v.257z"/><path fill="#F6F6F6" d="M48.015-2.185c0 .804-1.015 1.458-2.265 1.458l-41.627 4.54c-1.25 0-2.263-.651-2.263-1.458v-4.797c0-.805 1.013-1.458 2.263-1.458h41.627c1.25 0 2.265.653 2.265 1.458v.257z"/><path fill="#F5F5F5" d="M47.994-2.188c0 .8-1.011 1.451-2.255 1.451l-41.493 4.513c-1.245 0-2.253-.649-2.253-1.453v-4.769c0-.801 1.009-1.451 2.253-1.451h41.493c1.244 0 2.255.65 2.255 1.451v.258z"/><path fill="#F4F4F4" d="M47.976-2.192c0 .797-1.006 1.444-2.246 1.444l-41.36 4.487c-1.24 0-2.244-.645-2.244-1.446v-4.74c0-.797 1.004-1.444 2.244-1.444h41.359c1.24 0 2.246.647 2.246 1.444v.255h.001z"/><path fill="#F3F3F3" d="M47.955-2.198c0 .794-1.001 1.438-2.235 1.438l-41.227 4.464c-1.234 0-2.235-.646-2.235-1.439v-4.715c0-.794 1-1.438 2.235-1.438h41.227c1.234 0 2.235.645 2.235 1.438v.252z"/><path fill="#F2F2F2" d="M47.937-2.204c0 .791-.998 1.433-2.227 1.433l-41.094 4.436c-1.229 0-2.225-.641-2.225-1.434v-4.686c0-.79.996-1.432 2.225-1.432h41.094c1.229 0 2.227.642 2.227 1.432v.251z"/><path fill="#F1F1F1" d="M47.916-2.209c0 .788-.993 1.428-2.217 1.428l-40.96 4.41c-1.225 0-2.216-.642-2.216-1.432v-4.657c0-.788.992-1.427 2.216-1.427h40.96c1.224 0 2.217.639 2.217 1.427v.251z"/><path fill="#F0F0F0" d="M47.896-2.214c0 .785-.987 1.422-2.207 1.422l-40.827 4.384c-1.219 0-2.206-.637-2.206-1.423v-4.631c0-.785.987-1.421 2.206-1.421h40.828c1.221 0 2.207.636 2.207 1.421v.247h-.001z"/><path fill="#EFEFEF" d="M47.878-2.218c0 .78-.984 1.414-2.197 1.414l-40.696 4.359c-1.214 0-2.197-.635-2.197-1.416v-4.604c0-.782.983-1.416 2.197-1.416h40.694c1.215 0 2.198.634 2.198 1.416l.001.247z"/><path fill="#eee" d="M47.858-2.224c0 .778-.98 1.409-2.189 1.409l-40.561 4.333c-1.209 0-2.188-.631-2.188-1.411v-4.575c0-.777.979-1.409 2.188-1.409h40.561c1.209 0 2.189.632 2.189 1.409v.244z"/><path fill="#EDEDED" d="M47.838-2.229c0 .775-.976 1.404-2.179 1.404l-40.428 4.304c-1.204 0-2.179-.626-2.179-1.401v-4.548c0-.775.975-1.403 2.179-1.403h40.428c1.203 0 2.179.628 2.179 1.403v.241z"/><path fill="#ECECEC" d="M47.819-2.233c0 .772-.973 1.397-2.17 1.397l-40.294 4.278c-1.199 0-2.169-.625-2.169-1.396v-4.521c0-.771.971-1.396 2.169-1.396h40.294c1.197 0 2.17.625 2.17 1.396v.242z"/><path fill="#EBEBEB" d="M47.8-2.238c0 .768-.968 1.391-2.16 1.391l-40.162 4.252c-1.193 0-2.16-.624-2.16-1.393v-4.491c0-.768.967-1.391 2.16-1.391h40.162c1.192 0 2.16.624 2.16 1.391v.241z"/><path fill="#EAEAEA" d="M47.78-2.244c0 .765-.965 1.385-2.151 1.385l-40.028 4.226c-1.188 0-2.151-.621-2.151-1.387v-4.464c0-.765.962-1.385 2.151-1.385h40.028c1.188 0 2.151.62 2.151 1.385v.24z"/><path fill="#E9E9E9" d="M47.761-2.249c0 .761-.959 1.379-2.142 1.379l-39.895 4.2c-1.183 0-2.142-.617-2.142-1.378v-4.438c0-.761.958-1.379 2.142-1.379h39.895c1.183 0 2.142.618 2.142 1.379v.237z"/><path fill="#E8E8E8" d="M47.741-2.252c0 .757-.955 1.373-2.133 1.373l-39.761 4.174c-1.178 0-2.132-.616-2.132-1.375v-4.409c0-.757.954-1.374 2.132-1.374h39.761c1.178 0 2.133.616 2.133 1.374v.237z"/><path fill="#E7E7E7" d="M47.724-2.257c0 .754-.951 1.367-2.125 1.367l-39.628 4.146c-1.173 0-2.123-.61-2.123-1.367v-4.381c0-.753.95-1.367 2.123-1.367h39.627c1.174 0 2.125.613 2.125 1.367v.235h.001z"/><path fill="#E6E6E6" d="M47.703-2.264c0 .75-.947 1.36-2.114 1.36l-39.495 4.124c-1.167 0-2.113-.609-2.113-1.362v-4.353c0-.751.946-1.361 2.113-1.361h39.495c1.167 0 2.114.609 2.114 1.361v.231z"/><path fill="#E5E5E5" d="M47.685-2.27c0 .748-.941 1.355-2.104 1.355l-39.365 4.098c-1.162 0-2.104-.606-2.104-1.356v-4.325c0-.748.942-1.355 2.104-1.355h39.362c1.162 0 2.104.607 2.104 1.355v.229h.003z"/><path fill="#E4E4E4" d="M47.664-2.273c0 .745-.938 1.349-2.097 1.349l-39.227 4.07c-1.158 0-2.095-.604-2.095-1.349v-4.298c0-.745.938-1.349 2.095-1.349h39.228c1.158 0 2.099.604 2.099 1.349l-.003.228z"/><path fill="#E3E3E3" d="M47.646-2.276c0 .741-.938 1.342-2.086 1.342l-39.097 4.04c-1.152 0-2.085-.601-2.085-1.343v-4.27c0-.742.934-1.344 2.085-1.344h39.095c1.151 0 2.086.602 2.086 1.344v.229l.002.002z"/><path fill="#E2E2E2" d="M47.625-2.284c0 .739-.931 1.338-2.076 1.338l-38.963 4.016c-1.147 0-2.076-.6-2.076-1.338v-4.243c0-.738.929-1.337 2.076-1.337h38.963c1.146 0 2.076.6 2.076 1.337v.227z"/><path fill="#E1E1E1" d="M47.604-2.288c0 .734-.926 1.331-2.066 1.331l-38.829 3.989c-1.142 0-2.067-.596-2.067-1.332v-4.213c0-.734.925-1.331 2.067-1.331h38.829c1.143 0 2.066.597 2.066 1.331v.225z"/><path fill="#E0E0E0" d="M47.586-2.292c0 .731-.921 1.324-2.058 1.324l-38.695 3.964c-1.137 0-2.057-.594-2.057-1.326v-4.187c0-.731.92-1.325 2.057-1.325h38.695c1.138 0 2.059.594 2.059 1.325l-.001.225z"/><path fill="#DFDFDF" d="M47.567-2.297c0 .728-.918 1.318-2.049 1.318l-38.562 3.938c-1.132 0-2.048-.59-2.048-1.318v-4.16c0-.728.917-1.318 2.048-1.318h38.562c1.131 0 2.049.591 2.049 1.318v.222z"/><path fill="#DEDEDE" d="M47.548-2.303c0 .725-.914 1.312-2.04 1.312l-38.429 3.911c-1.127 0-2.039-.586-2.039-1.312v-4.132c0-.725.912-1.312 2.039-1.312h38.429c1.126 0 2.04.588 2.04 1.312v.221z"/><path fill="#ddd" d="M47.526-2.309c0 .721-.908 1.307-2.028 1.307l-38.296 3.887c-1.121 0-2.029-.586-2.029-1.309v-4.104c0-.721.908-1.307 2.029-1.307h38.296c1.12 0 2.028.584 2.028 1.307v.219z"/><path fill="#DCDCDC" d="M47.509-2.312c0 .718-.904 1.301-2.021 1.301l-38.162 3.858c-1.117 0-2.021-.583-2.021-1.302v-4.076c0-.718.904-1.301 2.021-1.301h38.161c1.117 0 2.021.583 2.021 1.301l.001.219z"/><path fill="#DBDBDB" d="M47.489-2.316c0 .714-.9 1.295-2.012 1.295l-38.028 3.832c-1.111 0-2.011-.581-2.011-1.295v-4.049c0-.714.9-1.295 2.011-1.295h38.028c1.109 0 2.013.581 2.013 1.295l-.001.217z"/><path fill="#DADADA" d="M47.47-2.322c0 .711-.896 1.289-2.002 1.289l-37.897 3.805c-1.105 0-2.001-.577-2.001-1.29v-4.021c0-.711.896-1.288 2.001-1.288h37.896c1.104 0 2.003.577 2.003 1.288v.217z"/><path fill="#D9D9D9" d="M47.45-2.328c0 .708-.893 1.283-1.993 1.283l-37.762 3.779c-1.101 0-1.993-.575-1.993-1.283v-3.992c0-.709.892-1.284 1.993-1.284h37.762c1.101 0 1.993.575 1.993 1.284v.213z"/><path fill="#D8D8D8" d="M47.431-2.333c0 .705-.889 1.276-1.98 1.276l-37.633 3.755c-1.095 0-1.983-.572-1.983-1.278v-3.965c0-.705.888-1.277 1.983-1.277h37.628c1.096 0 1.984.572 1.984 1.277v.212h.001z"/><path fill="#D7D7D7" d="M47.411-2.336c0 .702-.885 1.27-1.975 1.27l-37.495 3.728c-1.09 0-1.973-.571-1.973-1.271v-3.938c0-.701.883-1.27 1.973-1.27h37.496c1.09 0 1.977.569 1.977 1.27l-.003.211z"/><path fill="#D6D6D6" d="M47.392-2.343c0 .699-.879 1.265-1.965 1.265l-37.363 3.701c-1.085 0-1.964-.564-1.964-1.266v-3.91c0-.699.879-1.265 1.964-1.265h37.362c1.085 0 1.966.566 1.966 1.265v.21z"/><path fill="#D5D5D5" d="M47.372-2.348c0 .695-.876 1.258-1.955 1.258l-37.23 3.676c-1.08 0-1.955-.563-1.955-1.258v-3.882c0-.695.875-1.26 1.955-1.26h37.23c1.079 0 1.955.563 1.955 1.26v.206z"/><path fill="#D4D4D4" d="M47.353-2.353c0 .691-.871 1.252-1.942 1.252l-37.1 3.65c-1.075 0-1.945-.562-1.945-1.252v-3.854c0-.691.871-1.252 1.945-1.252h37.097c1.073 0 1.944.561 1.944 1.252v.204h.001z"/><path fill="#D3D3D3" d="M47.334-2.356c0 .688-.867 1.247-1.937 1.247l-36.963 3.622c-1.07 0-1.936-.558-1.936-1.247v-3.826c0-.688.866-1.247 1.936-1.247h36.963c1.066 0 1.937.558 1.937 1.247v.204z"/><path fill="#D2D2D2" d="M47.313-2.361c0 .685-.862 1.241-1.93 1.241l-36.826 3.596c-1.064 0-1.927-.556-1.927-1.241v-3.799c0-.684.862-1.24 1.927-1.24h36.831c1.063 0 1.928.556 1.928 1.24v.204l-.003-.001z"/><path fill="#D1D1D1" d="M47.294-2.368c0 .682-.857 1.235-1.918 1.235l-36.696 3.571c-1.06 0-1.917-.552-1.917-1.233v-3.772c0-.681.858-1.234 1.917-1.234h36.696c1.061 0 1.918.553 1.918 1.234v.199z"/><path fill="#D0D0D0" d="M47.274-2.372c0 .677-.854 1.228-1.907 1.228l-36.564 3.542c-1.055 0-1.908-.549-1.908-1.228v-3.744c0-.678.853-1.229 1.908-1.229h36.564c1.054 0 1.907.55 1.907 1.229v.202z"/><path fill="#CFCFCF" d="M47.256-2.376c0 .674-.851 1.223-1.899 1.223l-36.43 3.516c-1.05 0-1.898-.547-1.898-1.223v-3.715c0-.676.849-1.224 1.898-1.224h36.429c1.049 0 1.897.547 1.897 1.224l.003.199z"/><path fill="#CECECE" d="M47.235-2.382c0 .672-.846 1.218-1.889 1.218l-36.297 3.49c-1.044 0-1.889-.545-1.889-1.218v-3.687c0-.672.845-1.218 1.889-1.218h36.298c1.043 0 1.889.545 1.889 1.218v.197h-.001z"/><path fill="#CDCDCD" d="M47.217-2.388c0 .667-.843 1.211-1.881 1.211l-36.163 3.466c-1.04 0-1.881-.542-1.881-1.211v-3.66c0-.668.841-1.21 1.881-1.21h36.163c1.038 0 1.881.542 1.881 1.21v.194z"/><path fill="#ccc" d="M47.196-2.393c0 .665-.838 1.204-1.87 1.204l-36.03 3.44c-1.034 0-1.871-.542-1.871-1.208v-3.633c0-.666.837-1.205 1.871-1.205h36.03c1.032 0 1.87.539 1.87 1.205v.197z"/><path fill="#CBCBCB" d="M47.179-2.396c0 .662-.834 1.198-1.861 1.198l-35.899 3.412c-1.029 0-1.862-.537-1.862-1.199v-3.604c0-.662.833-1.198 1.862-1.198h35.896c1.029 0 1.863.536 1.863 1.198v.193h.001z"/><path fill="#CACACA" d="M47.159-2.4c0 .658-.83 1.191-1.854 1.191l-35.763 3.387c-1.023 0-1.852-.534-1.852-1.193v-3.577c0-.658.829-1.191 1.852-1.191h35.764c1.023 0 1.854.534 1.854 1.191l-.001.192z"/><path fill="#C9C9C9" d="M47.14-2.406c0 .655-.826 1.187-1.844 1.187l-35.631 3.36c-1.019 0-1.843-.532-1.843-1.188v-3.549c0-.656.824-1.187 1.843-1.187h35.631c1.018 0 1.844.531 1.844 1.187v.19z"/><path fill="#C8C8C8" d="M47.12-2.412c0 .653-.821 1.181-1.834 1.181l-35.497 3.335c-1.013 0-1.833-.529-1.833-1.182v-3.522c0-.653.82-1.181 1.833-1.181h35.498c1.013 0 1.834.528 1.834 1.181l-.001.188z"/><path fill="#C7C7C7" d="M47.101-2.417c0 .648-.813 1.174-1.824 1.174l-35.365 3.308c-1.008 0-1.824-.526-1.824-1.175v-3.494c0-.649.816-1.176 1.824-1.176h35.364c1.008 0 1.824.527 1.824 1.176v.187h.001z"/><path fill="#C6C6C6" d="M47.081-2.421c0 .646-.812 1.169-1.814 1.169l-35.232 3.281c-1.002 0-1.815-.524-1.815-1.17v-3.466c0-.645.812-1.168 1.815-1.168h35.231c1.002 0 1.812.524 1.812 1.168l.003.186z"/><path fill="#C5C5C5" d="M47.062-2.428c0 .642-.809 1.162-1.807 1.162l-35.097 3.258c-.998 0-1.806-.521-1.806-1.164v-3.439c0-.642.808-1.163 1.806-1.163h35.097c.998 0 1.807.521 1.807 1.163v.183z"/><path fill="#C4C4C4" d="M47.042-2.432c0 .638-.805 1.157-1.797 1.157l-34.964 3.229c-.993 0-1.796-.517-1.796-1.157v-3.41c0-.639.803-1.157 1.796-1.157h34.964c.992 0 1.797.518 1.797 1.157v.181z"/><path fill="#C3C3C3" d="M47.022-2.436c0 .635-.801 1.15-1.787 1.15l-34.831 3.203c-.987 0-1.786-.515-1.786-1.15v-3.384c0-.635.799-1.15 1.786-1.15h34.832c.986 0 1.787.515 1.787 1.15v.181h-.001z"/><path fill="#C2C2C2" d="M47.003-2.44c0 .63-.796 1.145-1.777 1.145l-34.699 3.174c-.982 0-1.777-.513-1.777-1.146v-3.354c0-.632.795-1.145 1.777-1.145h34.699c.98 0 1.776.512 1.776 1.145l.001.181z"/><path fill="#C1C1C1" d="M46.983-2.446c0 .628-.793 1.139-1.771 1.139l-34.562 3.151c-.978 0-1.769-.511-1.769-1.14v-3.327c0-.629.791-1.14 1.769-1.14h34.564c.977 0 1.77.509 1.77 1.14v.177h-.001z"/><path fill="#C0C0C0" d="M46.964-2.452c0 .625-.787 1.133-1.758 1.133l-34.433 3.124c-.972 0-1.759-.507-1.759-1.133v-3.299c0-.625.787-1.133 1.759-1.133h34.433c.971 0 1.758.507 1.758 1.133v.175z"/><path fill="#BFBFBF" d="M46.944-2.457c0 .623-.782 1.127-1.75 1.127l-34.297 3.099c-.967 0-1.75-.504-1.75-1.127v-3.272c0-.623.783-1.127 1.75-1.127h34.297c.968 0 1.75.504 1.75 1.127v.173z"/><path fill="#BEBEBE" d="M46.925-2.46c0 .618-.777 1.12-1.738 1.12l-34.167 3.07c-.962 0-1.74-.502-1.74-1.121v-3.244c0-.62.778-1.12 1.74-1.12h34.167c.961 0 1.738.501 1.738 1.12v.175z"/><path fill="#BDBDBD" d="M46.905-2.466c0 .616-.774 1.114-1.73 1.114l-34.032 3.045c-.956 0-1.73-.5-1.73-1.114v-3.217c0-.616.774-1.114 1.73-1.114h34.032c.956 0 1.73.499 1.73 1.114v.172z"/><path fill="#BCBCBC" d="M46.888-2.472c0 .612-.771 1.107-1.723 1.107l-33.898 3.02c-.952 0-1.722-.497-1.722-1.108v-3.188c0-.613.77-1.109 1.722-1.109h33.898c.95 0 1.723.497 1.723 1.109v.169z"/><path fill="#bbb" d="M46.867-2.476c0 .609-.767 1.103-1.712 1.103l-33.765 2.993c-.946 0-1.712-.495-1.712-1.104v-3.162c0-.609.766-1.103 1.712-1.103h33.765c.945 0 1.713.494 1.713 1.103l-.001.17z"/><path fill="#BABABA" d="M46.849-2.479c0 .605-.764 1.096-1.703 1.096l-33.633 2.966c-.941 0-1.703-.491-1.703-1.097v-3.134c0-.605.761-1.097 1.703-1.097h33.632c.938 0 1.703.492 1.703 1.097v.169h.001z"/><path fill="#B9B9B9" d="M46.828-2.485c0 .602-.759 1.091-1.692 1.091l-33.5 2.939c-.936 0-1.694-.488-1.694-1.091v-3.105c0-.602.758-1.09 1.694-1.09h33.5c.934 0 1.692.488 1.692 1.09v.166z"/><path fill="#B8B8B8" d="M46.81-2.49c0 .598-.754 1.084-1.686 1.084l-33.365 2.913c-.931 0-1.684-.486-1.684-1.084v-3.078c0-.599.753-1.084 1.684-1.084h33.365c.932 0 1.686.486 1.686 1.084v.165z"/><path fill="#B7B7B7" d="M46.79-2.496c0 .595-.75 1.079-1.675 1.079l-33.232 2.889c-.926 0-1.675-.483-1.675-1.079v-3.05c0-.595.749-1.078 1.675-1.078h33.232c.925 0 1.675.483 1.675 1.078v.161z"/><path fill="#B6B6B6" d="M46.771-2.5c0 .591-.746 1.072-1.666 1.072l-33.099 2.86c-.92 0-1.666-.48-1.666-1.072v-3.023c0-.592.745-1.072 1.666-1.072h33.099c.92 0 1.666.48 1.666 1.072v.163z"/><path fill="#B5B5B5" d="M46.751-2.505c0 .587-.742 1.066-1.656 1.066l-32.967 2.835c-.915 0-1.656-.478-1.656-1.067v-2.995c0-.589.741-1.067 1.656-1.067h32.967c.914 0 1.656.478 1.656 1.067v.161z"/><path fill="#B4B4B4" d="M46.731-2.512c0 .585-.738 1.062-1.647 1.062l-32.832 2.808c-.91 0-1.647-.476-1.647-1.061v-2.967c0-.585.737-1.06 1.647-1.06h32.832c.909 0 1.647.474 1.647 1.06v.158z"/><path fill="#B3B3B3" d="M46.712-2.515c0 .582-.732 1.053-1.638 1.053l-32.699 2.783c-.905 0-1.638-.472-1.638-1.055v-2.94c0-.582.733-1.054 1.638-1.054h32.699c.903 0 1.638.472 1.638 1.054v.159z"/><path fill="#B2B2B2" d="M46.692-2.52c0 .579-.729 1.048-1.629 1.048l-32.565 2.757c-.9 0-1.628-.47-1.628-1.049v-2.912c0-.579.728-1.048 1.628-1.048h32.565c.897 0 1.629.469 1.629 1.048v.156z"/><path fill="#B1B1B1" d="M46.673-2.525c0 .577-.725 1.043-1.619 1.043l-32.433 2.73c-.895 0-1.619-.467-1.619-1.043v-2.883c0-.576.725-1.043 1.619-1.043h32.433c.896 0 1.619.467 1.619 1.043v.153z"/><path fill="#B0B0B0" d="M46.653-2.53c0 .572-.721 1.036-1.609 1.036l-32.3 2.704c-.89 0-1.609-.464-1.609-1.037v-2.855c0-.572.72-1.037 1.609-1.037h32.3c.889 0 1.609.465 1.609 1.037v.152z"/><path fill="#AFAFAF" d="M46.636-2.536c0 .568-.718 1.03-1.602 1.03l-32.167 2.679c-.884 0-1.6-.462-1.6-1.03v-2.83c0-.568.715-1.03 1.6-1.03h32.167c.884 0 1.602.462 1.602 1.03v.151z"/><path fill="#AFAEAE" d="M46.614-2.541c0 .564-.713 1.025-1.59 1.025l-32.033 2.653c-.879 0-1.591-.459-1.591-1.026v-2.8c0-.565.711-1.024 1.591-1.024h32.033c.879 0 1.591.458 1.591 1.024l-.001.148z"/><path fill="#AEADAD" d="M46.595-2.544c0 .56-.707 1.018-1.58 1.018l-31.901 2.624c-.874 0-1.582-.456-1.582-1.019v-2.773c0-.562.708-1.018 1.582-1.018h31.901c.873 0 1.58.457 1.58 1.018v.15z"/><path fill="#ADACAC" d="M46.576-2.55c0 .559-.704 1.012-1.573 1.012l-31.766 2.6c-.869 0-1.572-.455-1.572-1.012v-2.746c0-.559.703-1.013 1.572-1.013h31.766c.869 0 1.573.454 1.573 1.013v.146z"/><path fill="#ACABAB" d="M46.558-2.555c0 .555-.701 1.006-1.562 1.006l-31.636 2.573c-.864 0-1.562-.452-1.562-1.007v-2.717c0-.556.698-1.007 1.562-1.007h31.633c.863 0 1.562.451 1.562 1.007v.145h.003z"/><path fill="#ABAAAA" d="M46.537-2.56c0 .551-.695 1-1.554 1l-31.5 2.546c-.859 0-1.554-.448-1.554-1v-2.69c0-.553.695-1 1.554-1h31.5c.855 0 1.554.447 1.554 1v.144z"/><path fill="#AAA9A9" d="M46.519-2.565c0 .549-.689.995-1.545.995l-31.368 2.52c-.854 0-1.544-.446-1.544-.995v-2.663c0-.548.691-.994 1.544-.994h31.368c.854 0 1.545.445 1.545.994v.143z"/><path fill="#A9A8A8" d="M46.498-2.569c0 .545-.687.987-1.535.987l-31.234 2.494c-.849 0-1.535-.441-1.535-.987v-2.635c0-.545.687-.988 1.535-.988h31.234c.849 0 1.535.442 1.535.988v.141z"/><path fill="#A8A7A7" d="M46.479-2.573c0 .542-.687.982-1.525.982l-31.101 2.466c-.843 0-1.526-.44-1.526-.984v-2.605c0-.543.683-.983 1.526-.983h31.101c.842 0 1.525.439 1.525.983v.141z"/><path fill="#A7A6A6" d="M46.459-2.58c0 .54-.679.976-1.517.976l-30.966 2.442c-.838 0-1.516-.438-1.516-.978v-2.579c0-.54.678-.977 1.516-.977h30.966c.838 0 1.517.438 1.517.977v.139z"/><path fill="#A6A5A5" d="M46.438-2.583c0 .535-.674.969-1.506.969l-30.833 2.414c-.833 0-1.507-.435-1.507-.97v-2.552c0-.536.674-.97 1.507-.97h30.833c.832 0 1.508.435 1.508.97v.138h-.002z"/><path fill="#A5A4A4" d="M46.421-2.59c0 .533-.671.965-1.498.965l-30.701 2.389c-.828 0-1.498-.432-1.498-.965v-2.522c0-.533.67-.964 1.498-.964h30.701c.827 0 1.498.432 1.498.964v.133z"/><path fill="#A4A3A3" d="M46.401-2.596c0 .529-.666.958-1.488.958l-30.567 2.365c-.823 0-1.489-.43-1.489-.958v-2.496c0-.529.666-.958 1.489-.958h30.567c.822 0 1.488.429 1.488.958v.131z"/><path fill="#A3A2A2" d="M46.382-2.599c0 .524-.662.951-1.479.951l-30.434 2.336c-.817 0-1.479-.426-1.479-.952v-2.469c0-.526.662-.952 1.479-.952h30.434c.816 0 1.479.426 1.479.952v.134z"/><path fill="#A2A1A1" d="M46.362-2.604c0 .521-.658.946-1.471.946l-30.301 2.31c-.812 0-1.47-.424-1.47-.946v-2.44c0-.522.657-.946 1.47-.946h30.304c.812 0 1.469.423 1.469.946v.13h-.001z"/><path fill="#A1A0A0" d="M46.343-2.609c0 .52-.652.942-1.46.942l-30.168 2.281c-.808 0-1.46-.421-1.46-.941v-2.412c0-.519.652-.941 1.46-.941h30.168c.808 0 1.46.422 1.46.941v.13z"/><path fill="#A09F9F" d="M46.323-2.614c0 .515-.649.934-1.451.934l-30.034 2.259c-.802 0-1.451-.419-1.451-.935v-2.385c0-.517.649-.935 1.451-.935h30.034c.802 0 1.451.418 1.451.935v.127z"/><path fill="#9F9E9E" d="M46.304-2.62c0 .511-.645.928-1.441.928l-29.902 2.233c-.797 0-1.441-.416-1.441-.928v-2.356c0-.514.645-.929 1.441-.929h29.901c.797 0 1.441.415 1.441.929v.123h.001z"/><path fill="#9E9D9D" d="M46.284-2.625c0 .507-.641.922-1.432.922l-29.768 2.206c-.791 0-1.432-.414-1.432-.922v-2.329c0-.51.641-.922 1.432-.922h29.769c.791 0 1.435.412 1.435.922l-.004.123z"/><path fill="#9D9C9C" d="M46.265-2.628c0 .504-.637.916-1.423.916l-29.634 2.177c-.787 0-1.422-.412-1.422-.916v-2.302c0-.506.636-.916 1.422-.916h29.634c.786 0 1.423.41 1.423.916v.125z"/><path fill="#9C9B9B" d="M46.245-2.635c0 .502-.633.911-1.413.911l-29.501 2.153c-.782 0-1.414-.408-1.414-.91v-2.275c0-.502.632-.91 1.414-.91h29.501c.78 0 1.413.408 1.413.91v.121z"/><path fill="#9B9A9A" d="M46.226-2.639c0 .499-.627.905-1.4.905l-29.37 2.126c-.777 0-1.404-.406-1.404-.905v-2.246c0-.5.627-.905 1.404-.905h29.368c.775 0 1.402.405 1.402.905v.12z"/><path fill="#9A9999" d="M46.206-2.644c0 .496-.624.897-1.395.897l-29.234 2.1c-.771 0-1.396-.403-1.396-.898v-2.219c0-.496.624-.898 1.396-.898h29.234c.771 0 1.395.402 1.395.898v.12z"/><path fill="#999898" d="M46.187-2.648c0 .492-.619.893-1.385.893l-29.102 2.072c-.766 0-1.386-.4-1.386-.894v-2.191c0-.492.62-.892 1.386-.892h29.102c.766 0 1.385.4 1.385.892v.12z"/><path fill="#989797" d="M46.168-2.653c0 .489-.616.886-1.376.886l-28.969 2.047c-.761 0-1.376-.398-1.376-.886v-2.163c0-.489.616-.886 1.376-.886h28.969c.76 0 1.376.397 1.376.886v.116z"/><path fill="#979696" d="M46.147-2.659c0 .485-.611.88-1.365.88l-28.836 2.022c-.755 0-1.367-.395-1.367-.881v-2.135c0-.485.611-.88 1.367-.88h28.836c.754 0 1.365.395 1.365.88v.114z"/><path fill="#969595" d="M46.129-2.664c0 .481-.606.874-1.356.874l-28.704 1.996c-.75 0-1.357-.392-1.357-.874v-2.108c0-.482.607-.874 1.357-.874h28.702c.75 0 1.357.392 1.357.874l.001.112z"/><path fill="#959494" d="M46.108-2.668c0 .479-.604.867-1.348.867l-28.567 1.968c-.746 0-1.348-.388-1.348-.868v-2.079c0-.479.603-.868 1.348-.868h28.568c.745 0 1.35.388 1.35.868v.11l-.003.002z"/><path fill="#949393" d="M46.09-2.673c0 .475-.599.862-1.339.862l-28.435 1.942c-.741 0-1.339-.386-1.339-.863v-2.052c0-.476.598-.862 1.339-.862h28.435c.74 0 1.339.386 1.339.862v.111z"/><path fill="#939292" d="M46.069-2.679c0 .472-.594.856-1.328.856l-28.302 1.918c-.735 0-1.33-.383-1.33-.857v-2.024c0-.473.595-.857 1.33-.857h28.302c.734 0 1.328.384 1.328.857v.107z"/><path fill="#929191" d="M46.052-2.683c0 .468-.591.85-1.32.85l-28.168 1.89c-.73 0-1.32-.382-1.32-.851v-1.997c0-.468.59-.85 1.32-.85h28.168c.729 0 1.318.382 1.318.85l.002.108z"/><path fill="#919090" d="M46.032-2.688c0 .465-.588.844-1.311.844l-28.035 1.864c-.725 0-1.311-.378-1.311-.844v-1.969c0-.465.586-.845 1.311-.845h28.036c.725 0 1.312.379 1.312.845l-.002.105z"/><path fill="#908F8F" d="M46.013-2.692c0 .462-.582.837-1.302.837l-27.902 1.837c-.72 0-1.302-.377-1.302-.839v-1.94c0-.463.582-.839 1.302-.839h27.902c.72 0 1.302.375 1.302.839v.105z"/><path fill="#8F8E8E" d="M45.993-2.698c0 .46-.578.832-1.292.832l-27.769 1.81c-.715 0-1.292-.374-1.292-.832v-1.912c0-.46.577-.832 1.292-.832h27.77c.714 0 1.292.373 1.292.832l-.001.102z"/><path fill="#8E8E8D" d="M45.974-2.704c0 .456-.574.825-1.283.825l-27.636 1.786c-.709 0-1.283-.37-1.283-.826v-1.885c0-.456.574-.825 1.283-.825h27.635c.709 0 1.283.37 1.283.825v.1h.001z"/><path fill="#8D8D8C" d="M45.954-2.708c0 .452-.57.819-1.273.819l-27.501 1.76c-.704 0-1.273-.368-1.273-.82v-1.858c0-.453.569-.821 1.273-.821h27.501c.702 0 1.272.368 1.272.821l.001.099z"/><path fill="#8C8C8B" d="M45.935-2.712c0 .449-.562.814-1.264.814l-27.37 1.732c-.699 0-1.265-.364-1.265-.814v-1.831c0-.449.565-.814 1.265-.814h27.37c.698 0 1.264.365 1.264.814v.099z"/><path fill="#8B8B8A" d="M45.915-2.718c0 .445-.562.808-1.255.808l-27.235 1.706c-.694 0-1.255-.363-1.255-.808v-1.803c0-.445.561-.808 1.255-.808h27.235c.692 0 1.255.363 1.255.808v.097z"/><path fill="#8A8A89" d="M45.896-2.723c0 .443-.56.802-1.246.802l-27.104 1.681c-.689 0-1.246-.36-1.246-.802v-1.774c0-.443.557-.802 1.246-.802h27.104c.688 0 1.244.359 1.244.802v.094h.002z"/><path fill="#898988" d="M45.876-2.728c0 .439-.553.795-1.234.795l-26.971 1.655c-.684 0-1.236-.357-1.236-.795v-1.748c0-.439.552-.796 1.236-.796h26.971c.685 0 1.234.357 1.234.796v.093z"/><path fill="#888887" d="M45.856-2.732c0 .435-.549.789-1.229.789l-26.833 1.628c-.679 0-1.227-.354-1.227-.789v-1.718c0-.438.548-.791 1.227-.791h26.836c.678 0 1.227.354 1.227.791v.09h-.001z"/><path fill="#878786" d="M45.838-2.737c0 .431-.545.784-1.218.784l-26.703 1.6c-.673 0-1.218-.352-1.218-.784v-1.691c0-.433.544-.785 1.218-.785h26.703c.673 0 1.218.352 1.218.785v.091z"/><path fill="#868685" d="M45.817-2.743c0 .428-.541.778-1.207.778l-26.57 1.576c-.668 0-1.208-.349-1.208-.779v-1.664c0-.429.54-.778 1.208-.778h26.57c.666 0 1.207.349 1.207.778v.089z"/><path fill="#858584" d="M45.799-2.748c0 .425-.536.772-1.198.772l-26.438 1.549c-.663 0-1.198-.346-1.198-.771v-1.636c0-.425.535-.772 1.198-.772h26.438c.662 0 1.198.346 1.198.772v.086z"/><path fill="#848483" d="M45.778-2.752c0 .422-.531.765-1.188.765l-26.304 1.524c-.658 0-1.189-.343-1.189-.767v-1.608c0-.423.531-.766 1.189-.766h26.304c.657 0 1.188.342 1.188.766v.086z"/><path fill="#838382" d="M45.761-2.757c0 .419-.529.76-1.181.76l-26.17 1.496c-.653 0-1.18-.34-1.18-.76v-1.58c0-.42.527-.761 1.18-.761h26.17c.651 0 1.181.341 1.181.761v.084z"/><path fill="#828281" d="M45.741-2.762c0 .416-.524.753-1.172.753l-26.036 1.47c-.648 0-1.172-.339-1.172-.754v-1.551c0-.417.523-.755 1.172-.755h26.036c.646 0 1.172.338 1.172.755v.082z"/><path fill="#818180" d="M45.722-2.768c0 .412-.52.748-1.162.748l-25.904 1.443c-.643 0-1.162-.336-1.162-.747v-1.525c0-.412.52-.748 1.162-.748h25.904c.644 0 1.162.335 1.162.748v.081z"/><path fill="#80807F" d="M45.702-2.772c0 .41-.516.742-1.152.742l-25.771 1.417c-.637 0-1.152-.333-1.152-.743v-1.497c0-.41.515-.743 1.152-.743h25.771c.637 0 1.152.333 1.152.743v.081z"/><path fill="#7F7F7E" d="M45.683-2.776c0 .405-.512.735-1.144.735l-25.637 1.391c-.632 0-1.143-.331-1.143-.735v-1.47c0-.406.511-.736 1.143-.736h25.637c.632 0 1.144.331 1.144.736v.079z"/><path fill="#7E7E7D" d="M45.663-2.783c0 .402-.508.73-1.135.73l-25.503 1.365c-.627 0-1.134-.329-1.134-.73v-1.442c0-.402.507-.729 1.134-.729h25.503c.627 0 1.135.328 1.135.729v.077z"/><path fill="#7D7D7C" d="M45.644-2.788c0 .399-.502.724-1.123.724l-25.373 1.339c-.622 0-1.124-.325-1.124-.723v-1.415c0-.4.502-.725 1.124-.725h25.371c.621 0 1.125.325 1.125.725v.075z"/><path fill="#7C7C7B" d="M45.624-2.792c0 .396-.499.717-1.115.717l-25.238 1.313c-.617 0-1.115-.322-1.115-.718v-1.387c0-.396.498-.718 1.115-.718h25.237c.616 0 1.115.322 1.115.718l.001.075z"/><path fill="#7B7B7A" d="M45.604-2.797c0 .392-.494.711-1.105.711l-25.104 1.287c-.612 0-1.106-.319-1.106-.711v-1.357c0-.394.494-.713 1.106-.713h25.104c.611 0 1.105.32 1.105.713v.07z"/><path fill="#7A7A79" d="M45.585-2.8c0 .387-.49.705-1.096.705l-24.971 1.259c-.606 0-1.096-.316-1.096-.705v-1.331c0-.389.49-.706 1.096-.706h24.971c.605 0 1.096.316 1.096.706v.072z"/><path fill="#797978" d="M45.565-2.808c0 .385-.486.701-1.086.701l-24.837 1.234c-.602 0-1.087-.314-1.087-.701v-1.304c0-.385.485-.701 1.087-.701h24.837c.601 0 1.086.314 1.086.701v.07z"/><path fill="#787877" d="M45.546-2.812c0 .383-.48.694-1.076.694l-24.705 1.207c-.596 0-1.078-.312-1.078-.694v-1.275c0-.383.482-.694 1.078-.694h24.705c.596 0 1.076.312 1.076.694v.068z"/><path fill="#777776" d="M45.526-2.816c0 .379-.479.687-1.067.687l-24.572 1.182c-.591 0-1.068-.308-1.068-.688v-1.248c0-.38.477-.688 1.068-.688h24.572c.59 0 1.067.308 1.067.688v.067z"/><path fill="#767675" d="M45.507-2.821c0 .376-.473.681-1.058.681l-24.438 1.156c-.586 0-1.059-.305-1.059-.682v-1.221c0-.375.473-.682 1.059-.682h24.438c.585 0 1.058.305 1.058.682v.066z"/><path fill="#757574" d="M45.487-2.827c0 .373-.469.675-1.049.675l-24.304 1.13c-.581 0-1.05-.303-1.05-.675v-1.193c0-.372.469-.675 1.05-.675h24.305c.58 0 1.049.304 1.049.675v.063h-.001z"/><path fill="#747473" d="M45.468-2.833c0 .37-.465.67-1.039.67l-24.172 1.103c-.575 0-1.041-.301-1.041-.669v-1.165c0-.37.465-.67 1.041-.67h24.172c.574 0 1.039.301 1.039.67v.061z"/><path fill="#737372" d="M45.448-2.836c0 .365-.461.664-1.03.664l-24.038 1.075c-.571 0-1.031-.298-1.031-.665v-1.137c0-.366.46-.664 1.031-.664h24.038c.569 0 1.03.298 1.03.664v.063z"/><path fill="#727271" d="M45.431-2.841c0 .363-.457.658-1.021.658l-23.907 1.05c-.565 0-1.021-.296-1.021-.659v-1.109c0-.362.457-.657 1.021-.657h23.905c.563 0 1.021.295 1.021.657v.06h.002z"/><path fill="#717170" d="M45.41-2.847c0 .359-.452.651-1.013.651l-23.77 1.026c-.561 0-1.013-.293-1.013-.651v-1.082c0-.36.452-.652 1.013-.652h23.771c.562 0 1.015.292 1.015.652l-.003.056z"/><path fill="#70706F" d="M45.392-2.852c0 .355-.449.646-1.002.646l-23.64.998c-.556 0-1.003-.29-1.003-.646v-1.054c0-.357.448-.646 1.003-.646h23.638c.555 0 1.002.289 1.002.646v.057l.002-.001z"/><path fill="#6F6F6E" d="M45.371-2.855c0 .352-.444.639-.993.639l-23.505.97c-.55 0-.994-.287-.994-.639v-1.026c0-.354.444-.641.994-.641h23.506c.548 0 .993.287.993.641l-.001.056z"/><path fill="#6E6E6D" d="M45.353-2.861c0 .349-.438.634-.981.634l-23.376.944c-.545 0-.984-.284-.984-.633v-.999c0-.35.439-.634.984-.634h23.372c.544 0 .982.284.982.634v.052l.003.002z"/><path fill="#6D6D6C" d="M45.332-2.867c0 .346-.437.627-.976.627l-23.237.92c-.54 0-.975-.282-.975-.628v-.97c0-.346.435-.627.975-.627h23.237c.539 0 .976.281.976.627v.051z"/><path fill="#6C6C6B" d="M45.313-2.872c0 .342-.436.623-.967.623l-23.104.892c-.534 0-.966-.279-.966-.621v-.943c0-.343.432-.623.966-.623h23.104c.531 0 .967.279.967.623v.049z"/><path fill="#6B6B6A" d="M45.294-2.876c0 .339-.428.616-.956.616l-22.973.866c-.529 0-.956-.276-.956-.617v-.914c0-.34.427-.617.956-.617h22.973c.528 0 .956.276.956.617v.049z"/><path fill="#6A6A69" d="M45.274-2.88c0 .336-.424.609-.947.609l-22.838.84c-.524 0-.947-.274-.947-.61v-.887c0-.336.423-.61.947-.61h22.839c.522 0 .946.274.946.61v.048z"/><path fill="#696968" d="M45.255-2.886c0 .332-.419.604-.938.604l-22.705.813c-.519 0-.938-.27-.938-.604v-.859c0-.333.419-.604.938-.604h22.706c.521 0 .938.271.938.604l-.001.046z"/><path fill="#686867" d="M45.235-2.892c0 .33-.416.598-.928.598l-22.572.788c-.514 0-.929-.268-.929-.597v-.831c0-.33.415-.599.929-.599h22.573c.512 0 .928.268.928.599v.042h-.001z"/><path fill="#676766" d="M45.216-2.896c0 .326-.41.592-.918.592l-22.44.76c-.508 0-.919-.265-.919-.591v-.804c0-.327.411-.591.919-.591h22.439c.509 0 .918.265.918.591l.001.043z"/><path fill="#666665" d="M45.196-2.9c0 .322-.406.585-.909.585l-22.306.734c-.503 0-.909-.263-.909-.586v-.776c0-.324.406-.585.909-.585h22.307c.502 0 .908.262.908.585v.043z"/><path fill="#656564" d="M45.177-2.906c0 .319-.402.58-.898.58l-22.175.708c-.499 0-.9-.261-.9-.58v-.748c0-.32.402-.58.9-.58h22.172c.498 0 .897.26.897.58l.004.04z"/><path fill="#646463" d="M45.157-2.912c0 .316-.396.574-.891.574l-22.04.684c-.493 0-.891-.258-.891-.575v-.72c0-.317.398-.575.891-.575h22.041c.491 0 .892.258.892.575l-.002.037z"/><path fill="#636362" d="M45.138-2.917c0 .312-.394.567-.881.567l-21.906.659c-.488 0-.882-.256-.882-.568v-.693c0-.313.394-.568.882-.568h21.906c.487 0 .881.255.881.568v.035z"/><path fill="#626261" d="M45.119-2.919c0 .309-.39.562-.872.562l-21.773.628c-.482 0-.872-.252-.872-.562v-.665c0-.309.39-.562.872-.562h21.773c.482 0 .872.252.872.562v.037z"/><path fill="#616160" d="M45.101-2.924c0 .304-.387.554-.863.554l-21.64.604c-.478 0-.863-.25-.863-.555v-.638c0-.306.385-.556.863-.556h21.64c.477 0 .863.25.863.556v.035z"/><path fill="#60605F" d="M45.08-2.931c0 .303-.382.549-.854.549l-21.506.578c-.473 0-.854-.247-.854-.549v-.61c0-.303.381-.55.854-.55h21.505c.473 0 .854.247.854.55l.001.032z"/><path fill="#5F5F5E" d="M45.062-2.936c0 .299-.379.543-.845.543l-21.373.552c-.468 0-.845-.245-.845-.543v-.582c0-.301.376-.544.845-.544h21.373c.466 0 .845.244.845.544v.03z"/><path fill="#5E5E5D" d="M45.041-2.939c0 .296-.373.538-.834.538l-21.24.525c-.462 0-.835-.242-.835-.538v-.556c0-.296.373-.537.835-.537h21.24c.461 0 .834.242.834.537v.031z"/><path fill="#5D5D5C" d="M45.021-2.945c0 .293-.369.532-.824.532l-21.108.498c-.457 0-.825-.239-.825-.532v-.527c0-.293.368-.532.825-.532h21.107c.455 0 .824.239.824.532v.029h.001z"/><path fill="#5C5C5B" d="M45.002-2.951c0 .289-.364.526-.815.526l-20.974.473c-.452 0-.817-.237-.817-.526v-.5c0-.29.365-.525.817-.525h20.974c.451 0 .815.236.815.525v.027z"/><path fill="#5B5B5A" d="M44.981-2.956c0 .286-.359.519-.808.519l-20.839.447c-.447 0-.807-.233-.807-.521v-.471c0-.286.36-.52.807-.52h20.841c.445 0 .809.233.809.52v.025l-.003.001z"/><path fill="#5A5A59" d="M44.963-2.959c0 .282-.354.512-.796.512l-20.708.42c-.441 0-.797-.23-.797-.512v-.443c0-.283.356-.515.797-.515h20.708c.441 0 .796.23.796.515v.023z"/><path fill="#595958" d="M44.942-2.963c0 .279-.354.506-.787.506l-20.572.393c-.437 0-.789-.227-.789-.506v-.417c0-.28.352-.508.789-.508h20.572c.437 0 .789.229.789.508v.023l-.002.001z"/><path fill="#585857" d="M44.924-2.971c0 .276-.347.501-.778.501l-20.44.369c-.432 0-.779-.226-.779-.501v-.388c0-.277.348-.502.779-.502h20.439c.432 0 .776.226.776.502l.003.019z"/><path fill="#575756" d="M44.905-2.976c0 .273-.344.496-.771.496l-20.307.34c-.427 0-.771-.221-.771-.496v-.36c0-.273.344-.496.771-.496h20.307c.428 0 .771.223.771.496v.02z"/><path fill="#565655" d="M44.886-2.979c0 .269-.34.489-.76.489l-20.174.315c-.421 0-.76-.221-.76-.489v-.333c0-.27.339-.49.76-.49h20.174c.42 0 .76.22.76.49v.018z"/><path fill="#555554" d="M44.866-2.984c0 .267-.336.483-.75.483l-20.041.289c-.416 0-.75-.218-.75-.484v-.305c0-.267.335-.484.75-.484h20.041c.416 0 .75.217.75.484v.017z"/><path fill="#545453" d="M44.847-2.99c0 .263-.33.478-.74.478l-19.909.262c-.411 0-.742-.214-.742-.478v-.277c0-.263.332-.478.742-.478h19.908c.41 0 .74.215.74.478v.015h.001z"/><path fill="#535352" d="M44.827-2.996c0 .26-.326.47-.73.47l-19.776.238c-.406 0-.732-.212-.732-.47v-.25c0-.26.327-.472.732-.472h19.774c.405 0 .731.212.731.472l.001.012z"/><path fill="#525251" d="M44.808-3c0 .256-.322.465-.722.465l-19.642.21c-.4 0-.723-.208-.723-.465v-.221c0-.257.323-.466.723-.466h19.642c.399 0 .722.209.722.466v.011z"/><path fill="#515150" d="M44.788-3.004c0 .252-.318.459-.712.459l-19.508.184c-.396 0-.714-.207-.714-.46v-.195c0-.253.318-.46.714-.46h19.508c.394 0 .712.206.712.46v.012z"/><path fill="#50504F" d="M44.769-3.01c0 .25-.312.454-.703.454l-19.375.159c-.391 0-.705-.204-.705-.454v-.167c0-.25.314-.453.705-.453h19.375c.392 0 .703.203.703.453v.008z"/><path fill="#4F4F4E" d="M44.749-3.015c0 .247-.311.447-.693.447l-19.242.132c-.385 0-.695-.201-.695-.447v-.139c0-.247.31-.448.695-.448h19.242c.383 0 .693.201.693.448v.007z"/><path fill="#4E4E4D" d="M44.729-3.02c0 .242-.308.44-.688.44l-19.104.106c-.38 0-.686-.199-.686-.442v-.11c0-.244.306-.443.686-.443h19.108c.379 0 .685.198.685.443v.006h-.001z"/><path fill="#4D4D4C" d="M44.71-3.023c0 .239-.301.435-.675.435l-18.975.076c-.375 0-.676-.195-.676-.435v-.083c0-.241.301-.436.676-.436h18.975c.374 0 .675.195.675.436v.007z"/><path fill="#4C4C4B" d="M44.69-3.028c0 .236-.297.429-.666.429l-18.841.052c-.37 0-.667-.193-.667-.429v-.056c0-.236.297-.429.667-.429h18.841c.369 0 .668.193.668.429v.004h-.002z"/><path fill="#4B4B4A" d="M44.672-3.034c0 .233-.293.423-.657.423l-18.708.028c-.365 0-.658-.191-.658-.424v-.027c0-.234.293-.423.658-.423h18.708c.363-.001.657.188.657.423z"/><path fill="#262626" d="M44.651-3.04c0 .229-.289.417-.646.417h-18.575c-.359 0-.648-.188-.648-.417 0-.23.289-.417.648-.417h18.575c.357-.001.646.187.646.417z"/></g></g><g clip-path="url(#b)"><defs><rect id="e" x="-6.667" y="-1.167" width="95.75" height="18.106"/></defs><clipPath id="f"><use xlink:href="#e" overflow="visible"/></clipPath><g clip-path="url(#f)"><path fill="#fff" d="M32.417-2.14c0 .834 1.05 1.511 2.346 1.511l42.827 4.778c1.296 0 2.347-.676 2.347-1.511v-5.048c0-.834-1.051-1.511-2.347-1.511h-42.827c-1.296 0-2.346.677-2.346 1.511v.27z"/><path fill="#FEFEFE" d="M32.437-2.146c0 .831 1.047 1.506 2.336 1.506l42.694 4.751c1.29 0 2.337-.674 2.337-1.507v-5.019c0-.83-1.047-1.505-2.337-1.505h-42.695c-1.291 0-2.336.674-2.336 1.505l.001.269z"/><path fill="#FDFDFD" d="M32.456-2.15c0 .827 1.042 1.499 2.326 1.499l42.561 4.726c1.286 0 2.328-.671 2.328-1.5v-4.991c0-.829-1.042-1.5-2.328-1.5h-42.561c-1.285 0-2.326.671-2.326 1.5v.266z"/><path fill="#FCFCFC" d="M32.476-2.154c0 .825 1.037 1.493 2.316 1.493l42.428 4.699c1.281 0 2.319-.668 2.319-1.495v-4.961c0-.825-1.038-1.493-2.319-1.493h-42.428c-1.279 0-2.316.668-2.316 1.493v.264z"/><path fill="#FBFBFB" d="M32.495-2.16c0 .822 1.033 1.488 2.307 1.488l42.294 4.674c1.274 0 2.312-.667 2.312-1.49v-4.935c0-.821-1.034-1.486-2.312-1.486h-42.294c-1.273 0-2.307.666-2.307 1.486v.263z"/><path fill="#FAFAFA" d="M32.515-2.165c0 .818 1.028 1.481 2.297 1.481l42.162 4.647c1.271 0 2.301-.665 2.301-1.482v-4.908c0-.819-1.028-1.479-2.301-1.479h-42.162c-1.27 0-2.297.663-2.297 1.479v.262z"/><path fill="#F9F9F9" d="M32.533-2.169c0 .815 1.024 1.475 2.288 1.475l42.03 4.621c1.266 0 2.289-.661 2.289-1.475v-4.882c0-.814-1.023-1.475-2.289-1.475h-42.03c-1.264 0-2.288.661-2.288 1.475v.261z"/><path fill="#F8F8F8" d="M32.554-2.174c0 .812 1.021 1.47 2.278 1.47l41.896 4.594c1.26 0 2.281-.659 2.281-1.471v-4.854c0-.811-1.021-1.469-2.281-1.469h-41.895c-1.259 0-2.279.659-2.279 1.469v.261z"/><path fill="#F7F7F7" d="M32.573-2.18c0 .808 1.017 1.464 2.27 1.464l41.762 4.569c1.256 0 2.271-.656 2.271-1.465v-4.825c0-.808-1.021-1.463-2.271-1.463h-41.762c-1.253 0-2.27.655-2.27 1.463v.257z"/><path fill="#F6F6F6" d="M32.592-2.185c0 .804 1.013 1.458 2.261 1.458l41.628 4.54c1.248 0 2.264-.651 2.264-1.457v-4.796c0-.805-1.016-1.458-2.264-1.458h-41.628c-1.248 0-2.26.653-2.26 1.458l-.001.255z"/><path fill="#F5F5F5" d="M32.61-2.188c0 .8 1.009 1.451 2.252 1.451l41.497 4.513c1.244 0 2.252-.649 2.252-1.452v-4.769c0-.801-1.008-1.451-2.252-1.451h-41.497c-1.243 0-2.252.65-2.252 1.451v.257z"/><path fill="#F4F4F4" d="M32.631-2.192c0 .797 1.005 1.444 2.242 1.444l41.362 4.491c1.24 0 2.244-.646 2.244-1.448v-4.741c0-.797-1.004-1.444-2.244-1.444h-41.362c-1.237 0-2.242.646-2.242 1.444v.254z"/><path fill="#F3F3F3" d="M32.649-2.198c0 .794 1 1.438 2.232 1.438l41.229 4.464c1.234 0 2.234-.646 2.234-1.439v-4.715c0-.794-1-1.438-2.234-1.438h-41.227c-1.233 0-2.231.645-2.231 1.438v.252h-.003z"/><path fill="#F2F2F2" d="M32.669-2.204c0 .791.996 1.433 2.223 1.433l41.095 4.437c1.229 0 2.228-.642 2.228-1.435v-4.686c0-.79-.995-1.432-2.228-1.432h-41.093c-1.229 0-2.224.642-2.224 1.432l-.001.251z"/><path fill="#F1F1F1" d="M32.688-2.209c0 .788.992 1.428 2.215 1.428l40.962 4.411c1.224 0 2.217-.642 2.217-1.432v-4.657c0-.788-.993-1.427-2.217-1.427h-40.962c-1.223 0-2.215.639-2.215 1.427v.25z"/><path fill="#F0F0F0" d="M32.708-2.214c0 .785.986 1.422 2.206 1.422l40.829 4.385c1.219 0 2.207-.637 2.207-1.423v-4.631c0-.785-.988-1.421-2.207-1.421h-40.829c-1.218 0-2.206.636-2.206 1.421v.247z"/><path fill="#EFEFEF" d="M32.728-2.218c0 .78.983 1.414 2.196 1.414l40.696 4.359c1.213 0 2.197-.635 2.197-1.416v-4.604c0-.782-.984-1.416-2.197-1.416h-40.696c-1.213 0-2.196.634-2.196 1.416v.247z"/><path fill="#eee" d="M32.747-2.224c0 .778.979 1.409 2.188 1.409l40.562 4.331c1.209 0 2.188-.631 2.188-1.41v-4.575c0-.777-.979-1.409-2.188-1.409h-40.562c-1.209 0-2.188.632-2.188 1.409v.245z"/><path fill="#EDEDED" d="M32.767-2.229c0 .775.975 1.404 2.178 1.404l40.43 4.305c1.203 0 2.181-.627 2.181-1.403v-4.547c0-.775-.978-1.403-2.181-1.403h-40.433c-1.202 0-2.176.628-2.176 1.403l.001.241z"/><path fill="#ECECEC" d="M32.786-2.233c0 .772.97 1.397 2.167 1.397l40.296 4.278c1.197 0 2.169-.625 2.169-1.396v-4.521c0-.771-.972-1.396-2.169-1.396h-40.295c-1.197 0-2.167.625-2.167 1.396l-.001.242z"/><path fill="#EBEBEB" d="M32.806-2.238c0 .768.967 1.391 2.158 1.391l40.163 4.253c1.192 0 2.16-.624 2.16-1.393v-4.491c0-.768-.968-1.391-2.16-1.391h-40.163c-1.191 0-2.158.624-2.158 1.391v.24z"/><path fill="#EAEAEA" d="M32.825-2.244c0 .765.962 1.385 2.148 1.385l40.03 4.226c1.188 0 2.148-.619 2.148-1.386v-4.464c0-.765-.963-1.385-2.148-1.385h-40.03c-1.187 0-2.148.62-2.148 1.385v.239z"/><path fill="#E9E9E9" d="M32.845-2.249c0 .761.957 1.379 2.139 1.379l39.896 4.2c1.184 0 2.143-.619 2.143-1.378v-4.438c0-.761-.959-1.379-2.143-1.379h-39.897c-1.183 0-2.139.618-2.139 1.379l.001.237z"/><path fill="#E8E8E8" d="M32.864-2.252c0 .757.953 1.373 2.13 1.373l39.763 4.174c1.178 0 2.133-.615 2.133-1.375v-4.409c0-.757-.955-1.374-2.133-1.374h-39.763c-1.177 0-2.13.616-2.13 1.374v.237z"/><path fill="#E7E7E7" d="M32.884-2.257c0 .754.949 1.367 2.121 1.367l39.629 4.146c1.174 0 2.123-.61 2.123-1.367v-4.381c0-.753-.949-1.367-2.123-1.367h-39.629c-1.172 0-2.121.613-2.121 1.367v.235z"/><path fill="#E6E6E6" d="M32.901-2.264c0 .75.947 1.36 2.113 1.36l39.497 4.122c1.168 0 2.111-.609 2.111-1.362v-4.353c0-.751-.943-1.361-2.111-1.361h-39.496c-1.166 0-2.111.609-2.111 1.361v.232l-.003.001z"/><path fill="#E5E5E5" d="M32.922-2.27c0 .748.94 1.355 2.103 1.355l39.363 4.096c1.162 0 2.104-.607 2.104-1.356v-4.325c0-.748-.941-1.355-2.104-1.355h-39.364c-1.162 0-2.104.607-2.104 1.355l.002.23z"/><path fill="#E4E4E4" d="M32.94-2.273c0 .745.938 1.349 2.094 1.349l39.23 4.07c1.154 0 2.094-.604 2.094-1.349v-4.298c0-.745-.938-1.349-2.094-1.349h-39.23c-1.156 0-2.094.604-2.094 1.349v.228z"/><path fill="#E3E3E3" d="M32.961-2.276c0 .741.933 1.342 2.083 1.342l39.098 4.042c1.15 0 2.084-.602 2.084-1.343v-4.27c0-.742-.934-1.344-2.084-1.344h-39.097c-1.151 0-2.083.602-2.083 1.344l-.001.229z"/><path fill="#E2E2E2" d="M32.979-2.284c0 .739.93 1.338 2.074 1.338l38.966 4.016c1.146 0 2.076-.6 2.076-1.338v-4.243c0-.738-.933-1.337-2.076-1.337h-38.963c-1.146 0-2.074.6-2.074 1.337v.227h-.003z"/><path fill="#E1E1E1" d="M33-2.288c0 .734.924 1.331 2.065 1.331l38.831 3.99c1.142 0 2.064-.596 2.064-1.332v-4.213c0-.734-.926-1.331-2.064-1.331h-38.831c-1.142 0-2.065.597-2.065 1.331v.224z"/><path fill="#E0E0E0" d="M33.019-2.292c0 .731.92 1.324 2.057 1.324l38.696 3.965c1.138 0 2.059-.594 2.059-1.326v-4.187c0-.731-.921-1.325-2.059-1.325h-38.697c-1.135 0-2.057.594-2.057 1.325l.001.224z"/><path fill="#DFDFDF" d="M33.039-2.297c0 .728.916 1.318 2.046 1.318l38.564 3.937c1.131 0 2.047-.59 2.047-1.316v-4.159c0-.728-.916-1.318-2.047-1.318h-38.564c-1.13 0-2.046.591-2.046 1.318v.22z"/><path fill="#DEDEDE" d="M33.058-2.303c0 .725.912 1.312 2.037 1.312l38.431 3.91c1.125 0 2.037-.586 2.037-1.312v-4.132c0-.725-.912-1.312-2.037-1.312h-38.431c-1.125 0-2.037.588-2.037 1.312v.222z"/><path fill="#ddd" d="M33.077-2.309c0 .721.908 1.307 2.027 1.307l38.297 3.886c1.121 0 2.029-.586 2.029-1.308v-4.104c0-.721-.908-1.307-2.029-1.307h-38.297c-1.119 0-2.027.584-2.027 1.307v.219z"/><path fill="#DCDCDC" d="M33.097-2.312c0 .718.904 1.301 2.02 1.301l38.163 3.858c1.115 0 2.021-.583 2.021-1.302v-4.076c0-.718-.901-1.301-2.021-1.301h-38.165c-1.115 0-2.019.583-2.019 1.301l.001.219z"/><path fill="#DBDBDB" d="M33.117-2.316c0 .714.899 1.295 2.009 1.295l38.029 3.833c1.111 0 2.012-.58 2.012-1.296v-4.048c0-.714-.9-1.295-2.012-1.295h-38.029c-1.109 0-2.009.581-2.009 1.295v.216z"/><path fill="#DADADA" d="M33.136-2.322c0 .711.895 1.289 2 1.289l37.897 3.806c1.104 0 2.001-.577 2.001-1.29v-4.021c0-.711-.896-1.288-2.001-1.288h-37.897c-1.105 0-2 .577-2 1.288v.216z"/><path fill="#D9D9D9" d="M33.155-2.328c0 .708.891 1.283 1.99 1.283l37.765 3.78c1.101 0 1.991-.575 1.991-1.283v-3.992c0-.709-.895-1.284-1.991-1.284h-37.765c-1.101 0-1.99.575-1.99 1.284v.212z"/><path fill="#D8D8D8" d="M33.175-2.333c0 .705.887 1.276 1.98 1.276l37.632 3.755c1.095 0 1.981-.572 1.981-1.278v-3.965c0-.705-.89-1.277-1.981-1.277h-37.632c-1.094 0-1.98.572-1.98 1.277v.212z"/><path fill="#D7D7D7" d="M33.194-2.336c0 .702.883 1.27 1.972 1.27l37.498 3.729c1.09 0 1.974-.571 1.974-1.271v-3.938c0-.701-.884-1.27-1.974-1.27h-37.498c-1.089 0-1.972.569-1.972 1.27v.21z"/><path fill="#D6D6D6" d="M33.213-2.343c0 .699.878 1.265 1.963 1.265l37.364 3.701c1.085 0 1.965-.564 1.965-1.266v-3.91c0-.699-.88-1.265-1.965-1.265h-37.364c-1.084 0-1.963.566-1.963 1.265v.21z"/><path fill="#D5D5D5" d="M33.233-2.348c0 .695.875 1.258 1.953 1.258l37.23 3.675c1.08 0 1.955-.563 1.955-1.258v-3.882c0-.695-.875-1.26-1.955-1.26h-37.23c-1.08 0-1.953.563-1.953 1.26v.207z"/><path fill="#D4D4D4" d="M33.252-2.353c0 .691.87 1.252 1.944 1.252l37.098 3.647c1.074 0 1.945-.562 1.945-1.252v-3.853c0-.691-.871-1.252-1.945-1.252h-37.098c-1.074 0-1.944.561-1.944 1.252v.206z"/><path fill="#D3D3D3" d="M33.272-2.356c0 .688.865 1.247 1.934 1.247l36.965 3.622c1.069 0 1.936-.558 1.936-1.247v-3.826c0-.688-.863-1.247-1.936-1.247h-36.964c-1.067 0-1.935.558-1.935 1.247v.204z"/><path fill="#D2D2D2" d="M33.291-2.361c0 .685.862 1.241 1.925 1.241l36.832 3.596c1.064 0 1.928-.556 1.928-1.241v-3.799c0-.684-.863-1.24-1.928-1.24h-36.832c-1.062 0-1.925.556-1.925 1.24v.203z"/><path fill="#D1D1D1" d="M33.312-2.368c0 .682.856 1.235 1.916 1.235l36.698 3.569c1.06 0 1.917-.553 1.917-1.234v-3.771c0-.682-.857-1.234-1.917-1.234h-36.7c-1.058 0-1.916.553-1.916 1.234v.202l.002-.001z"/><path fill="#D0D0D0" d="M33.33-2.372c0 .677.854 1.228 1.905 1.228l36.566 3.542c1.056 0 1.908-.549 1.908-1.228v-3.744c0-.678-.854-1.229-1.908-1.229h-36.566c-1.053 0-1.905.55-1.905 1.229v.202z"/><path fill="#CFCFCF" d="M33.351-2.376c0 .674.85 1.223 1.896 1.223l36.432 3.517c1.049 0 1.898-.547 1.898-1.223v-3.715c0-.676-.85-1.224-1.898-1.224h-36.432c-1.048 0-1.896.547-1.896 1.224v.198z"/><path fill="#CECECE" d="M33.369-2.382c0 .672.845 1.218 1.888 1.218l36.299 3.491c1.043 0 1.889-.545 1.889-1.218v-3.687c0-.672-.846-1.218-1.889-1.218h-36.299c-1.043 0-1.888.545-1.888 1.218v.196z"/><path fill="#CDCDCD" d="M33.39-2.388c0 .667.84 1.211 1.877 1.211l36.166 3.466c1.037 0 1.879-.542 1.879-1.211v-3.66c0-.668-.842-1.21-1.879-1.21h-36.166c-1.037 0-1.877.542-1.877 1.21v.194z"/><path fill="#ccc" d="M33.408-2.393c0 .665.837 1.204 1.87 1.204l36.032 3.44c1.032 0 1.871-.542 1.871-1.208v-3.633c0-.666-.839-1.205-1.871-1.205h-36.034c-1.032 0-1.869.539-1.869 1.205l.001.197z"/><path fill="#CBCBCB" d="M33.429-2.396c0 .662.832 1.198 1.858 1.198l35.899 3.412c1.025 0 1.858-.537 1.858-1.199v-3.604c0-.662-.833-1.198-1.858-1.198h-35.899c-1.026 0-1.858.536-1.858 1.198v.193z"/><path fill="#CACACA" d="M33.446-2.4c0 .658.828 1.191 1.851 1.191l35.765 3.386c1.023 0 1.854-.534 1.854-1.193v-3.577c0-.658-.829-1.191-1.854-1.191h-35.765c-1.022 0-1.851.534-1.851 1.191v.193z"/><path fill="#C9C9C9" d="M33.466-2.406c0 .655.824 1.187 1.842 1.187l35.63 3.361c1.02 0 1.845-.532 1.845-1.188v-3.55c0-.655-.825-1.187-1.845-1.187h-35.63c-1.018 0-1.842.531-1.842 1.187v.19z"/><path fill="#C8C8C8" d="M33.485-2.412c0 .653.82 1.181 1.832 1.181l35.499 3.334c1.014 0 1.834-.529 1.834-1.182v-3.521c0-.653-.82-1.181-1.834-1.181h-35.499c-1.012 0-1.832.528-1.832 1.181v.188z"/><path fill="#C7C7C7" d="M33.505-2.417c0 .648.814 1.174 1.822 1.174l35.365 3.308c1.009 0 1.824-.526 1.824-1.175v-3.494c0-.649-.815-1.176-1.824-1.176h-35.364c-1.007 0-1.822.527-1.822 1.176l-.001.187z"/><path fill="#C6C6C6" d="M33.524-2.421c0 .646.812 1.169 1.812 1.169l35.231 3.282c1.004 0 1.813-.524 1.813-1.17v-3.466c0-.645-.812-1.168-1.813-1.168h-35.23c-1.001 0-1.812.524-1.812 1.168l-.001.185z"/><path fill="#C5C5C5" d="M33.544-2.428c0 .642.809 1.162 1.803 1.162l35.099 3.257c.998 0 1.807-.521 1.807-1.165v-3.438c0-.642-.809-1.163-1.807-1.163h-35.099c-.996 0-1.803.521-1.803 1.163v.184z"/><path fill="#C4C4C4" d="M33.563-2.432c0 .638.803 1.157 1.795 1.157l34.965 3.228c.992 0 1.797-.517 1.797-1.157v-3.41c0-.639-.805-1.157-1.797-1.157h-34.965c-.992 0-1.795.518-1.795 1.157v.182z"/><path fill="#C3C3C3" d="M33.583-2.436c0 .635.799 1.15 1.785 1.15l34.832 3.203c.986 0 1.787-.515 1.787-1.15v-3.384c0-.635-.801-1.15-1.787-1.15h-34.832c-.986 0-1.785.515-1.785 1.15v.181z"/><path fill="#C2C2C2" d="M33.603-2.44c0 .63.795 1.145 1.775 1.145l34.699 3.177c.982 0 1.777-.513 1.777-1.146v-3.354c0-.632-.795-1.146-1.777-1.146h-34.699c-.98 0-1.775.512-1.775 1.146v.178z"/><path fill="#C1C1C1" d="M33.622-2.446c0 .628.791 1.139 1.766 1.139l34.566 3.151c.977 0 1.768-.511 1.768-1.14v-3.327c0-.629-.791-1.14-1.768-1.14h-34.566c-.976 0-1.766.509-1.766 1.14v.177z"/><path fill="#C0C0C0" d="M33.642-2.452c0 .625.787 1.133 1.758 1.133l34.433 3.123c.973 0 1.759-.507 1.759-1.133v-3.299c0-.625-.786-1.133-1.759-1.133h-34.436c-.971 0-1.758.507-1.758 1.133v.177l.003-.001z"/><path fill="#BFBFBF" d="M33.661-2.457c0 .623.781 1.127 1.747 1.127l34.3 3.097c.967 0 1.75-.504 1.75-1.127v-3.272c0-.623-.783-1.127-1.75-1.127h-34.3c-.966 0-1.747.504-1.747 1.127v.175z"/><path fill="#BEBEBE" d="M33.681-2.46c0 .618.777 1.12 1.738 1.12l34.167 3.072c.961 0 1.74-.502 1.74-1.121v-3.244c0-.62-.779-1.12-1.74-1.12h-34.168c-.96 0-1.739.501-1.739 1.12v.173h.002z"/><path fill="#BDBDBD" d="M33.699-2.466c0 .616.772 1.114 1.729 1.114l34.032 3.043c.957 0 1.73-.5 1.73-1.114v-3.217c0-.616-.773-1.114-1.73-1.114h-34.031c-.957 0-1.729.499-1.729 1.114l-.001.174z"/><path fill="#BCBCBC" d="M33.72-2.472c0 .612.77 1.107 1.719 1.107l33.9 3.02c.951 0 1.721-.498 1.721-1.109v-3.188c0-.613-.77-1.109-1.721-1.109h-33.9c-.949 0-1.719.497-1.719 1.109v.17z"/><path fill="#bbb" d="M33.737-2.476c0 .609.767 1.103 1.712 1.103l33.767 2.993c.945 0 1.713-.495 1.713-1.104v-3.161c0-.609-.768-1.103-1.713-1.103h-33.767c-.945 0-1.712.494-1.712 1.103v.169z"/><path fill="#BABABA" d="M33.758-2.479c0 .605.761 1.096 1.701 1.096l33.634 2.966c.94 0 1.702-.491 1.702-1.097v-3.134c0-.605-.762-1.097-1.702-1.097h-33.634c-.94 0-1.701.492-1.701 1.097v.169z"/><path fill="#B9B9B9" d="M33.776-2.485c0 .602.758 1.091 1.693 1.091l33.5 2.939c.936 0 1.69-.488 1.69-1.091v-3.105c0-.602-.761-1.09-1.69-1.09h-33.5c-.936 0-1.693.488-1.693 1.09v.166z"/><path fill="#B8B8B8" d="M33.796-2.49c0 .598.753 1.084 1.684 1.084l33.365 2.914c.932 0 1.688-.486 1.688-1.084v-3.078c0-.599-.756-1.084-1.688-1.084h-33.366c-.931 0-1.684.486-1.684 1.084l.001.164z"/><path fill="#B7B7B7" d="M33.815-2.496c0 .595.75 1.079 1.674 1.079l33.235 2.888c.926 0 1.674-.483 1.674-1.079v-3.05c0-.595-.748-1.078-1.674-1.078h-33.235c-.924 0-1.674.483-1.674 1.078v.162z"/><path fill="#B6B6B6" d="M33.835-2.5c0 .591.745 1.072 1.664 1.072l33.102 2.86c.92 0 1.664-.48 1.664-1.072v-3.023c0-.592-.744-1.072-1.664-1.072h-33.102c-.919 0-1.664.48-1.664 1.072v.163z"/><path fill="#B5B5B5" d="M33.854-2.505c0 .587.74 1.066 1.653 1.066l32.969 2.836c.916 0 1.654-.478 1.654-1.067v-2.995c0-.589-.738-1.067-1.654-1.067h-32.967c-.914 0-1.654.478-1.654 1.067l-.001.16z"/><path fill="#B4B4B4" d="M33.874-2.512c0 .585.736 1.062 1.646 1.062l32.834 2.809c.909 0 1.646-.476 1.646-1.061v-2.967c0-.585-.737-1.06-1.646-1.06h-32.833c-.91 0-1.646.474-1.646 1.06l-.001.157z"/><path fill="#B3B3B3" d="M33.894-2.515c0 .582.732 1.053 1.635 1.053l32.701 2.783c.906 0 1.641-.472 1.641-1.055v-2.94c0-.582-.73-1.054-1.641-1.054h-32.702c-.902 0-1.635.472-1.635 1.054l.001.159z"/><path fill="#B2B2B2" d="M33.913-2.52c0 .579.729 1.048 1.627 1.048l32.566 2.757c.897 0 1.629-.47 1.629-1.049v-2.912c0-.579-.729-1.048-1.629-1.048h-32.566c-.898 0-1.627.469-1.627 1.048v.156z"/><path fill="#B1B1B1" d="M33.933-2.525c0 .577.725 1.043 1.617 1.043l32.434 2.73c.895 0 1.619-.467 1.619-1.043v-2.883c0-.576-.728-1.043-1.619-1.043h-32.434c-.895 0-1.617.467-1.617 1.043v.153z"/><path fill="#B0B0B0" d="M33.952-2.53c0 .572.72 1.036 1.607 1.036l32.301 2.703c.89 0 1.609-.464 1.609-1.037v-2.855c0-.572-.723-1.037-1.609-1.037h-32.3c-.888 0-1.607.465-1.607 1.037l-.001.153z"/><path fill="#AFAFAF" d="M33.972-2.536c0 .568.717 1.03 1.6 1.03l32.166 2.679c.886 0 1.602-.462 1.602-1.03v-2.83c0-.568-.716-1.03-1.602-1.03h-32.169c-.883 0-1.598.462-1.598 1.03l.001.151z"/><path fill="#AFAEAE" d="M33.991-2.541c0 .564.711 1.025 1.589 1.025l32.034 2.651c.879 0 1.591-.459 1.591-1.026v-2.8c0-.565-.712-1.024-1.591-1.024h-32.034c-.878 0-1.589.458-1.589 1.024v.15z"/><path fill="#AEADAD" d="M34.011-2.544c0 .56.706 1.018 1.579 1.018l31.901 2.625c.873 0 1.58-.456 1.58-1.019v-2.773c0-.562-.707-1.018-1.58-1.018h-31.901c-.873 0-1.579.457-1.579 1.018v.149z"/><path fill="#ADACAC" d="M34.028-2.55c0 .559.703 1.012 1.572 1.012l31.768 2.599c.869 0 1.572-.455 1.572-1.012v-2.746c0-.559-.703-1.013-1.572-1.013h-31.767c-.867 0-1.57.454-1.57 1.013v.146h-.003v.001z"/><path fill="#ACABAB" d="M34.05-2.555c0 .555.698 1.006 1.561 1.006l31.635 2.572c.862 0 1.562-.452 1.562-1.007v-2.717c0-.556-.699-1.007-1.562-1.007h-31.636c-.862 0-1.562.451-1.562 1.007l.002.146z"/><path fill="#ABAAAA" d="M34.067-2.56c0 .551.695 1 1.553 1l31.502 2.546c.857 0 1.553-.448 1.553-1v-2.69c0-.553-.695-1-1.553-1h-31.502c-.857 0-1.553.447-1.553 1v.144z"/><path fill="#AAA9A9" d="M34.088-2.565c0 .549.69.995 1.543.995l31.367 2.52c.854 0 1.544-.446 1.544-.995v-2.663c0-.548-.689-.994-1.544-.994h-31.367c-.853 0-1.543.445-1.543.994v.143z"/><path fill="#A9A8A8" d="M34.106-2.569c0 .545.687.987 1.533.987l31.234 2.494c.851 0 1.535-.441 1.535-.987v-2.635c0-.545-.688-.988-1.535-.988h-31.231c-.848 0-1.533.442-1.533.988v.141h-.003z"/><path fill="#A8A7A7" d="M34.127-2.573c0 .542.683.982 1.524.982l31.101 2.469c.845 0 1.526-.441 1.526-.984v-2.606c0-.543-.684-.983-1.526-.983h-31.101c-.842 0-1.524.439-1.524.983v.139z"/><path fill="#A7A6A6" d="M34.145-2.58c0 .54.679.976 1.516.976l30.968 2.442c.839 0 1.517-.438 1.517-.978v-2.579c0-.54-.678-.977-1.517-.977h-30.968c-.837 0-1.516.438-1.516.977v.139z"/><path fill="#A6A5A5" d="M34.166-2.583c0 .535.673.969 1.505.969l30.835 2.414c.833 0 1.507-.435 1.507-.97v-2.552c0-.536-.674-.97-1.507-.97h-30.835c-.832 0-1.505.435-1.505.97v.139z"/><path fill="#A5A4A4" d="M34.185-2.59c0 .533.67.965 1.496.965l30.702 2.389c.827 0 1.497-.432 1.497-.965v-2.522c0-.533-.67-.964-1.497-.964h-30.702c-.826 0-1.496.432-1.496.964v.133z"/><path fill="#A4A3A3" d="M34.204-2.596c0 .529.666.958 1.486.958l30.568 2.363c.822 0 1.488-.43 1.488-.959v-2.496c0-.529-.666-.958-1.488-.958h-30.568c-.82 0-1.486.429-1.486.958v.134z"/><path fill="#A3A2A2" d="M34.224-2.599c0 .524.662.951 1.478.951l30.436 2.337c.817 0 1.479-.426 1.479-.952v-2.469c0-.526-.661-.952-1.479-.952h-30.437c-.815 0-1.478.426-1.478.952l.001.133z"/><path fill="#A2A1A1" d="M34.243-2.604c0 .521.656.946 1.469.946l30.303 2.311c.812 0 1.469-.424 1.469-.946v-2.44c0-.522-.655-.946-1.469-.946h-30.303c-.812 0-1.469.423-1.469.946v.129z"/><path fill="#A1A0A0" d="M34.263-2.609c0 .52.653.942 1.459.942l30.168 2.281c.81 0 1.461-.421 1.461-.941v-2.412c0-.519-.651-.941-1.461-.941h-30.168c-.806 0-1.459.422-1.459.941v.13z"/><path fill="#A09F9F" d="M34.282-2.614c0 .515.648.934 1.449.934l30.036 2.258c.803 0 1.449-.419 1.449-.935v-2.385c0-.517-.646-.935-1.449-.935h-30.036c-.801 0-1.449.418-1.449.935v.128z"/><path fill="#9F9E9E" d="M34.302-2.62c0 .511.645.928 1.439.928l29.902 2.232c.797 0 1.438-.416 1.438-.928v-2.356c0-.514-.646-.929-1.438-.929h-29.902c-.795 0-1.439.415-1.439.929v.124z"/><path fill="#9E9D9D" d="M34.321-2.625c0 .507.64.922 1.431.922l29.769 2.205c.793 0 1.435-.414 1.435-.922v-2.33c0-.509-.642-.921-1.435-.921h-29.769c-.791 0-1.431.412-1.431.921v.125z"/><path fill="#9D9C9C" d="M34.34-2.628c0 .504.636.916 1.423.916l29.634 2.179c.785 0 1.422-.412 1.422-.916v-2.302c0-.506-.637-.916-1.422-.916h-29.634c-.787 0-1.423.41-1.423.916v.123z"/><path fill="#9C9B9B" d="M34.36-2.635c0 .502.631.911 1.412.911l29.502 2.152c.781 0 1.414-.408 1.414-.91v-2.275c0-.502-.633-.91-1.414-.91h-29.502c-.78 0-1.412.408-1.412.91v.122z"/><path fill="#9B9A9A" d="M34.379-2.639c0 .499.627.905 1.403.905l29.369 2.126c.773 0 1.404-.406 1.404-.905v-2.246c0-.5-.631-.905-1.404-.905h-29.369c-.775 0-1.403.405-1.403.905v.12z"/><path fill="#9A9999" d="M34.397-2.644c0 .496.625.897 1.395.897l29.236 2.101c.771 0 1.395-.403 1.395-.898v-2.219c0-.496-.624-.898-1.395-.898h-29.236c-.77 0-1.395.402-1.395.898v.119z"/><path fill="#999898" d="M34.418-2.648c0 .492.619.893 1.384.893l29.103 2.074c.767 0 1.386-.4 1.386-.893v-2.192c0-.492-.619-.892-1.386-.892h-29.101c-.766 0-1.385.4-1.385.892l-.001.118z"/><path fill="#989797" d="M34.437-2.653c0 .489.615.886 1.375.886l28.971 2.047c.76 0 1.376-.398 1.376-.886v-2.163c0-.489-.616-.886-1.376-.886h-28.971c-.76 0-1.375.397-1.375.886v.116z"/><path fill="#979696" d="M34.457-2.659c0 .485.61.88 1.364.88l28.838 2.021c.755 0 1.365-.395 1.365-.881v-2.135c0-.485-.61-.88-1.365-.88h-28.838c-.754 0-1.364.395-1.364.88v.115z"/><path fill="#969595" d="M34.478-2.664c0 .481.605.874 1.355.874l28.702 1.996c.751 0 1.358-.392 1.358-.874v-2.109c0-.482-.607-.874-1.358-.874h-28.702c-.75 0-1.355.392-1.355.874v.113z"/><path fill="#959494" d="M34.496-2.668c0 .479.603.867 1.347.867l28.569 1.969c.745 0 1.349-.388 1.349-.868v-2.079c0-.479-.604-.868-1.349-.868h-28.569c-.744 0-1.347.389-1.347.868v.111z"/><path fill="#949393" d="M34.517-2.673c0 .475.598.862 1.336.862l28.437 1.941c.738 0 1.339-.386 1.339-.863v-2.052c0-.476-.601-.862-1.339-.862h-28.437c-.74 0-1.336.386-1.336.862v.112z"/><path fill="#939292" d="M34.535-2.679c0 .472.594.856 1.327.856l28.304 1.917c.735 0 1.329-.383 1.329-.857v-2.024c0-.473-.594-.857-1.329-.857h-28.304c-.733 0-1.327.384-1.327.857v.108z"/><path fill="#929191" d="M34.556-2.683c0 .468.588.85 1.317.85l28.17 1.89c.729 0 1.319-.382 1.319-.851v-1.997c0-.468-.59-.85-1.319-.85h-28.17c-.729 0-1.317.382-1.317.85v.108z"/><path fill="#919090" d="M34.574-2.688c0 .465.585.844 1.31.844l28.037 1.864c.725 0 1.311-.378 1.311-.844v-1.969c0-.465-.586-.845-1.311-.845h-28.038c-.724 0-1.31.379-1.31.845l.001.105z"/><path fill="#908F8F" d="M34.593-2.692c0 .462.582.837 1.301.837l27.903 1.838c.72 0 1.302-.377 1.302-.839v-1.94c0-.463-.582-.839-1.302-.839h-27.903c-.719 0-1.301.375-1.301.839v.104z"/><path fill="#8F8E8E" d="M34.612-2.698c0 .46.578.832 1.291.832l27.77 1.811c.715 0 1.293-.374 1.293-.832v-1.913c0-.46-.578-.832-1.293-.832h-27.77c-.713 0-1.291.373-1.291.832v.102z"/><path fill="#8E8E8D" d="M34.632-2.704c0 .456.573.825 1.281.825l27.637 1.785c.711 0 1.283-.37 1.283-.826v-1.885c0-.456-.572-.825-1.283-.825h-27.637c-.708 0-1.281.37-1.281.825v.101z"/><path fill="#8D8D8C" d="M34.651-2.708c0 .452.568.819 1.271.819l27.503 1.759c.705 0 1.274-.368 1.274-.82v-1.858c0-.453-.569-.821-1.274-.821h-27.501c-.702 0-1.272.368-1.272.821l-.001.1z"/><path fill="#8C8C8B" d="M34.671-2.712c0 .449.564.814 1.264.814l27.369 1.732c.699 0 1.266-.364 1.266-.814v-1.831c0-.449-.563-.814-1.266-.814h-27.369c-.699 0-1.264.365-1.264.814v.099z"/><path fill="#8B8B8A" d="M34.69-2.718c0 .445.561.808 1.252.808l27.239 1.707c.692 0 1.254-.362 1.254-.808v-1.803c0-.445-.562-.808-1.254-.808h-27.237c-.693 0-1.254.363-1.254.808v.096z"/><path fill="#8A8A89" d="M34.71-2.723c0 .443.557.802 1.244.802l27.104 1.68c.689 0 1.246-.359 1.246-.802v-1.774c0-.443-.557-.802-1.246-.802h-27.104c-.688 0-1.244.359-1.244.802v.094z"/><path fill="#898988" d="M34.729-2.728c0 .439.551.795 1.234.795l26.972 1.654c.686 0 1.235-.357 1.235-.795v-1.748c0-.439-.553-.796-1.235-.796h-26.971c-.684 0-1.234.357-1.234.796l-.001.094z"/><path fill="#888887" d="M34.749-2.732c0 .435.548.789 1.225.789l26.837 1.628c.679 0 1.228-.354 1.228-.789v-1.718c0-.438-.549-.791-1.228-.791h-26.837c-.677 0-1.225.354-1.225.791v.09z"/><path fill="#878786" d="M34.769-2.737c0 .431.543.784 1.215.784l26.705 1.601c.672 0 1.219-.352 1.219-.784v-1.691c0-.433-.547-.785-1.219-.785h-26.706c-.672 0-1.215.352-1.215.785l.001.09z"/><path fill="#868685" d="M34.787-2.743c0 .428.54.778 1.207.778l26.571 1.576c.668 0 1.207-.349 1.207-.779v-1.664c0-.429-.539-.778-1.207-.778h-26.571c-.667 0-1.207.349-1.207.778v.089z"/><path fill="#858584" d="M34.808-2.748c0 .425.535.772 1.197.772l26.438 1.549c.662 0 1.199-.346 1.199-.771v-1.636c0-.425-.537-.772-1.199-.772h-26.438c-.662 0-1.197.346-1.197.772v.086z"/><path fill="#848483" d="M34.826-2.752c0 .422.53.765 1.188.765l26.303 1.522c.658 0 1.188-.343 1.188-.766v-1.607c0-.423-.53-.766-1.188-.766h-26.302c-.656 0-1.188.342-1.188.766l-.001.086z"/><path fill="#838382" d="M34.847-2.757c0 .419.526.76 1.178.76l26.171 1.496c.652 0 1.181-.34 1.181-.76v-1.58c0-.42-.526-.761-1.181-.761h-26.172c-.651 0-1.178.341-1.178.761l.001.084z"/><path fill="#828281" d="M34.865-2.762c0 .416.522.753 1.169.753l26.037 1.47c.648 0 1.172-.339 1.172-.754v-1.551c0-.417-.523-.755-1.172-.755h-26.036c-.646 0-1.169.338-1.169.755l-.001.082z"/><path fill="#818180" d="M34.886-2.768c0 .412.518.748 1.159.748l25.904 1.443c.643 0 1.161-.336 1.161-.747v-1.525c0-.412-.521-.748-1.161-.748h-25.904c-.642 0-1.159.335-1.159.748v.081z"/><path fill="#80807F" d="M34.903-2.772c0 .41.515.742 1.152.742l25.771 1.418c.638 0 1.151-.333 1.151-.743v-1.497c0-.41-.517-.743-1.151-.743h-25.77c-.638 0-1.152.333-1.152.743l-.001.08z"/><path fill="#7F7F7E" d="M34.923-2.776c0 .405.512.735 1.143.735l25.637 1.391c.632 0 1.144-.331 1.144-.735v-1.47c0-.406-.512-.736-1.144-.736h-25.638c-.631 0-1.143.331-1.143.736l.001.079z"/><path fill="#7E7E7D" d="M34.942-2.783c0 .402.507.73 1.133.73l25.505 1.365c.626 0 1.134-.329 1.134-.73v-1.442c0-.402-.508-.729-1.134-.729h-25.505c-.626 0-1.133.328-1.133.729v.077z"/><path fill="#7D7D7C" d="M34.962-2.788c0 .399.502.724 1.123.724l25.371 1.338c.622 0 1.125-.325 1.125-.723v-1.415c0-.4-.503-.725-1.125-.725h-25.371c-.62 0-1.123.325-1.123.725v.076z"/><path fill="#7C7C7B" d="M34.981-2.792c0 .396.498.717 1.113.717l25.239 1.314c.617 0 1.115-.322 1.115-.718v-1.387c0-.396-.498-.718-1.115-.718h-25.236c-.617 0-1.115.322-1.115.718l-.001.074z"/><path fill="#7B7B7A" d="M35.001-2.797c0 .392.494.711 1.104.711l25.105 1.288c.611 0 1.105-.319 1.105-.711v-1.357c0-.394-.494-.713-1.105-.713h-25.106c-.609-.001-1.104.319-1.104.712l.001.07z"/><path fill="#7A7A79" d="M35.021-2.8c0 .387.49.705 1.096.705l24.971 1.26c.604 0 1.099-.316 1.099-.705v-1.331c0-.389-.49-.706-1.099-.706h-24.972c-.605 0-1.096.316-1.096.706l.001.071z"/><path fill="#797978" d="M35.04-2.808c0 .385.484.701 1.086.701l24.838 1.233c.602 0 1.088-.314 1.088-.701v-1.304c0-.385-.486-.701-1.088-.701h-24.838c-.602 0-1.086.314-1.086.701v.071z"/><path fill="#787877" d="M35.06-2.812c0 .383.481.694 1.076.694l24.705 1.208c.596 0 1.078-.312 1.078-.694v-1.275c0-.383-.482-.694-1.078-.694h-24.705c-.595 0-1.076.312-1.076.694v.067z"/><path fill="#777776" d="M35.079-2.816c0 .379.477.687 1.066.687l24.572 1.182c.593 0 1.068-.308 1.068-.688v-1.248c0-.38-.479-.688-1.068-.688h-24.572c-.59 0-1.066.308-1.066.688v.067z"/><path fill="#767675" d="M35.099-2.821c0 .376.473.681 1.057.681l24.439 1.155c.586 0 1.059-.305 1.059-.682v-1.22c0-.375-.473-.682-1.059-.682h-24.44c-.584 0-1.057.305-1.057.682l.001.066z"/><path fill="#757574" d="M35.118-2.827c0 .373.469.675 1.048.675l24.306 1.129c.58 0 1.049-.303 1.049-.675v-1.193c0-.372-.469-.675-1.049-.675h-24.306c-.58 0-1.048.304-1.048.675v.064z"/><path fill="#747473" d="M35.138-2.833c0 .37.463.67 1.039.67l24.172 1.103c.574 0 1.041-.301 1.041-.669v-1.165c0-.37-.467-.67-1.041-.67h-24.172c-.574 0-1.039.301-1.039.67v.061z"/><path fill="#737372" d="M35.157-2.836c0 .365.46.664 1.029.664l24.04 1.076c.569 0 1.03-.298 1.03-.665v-1.137c0-.366-.461-.664-1.03-.664h-24.039c-.569 0-1.029.298-1.029.664l-.001.062z"/><path fill="#727271" d="M35.176-2.841c0 .363.457.658 1.021.658l23.906 1.05c.564 0 1.021-.296 1.021-.659v-1.109c0-.362-.457-.657-1.021-.657h-23.907c-.563 0-1.021.295-1.021.657l.001.06z"/><path fill="#717170" d="M35.194-2.847c0 .359.453.651 1.012.651l23.771 1.024c.562 0 1.014-.293 1.014-.651v-1.082c0-.36-.452-.652-1.014-.652h-23.77c-.56 0-1.011.292-1.011.652v.057l-.002.001z"/><path fill="#70706F" d="M35.215-2.852c0 .355.448.646 1.002.646l23.64.998c.557 0 1.002-.29 1.002-.646v-1.054c0-.357-.445-.646-1.002-.646h-23.64c-.554 0-1.002.289-1.002.646v.056z"/><path fill="#6F6F6E" d="M35.233-2.855c0 .352.445.639.992.639l23.506.971c.551 0 .994-.287.994-.639v-1.026c0-.354-.443-.641-.994-.641h-23.503c-.549 0-.992.287-.992.641v.055h-.003z"/><path fill="#6E6E6D" d="M35.253-2.861c0 .349.439.634.982.634l23.374.945c.545 0 .983-.284.983-.633v-.999c0-.35-.438-.634-.983-.634h-23.372c-.543 0-.983.284-.983.634l-.001.053z"/><path fill="#6D6D6C" d="M35.272-2.867c0 .346.436.627.975.627l23.238.92c.539 0 .976-.282.976-.628v-.97c0-.346-.437-.627-.976-.627h-23.238c-.539 0-.975.281-.975.627v.051z"/><path fill="#6C6C6B" d="M35.292-2.872c0 .342.432.623.964.623l23.104.893c.535 0 .967-.279.967-.621v-.943c0-.343-.432-.623-.967-.623h-23.103c-.533 0-.964.279-.964.623l-.001.048z"/><path fill="#6B6B6A" d="M35.312-2.876c0 .339.428.616.957.616l22.973.866c.528 0 .954-.276.954-.617v-.914c0-.34-.426-.617-.954-.617h-22.973c-.528 0-.957.276-.957.617v.049z"/><path fill="#6A6A69" d="M35.331-2.88c0 .336.423.609.945.609l22.841.84c.522 0 .946-.274.946-.61v-.887c0-.336-.424-.61-.946-.61h-22.841c-.522 0-.945.274-.945.61v.048z"/><path fill="#696968" d="M35.351-2.886c0 .332.418.604.937.604l22.705.812c.52 0 .938-.27.938-.604v-.859c0-.333-.418-.604-.938-.604h-22.706c-.519 0-.937.271-.937.604l.001.047z"/><path fill="#686867" d="M35.37-2.892c0 .33.415.598.928.598l22.572.788c.516 0 .929-.268.929-.597v-.831c0-.33-.413-.599-.929-.599h-22.572c-.513 0-.928.268-.928.599v.042z"/><path fill="#676766" d="M35.39-2.896c0 .326.41.592.918.592l22.439.76c.509 0 .919-.265.919-.591v-.804c0-.327-.41-.591-.919-.591h-22.439c-.508 0-.918.265-.918.591v.043z"/><path fill="#666665" d="M35.409-2.9c0 .322.406.585.908.585l22.307.735c.504 0 .91-.263.91-.586v-.776c0-.324-.406-.585-.91-.585h-22.307c-.502 0-.908.262-.908.585v.042z"/><path fill="#656564" d="M35.429-2.906c0 .319.401.58.899.58l22.173.709c.498 0 .9-.261.9-.58v-.748c0-.32-.402-.58-.9-.58h-22.173c-.498 0-.899.26-.899.58v.039z"/><path fill="#646463" d="M35.448-2.912c0 .316.398.574.89.574l22.04.683c.493 0 .891-.258.891-.575v-.72c0-.317-.396-.575-.891-.575h-22.04c-.491 0-.89.258-.89.575v.038z"/><path fill="#636362" d="M35.468-2.917c0 .312.393.567.881.567l21.906.657c.488 0 .881-.256.881-.568v-.693c0-.313-.393-.568-.881-.568h-21.906c-.488 0-.881.255-.881.568v.037z"/><path fill="#626261" d="M35.487-2.919c0 .309.39.562.871.562l21.773.629c.481 0 .872-.252.872-.562v-.665c0-.309-.391-.562-.872-.562h-21.773c-.481 0-.871.252-.871.562v.036z"/><path fill="#616160" d="M35.506-2.924c0 .304.386.554.862.554l21.641.604c.479 0 .862-.25.862-.555v-.638c0-.306-.386-.556-.862-.556h-21.641c-.477 0-.862.25-.862.556v.035z"/><path fill="#60605F" d="M35.524-2.931c0 .303.381.549.854.549l21.508.578c.471 0 .854-.247.854-.549v-.61c0-.303-.384-.55-.854-.55h-21.508c-.473 0-.854.247-.854.55v.032z"/><path fill="#5F5F5E" d="M35.545-2.936c0 .299.376.543.843.543l21.373.551c.469 0 .846-.245.846-.543v-.582c0-.301-.377-.544-.846-.544h-21.371c-.468 0-.844.244-.844.544l-.001.031z"/><path fill="#5E5E5D" d="M35.563-2.939c0 .296.373.538.834.538l21.241.525c.463 0 .836-.242.836-.538v-.556c0-.296-.373-.537-.836-.537h-21.241c-.461 0-.834.242-.834.537v.031z"/><path fill="#5D5D5C" d="M35.584-2.945c0 .293.369.532.825.532l21.107.499c.457 0 .823-.239.823-.532v-.527c0-.293-.366-.532-.823-.532h-21.107c-.456 0-.825.239-.825.532v.028z"/><path fill="#5C5C5B" d="M35.604-2.951c0 .289.363.526.814.526l20.976.474c.451 0 .814-.237.814-.526v-.5c0-.29-.363-.525-.814-.525h-20.975c-.451 0-.814.236-.814.525l-.001.026z"/><path fill="#5B5B5A" d="M35.623-2.956c0 .286.36.519.806.519l20.842.447c.444 0 .808-.233.808-.521v-.471c0-.286-.36-.52-.808-.52h-20.842c-.445 0-.806.233-.806.52v.026z"/><path fill="#5A5A59" d="M35.642-2.959c0 .282.356.512.797.512l20.708.42c.439 0 .797-.23.797-.512v-.444c0-.283-.354-.515-.797-.515h-20.709c-.44 0-.797.23-.797.515l.001.024z"/><path fill="#595958" d="M35.662-2.963c0 .279.353.506.787.506l20.573.393c.438 0 .789-.227.789-.506v-.417c0-.28-.354-.508-.789-.508h-20.573c-.435 0-.787.229-.787.508v.024z"/><path fill="#585857" d="M35.681-2.971c0 .276.348.501.778.501l20.44.369c.432 0 .779-.226.779-.501v-.388c0-.277-.351-.502-.779-.502h-20.44c-.431 0-.778.226-.778.502v.019z"/><path fill="#575756" d="M35.701-2.976c0 .273.343.496.769.496l20.306.341c.429 0 .771-.221.771-.496v-.36c0-.273-.343-.496-.771-.496h-20.306c-.426 0-.77.222-.77.496l.001.019z"/><path fill="#565655" d="M35.72-2.979c0 .269.34.489.76.489l20.173.315c.421 0 .761-.221.761-.489v-.333c0-.27-.34-.49-.761-.49h-20.174c-.42 0-.76.22-.76.49l.001.018z"/><path fill="#555554" d="M35.74-2.984c0 .267.334.483.75.483l20.04.289c.416 0 .752-.218.752-.484v-.305c0-.267-.336-.484-.752-.484h-20.04c-.416 0-.75.217-.75.484v.017z"/><path fill="#545453" d="M35.759-2.99c0 .263.331.478.741.478l19.908.262c.411 0 .741-.214.741-.478v-.277c0-.263-.33-.478-.741-.478h-19.908c-.41 0-.741.215-.741.478v.015z"/><path fill="#535352" d="M35.778-2.996c0 .26.326.47.73.47l19.775.238c.405 0 .731-.212.731-.471v-.25c0-.26-.326-.472-.731-.472h-19.772c-.406 0-.732.212-.732.472l-.001.013z"/><path fill="#525251" d="M35.798-3c0 .256.323.465.723.465l19.642.209c.398 0 .725-.208.725-.465v-.221c0-.257-.322-.466-.725-.466h-19.642c-.399 0-.723.209-.723.466v.012z"/><path fill="#515150" d="M35.817-3.004c0 .252.318.459.711.459l19.509.184c.396 0 .714-.207.714-.46v-.195c0-.253-.318-.46-.714-.46h-19.507c-.395 0-.713.206-.713.46v.012z"/><path fill="#50504F" d="M35.836-3.01c0 .25.313.454.704.454l19.374.157c.392 0 .705-.204.705-.454v-.166c0-.25-.313-.453-.705-.453h-19.374c-.389 0-.704.203-.704.453v.009z"/><path fill="#4F4F4E" d="M35.856-3.015c0 .247.31.447.692.447l19.242.132c.385 0 .693-.201.693-.447v-.139c0-.247-.312-.448-.693-.448h-19.24c-.384 0-.693.201-.693.448l-.001.007z"/><path fill="#4E4E4D" d="M35.875-3.02c0 .242.306.44.685.44l19.108.105c.379 0 .685-.199.685-.442v-.11c0-.244-.306-.443-.685-.443h-19.106c-.379 0-.686.198-.686.443l-.001.007z"/><path fill="#4D4D4C" d="M35.895-3.023c0 .239.301.435.674.435l18.976.078c.375 0 .677-.195.677-.435v-.083c0-.241-.302-.436-.677-.436h-18.976c-.373 0-.674.195-.674.436v.005z"/><path fill="#4C4C4B" d="M35.914-3.028c0 .236.298.429.667.429l18.841.053c.37 0 .667-.193.667-.43v-.056c0-.236-.297-.429-.667-.429h-18.841c-.369 0-.667.193-.667.429v.004z"/><path fill="#4B4B4A" d="M35.935-3.034c0 .233.291.423.655.423l18.708.027c.364 0 .658-.191.658-.424v-.027c0-.234-.294-.423-.658-.423h-18.708c-.364 0-.655.189-.655.424z"/><path fill="#262626" d="M35.953-3.04c0 .229.289.417.647.417h18.574c.359 0 .647-.188.647-.417 0-.23-.288-.417-.647-.417h-18.573c-.359-.001-.648.187-.648.417z"/></g></g></svg>