<?xml version="1.0" encoding="UTF-8" standalone="no"?>
<!-- Created with Inkscape (http://www.inkscape.org/) -->

<svg
   xmlns:dc="http://purl.org/dc/elements/1.1/"
   xmlns:cc="http://creativecommons.org/ns#"
   xmlns:rdf="http://www.w3.org/1999/02/22-rdf-syntax-ns#"
   xmlns:svg="http://www.w3.org/2000/svg"
   xmlns="http://www.w3.org/2000/svg"
   xmlns:sodipodi="http://sodipodi.sourceforge.net/DTD/sodipodi-0.dtd"
   xmlns:inkscape="http://www.inkscape.org/namespaces/inkscape"
   id="svg2"
   version="1.1"
   inkscape:version="0.48.4 r9939"
   width="711.45625"
   height="657.1225"
   xml:space="preserve"
   sodipodi:docname="BMM Icons Lieder grün.ai"><metadata
     id="metadata8"><rdf:RDF><cc:Work
         rdf:about=""><dc:format>image/svg+xml</dc:format><dc:type
           rdf:resource="http://purl.org/dc/dcmitype/StillImage" /><dc:title></dc:title></cc:Work></rdf:RDF></metadata><defs
     id="defs6"><clipPath
       clipPathUnits="userSpaceOnUse"
       id="clipPath16"><path
         d="m 0,525.698 569.165,0 L 569.165,0 0,0 0,525.698 z"
         id="path18" /></clipPath></defs><sodipodi:namedview
     pagecolor="#ffffff"
     bordercolor="#666666"
     borderopacity="1"
     objecttolerance="10"
     gridtolerance="10"
     guidetolerance="10"
     inkscape:pageopacity="0"
     inkscape:pageshadow="2"
     inkscape:window-width="640"
     inkscape:window-height="480"
     id="namedview4"
     showgrid="false"
     inkscape:zoom="0.35914156"
     inkscape:cx="355.72812"
     inkscape:cy="328.56125"
     inkscape:window-x="0"
     inkscape:window-y="420"
     inkscape:window-maximized="0"
     inkscape:current-layer="g10" /><g
     id="g10"
     inkscape:groupmode="layer"
     inkscape:label="BMM Icons Lieder grün"
     transform="matrix(1.25,0,0,-1.25,0,657.1225)"><g
       id="g12"><g
         id="g14"
         clip-path="url(#clipPath16)"><g
           id="g20"
           transform="translate(284.584,473.0566)"><path
             d="m 0,0 c 131.916,0 238.856,-123.118 238.857,-274.995 l 45.724,0 C 284.58,-94.046 157.168,52.642 0,52.642 c -157.171,0 -284.584,-146.688 -284.584,-327.637 l 45.724,0 C -238.86,-123.118 -131.919,0 0,0"
             style="fill:#189c5e;fill-opacity:1;fill-rule:nonzero;stroke:none"
             id="path22" /></g><g
           id="g24"
           transform="translate(158.9453,33.0371)"><path
             d="m 0,0 c 0,-6.041 -4.897,-10.938 -10.938,-10.938 l -114.852,0 c -6.041,0 -10.938,4.897 -10.938,10.938 l 0,159.035 c 0,6.041 4.897,10.939 10.938,10.939 l 114.852,0 C -4.897,169.974 0,165.076 0,159.035 L 0,0 z"
             style="fill:none;stroke:#189c5e;stroke-opacity:1;stroke-width:45;stroke-linecap:butt;stroke-linejoin:miter;stroke-miterlimit:10;stroke-dasharray:none"
             id="path26" /></g><g
           id="g28"
           transform="translate(96.0503,38.0381)"><path
             d="m 0,0 c 0,-5.915 4.795,-10.711 10.71,-10.711 5.915,0 10.711,4.796 10.711,10.711 l 0,149.033 c 0,5.915 -4.796,10.711 -10.711,10.711 C 4.795,159.744 0,154.948 0,149.033 L 0,0 z"
             style="fill:#189c5e;fill-opacity:1;fill-rule:nonzero;stroke:none"
             id="path30" /></g><g
           id="g32"
           transform="translate(410.5254,33.0371)"><path
             d="m 0,0 c 0,-6.041 4.897,-10.938 10.938,-10.938 l 114.851,0 c 6.041,0 10.939,4.897 10.939,10.938 l 0,159.035 c 0,6.041 -4.898,10.939 -10.939,10.939 l -114.851,0 C 4.897,169.974 0,165.076 0,159.035 L 0,0 z"
             style="fill:none;stroke:#189c5e;stroke-opacity:1;stroke-width:45;stroke-linecap:butt;stroke-linejoin:miter;stroke-miterlimit:10;stroke-dasharray:none"
             id="path34" /></g><g
           id="g36"
           transform="translate(473.4199,38.0381)"><path
             d="m 0,0 c 0,-5.915 -4.795,-10.711 -10.71,-10.711 -5.915,0 -10.711,4.796 -10.711,10.711 l 0,149.033 c 0,5.915 4.796,10.711 10.711,10.711 5.915,0 10.71,-4.796 10.71,-10.711 L 0,0 z"
             style="fill:#189c5e;fill-opacity:1;fill-rule:nonzero;stroke:none"
             id="path38" /></g></g></g></g></svg>