<?xml version="1.0" encoding="utf-8"?>
<!-- Generator: Adobe Illustrator 15.1.0, SVG Export Plug-In . SVG Version: 6.00 Build 0)  -->
<!DOCTYPE svg PUBLIC "-//W3C//DTD SVG 1.1//EN" "http://www.w3.org/Graphics/SVG/1.1/DTD/svg11.dtd">
<svg version="1.1" id="Ebene_1" xmlns="http://www.w3.org/2000/svg" xmlns:xlink="http://www.w3.org/1999/xlink" x="0px" y="0px"
	 width="364.771px" height="348.749px" viewBox="108.094 74.259 364.771 348.749"
	 enable-background="new 108.094 74.259 364.771 348.749" xml:space="preserve">
<g>
	<path fill="none" stroke="#222426" stroke-width="25" stroke-miterlimit="10" d="M1379.652,1766.109
		c0-15.402-12.484-27.889-27.887-27.889H1287.3h-28.809c-0.703-3.078-1.021-6.34-0.408-9.732
		c1.597-8.893,7.428-26.525,16.819-42.938c6.896-12.053,9.678-69.311-3.007-78.055c-12.686-8.729-30.043-5.535-38.784,7.146
		l-15.774,57.604l-31.338,45.488c-5.656,8.221-35.024,42.176-35.024,42.176v152.252l48.831,14.166h87.496h20.502
		c15.397,0,27.887-12.48,27.887-27.887c0-3.594-0.743-7.002-1.98-10.158c12.213-2.965,21.311-13.891,21.311-27.018
		c0-8.123-3.521-15.367-9.068-20.465c12.815-2.518,22.484-13.783,22.484-27.336c0-8.207-3.604-15.508-9.238-20.604
		C1370.967,1789.593,1379.652,1778.917,1379.652,1766.109z"/>
	
		<rect x="1039.881" y="1746.63" fill="none" stroke="#222426" stroke-width="25" stroke-miterlimit="10" width="101.646" height="179.699"/>
</g>
<g>
	<path fill="none" stroke="#009B5B" stroke-width="25" stroke-miterlimit="10" d="M460.365,250.289
		c0-15.399-12.482-27.887-27.887-27.887h-64.465h-28.808c-0.703-3.078-1.021-6.34-0.408-9.734
		c1.596-8.89,7.427-26.524,16.819-42.935c6.896-12.052,9.679-69.312-3.008-78.054c-12.685-8.73-30.043-5.536-38.783,7.146
		l-15.774,57.604l-31.341,45.486c-5.656,8.221-35.024,42.174-35.024,42.174v152.254l48.831,14.164h87.496h20.502
		c15.399,0,27.887-12.479,27.887-27.885c0-3.594-0.742-7.004-1.979-10.16c12.211-2.963,21.308-13.889,21.308-27.016
		c0-8.123-3.521-15.367-9.068-20.465c12.815-2.518,22.484-13.785,22.484-27.337c0-8.206-3.603-15.507-9.238-20.604
		C451.678,273.774,460.365,263.098,460.365,250.289z"/>
	
		<rect x="120.594" y="230.809" fill="none" stroke="#009B5B" stroke-width="25" stroke-miterlimit="10" width="101.646" height="179.698"/>
</g>
</svg>
