<?xml version="1.0" encoding="utf-8"?>
<!-- Generator: Adobe Illustrator 15.1.0, SVG Export Plug-In . SVG Version: 6.00 Build 0)  -->
<!DOCTYPE svg PUBLIC "-//W3C//DTD SVG 1.1//EN" "http://www.w3.org/Graphics/SVG/1.1/DTD/svg11.dtd">
<svg version="1.1" id="Ebene_1" xmlns="http://www.w3.org/2000/svg" xmlns:xlink="http://www.w3.org/1999/xlink" x="0px" y="0px"
	 width="364.771px" height="348.75px" viewBox="108.094 74.259 364.771 348.75"
	 enable-background="new 108.094 74.259 364.771 348.75" xml:space="preserve">
<g>
	<path fill="none" stroke="#222426" stroke-width="25" stroke-miterlimit="10" d="M1379.652,1766.108
		c0-15.401-12.484-27.889-27.887-27.889H1287.3h-28.808c-0.702-3.078-1.021-6.34-0.407-9.732
		c1.595-8.892,7.426-26.526,16.818-42.937c6.896-12.052,9.678-69.312-3.007-78.054c-12.686-8.73-30.043-5.536-38.784,7.146
		l-15.775,57.604l-31.338,45.49c-5.656,8.22-35.024,42.174-35.024,42.174v152.253l48.831,14.165h87.496h20.502
		c15.398,0,27.887-12.479,27.887-27.885c0-3.593-0.743-7.003-1.979-10.159c12.211-2.964,21.308-13.891,21.308-27.018
		c0-8.123-3.522-15.366-9.068-20.465c12.815-2.517,22.484-13.783,22.484-27.337c0-8.206-3.604-15.507-9.238-20.604
		C1370.966,1789.594,1379.652,1778.918,1379.652,1766.108z"/>
	
		<rect x="1039.88" y="1746.629" fill="none" stroke="#222426" stroke-width="25" stroke-miterlimit="10" width="101.646" height="179.7"/>
</g>
<g>
	<path fill="none" stroke="#222426" stroke-width="25" stroke-miterlimit="10" d="M460.365,250.289
		c0-15.4-12.483-27.887-27.887-27.887h-64.465h-28.807c-0.704-3.078-1.021-6.34-0.409-9.734c1.596-8.891,7.427-26.525,16.82-42.935
		c6.896-12.052,9.678-69.312-3.008-78.054c-12.685-8.73-30.043-5.536-38.783,7.147l-15.775,57.604l-31.34,45.487
		c-5.657,8.22-35.025,42.174-35.025,42.174v152.253l48.831,14.165h87.496h20.502c15.399,0,27.887-12.479,27.887-27.885
		c0-3.593-0.742-7.003-1.979-10.159c12.212-2.964,21.309-13.89,21.309-27.017c0-8.123-3.521-15.367-9.066-20.464
		c12.813-2.519,22.482-13.785,22.482-27.338c0-8.205-3.603-15.506-9.238-20.604C451.678,273.773,460.365,263.098,460.365,250.289z"
		/>
	
		<rect x="120.594" y="230.809" fill="none" stroke="#222426" stroke-width="25" stroke-miterlimit="10" width="101.646" height="179.7"/>
</g>
</svg>
