<?xml version="1.0" encoding="UTF-8" standalone="no"?>
<!-- Generator: Adobe Illustrator 15.1.0, SVG Export Plug-In . SVG Version: 6.00 Build 0)  -->

<svg
   xmlns:dc="http://purl.org/dc/elements/1.1/"
   xmlns:cc="http://creativecommons.org/ns#"
   xmlns:rdf="http://www.w3.org/1999/02/22-rdf-syntax-ns#"
   xmlns:svg="http://www.w3.org/2000/svg"
   xmlns="http://www.w3.org/2000/svg"
   xmlns:sodipodi="http://sodipodi.sourceforge.net/DTD/sodipodi-0.dtd"
   xmlns:inkscape="http://www.inkscape.org/namespaces/inkscape"
   version="1.1"
   id="Ebene_1"
   x="0px"
   y="0px"
   width="1038.104px"
   height="1038.102px"
   viewBox="0 0 1038.104 1038.102"
   enable-background="new 0 0 1038.104 1038.102"
   xml:space="preserve"
   inkscape:version="0.48.4 r9939"
   sodipodi:docname="3 Kategorien Instrumental.svg"><metadata
     id="metadata175"><rdf:RDF><cc:Work
         rdf:about=""><dc:format>image/svg+xml</dc:format><dc:type
           rdf:resource="http://purl.org/dc/dcmitype/StillImage" /></cc:Work></rdf:RDF></metadata><defs
     id="defs173" /><sodipodi:namedview
     pagecolor="#ffffff"
     bordercolor="#666666"
     borderopacity="1"
     objecttolerance="10"
     gridtolerance="10"
     guidetolerance="10"
     inkscape:pageopacity="0"
     inkscape:pageshadow="2"
     inkscape:window-width="640"
     inkscape:window-height="480"
     id="namedview171"
     showgrid="false"
     inkscape:zoom="0.22733796"
     inkscape:cx="519.052"
     inkscape:cy="519.05103"
     inkscape:window-x="0"
     inkscape:window-y="0"
     inkscape:window-maximized="0"
     inkscape:current-layer="Ebene_1" /><rect
     x="0"
     y="0"
     fill="#91CBCE"
     width="1038.102"
     height="1038.102"
     id="rect3" /><rect
     x="40.87"
     y="42.048"
     fill="#6EB7B7"
     width="958.91"
     height="958.918"
     id="rect5" /><g
     opacity="0.59"
     id="g7"><g
       id="g9"><rect
         x="42.033"
         y="98.154"
         fill="#91CBCE"
         width="955.583"
         height="8.425"
         id="rect11" /><path
         fill="#91CBCE"
         d="M228.131,102.368c0,10.01-8.111,18.127-18.123,18.127h-64.44c-10.011,0-18.127-8.117-18.127-18.127l0,0    c0-10.021,8.116-18.134,18.127-18.134h64.44C220.02,84.235,228.131,92.346,228.131,102.368L228.131,102.368z"
         id="path13" /><path
         fill="#91CBCE"
         d="M914.848,102.368c0,10.01-8.111,18.127-18.123,18.127h-64.439c-10.012,0-18.123-8.117-18.123-18.127l0,0    c0-10.021,8.111-18.134,18.123-18.134h64.439C906.737,84.235,914.848,92.346,914.848,102.368L914.848,102.368z"
         id="path15" /></g><g
       id="g17"><rect
         x="42.033"
         y="375.963"
         fill="#91CBCE"
         width="955.583"
         height="8.419"
         id="rect19" /><path
         fill="#91CBCE"
         d="M352.987,380.172c0,10.012-8.11,18.133-18.123,18.133h-64.438c-10.012,0-18.123-8.121-18.123-18.133l0,0    c0-10.011,8.111-18.128,18.123-18.128h64.438C344.876,362.044,352.987,370.161,352.987,380.172L352.987,380.172z"
         id="path21" /></g><g
       id="g23"><rect
         x="42.033"
         y="514.865"
         fill="#91CBCE"
         width="955.583"
         height="8.419"
         id="rect25" /><path
         fill="#91CBCE"
         d="M868.536,519.074c0,10.021-8.117,18.133-18.129,18.133h-64.438c-10.012,0-18.125-8.111-18.125-18.133l0,0    c0-10.018,8.113-18.123,18.125-18.123h64.438C860.419,500.951,868.536,509.057,868.536,519.074L868.536,519.074z"
         id="path27" /></g><g
       id="g29"><rect
         x="42.033"
         y="653.778"
         fill="#91CBCE"
         width="955.583"
         height="8.407"
         id="rect31" /><path
         fill="#91CBCE"
         d="M647.009,657.975c0,10.021-8.115,18.134-18.121,18.134H564.44c-10.01,0-18.121-8.111-18.121-18.134l0,0    c0-10.011,8.111-18.127,18.121-18.127h64.447C638.893,639.848,647.009,647.965,647.009,657.975L647.009,657.975z"
         id="path33" /><path
         fill="#91CBCE"
         d="M234.174,657.975c0,10.021-8.117,18.134-18.128,18.134h-64.44c-10.011,0-18.123-8.111-18.123-18.134l0,0    c0-10.011,8.112-18.127,18.123-18.127h64.44C226.057,639.848,234.174,647.965,234.174,657.975L234.174,657.975z"
         id="path35" /></g><g
       id="g37"><rect
         x="42.033"
         y="792.679"
         fill="#91CBCE"
         width="955.583"
         height="8.419"
         id="rect39" /><path
         fill="#91CBCE"
         d="M510.073,796.883c0,10.018-8.117,18.133-18.128,18.133h-64.444c-10.006,0-18.123-8.116-18.123-18.133l0,0    c0-10.017,8.116-18.127,18.123-18.127h64.444C501.956,778.756,510.073,786.866,510.073,796.883L510.073,796.883z"
         id="path41" /></g><g
       id="g43"><rect
         x="42.033"
         y="931.581"
         fill="#91CBCE"
         width="955.583"
         height="8.419"
         id="rect45" /><path
         fill="#91CBCE"
         d="M352.987,935.79c0,10.012-8.11,18.133-18.123,18.133h-64.438c-10.012,0-18.123-8.121-18.123-18.133l0,0    c0-10.021,8.111-18.133,18.123-18.133h64.438C344.876,917.657,352.987,925.768,352.987,935.79L352.987,935.79z"
         id="path47" /><path
         fill="#91CBCE"
         d="M781.938,935.79c0,10.012-8.117,18.133-18.123,18.133H699.37c-10.006,0-18.123-8.121-18.123-18.133l0,0    c0-10.021,8.117-18.133,18.123-18.133h64.445C773.821,917.657,781.938,925.768,781.938,935.79L781.938,935.79z"
         id="path49" /></g><g
       id="g51"><rect
         x="42.033"
         y="237.061"
         fill="#91CBCE"
         width="955.583"
         height="8.419"
         id="rect53" /><path
         fill="#91CBCE"
         d="M606.733,241.271c0,10.015-8.109,18.132-18.121,18.132h-64.441c-10.011,0-18.121-8.117-18.121-18.132l0,0    c0-10.018,8.109-18.135,18.121-18.135h64.441C598.622,223.137,606.733,231.254,606.733,241.271L606.733,241.271z"
         id="path55" /><path
         fill="#91CBCE"
         d="M161.674,241.271c0,10.015-8.112,18.132-18.118,18.132H79.11c-10.011,0-18.127-8.117-18.127-18.132l0,0    c0-10.018,8.116-18.135,18.127-18.135h64.446C153.562,223.137,161.674,231.254,161.674,241.271L161.674,241.271z"
         id="path57" /></g></g><g
     id="g59"><g
       id="g61"><path
         fill="#FFFFFF"
         d="M545.143,197.907l-15.752,2.331l-15.858,1.454l-2.184,3.362c0,0,0.813,5.705,1.955,13.664l-1.605,0.191    c0,0-0.277-3.869-3.078-3.535c-2.805,0.336-3.907,2.224-3.469,5.881c0.438,3.655,2.305,4.996,4.737,4.705    c2.43-0.291,2.317-4.377,2.317-4.377l1.486-0.179c0.768,5.338,1.646,11.429,2.516,17.402l-2.096,0.25c0,0-0.275-3.873-3.078-3.537    c-2.805,0.336-3.907,2.226-3.469,5.881c0.438,3.658,2.305,4.998,4.737,4.708c2.43-0.292,2.319-4.383,2.319-4.383l1.979-0.238    c0.948,6.499,1.859,12.682,2.571,17.394l-2.646,0.319c0,0-0.275-3.87-3.078-3.535c-2.805,0.338-3.907,2.224-3.469,5.881    c0.439,3.657,2.305,4.995,4.735,4.702c2.432-0.29,2.321-4.377,2.321-4.377l2.547-0.305c0.139,0.903,0.27,1.724,0.385,2.446    c2.096,13.195,6.092,16.333,6.092,16.333l17.193,173.774c0,0-83.876,12.116-45.367,65.94    c38.509,53.824-20.442,36.58-11.894,107.953c8.549,71.38,101.606,58.165,101.606,58.165s93.541-9.135,84.992-80.513    c-8.549-71.375-61.758-40.698-37.053-102.093c24.711-61.396-59.654-53.361-59.654-53.361l-24.33-172.917    c0,0,3.143-3.995,2.064-17.312c-0.059-0.729-0.129-1.557-0.209-2.468l2.551-0.305c0,0,0.855,3.997,3.289,3.708    c2.434-0.291,3.928-2.033,3.49-5.69c-0.438-3.657-1.955-5.229-4.758-4.893c-2.807,0.336-2.158,4.161-2.158,4.161l-2.65,0.317    c-0.418-4.747-0.992-10.973-1.604-17.51l1.977-0.236c0,0,0.857,4,3.291,3.708c2.432-0.292,3.93-2.035,3.492-5.693    c-0.439-3.654-1.955-5.231-4.76-4.895c-2.805,0.336-2.156,4.165-2.156,4.165l-2.098,0.253c-0.566-6.013-1.152-12.136-1.664-17.503    l1.484-0.18c0,0,0.857,4,3.289,3.709c2.432-0.292,3.93-2.034,3.49-5.692c-0.439-3.655-1.953-5.229-4.758-4.893    c-2.805,0.336-2.154,4.161-2.154,4.161l-1.611,0.192c-0.768-8.002-1.326-13.738-1.326-13.738L545.143,197.907z M598.51,528.283    c0,17.07-13.838,30.907-30.908,30.907c-17.068,0-30.906-13.837-30.906-30.907s13.838-30.908,30.906-30.908    C584.673,497.376,598.51,511.213,598.51,528.283z"
         id="path63" /></g><g
       id="g65"><line
         fill="none"
         stroke="#FFFFFF"
         stroke-width="3"
         stroke-miterlimit="10"
         x1="562.548"
         y1="624.356"
         x2="542.294"
         y2="429.78"
         id="line67" /><line
         fill="none"
         stroke="#FFFFFF"
         stroke-width="3"
         stroke-miterlimit="10"
         x1="569.911"
         y1="623.592"
         x2="548.975"
         y2="422.457"
         id="line69" /><line
         fill="none"
         stroke="#FFFFFF"
         stroke-width="3"
         stroke-miterlimit="10"
         x1="578.878"
         y1="629.287"
         x2="559.081"
         y2="439.081"
         id="line71" /><line
         fill="none"
         stroke="#FFFFFF"
         stroke-width="3"
         stroke-miterlimit="10"
         x1="586.469"
         y1="630.705"
         x2="568.038"
         y2="453.619"
         id="line73" /><line
         fill="none"
         stroke="#FFFFFF"
         stroke-width="3"
         stroke-miterlimit="10"
         x1="594.757"
         y1="629.844"
         x2="575.184"
         y2="441.826"
         id="line75" /></g></g><rect
     x="116.608"
     y="694.711"
     fill="none"
     width="812"
     height="188"
     id="rect77" /><g
     id="g81"><path
       fill="#FFFFFF"
       d="M789.198,443.861c-1.383-0.56-4.883,0.485-5.232,0.608s-1.529-0.05-2.096-0.174   c-0.57-0.125-3.043-0.435-5.672-0.818c-2.627-0.377-5.674-0.812-11.986-4.741c-6.316-3.93-8.85-7.57-14.299-15.348   c-5.447-7.784-10.75-20.345-10.75-20.345l-8.289-18.395l-16.893-41.014l-14.334-36.015c0,0-10.953-27.954-11.465-29.217   c-0.512-1.259-0.744-2.096-0.611-2.275c0.135-0.181,0.188-0.397,0.188-0.397s-1.961-5.539-2.307-6.335   c-0.348-0.792-0.74-0.789-0.74-0.789s-6.379-17.629-6.766-18.542c-0.391-0.914-0.553-1.376-0.527-2.044   c0.027-0.664-0.602-0.769-0.602-0.769s-1.754-4.764-2.205-5.852c-0.449-1.085-0.904-1.45-0.904-1.45s-0.576-1.435-2.086-4.773   c-1.512-3.337-5.178-7.755-6.385-8.57c-1.207-0.816-8.648-6.257-17.629-3.998c-8.977,2.266-13.123,6.495-17.621,13.994   c-4.496,7.498,0.586,21.842,1,23.008c0.412,1.167,2.166,7.049,2.559,8.156c0.391,1.105,0.875,0.803,0.875,0.803   s6.592,17.681,6.779,18.213c0.186,0.522,0.27,0.947,0.123,1.46c-0.146,0.512,2.332,6.396,2.695,7.056   c0.365,0.655,0.537,0.4,1.656,2.633c1.117,2.227,8.166,21.191,9.053,23.699c0.889,2.506,8.871,27.638,9.191,28.91   c0.316,1.264,0.355,1.377,0.107,1.603c-0.25,0.216-0.367,0.258-0.367,0.258s5.316,16.491,5.068,16.717   c-0.252,0.217-0.438,0.616-0.473,0.886c-0.033,0.276,0.018,0.98,0.352,2.107c0.336,1.127,0.75,1.374,0.75,1.374l0.93,0.399   c0,0,0.551,1.377,0.578,1.631c0.02,0.25,0.033,0.843-0.066,1.86c-0.098,1.018,0.205,1.5,0.205,1.5s-1.201,0.495-1.432,0.772   c-0.23,0.28-0.012,0.526-0.012,0.526l-12.729,4.646c0,0-0.906-3.295-1.281-4.537c-0.375-1.249-0.873-0.61-0.873-0.61   s-0.65-2.59-0.922-3.353c-0.266-0.751-0.48-0.61-0.605-0.964c-0.125-0.349-0.27-0.76-0.08-1.15c0.186-0.399,0.006-0.722-0.393-1.11   c-0.396-0.38-0.533-0.399-0.533-0.399s-0.238-1.234-0.461-1.479c-0.219-0.251-0.025-0.452-0.025-0.452s0.758-0.073,1.404-2.138   c0.648-2.067-0.543-5.061-0.666-5.407c-0.123-0.349,0.066-0.553,0.066-0.553s0.428-0.083,0.221-0.668s-0.221-0.443,0.457-0.752   c0.678-0.308,0.527-1.102,0.148-2.548c-0.377-1.438-1.953-0.881-2.244-0.778c-0.291,0.104-5.318,1.294-8.838,2.473   c-3.521,1.179-3.281,1.295-3.127,2.292c0.152,0.992,0.355,2.298,0.863,2.254c0.506-0.051,1.08,0.276,1.443,0.737   c0.359,0.461,0.49,1.201,1.021,2.521c0.535,1.323,0.586,1.832,1.244,2.581c0.662,0.749,2.529,1.206,3.186,1.76   c0.654,0.555,0.777,0.904,0.785,1.295s-0.234,1.007-0.229,1.393c0.01,0.394,0.445,0.701,0.445,0.701s0.439,0.499,0.521,0.73   c0.082,0.234-0.209,0.338-0.209,0.338l1.525,4.119l-0.387,0.205c0,0,1.963,6.653,2.211,7.352c0.248,0.702,0.357,1.382,0.035,1.958   c-0.32,0.574,0.066,1.289,0.066,1.289s3.5,11.364,3.643,11.768c0.146,0.409,0.148,0.604-0.312,0.97   c-0.467,0.357-0.406,0.531-0.469,1.084c-0.068,0.546,0.674,3.566,0.941,4.324c0.268,0.76,2.258,0.448,2.361,0.74   s0.416,0.251,0.416,0.251l3.26,9.015l4.887,15.268l15.191,48.634l14.27,46.211l15.922,50.869l9.945,31.596   c0,0,8.967,28.458,9.053,28.697c0.08,0.227-0.445,0.413-0.32,0.767c0.123,0.345,1.744,4.37,1.744,4.37s0.547,2.1,1.65,4.662   c1.105,2.565,6.938,7.716,13.891,3.086c6.963-4.626,7.773-14.564,7.809-14.841c0.035-0.27,0.523-1.301,0.93-1.445   c0.41-0.145,0.762-1.188,0.533-1.83c-0.227-0.642-1.201-1.544-1.201-1.544s-0.26-1.284-0.43-3.062   c-0.17-1.777-1.354-6.412-1.686-7.537c-0.336-1.13-0.588-0.912-0.588-0.912l-3.188-10.485l-11.576-37.123l-10.633-34.825   l-10.91-35.064l-9.129-30.037l-8.736-28.545l-5.154-16.225l0.244-0.414l-4.607-15.234l-5.303-17.752c0,0,0.523-0.185,0.99-0.351   c0.467-0.167,0.594-0.732,0.383-1.508c-0.211-0.784-1.352-1.035-1.352-1.035s-3.539-11.283-3.764-11.922   c-0.229-0.641-0.934-0.784-0.934-0.784s-2.473-7.726-2.598-8.08c-0.121-0.341-0.324-0.538-0.324-0.538l0.33-0.181l-0.428-1.028   c0,0,0.107-0.435,0.432-0.812c0.324-0.38-0.09-1.736-0.357-2.497c-0.27-0.759-1.492-1.24-1.492-1.24s-1.223-3.836-1.348-4.188   c-0.125-0.351,0.139-0.705,0.139-0.705s2.623-1.128,3.146-1.314c0.525-0.186,2.49-0.746,3-0.798   c0.506-0.051,0.553-0.658,0.553-0.658s11.934-4.483,12.984-4.855c1.051-0.371,2.756-1.113,3.459-1.162   c0.703-0.058,4.719-1.873,5.885-2.286s1.316,0.191,1.316,0.191l3.416,10.013c0,0,7.879,22.617,13.295,40.12   c5.414,17.512,5.869,26.019,7.164,35.602s-0.918,13.708-2.613,19.3c-1.697,5.593-8.67,11.477-9.83,12.278   c-1.158,0.802-4.43,2.687-5.217,3.427c-0.791,0.736-1.266,1.433-0.6,2.573c0.666,1.141,4.494,0.644,9.021-0.11   c4.523-0.748,22.418-6.563,27.744-8.385c5.328-1.824,19.203-7.127,28.053-10.86c8.854-3.728,14.283-7.484,15.477-8.56   C791.175,445.923,790.579,444.426,789.198,443.861z M637.876,259.799c0,0-0.465-0.757-0.609-1.161   c-0.145-0.409-0.637-0.501-0.637-0.501s-0.686-2.311-1.557-4.765c-0.867-2.451-1.207-7.118-0.012-11.152s3.729-7.819,9.672-11.234   c5.941-3.421,13.109-1.169,16.309,1.377c3.197,2.542,5.422,9.564,5.422,9.564l-0.107,0.431c0,0-0.191,0.392-0.129,0.568   c0.064,0.178,0.678,1.729,0.826,2.331c0.148,0.606-0.301,0.636-0.301,0.636l-6.729,3.239c0,0-0.445-0.697-1.021-1.215   c-0.578-0.518-2.318-1.541-2.906-1.53c-0.586,0.011-4.469-0.382-5.094-0.297c-0.623,0.088-3.033-0.046-5.711,3.339   c-2.676,3.374-1.574,7.966-1.574,7.966s-4.264,2.04-4.959,2.483C638.061,260.324,637.876,259.799,637.876,259.799z M647.94,287.283   c-0.178-0.148-3.33-8.546-5.611-14.664l-2.328-6.085c0,0,0.029,0.007,0.07,0.009c-0.051-0.135-0.08-0.213-0.08-0.213   s0.262,0.02,0.361-0.067c0.01-0.045,0.029-0.072,0.029-0.134c-0.066-0.188-0.088-0.232-0.262-0.423   c-0.045-0.028-0.094-0.071-0.139-0.153c-0.32-0.348-0.947-1.37-0.098-1.937c0.85-0.565,4.691-2.516,4.691-2.516   s0.113-0.073,0.295-0.104c0.164-0.101,0.266-0.163,0.266-0.163s0.053,0.08,0.129,0.188c0.178,0.047,0.375,0.146,0.586,0.349   c0.326,0.313,0.859,1.123,1.758,1.836c0.482,0.295,1.027,0.55,1.635,0.704c1.609,0.407,2.699,0.491,3.781,0.371   c0.264-0.04,0.535-0.082,0.785-0.121c0.416-0.08,0.848-0.182,1.324-0.304c1.271-0.326,2.578-0.616,3.584-1.08   c0.639-0.362,1.18-0.83,1.637-1.438c0.771-1.326,1.619-3.712,1.699-5.182c0.084-1.571-0.191-2.567-0.043-2.854   c0.021-0.106,0.066-0.2,0.178-0.28c0.205-0.146,2.113-1.161,3.768-2.031c1.186-0.654,2.18-1.194,2.18-1.194   s0.082-0.092,0.201-0.056c0.055-0.029,0.094-0.049,0.094-0.049s0.111-0.232,0.201,0.391c0.197,0.422,0.113,0.984,0.182,1.194   c0.033,0.067,0.078,0.097,0.135,0.077c0.293-0.104,0.434,0.104,0.434,0.104l7.525,19.391c0,0-0.088,0.171-0.184,0.423   c0.008,0.133,0.01,0.292-0.016,0.5c-0.029,0.239-0.125,0.501-0.211,0.762c0.008,0.074,0.014,0.149,0.031,0.219   c0.191,0.706,0.367,1.088-0.254,1.485c-0.15,0.129-0.391,0.258-0.783,0.397c-0.031,0.01-0.07,0.026-0.105,0.039   c-1.152,0.513-3.266,1.409-4.432,1.901c-0.441,0.213-0.781,0.392-0.963,0.515c-0.047,0.056-0.094,0.114-0.154,0.184   c-0.031,0.257-0.115,0.528-1.863,1.336c-1.865,0.852-13.355,5.845-13.355,5.845s-0.564,0.073-1.305,0.394   C652.635,285.158,648.219,287.511,647.94,287.283z M681.182,407.44l7.447,24.988c0,0,0.104-0.211,0.322,0.411   c0.221,0.624,20.377,66.193,20.377,66.193l16.926,54.696l16.916,56.182l4.803,14.791c0,0-0.117,0.917,0.16,1.699   s0.84,2.855,1.188,3.348c0.352,0.491,0.717,2.026,0.541,2.267c-0.18,0.237-0.758,0.091-1.225,0.258   c-0.469,0.166-1.096,0.123-1.096,0.123l-2.156-7.564c0,0-1.131-0.476-1.031,0.542c0.096,1.016,1.578,8.91,1.771,9.457   c0.193,0.543-0.127,1.622,0.293,1.826c0.424,0.197,0.996,0.084,0.996,0.084l0.094,0.754c0,0,0.168,0.729,0.354,0.753   c0.18,0.022-0.398,1.107-0.551,1.426c-0.15,0.311-0.174,1.729,0.553,1.558c0.729-0.173,1.33-0.211,1.213,0.446   c0,0-1.152,4.177-2.334,5.3c-1.182,1.12-3.721,3.856-5.834,2.595c-2.119-1.272-2.52-1.916-2.934-3.086s-0.855-2.415-0.855-2.415   s0.283-0.187-0.031-1.57c-0.312-1.376-0.969-2.989-0.969-2.989s-0.33,0.557-0.496,0.09c-0.166-0.471-19.203-62.134-19.203-62.134   l-20.879-66.359l-19.703-63.538l-7.52-24.692c0,0,0.34-0.035,0.09-0.738c-0.248-0.703-2.973-9.382-2.973-9.382l4.824-1.978   c0,0,0.387-0.393,0.775-0.531c0.391-0.137,5.406-1.83,5.406-1.83s0.477,0.36,0.945,0.195   C677.856,408.448,681.182,407.44,681.182,407.44z M676.813,396.433c0,0-1.096,0.453-0.846,1.159   c0.25,0.705,0.311,1.809,0.686,1.936c0.381,0.135,0.852,0.165,1.379-0.023c0.527-0.186,0.863,0.947,0.863,0.947   s0.279,1.158,0.467,1.685c0.188,0.532,0.674,1.155,0.105,1.42c-0.568,0.266-3.783,1.072-3.783,1.072s-0.129,0.379-0.658,0.566   c-0.527,0.188-5.635,2.193-5.635,2.193s-0.609-0.045-1.49,0.267c-0.879,0.312-3.285,1.361-3.285,1.361l-1.293-3.837l1.365-0.616   c0,0,0.141-1.104-0.17-1.79c-0.309-0.685-1.021-0.826-1.299-0.865c-0.273-0.03-3.922-12.754-3.922-12.754s-0.836-0.49-0.014-0.782   s12.445-3.486,12.445-3.486s1.193-0.355,1.357-0.087L676.813,396.433z M700.54,347.937c-0.934,0.331-4.703,1.733-4.703,1.733   s-0.424,0.475-1.006,0.681c-0.586,0.208-15.666,5.619-15.666,5.619s-0.162-0.271-1.832,0.384c-1.672,0.657-4.979,1.892-4.979,1.892   s-0.354-0.267-0.418-0.634c-0.068-0.374-2.1-6.474-2.1-6.474s0.133-0.183-0.223-0.451c-0.357-0.266-0.59-1.106-0.732-1.51   c-0.145-0.409-19.262-55.667-19.262-55.667l0.428-0.281c0,0,0.018-0.134-0.107-0.487c-0.123-0.353-0.516-1.266,0.201-1.649   c0.721-0.382,4.189-2.073,4.189-2.073s0.922,0.007,1.521-0.342c0.6-0.345,1.096-0.978,1.797-1.226   c0.699-0.249,12.738-6.286,12.738-6.286s0.939,0.064,1.736-0.287c0.795-0.35,6.223-2.992,6.223-2.992s0.459,0.361,0.66,0.554   c0.199,0.189,0.691,0.477,0.691,0.477l22.777,68.004C702.475,346.922,701.473,347.606,700.54,347.937z"
       id="path83" /><path
       fill="#FFFFFF"
       d="M669.844,277.224c-0.002,0.016-0.004,0.034-0.008,0.051c0.061-0.069,0.107-0.127,0.154-0.184   C669.907,277.149,669.848,277.196,669.844,277.224z"
       id="path85" /><path
       fill="#FFFFFF"
       d="M660.141,261.693c0.07-0.103,0.141-0.23,0.213-0.354c-0.457,0.608-0.998,1.076-1.637,1.438   C659.331,262.497,659.833,262.151,660.141,261.693z"
       id="path87" /><path
       fill="#FFFFFF"
       d="M647.608,263.208c-0.898-0.713-1.432-1.522-1.758-1.836c-0.211-0.204-0.408-0.302-0.586-0.349   C645.553,261.429,646.362,262.45,647.608,263.208z"
       id="path89" /><path
       fill="#FFFFFF"
       d="M668.632,250.085c-0.09-0.623-0.201-0.391-0.201-0.391s-0.039,0.02-0.094,0.049   C668.421,249.768,668.522,249.854,668.632,250.085z"
       id="path91" /><path
       fill="#FFFFFF"
       d="M675.385,274.675c-0.85,0.312-3.07,1.245-4.432,1.901C672.12,276.084,674.233,275.188,675.385,274.675z"
       id="path93" /><path
       fill="#FFFFFF"
       d="M676.389,273.463c0.105,0.302,0.158,0.54-0.115,0.777c0.621-0.397,0.445-0.779,0.254-1.485   c-0.018-0.07-0.023-0.145-0.031-0.219C676.387,272.869,676.296,273.199,676.389,273.463z"
       id="path95" /><path
       fill="#FFFFFF"
       d="M668.948,251.356c-0.057,0.021-0.102-0.009-0.135-0.077C668.837,251.35,668.876,251.381,668.948,251.356z"
       id="path97" /><path
       fill="#FFFFFF"
       d="M676.723,271.274c0.096-0.252,0.184-0.423,0.184-0.423l-7.525-19.391l7.291,19.474   C676.673,270.934,676.71,271.057,676.723,271.274z"
       id="path99" /><path
       fill="#FFFFFF"
       d="M665.956,250.992c-1.654,0.871-3.562,1.886-3.768,2.031c-0.111,0.08-0.156,0.174-0.178,0.28   c0.004-0.006,0.006-0.017,0.01-0.023C662.12,253.129,664.239,251.939,665.956,250.992z"
       id="path101" /><path
       fill="#FFFFFF"
       d="M640.352,266.264c-0.1,0.086-0.361,0.067-0.361,0.067s0.029,0.078,0.08,0.213   C640.163,266.551,640.302,266.499,640.352,266.264z"
       id="path103" /><path
       fill="#FFFFFF"
       d="M653.024,264.282c0.26-0.029,0.52-0.071,0.785-0.121C653.559,264.201,653.288,264.242,653.024,264.282z"
       id="path105" /><path
       fill="#FFFFFF"
       d="M647.94,287.283l-5.611-14.664C644.61,278.737,647.762,287.135,647.94,287.283z"
       id="path107" /><path
       fill="#FFFFFF"
       d="M647.94,287.283c0.279,0.228,4.695-2.125,5.373-2.434C652.577,285.179,647.94,287.283,647.94,287.283z"
       id="path109" /><path
       fill="#FFFFFF"
       d="M639.813,263.973c0.502-0.178,4.061-2.362,5.057-2.976c-0.182,0.031-0.295,0.104-0.295,0.104   s-3.842,1.951-4.691,2.516c-0.85,0.567-0.223,1.589,0.098,1.937C639.796,265.222,639.229,264.179,639.813,263.973z"
       id="path111" /><path
       fill="#FFFFFF"
       d="M640.12,265.707c0.174,0.19,0.195,0.235,0.262,0.423C640.387,265.735,640.26,265.79,640.12,265.707z"
       id="path113" /><path
       fill="#FFFFFF"
       d="M640.001,266.534l2.328,6.085c-1.102-2.952-1.996-5.371-2.258-6.076   C640.03,266.541,640.001,266.534,640.001,266.534z"
       id="path115" /><path
       fill="#FFFFFF"
       d="M654.772,284.334c0,0-0.777,0.215-1.459,0.516c0.74-0.321,1.305-0.394,1.305-0.394   s11.49-4.993,13.355-5.845c1.748-0.808,1.832-1.08,1.863-1.336c-0.127,0.151-0.268,0.316-0.355,0.405   C669.288,277.876,654.772,284.334,654.772,284.334z"
       id="path117" /><path
       fill="#FFFFFF"
       d="M668.135,249.798c0,0-0.994,0.54-2.18,1.194c1.105-0.583,2.09-1.099,2.381-1.25   C668.218,249.706,668.135,249.798,668.135,249.798z"
       id="path119" /><path
       fill="#FFFFFF"
       d="M655.134,263.858c-0.477,0.123-0.908,0.225-1.324,0.304c2.07-0.33,3.668-0.677,4.908-1.384   C657.712,263.241,656.405,263.531,655.134,263.858z"
       id="path121" /><path
       fill="#FFFFFF"
       d="M640.12,265.707c-0.039-0.044-0.08-0.088-0.139-0.153C640.026,265.636,640.075,265.679,640.12,265.707z"
       id="path123" /><path
       fill="#FFFFFF"
       d="M668.632,250.085c0.066,0.469,0.08,0.996,0.182,1.194C668.745,251.069,668.829,250.507,668.632,250.085z"
       id="path125" /><path
       fill="#FFFFFF"
       d="M645.264,261.023c-0.076-0.109-0.129-0.188-0.129-0.188s-0.102,0.062-0.266,0.163   C644.979,260.98,645.112,260.981,645.264,261.023z"
       id="path127" /><path
       fill="#FFFFFF"
       d="M662.139,254.55c-0.053-0.662-0.174-1.006-0.129-1.247c-0.148,0.287,0.127,1.283,0.043,2.854   c-0.08,1.47-0.928,3.856-1.699,5.182c0.086-0.115,0.182-0.214,0.264-0.34C662.139,258.622,662.216,255.511,662.139,254.55z"
       id="path129" /><path
       fill="#FFFFFF"
       d="M652.366,264.384c0.23-0.035,0.438-0.068,0.658-0.101c-1.082,0.12-2.172,0.036-3.781-0.371   c-0.607-0.154-1.152-0.409-1.635-0.704C648.634,264.024,650.135,264.716,652.366,264.384z"
       id="path131" /><path
       fill="#FFFFFF"
       d="M640.382,266.13c0,0.062-0.02,0.089-0.029,0.134C640.385,266.234,640.403,266.191,640.382,266.13z"
       id="path133" /><path
       fill="#FFFFFF"
       d="M669.991,277.091c0.182-0.123,0.521-0.302,0.963-0.515c-0.498,0.21-0.824,0.347-0.824,0.347   S670.069,276.997,669.991,277.091z"
       id="path135" /><path
       fill="#FFFFFF"
       d="M675.385,274.675c0.035-0.012,0.074-0.028,0.105-0.039c0.393-0.139,0.633-0.268,0.783-0.397   c-0.068,0.043-0.135,0.084-0.221,0.128C675.917,274.435,675.678,274.544,675.385,274.675z"
       id="path137" /><path
       fill="#FFFFFF"
       d="M669.382,251.46c0,0-0.141-0.208-0.434-0.104C669.182,251.272,669.382,251.46,669.382,251.46z"
       id="path139" /><path
       fill="#FFFFFF"
       d="M676.497,272.535c0.086-0.261,0.182-0.523,0.211-0.762c0.025-0.208,0.023-0.366,0.016-0.5   C676.594,271.615,676.458,272.102,676.497,272.535z"
       id="path141" /></g><g
     id="g143"><path
       fill="#FFFFFF"
       d="M293.613,262.337c0.389-0.588,0.587-0.035,1.24-0.169c0.653-0.134,3.093-1.909,4.035-3.119   c0.939-1.212,1.846-3.012,2.498-2.72c0.656,0.29,2.645-1.044,2.733-2.579c0.107-1.828-3.877-3.744-7.524-6.122   c-4.158-2.709-4.352-0.305-5.067,0.78c-0.713,1.08,0.729,2.312,0.729,2.312s-0.613,1.571-2.301,3.701   c-1.688,2.128-0.275,4.473-0.14,5.549c0.132,1.077-0.939,2.06-1.463,1.999c-0.521-0.065-1.954,0.398-1.493,1.408   c0.46,1.01-0.156,1.732-0.643,2.256c-0.491,0.524-2.471,2.46-3.314,3.736c-0.843,1.276-2.045,2.882-2.045,2.882   s-0.522-0.489-6.618,1.691c-6.094,2.184-12.735,14.156-12.735,14.156l-32.226,50.934c0,0-3.694-1.876-3.437-2.268   c0.26-0.392,0.159-0.883,0.352-2.026c0.188-1.144-2.326-1.819-4.021-1.387c-1.694,0.433-1.919,1.835-2.758,3.961   c-0.839,2.127,1.483,3.52,2.532,4.07c1.047,0.55,2.405-1.937,2.405-1.937l3.635,2.401l-5.836,8.837l-3.537-2.335   c0,0,0,0,0.546-1.895c0.546-1.896-1.9-1.82-2.979-2.11c-1.077-0.289-3.03,1.387-3.742,2.891c-0.709,1.503-0.018,3.656-0.018,3.656   s1.312,1.005,2.197,1.59c0.881,0.581,2.506-1.448,2.506-1.448l3.763,2.203l-5.641,8.543l-3.242-2.142c0,0,0.288-1.076,0.317-2.188   c0.029-1.108-2.129-1.686-3.014-1.844c-0.881-0.162-2.146,1.544-2.793,2.524c-0.647,0.98-0.972,2.744-0.836,3.824   c0.139,1.075,2.001,1.885,3.275,1.878c1.273-0.007,1.558-1.509,1.558-1.509l3.341,2.206c0,0-3.761,5.694-4.475,6.776   c-0.715,1.08-0.617,0.72-2.381,0.827c-1.76,0.104-2.802,0.829-3.351,2.3c-0.551,1.472-1.695,0.855-2.019,1.344   c-0.327,0.494-0.093,1.21,0.528,0.915c0.617-0.298,1.659-1.02,2.243-1.903c0.584-0.884,1.266-1.282,2.342-1.84   c1.078-0.557,1.893,0.122,1.798,0.483c-0.099,0.358-22.365,36.854-29.109,47.49c-6.741,10.638-28.056,41.414-29.87,44.165   c-1.814,2.75-9.065,10.518-15.633,16.193c-6.568,5.678-12.186,4.786-12.186,4.786s-5.789-2.128-7.58-1.761   c-1.796,0.365-3.194,1.415,0.834,4.924c4.03,3.511,15.49,11.358,27.695,18.29c12.205,6.934,14.84,7.962,20.693,9.75   c3.139,0.957,5.291,0.814,5.707-0.883c0.416-1.699-3.401-4.817-5.17-6.409c-2.253-2.028-3.637-6.708-2.996-13.406   c0.777-8.132,10.41-30.5,13.32-36.615c2.912-6.119,8.226-15.444,8.226-15.444s0.988,1.92,2.138,3.81   c1.152,1.888,7.011,6.042,7.011,6.042s0.364,0.519,0.821,0.682c0.456,0.161,1.311,1.005,0.892,2.279   c-0.42,1.275-3.521,1.06-4.698,0.707c-1.179-0.355-6.249-3.14-6.609-3.235c-0.359-0.097,0.233,1.141,0.233,1.141   s1.41,1.494,8.376,3.977c6.964,2.484,9.667,1.592,13.712,1.017c4.048-0.57,4.266-2.825,4.392-3.869s-1.249-1.528-1.965-1.299   c-0.719,0.233,0.062-0.946,0.45-1.535c0.39-0.589,2.28-0.89,4.718-3.514c2.438-2.62,5.805-8.575,5.805-8.575   s30.629-50.862,31.02-51.45c0.388-0.589,0.676-1.669,1.461-1.15c0.788,0.519,12.929,7.55,13.978,8.528   c1.049,0.972,1.992,0.188,2.706-0.473c0.717-0.654,3.466-5.891,4.342-7.85c0.873-1.964-1.74-1.853-1.74-1.853   s-2.221-0.906-3.501-1.748c-1.273-0.844-1.015-1.236-0.826-2.381c0.191-1.141,1.041-0.721,1.041-0.721s0.886,0.585,1.637,0.938   c0.752,0.357,1.868,1.657,3.343,2.631s2.312-0.729,3.549-2.169c1.234-1.444,3.401-5.793,3.199-7.194   c-0.2-1.405-1.733-1.008-1.733-1.008s-3.503-1.748-3.894-2.008c-0.393-0.258-0.464-1.431,0.119-2.318   c0.584-0.881,0.914-0.1,0.914-0.1s3.961,2.331,4.716,3.115c0.752,0.778,2.024,0.351,3.874-2.238   c1.85-2.588,2.909-6.118,2.745-7.355c-0.171-1.241-1.637-0.517-1.637-0.517s-1.767-0.741-4.419-2.495   c-2.65-1.752-7.626-4.896-7.626-4.896l8.653-14.17c0,0,6.84-11.849,7.353-13.481c0.514-1.638,0.109-4.441,0.109-4.441   s10.155-14.733,14.356-24.934c4.198-10.206,0.756-13.746-2.994-19.605c-3.744-5.861-10.314-7.66-10.314-7.66s0.531-1.674,1-3.01   c0.533-1.523,0.704-3.201,1.39-3.17c0.687,0.03,1.76-0.954,2.311-1.578c0.55-0.622-0.011-2.123-0.011-2.123   S293.224,262.926,293.613,262.337z M273.149,283.299c0.07-0.083,0.149-0.144,0.232-0.195l0.247-0.365c0,0,0.799-0.157,0.559,0.296   c0.095,0.058,0.139,0.142,0.076,0.235c-0.087,0.13-1.041,1.574-2.099,3.176c-1.244,2.115-2.603,4.437-2.603,4.437   s-0.181,0.057-0.395,0.093c-0.161,0.224-0.344,0.148-0.494-0.001c-0.154-0.041-0.264-0.136-0.248-0.336   c-0.033-0.059-0.056-0.103-0.056-0.103S272.669,283.859,273.149,283.299z M238.483,339.93l25.064-40.435   c0,0,1.04-0.081,0.587,0.604c-0.453,0.686-24.839,40.258-24.839,40.258S238.181,340.717,238.483,339.93z M213.567,392.935   c0.743-1.203,9.422-15.305,9.422-15.305s0.536-0.173,0.571-0.625c0.037-0.455,0.047-0.87-0.138-0.992   c-0.185-0.125,0.605-1.398,0.605-1.398l10.421,5.925c0,0-0.109,0.566-0.546,1.228c-0.439,0.664-13.991,22.867-13.991,22.867   s-0.096,0.464-0.834-0.021c-0.734-0.489-4.149-2.529-4.149-2.529s0.403-0.527-0.041-0.819c-0.44-0.294-3.815-2.309-3.815-2.309   s1.681-2.381,1.48-3.362C212.351,394.618,212.826,394.137,213.567,392.935z M209.518,401.789c0,0,0.221-0.329,1.334,0.459   c1.119,0.792,2.359,1.718,2.702,1.519c0.342-0.197,0.905,0.07,1.827,0.679c0.921,0.606,3.352,2.211,3.352,2.211l-3.066,4.641   l-4.417-2.601c0,0,0.07-0.425-0.409-0.745c-0.479-0.315-3.779-2.443-3.779-2.443L209.518,401.789z M203.563,457.094   c-0.194,0.296-0.485,0.74-0.485,0.74l0.078,0.684c0,0,0.491,0.854-0.485,1.055c-0.982,0.202-4.113,0.14-4.583-0.274   c-0.466-0.412-1.202-1.537-0.448-2.201c0.756-0.665,2.495-0.258,2.495-0.258s1.808-0.813,2.571-0.523   C203.467,456.607,203.759,456.8,203.563,457.094z M203.199,432.53c0,0-2.768,4.443-3.083,5.281   c-0.317,0.835-2.07,5.277-0.937,7.339c1.132,2.062,1.536,2.732,2.271,3.353c0.733,0.62,0.979,1.179,0.979,1.179   s-4.253,1.315-8.673-1.603c-4.419-2.918-6.075-6.339-5.769-9.205c0.308-2.864,1.4-4.682,1.4-4.682s1.803-1.77,2.409-3.167   c0.606-1.399,9.522-16.985,9.522-16.985l2.508-3.312l1.607-2.434c0,0,1.005,0.243,1.886,0.827l0.068,0.011l2.182,1.137   c0,0,0.181,0.083,0.288-0.08c0.108-0.165,0.781-0.057,2.683,1.096c1.899,1.155,2.589,1.44,2.187,2.051   C214.325,413.948,203.199,432.53,203.199,432.53z M211.983,437.698c-0.383,0.462-3.893,6.855-4.683,6.728   c-0.786-0.125-1.064-0.781-1.158-1.241c-0.093-0.457,0.14-1.41,0.14-1.41l14.92-24.748l1.653,1.091   C222.855,418.117,212.365,437.238,211.983,437.698z M225.365,414.552l-2.148-1.417l1.637-2.719l2.261,1.49L225.365,414.552z    M228.718,409.481l-2.188-1.365l14.337-23.863l2.204,1.456L228.718,409.481z M250.323,375.438c-0.299,0.55-1.003,0.743-1.569,0.433   l-13.574-7.398c-0.57-0.311-0.787-1.005-0.487-1.554c0.298-0.546,0.998-0.739,1.567-0.429l13.575,7.398   C250.404,374.195,250.619,374.892,250.323,375.438z M252.206,361.389c-0.297,0.55-0.855,0.82-1.243,0.61l-9.256-5.045   c-0.389-0.21-0.46-0.829-0.161-1.375c0.297-0.55,0.853-0.822,1.242-0.611l9.257,5.046   C252.433,360.226,252.507,360.842,252.206,361.389z M261.207,381.719c-0.299,0.549-0.693,0.909-0.881,0.807l-4.488-2.446   c-0.187-0.099-0.097-0.63,0.2-1.176c0.299-0.547,0.693-0.91,0.881-0.808l4.485,2.447   C261.595,380.645,261.505,381.175,261.207,381.719z M267.916,370.283c-0.301,0.545-0.702,0.903-0.899,0.795l-4.706-2.566   c-0.197-0.104-0.114-0.638,0.184-1.185c0.299-0.547,0.7-0.904,0.897-0.798l4.707,2.566   C268.295,369.204,268.213,369.735,267.916,370.283z M293.529,284.799c2.559,3.715,3.479,9.248,0.632,14.227   c-2.85,4.981-11.839,21.122-11.839,21.122s-1.529-0.219-3.218-0.191c-1.688,0.029-4.257-0.611-7.15,3.37   c-2.893,3.981-14.226,24.472-14.226,24.472s-0.946,2.363-1.455,2.202c-0.51-0.159-12.857-7.437-12.857-7.437l24.439-39.799   c0,0,1.301-0.635,1.704-1.249c0.405-0.611,0.304-0.856,0.26-1.324c-0.044-0.467,1.147-2.409,2.142-4.042   c0.986-1.632,11.637-15.622,11.637-15.622s-1.024-0.849,0.178-1.203C284.972,278.974,290.968,281.086,293.529,284.799z"
       id="path145" /><path
       fill="#FFFFFF"
       d="M211.249,408.698l4.417,2.601l3.066-4.641c0,0-2.431-1.605-3.352-2.211   c-0.922-0.609-1.485-0.876-1.827-0.679c-0.343,0.199-1.583-0.727-2.702-1.519c-1.113-0.788-1.334-0.459-1.334-0.459l-2.457,3.722   c0,0,3.3,2.128,3.779,2.443C211.32,408.273,211.249,408.698,211.249,408.698z"
       id="path147" /><path
       fill="#FFFFFF"
       d="M274.187,283.035c0.24-0.454-0.559-0.296-0.559-0.296l-0.247,0.365   C273.683,282.92,274.02,282.933,274.187,283.035z"
       id="path149" /><path
       fill="#FFFFFF"
       d="M269.167,290.977c0.214-0.036,0.395-0.093,0.395-0.093s1.358-2.322,2.603-4.437   c-1.4,2.119-2.98,4.514-2.98,4.514C269.178,290.969,269.173,290.97,269.167,290.977z"
       id="path151" /><path
       fill="#FFFFFF"
       d="M268.425,290.639c-0.016,0.201,0.094,0.295,0.248,0.336C268.566,290.868,268.478,290.734,268.425,290.639z"
       id="path153" /><path
       fill="#FFFFFF"
       d="M268.524,290.307l4.857-7.203c-0.083,0.051-0.162,0.112-0.232,0.195c-0.479,0.56-4.779,7.237-4.779,7.237   s0.022,0.044,0.056,0.103C268.432,290.549,268.46,290.441,268.524,290.307z"
       id="path155" /><path
       fill="#FFFFFF"
       d="M268.673,290.976c0.15,0.149,0.333,0.225,0.494,0.001C269.001,291.004,268.82,291.014,268.673,290.976z"
       id="path157" /><path
       fill="#FFFFFF"
       d="M272.164,286.447c1.058-1.602,2.012-3.046,2.099-3.176c0.062-0.094,0.019-0.178-0.076-0.235   c-0.011,0.021-0.012,0.034-0.026,0.057C274.007,283.323,273.118,284.824,272.164,286.447z"
       id="path159" /><path
       fill="#FFFFFF"
       d="M268.425,290.639c0.053,0.094,0.141,0.229,0.248,0.336c0.146,0.039,0.328,0.028,0.494,0.001   c0.006-0.007,0.011-0.008,0.017-0.016c0,0,1.58-2.395,2.98-4.514c0.954-1.623,1.843-3.125,1.996-3.355   c0.015-0.023,0.016-0.036,0.026-0.057c-0.167-0.102-0.504-0.115-0.806,0.069l-4.857,7.203   C268.46,290.441,268.432,290.549,268.425,290.639z"
       id="path161" /></g><path
     fill="#FFFFFF"
     d="M478.944,222.464c-2.037,0.531-16.763,3.4-16.763,3.4s-5.878,0.057-6.589,0.126  c-0.698,0.077-18.679,4.863-18.679,4.863s-0.944,2.228-0.568,2.399c0.379,0.165,0.658,0.667-0.063,0.908  c-0.722,0.249-11.916,5.847-11.916,5.847s0.167,0.426-0.295,0.883c-0.464,0.452-1.649,1.153-1.992,1.105s-1.059,0.143-0.957,0.679  c0.102,0.53-20.594,7.413-20.594,7.413s-0.386-0.568-0.855-0.52c-0.459,0.052-1.444,0.491-1.336-0.296  c0.108-0.789,1.106-0.939,1.081-1.579c-0.027-0.64-0.57-1.692-0.913-1.739c-0.343-0.047-1.467,0.2-2.027,0.532  c-0.567,0.322-3.268,1.103-3.307,1.385c-0.038,0.283-0.093,0.678-0.093,0.678l-6.606,1.624c0,0-1.072-1.012-1.766-0.987  c-0.693,0.019-1.991,0.644-2.446,1.043c-0.456,0.399-0.623,0.718-0.305,0.936c0.32,0.218-6.39,2.06-7.06,2.371  c-0.679,0.309-7.064,2.771-7.748,3.193c-0.695,0.425-3.532,1.762-5.809,4.557c-2.286,2.798-6.798,7.936-6.934,15.228  c-0.14,7.292,1.19,10.179,1.626,10.815c0.429,0.634,0.893,1.909,0.605,3.537c-0.286,1.635-0.318,2.782-0.318,2.782  s-1.032,0.775-1.039,1.639c-0.006,0.862,0.306,2.404,0.306,2.404s-0.381,0.235-0.399-0.001c-0.03-0.231-0.102-2.256-0.73-2.69  c-0.631-0.429-2.275-0.192-3.476,1.423c-1.201,1.622-2.287,4.525-1.929,5.205c0.369,0.685,0.815,1.611,1.371,1.4  c0.542-0.214,0.776-0.643,1.169-0.589c0.395,0.054,0.281,0.5,0.786,0.569c0.504,0.069,2.112,0.117,2.346,0.149  c0.221,0.03,0.424-0.632,0.817-0.116c0.392,0.509,0.361,8.278,0.315,8.62c-0.047,0.341-4.177,2.705-4.861,5.148  c-0.675,2.439-0.422,5.178,0.435,6.106c0.852,0.921-0.413,4.662-0.48,5.979c-0.067,1.31-1.026,6.19-1.198,7.893  c-0.172,1.706-0.756,7.148-0.564,11.206c0.195,4.055,0.033,12.785-0.601,14.484c-0.647,1.699-2.237,4.526-1.874,5.614  c0.376,1.089,0.019,2.42-0.39,3.289c-0.405,0.866-0.75,2.546-0.75,2.546s-2.26-0.311-3.06,1.307  c-0.798,1.617-2.415,8.305-1.737,10.928c0.677,2.624,0.411,4.548,1.432,4.688c1.021,0.141,0.647,1.127,0.3,1.192  c-0.358,0.066-1.911-0.376-2.416,0.821c-0.514,1.195-2.262,7.174-1.582,10.608c0.682,3.427,1.071,5.669,1.858,5.777  c0.788,0.108,1.163-0.068,1.259,0.864c0.107,0.938-0.142,1.94-0.724,1.975c-0.579,0.034-2.618,2.292-2.202,5.107  c0.415,2.821,1.464,4.464,1.169,4.888c-0.283,0.417-1.961,0.88-2.163,2.346c-0.203,1.472-0.479,4.311-1.955,5.835  c-1.472,1.524-2.504,2.303-1.229,5.589c1.274,3.282,1.966,4.991,1.966,4.991s-1.884,0.316-1.014,1.472  c0.876,1.16,0.44,2.707,0.238,4.179c-0.203,1.471-1.453,5.557,0.965,6.35c2.421,0.796,2.719,1.18,2.86,2.696  c0.129,1.512-0.392,23.779-0.392,23.779s-3.415,1.373-4.935,4.042c-1.519,2.67-3.353,5.994-3.725,8.702  c-0.373,2.71-1.391,3.381-1.845,3.319c-0.454-0.063-0.986-0.37-1.527-2.283c-0.538-1.917-4.82-14.37-6.031-17.298  c-1.202-2.923-4.817-11.027-5.183-11.652c-0.379-0.627-0.758-2.863-0.758-2.863s4.387-5.153,5.652-7.63  c1.257-2.479,1.804-5.624-3.209-5.163c-5.015,0.462-15.979,4.827-24.966,10.729c-8.984,5.908-31.294,21.606-34.325,30.286  c-3.046,8.684,2.304,6.649,3.887,6.065c1.571-0.593,9.111-2.662,9.111-2.662s3.644,1.188,5.832,4.484  c2.198,3.3,9.348,19.131,12.27,32.199c2.925,13.067,3.641,20.424,4.054,24.971c0.412,4.551,1.656,16.465,2.36,18.059  c0.697,1.588,1.256,11.802,1.342,13.658c0.095,1.849,0.164,3.822-0.104,4.123c-0.269,0.314-0.716,2.672-0.311,4.801  c0.397,2.121,3.399,17.969,3.399,17.969s-0.664,3.134,0.057,4.614c0.723,1.478,5.889,14.159,9.334,17.513  c3.456,3.354,5.529,7.56,13.291,11.387c7.77,3.834,12.871,4.418,16.904,4.395c4.034-0.021,7.865-0.297,8.254-0.594  c0.382-0.291,6.018,3.133,7.743,3.143c1.726,0.006,8.179,0.773,12.376-2.904c4.187-3.685,5.782-5.193,6.311-9.04  c0.528-3.841,0.201-6.536,1.7-8.174c1.488-1.634,3.719-2.828,4.218-3.911c0.499-1.081,0.733-1.969,0.733-1.969  s0.132,1.512,0.911,1.74c0.773,0.22,1.26,0.861,2.045,0.16c0.794-0.691,3.779,0.177,4.567,0.285  c0.797,0.108,5.176,0.937,5.509,0.982c0.344,0.047,2.885-0.863,3.104-2.451c0.217-1.581,0.333-7.44,0.222-8.367  c-0.097-0.938-0.315-1.893,0.374-2.717c0,0,0.948-1.773,1.147-3.229s0.281-4.854,0.254-5.567c-0.031-0.72,0.415-1.623,1.269-2.663  c0.851-1.038,1.879-4.31,2.018-5.326c0.14-1.008-1.942-2.262-2.853-2.646c-0.913-0.379-2.996-1.631-3.947-1.763  c-0.947-0.13-2.494,0.362-2.589,0.093c-0.088-0.268,0.098-8.236,0.098-8.236s1.079-0.813,0.896-1.355  c-0.185-0.54-0.533-0.778-0.845-0.891c-0.304-0.1-0.637-0.019-0.659-0.798c-0.021-0.776,0.099-4.495,0.099-4.495  s0.938-0.705,1.016-1.276c0.079-0.567-0.489-1.099-0.831-1.46c-0.334-0.371-0.875-0.189-0.859-2.182  c0.019-1.999,0.069-3.28,0.069-3.28s0.569-0.889,0.664-1.581c0.097-0.692-0.108-2.463-1.122-2.602  c-1.013-0.14-2.154-0.232-2.411,0.184c-0.249,0.417-1.089-0.021-2.156-0.236c-1.066-0.207-2.286-0.697-2.286-0.697  s-0.446-7.084-0.009-7.926c0.438-0.838,4.968-0.989,5.511-1.17c0.544-0.183,0.66,0.799,1.293,0.887  c0.63,0.086,1.848,0.187,2.181-0.41c0.342-0.601,1.065-1.205,0.668-2.029c-0.399-0.831-0.421-1.158-0.714-1.39  c-0.287-0.235-0.007-1.354,0.045-1.733c0.053-0.383,0.736-0.673,0.505-1.287c-0.244-0.608-0.752-0.678-0.69-1.127  c0.061-0.439-0.804-15.697-0.804-15.697s0.305-0.34,1.029-0.949c0.734-0.604,1.599-0.81,1.504-1.98  c-0.096-1.177-0.915-1.805-1.513-2.14c-0.599-0.341-1.229-0.428-1.471-1.944c-0.242-1.514-0.406-11.583-0.406-11.583l-0.443-5.214  c0,0,0.862-5.809,1.412-7.47c0.556-1.665,1.332-3.554,0.462-4.255c-0.871-0.694-1.372-1.283-1.627-1.768  c-0.251-0.49-1.135-1.128-1.788-1.531c-0.651-0.416-1.788-0.573-2.03-0.67c-0.247-0.095-0.892-0.123-1.284-0.046  c-0.395,0.073-0.897-2.379-0.749-3.455c0.147-1.071,1.267-1.243,1.436-1.542c0.167-0.295,0.736-1.124,0.666-1.581  c-0.062-0.461-0.341-1.27-1.29-1.401c-0.947-0.13,0.027-0.189,0.488-0.258c0.462-0.063,1.045-1.014,0.165-1.2  c-0.875-0.181-1.69-0.358-1.699-0.745c-0.012-0.39-0.073-1.814,0.18-1.779c0.251,0.035,1.455,0.2,1.455,0.2s0.367,1.083,1.323,1.148  c0.958,0.066,2.016-0.625,2.242-1.305c0.219-0.677,0.183-2.29-0.45-2.828c-0.635-0.542-2.336-1.286-2.81-0.642  c-0.479,0.64-0.893,1.29-0.806,1.629c0.085,0.326-1.195,0.284-1.195,0.284l-0.006-0.907l-0.76-0.104l-0.642-14.06  c0,0,2.397-0.124,3.625-2.465c1.22-2.346,1.013-5.529-0.922-6.44c-1.937-0.91-2.737-1.152-2.737-1.152s0.465-0.578,0.78-0.535  c0.312,0.043,0.504-0.379,0.594-0.56c0.085-0.187,0.202-0.555,0.202-0.555s1.727,0.562,1.812-0.073  c0.088-0.629,0.165-1.201-0.5-1.484c-0.669-0.284-1.418-0.454-1.418-0.454l0.017-0.637c0,0,0.428,0.183,0.425-1.682  c0-1.873-0.126-3.752-0.126-3.752s1.338-0.334,1.459-1.215c0.122-0.891,0.335-2.018-0.587-2.336  c-0.918-0.326-1.645-0.683-1.55-1.377c0.097-0.694-0.819-9.966-1.05-11.544c-0.237-1.573-1.008-2.971-0.938-3.477  c0.07-0.505-0.208-1.315-0.495-1.548c-0.29-0.232-0.694-4.796-0.694-4.796s-0.32-0.044,0.324-0.022  c0.636,0.029,1.125-0.229,1.458-0.315c0.337-0.08,0.39-0.462,0.416-0.651c0.025-0.188,0.193-0.937,0.193-0.937  s1.165,0.417,1.513,0.208c0.352-0.211,0.523-0.959-0.425-1.089s-1.52-0.209-1.52-0.209s0.559-1.273,0.342-1.561  c-0.219-0.289-0.471-0.772-0.357-1.597c0.113-0.822,0.172-2.231,0.136-2.428c-0.032-0.195,0.883-0.327,0.908-0.974  c0.021-0.637-0.026-2.125-0.026-2.125s-0.228-0.224-0.675-0.285c-0.44-0.061-0.514-0.46-0.462-0.837  c0.052-0.376,0.107-1.724-0.104-2.976c-0.218-1.253-0.718-3.71-0.621-4.405c0.095-0.694-0.033-3.028-0.367-4.812  c-0.338-1.786-1.061-3.564-1.225-4.23c-0.166-0.668-0.412-1.667-0.599-3.108c-0.192-1.442-0.633-7.619-0.633-7.619  s0.25-0.417,0.81-0.281c0.564,0.145,1.063,0.279,1.202-0.733c0.14-1.013,0.771-4.213,0.279-5.313  c-0.5-1.091-1.569-3.111-1.891-3.604c-0.316-0.493-0.679-0.228-0.942-1.095c-0.267-0.878-0.378-10.872-0.378-10.872  s-0.169-0.154,0.46-0.067c0.637,0.087,1.422,0.003,1.761-0.15c0.341-0.144,0.787-0.598,0.874-1.228  c0.087-0.631,0.169-1.651-0.116-1.947c-0.28-0.298-0.36-0.633-0.335-0.821c0.026-0.188,0.541-0.181,0.541-0.181  s0.314-0.409,0.172-0.817c-0.138-0.402-0.615-0.661-0.703-0.48c-0.089,0.18-0.658-0.35-0.633-0.538  c0.026-0.188-0.808-22.271-0.808-22.271l0.205-2.418c0,0,0.541-0.344,0.627-0.964c0.085-0.624,0.021-0.974-0.383-1.03  c-0.395-0.055-0.128-1.168-0.128-1.168l-0.71-0.219l0.033-4.426c0,0,0.495-0.682,0.344-1.68c-0.15-0.998-0.495-2.312-0.554-3.53  c-0.061-1.213-0.505-3.866-0.42-4.489c0.086-0.625,1.303-0.286,1.385-1.25c0.07-0.968,0.154-1.13-0.352-1.26  c-0.498-0.124-0.397-0.397-0.231-1.237c0.178-0.839,0.47-2.587-0.753-3.271c-1.233-0.689-2.137-0.005-2.502,0.172  c-0.374,0.184-0.368,0.585-0.994,0.5c-0.615-0.085-1.226-0.281-1.226-0.281s-0.03-1.044,0.048-1.608  c0.077-0.565-0.312-3.21-0.249-3.662c0.062-0.454,0.253-0.943,0.385-1.903c0.132-0.965,0.134-1.42,0.662-1.523  c0.538-0.099,1.958-1.23,2.494-1.384c0.545-0.158,1.376-0.734,0.799-1.617c-0.568-0.887-1.565-1.191-2.352-1.299  c-0.788-0.108-4.284-0.709-4.284-0.709l-0.667-0.146c0,0,0.464-5.466,1.439-7.922c0.961-2.459,5.67-10.676,12.504-13.94  c6.844-3.265,12.168-5.584,12.542-5.761c0.365-0.177,20.455-9.394,22.564-10.08c2.11-0.693,3.816-0.916,3.816-0.916  s0.818,0.34,1.317,0.062c0.491-0.276,1.084-0.77,1.538-0.708c0.443,0.061,1.626,0.278,1.626,0.278s1.784,0.419,4.395-0.547  c2.61-0.961,8.752-2.48,8.752-2.48s0.569,0.02,0.783,0.569c0.212,0.545,0.944,0.246,0.944,0.246s2.159-0.682,2.354-0.829  c0.195-0.148,0.745,0.042,1.154-0.016c0.408-0.057,0.924-0.449,0.924-0.449s-0.115,1.658,0.198,1.93  c0.312,0.271,0.786,0.568,1.3,0.579c0.52,0.018,1.635,0.284,1.635,0.284s0.003,0.805,0.337,0.911c0.327,0.1,1.55,0.039,1.55-0.422  c0.012-0.46,0.694-1.687,0.643-2.964c-0.06-1.275-0.149-2.726-0.238-2.912c-0.086-0.179,0.785-0.234,1.381-0.386  c0.597-0.146,1.491-0.37,1.491-0.37s0.087,1.45,0.435,1.847c0.346,0.395,1.045,0.779,1.745,0.7c0.698-0.078,1.221-0.065,1.786,0.012  s0.684,0.04,1.344,0.245c0.661,0.204,1.215-0.008,1.284-0.514c0.07-0.511-0.309-1.943-0.98-2.958  c-0.666-1.011-1.26-1.325-1.205-1.721c0.055-0.393,1.12-0.595,1.183-1.042c0.062-0.454-0.916-2.088,2.282-4.412  c3.197-2.32,16.479-12.705,16.479-12.705S480.969,221.939,478.944,222.464z M337.788,565.248l-2.779,2.941l-0.281-4.218  l-0.792-28.795l4.229-3.79L337.788,565.248z M338.334,524.576c-0.171,1.238,0.162,2.552-1.111,3.879  c-1.27,1.322-4.095,3.404-4.189,2.816c-0.084-0.588-0.646-6.59-0.538-8.648c0.117-2.061-1.632-9.902-1.855-12.462  c-0.222-2.567-1.347-7.326-0.521-7.5s1.55-0.364,1.55-0.364s0.562,0.942,1.402,2.379c0.828,1.445,4.482,4.188,4.482,4.188  c0.752-0.012,0.981,1.232,0.981,1.232S338.505,523.331,338.334,524.576z M338.708,505.916c0,0-1.437-1.289-2.397-2.234  c-0.962-0.934-1.26-2.125-1.042-2.445c0.208-0.312,1.781-0.383,1.897-1.23c0.117-0.848-0.009-3.745-0.917-5.078  c-0.916-1.34-2.459-1.777-2.459-1.777s0.092-3.217,1.212-5.079c1.119-1.861,3.336-4.603,3.336-4.603l0.688-0.369L338.708,505.916z   M346.812,382.298c-0.357,0.928-1.639,1.574-1.881,1.169c-0.246-0.414-0.356-2.3-0.063-4.43c0.293-2.131,1.913-1.979,1.913-1.979  s1.235,0.84,1.086,1.348C347.726,378.908,347.157,381.374,346.812,382.298z M362.756,267.884c0,0-1.363,2.278-1.676,3.513  c-0.32,1.226,0.589,1.124,0.589,1.124s-3.062,9.235-3.348,9.124c-0.281-0.115-1.523-4.18-1.446-7.984  c0.075-3.808,4.324-6.967,4.324-6.967s0.398-0.168,1.038,0.071C362.878,267.001,362.756,267.884,362.756,267.884z M398.207,601.393  c0.394-0.294,2.797-1.273,2.754-0.32c-0.045,0.958-2.226,4.76-2.226,4.76l-0.197-0.464c0,0-0.432-0.672-0.792-0.632  c-0.353,0.035-0.604,0.613-1.058,0.725c-0.454,0.109-0.771-0.105-0.7-0.617C396.059,604.335,397.817,601.689,398.207,601.393z   M393.628,620.757c0.239-0.487,1.977-1.033,2.259-0.562l0.069,5.863c0,0-0.339,0.565-0.847-0.206  C394.601,625.085,393.383,621.25,393.628,620.757z M388.41,585.742l-0.101-3.186c0,0,0.292-0.585,0.501-0.639  c0.216-0.053,0.415,1.559,0.489,2.823C389.378,586.003,388.501,586.009,388.41,585.742z M388.333,571.127  c0.535,0.072,0.881,0.867,0.881,0.867l-0.096,6.458c-0.17,0.647-1.384,0.103-1.384,0.103s-0.321-5.881-0.314-6.849  C387.426,570.748,387.805,571.053,388.333,571.127z M389.321,555.441l-2.82-0.725l2.989-0.507L389.321,555.441z M386.65,498.015  c0.532,0.073,1,0.009,1.173-0.009c0.169-0.019,0.832-0.304,1.37-0.231c0.528,0.073,0.461,1.484,0.461,1.484  c-0.26,0.049-1.213,0.292-1.577,0.828c-0.361,0.534-0.422,1.281-1.048,1.231c-0.615-0.046-0.807-0.191-0.698-0.973  c0.107-0.775-0.284-1.539-0.284-1.539S386.119,497.942,386.65,498.015z M387.061,526.333l0.129-0.941l1.963,0.271l-0.003,0.958  L387.061,526.333z M388.722,536.114c0,0-0.458,1.189-0.536,1.471c-0.078,0.283-0.987-0.135-0.987-0.135s-0.854-7.76-0.771-8.66  c0.084-0.908,0.925-0.629,1.38-0.312C388.269,528.794,388.722,536.114,388.722,536.114z M388.964,523.125  c0.027,0.668-0.521,0.721-0.931,0.664c-0.408-0.057-0.544-0.907-0.498-1.237c0.044-0.321-0.529-7.34-0.47-8.116  c0.069-0.786,0.705-0.572,0.754-0.32c0.05,0.258,0.853,0.789,0.814,1.365C388.599,516.063,388.964,523.125,388.964,523.125z   M385.906,549.299c0.38-1.539,0.07-5.049,0.358-5.051c0.293,0.007,2.347-0.047,2.347-0.047s0.441,1.061,0.43,2.355  c-0.013,1.285,0.431,5.645,0.431,5.645l-4.236,0.758C385.235,552.959,385.528,550.83,385.906,549.299z M385.637,459.793  c0.477,0.887,0.95,2.903,0.358,3.942c-0.596,1.04-1.98,1.898-1.98,1.898l-0.175-6.386  C383.84,459.248,385.159,458.905,385.637,459.793z M375.311,353.51c0,0-0.605-18.423-0.505-19.153  c0.1-0.734,0.662,0.091,0.662,0.091l0.678,19.028C376.054,354.14,375.311,353.51,375.311,353.51z M376.115,367.841  c0,0-0.367-7.685-0.136-8.253c0.225-0.56,0.717-0.344,0.717-0.344l0.195,8.932L376.115,367.841z M379.203,422.157l-1.119-0.006  l0.1-5.597l0.713,0.246L379.203,422.157z M377.675,402.265c0.041-0.295,0.852,0.345,0.852,0.345l-0.048,5.756l-0.71,0.273  C377.769,408.639,377.635,402.56,377.675,402.265z M375.29,311.742c0,0,1.033-0.977,1.488-1.515c0.442-0.54,0.635,3.529,0.635,3.529  s-0.863-0.271-1.545-0.212C375.185,313.599,375.29,311.742,375.29,311.742z M374.232,321.626c0.12-0.877,0.441-0.46,0.441-0.46  l0.865,11.122c-0.08,0.583-0.808-0.111-0.808-0.111S374.111,322.509,374.232,321.626z M377.628,257.724  c-1.996,0.925-7.504,5.03-7.504,5.03l-2.11-2.609c0,0,1.782-1.548,3.633-2.494c1.853-0.945,10.392-4.257,10.392-4.257l0.359,0.644  l0.134,1.746C382.531,255.783,379.627,256.804,377.628,257.724z M395.199,251.312c0,0-6.806,2.128-6.899,1.743  c-0.098-0.385-1.333-1.232-1.333-1.232l6.238-1.764c0.498,0.147,1.392,0.191,1.979,0.272  C395.772,250.412,395.199,251.312,395.199,251.312z"
     id="path163" /><g
     id="g165"><path
       fill="#FFFFFF"
       d="M814.366,267.501l4.799,15.916l1.443,5.656c0,0,0.92,2.311,0.986,2.611   c0.068,0.299-0.178,0.593-0.025,1.266c0.154,0.674,3.17,11.17,3.973,13.664c0.803,2.495,1.846,6.037,2.021,7.494   c0.172,1.455,0.598,3.327,0.598,3.327s0.389,1.016,0.525,1.614c0.137,0.598,0.373,1.647,0.107,1.866   c-0.264,0.216,2.729,14.417,3.154,16.29c0.426,1.871,5.885,26.221,5.885,26.221s3.742,3.638,4.441,5.682   c0.703,2.045,2.1,6.452,1.465,8.171c-0.633,1.719-0.846,2.161-1.307,1.873c-0.459-0.29-0.84,0.112-0.719,0.637   c0.119,0.523,2.213,9.733,2.213,9.733s1.234,0.585,1.09,1.328c-0.148,0.741-0.273,0.534-0.184,1.617   c0.088,1.081,0.744,2.586,0.744,2.586l1.158-0.107l0.561,0.739c0,0,0.52,0.906,0.928,0.97c0.41,0.065,0.186,0.116-0.053,0.8   c-0.238,0.683-0.252,1.315-0.316,1.724c-0.064,0.409-0.48,0.661-0.48,0.661s0.113,0.84-0.119,1.208   c-0.23,0.369-0.328,0.627-0.227,1.075c0.102,0.45,1.754,7.711,1.754,7.711s1.432,0.068,2.004,1.198   c0.572,1.13,0.74,1.879,0.096,2.5c-0.646,0.618-0.844,1.135-0.844,1.135l0.504,2.563c0,0,0.252,0.414,0.523-0.12   c0.273-0.533,2.244-2.95,4.586-2.695c2.34,0.255,2.311,0.812,2.307,1.837c-0.004,1.024-0.156,2.083-1.17,2.471   c-1.014,0.388-2.494,0.803-2.494,0.803l0.34,1.497c0,0,0.518-1.534,1.541-1.531c1.025,0.002,3.193,0.533,3.732,3.246   c0.537,2.712,0.293,5.445-0.266,7.147c-0.559,1.702-0.547,3.825-0.561,4.458s-0.377,1.109-0.242,1.707   c0.137,0.599,1.164,6.509,1.062,7.791c-0.102,1.283-0.053,2.533-0.053,2.533s0.309,0.323,0.834,0.204   c0.523-0.12,1.18-0.348,1.18-0.348s1.062-0.872,1.732,0c0.672,0.872,0.715,1.412,0.059,1.641c-0.658,0.227-1.314,0.457-1.631,0.448   c-0.314-0.004-0.764,0.098-1.156,0.105c-0.391,0.011-1.035-0.393-0.83,0.505c0.203,0.898,0.482,1.781,0.482,1.781   s0.709-0.005,0.939-0.371c0.23-0.369,1.072-0.48,1.371-0.548c0.301-0.068,1.447-0.567,1.801,0.297   c0.355,0.865,0.09,1.79-0.615,1.795c-0.709,0.003-1.539,0.505-1.797,0.409c-0.258-0.099-0.719-0.388-1.15-0.211   s-0.617,0.062-0.4,1.352c0.213,1.287,4.48,18.667,4.48,18.667l-0.807,0.261l-0.064,0.409c0,0,1.688-0.542,1.975,0.023   c0.285,0.565,0.463,0.997-0.379,1.11c-0.84,0.111-1.986,0.609-1.986,0.609l0.312,1.031c0,0,1.332-0.38,1.672,1.118   c0.34,1.497,1.137,2.575,1.023,3.466c-0.111,0.893,0.24,1.048,0.242,1.757c0.004,0.708-0.102,1.283-0.566,1.31   c-0.469,0.027-0.617,0.061-0.158,2.083s4.883,20.779,4.883,20.779s1.91,0.433,2.48,2.586c0.566,2.156,0.578,4.279,0.225,5.146   c-0.354,0.869-0.734,1.27-0.133,3.574c0.604,2.303,6.018,22.648,6.018,22.648l0.467,1.705c0,0,0.795,0.37,0.561,0.736   c-0.23,0.369,0.215,1.289,0.266,1.515c0.051,0.224,5.406,18.93,7.449,24.448c2.043,5.52,5.676,13.906,7.797,16.652   c2.123,2.747,3.51,3.689,4.484,3.919c3.557,0.839,3.559,1.244,4.004,1.868c0.457,0.637,2.455,2.827-7.428,6.808   c-9.883,3.979-20.916,6.067-28.174,5.097c-3.775-0.504-5.143-1.225-5.791-2.096c-0.812-1.09-0.229-2.391,0.893-3.353   c1.119-0.966,2.402-0.863,3.088-3.382c0.688-2.519,1.709-8.421,0.342-18.582c-1.365-10.16-3.674-26.882-3.674-26.882l-1.545-9.569   c0,0-0.848,0.429-1.674-0.09c-0.828-0.521-1.949-1.291-2.426-3.386c-0.477-2.099-0.736-3.929-0.162-4.533   c0.57-0.601,1.303-0.845,1.604-0.913c0.299-0.068,0.713-0.32,0.594-0.845c-0.119-0.525-6.191-27.568-6.191-27.568   s-1.43,0.638-1.975-0.025c-0.543-0.664-1.514-1.466-1.975-3.488c-0.459-2.021-0.506-3.271-0.285-4.028   c0.223-0.76,1.535-1.217,1.76-1.269c0.223-0.051,0.488-0.269,0.234-1.392c-0.256-1.123-1.705-8.194-1.705-8.194   s-1.084,0.089-1.658-0.016c-0.576-0.105-4.629,0.423-5.354,0.35c-0.727-0.071-2.557,0.188-3.496-1.174   c-0.939-1.36-0.527-2.32,0.344-2.99c0.871-0.671,3.525-1.118,3.525-1.118s0.48-0.661,0.244-1c-0.234-0.34-3.109-0.868-3.539-1.715   c-0.428-0.846-0.611-2.695,0.891-3.353c1.506-0.656,4.252-1.044,5.076-1.232c0.822-0.187,0.742-0.878,0.441-1.517   c-0.303-0.641-1.365,0.23-1.699,0.149c-0.334-0.082-0.908-0.187-1.072-1.253c-0.164-1.066-0.662-1.188-0.748-1.562   c-0.086-0.373,0.049-0.481,0.428-0.884c0.381-0.4-0.006-1.416-0.389-2.745c-0.379-1.332-1.598-8.063-1.598-8.063   s-0.988,0.147-0.842-0.596c0.145-0.743,0.32-1.019,0.32-1.019l-2.373-9.381c0,0-1.17,0.738-1.08,0.088   c0.088-0.649,0.527-1.144,0.527-1.144s-0.475-1.389-0.783-1.712c-0.311-0.324-0.412-0.771-0.205-0.898   c0.209-0.125-0.51-0.514-0.68-1.262c-0.17-0.75-0.965-4.583-0.965-4.583s1.041,0.077,1.049-0.239   c0.006-0.317-0.314-1.031-0.314-1.031s-0.5-0.123-0.701-0.312s0.008-0.318,0.279-0.851c0.273-0.537,0.09-0.65-0.037-0.859   c-0.127-0.208-0.607-0.256-0.631-1.038c-0.02-0.783-0.156-1.381,0.502-1.609c0.654-0.229,0.109-0.893,0.109-0.893   s-0.504,0.195-0.99,0.147c-0.482-0.048-0.459-0.289-0.719-1.095c-0.266-0.808-1.414-6.216-1.414-6.216s-0.984-0.17-0.988-0.877   c-0.002-0.709,0.385-1.426,0.385-1.426s-0.061-0.616-0.451-0.606c-0.393,0.011-0.951-0.021-1.139-0.843   c-0.188-0.824-0.289-1.273-0.289-1.273s-1.051,1.263-0.848,2.161c0.205,0.898,0.781,4.469,1.105,5.89   c0.322,1.424,0.561,2.471,0.197,2.947c-0.365,0.478,0.082,1.401,0.217,1.999c0.137,0.599,1.58,1.058,1.422,2.434   c-0.162,1.376-1.115,2.38-1.914,2.324c-0.801-0.054-2.094-0.547-2.01-1.906c0.086-1.356,0.525-1.85,0.525-1.85   s0.25-0.295,0.086-0.652c-0.158-0.357-0.938-1.361-0.957-2.144c-0.021-0.783,0.301-1.799,0.301-1.799s0.277-0.851-0.043-1.565   s-0.633-0.014-0.99,0.146c-0.357,0.161-0.271,0.535-0.646,0.621c-0.373,0.085-1.525-0.127-1.738-1.417   c-0.217-1.288,0.662-2.276,1.312-2.188c0.648,0.089,0.699,0.312,0.699,0.312s0.465-0.734,0.104-1.282s-0.879-0.746-1.109-0.377   c-0.232,0.366-0.229,1.075-0.797,0.652c-0.566-0.422-1.246-0.976-1.283-1.834c-0.037-0.857,0.525-1.853,1.141-1.912   c0.615-0.063,0.719,0.388,0.719,0.388s0.492,0.438,0.49-0.27c-0.004-0.709,0.443-2.543,0.342-2.992   c-0.102-0.448,0.152-2.79,0.555-4.141c0.4-1.353,0.939-2.104,0.852-3.187c-0.092-1.081-0.273-2.93-1.057-4.641   c-0.783-1.712-2-1.513-1.564-3.424c0.43-1.909,0.293-5.973-1.133-8.089c-1.428-2.116-1.736-2.439-1.336-3.792   c0.4-1.351-0.068-5.496-0.861-7.598c-0.793-2.104-2.133-3.846-2.611-4.211c-0.477-0.363-0.695-0.629-0.268-2.221   c0.424-1.594,0.854-2.478,0.309-4.875s-2.08-10.865-2.08-10.865l0.463-0.737l-2.822-15.184l0.455-0.419   c0,0-0.104-2.182,0.482-2.392c0.58-0.212-0.965-6.315-1.922-9.486c-0.957-3.168-2.248-6.417-2.793-8.813   c-0.545-2.395-1.529-7.763-1.896-9.725c-0.367-1.965-2.283-13.497-2.453-14.245c-0.17-0.75-0.998-6.467-0.998-6.467   s-0.688,0.786-1.062,0.871c-0.373,0.085-2.07,0.235-2.518-0.688c-0.447-0.922-0.938-2.385-0.174-3.188   c0.762-0.803,2.125-1.036,2.529-0.654c0.4,0.381-0.453-3.362-0.453-3.362s-1.277,2.144-2.893,1.129   c-1.607-1.012-1.832-2.181-1.42-3.14c0.41-0.96,1.213-1.931,2.365-1.719c1.148,0.211,1.65,0.332,1.65,0.332   s-0.896-6.015-1.383-8.502c-0.488-2.489-0.686-7.169-0.33-9.061c0.357-1.891,1.375-3.304,3.604-3.889   c2.23-0.587,3.789-0.312,5.311,2.572C812.78,262.27,814.366,267.501,814.366,267.501z"
       id="path167" /><path
       fill="#FFFFFF"
       d="M834.225,420.661c0,0,0.795-0.654,1.234-0.281c0.439,0.372,0.971,1.668,1.15,2.454   c0.178,0.788,0.32,1.937-0.104,2.15c-0.424,0.215-1.123,0.255-1.363-0.28C834.905,424.167,834.225,420.661,834.225,420.661z"
       id="path169" /></g></svg>