<?xml version="1.0" encoding="utf-8"?>
<!-- Generator: Adobe Illustrator 16.0.4, SVG Export Plug-In . SVG Version: 6.00 Build 0)  -->
<!DOCTYPE svg PUBLIC "-//W3C//DTD SVG 1.1//EN" "http://www.w3.org/Graphics/SVG/1.1/DTD/svg11.dtd">
<svg version="1.1" id="Layer_1" xmlns="http://www.w3.org/2000/svg" xmlns:xlink="http://www.w3.org/1999/xlink" x="0px" y="0px"
	 width="539.362px" height="198.141px" viewBox="0 0 539.362 198.141" enable-background="new 0 0 539.362 198.141"
	 xml:space="preserve">
<g>
	<path fill="#fff" d="M122.141,63.748c-7.433,0-14.574,1.228-21.256,3.458c-0.072,0.024-0.143,0.05-0.214,0.073
		c-2.801,1.199-4.774,3.898-4.992,7.082c-0.013,0.189-0.057,0.371-0.057,0.564c0,0.193,0.044,0.375,0.057,0.564v34.239
		c6.219-7.746,15.754-12.718,26.461-12.718c18.742,0,33.935,15.193,33.935,33.935s-15.193,33.935-33.935,33.935
		s-33.934-15.193-33.934-33.935V72.954V0H54.945C24.6,0,0,23.119,0,51.637c0,22.477,18.71,40.262,21.931,51.456
		c2.005,6.967-0.046,20.86-1.12,23.363c2.428-3.358,11.116-10.533,11.116-28.401c0-13.546-7.672-24.593-7.596-37.85
		c0-15.889,13.706-26.922,30.613-26.922v97.663c0,37.112,30.085,67.196,67.196,67.196s67.197-30.084,67.197-67.196
		C189.338,93.833,159.252,63.748,122.141,63.748z"/>
	<path fill="#fff" d="M313.033,63.443c-12.604,0-24.118,4.638-32.955,12.287c-8.836-7.648-20.349-12.287-32.954-12.287
		c-27.832,0-50.395,22.564-50.395,50.396v0.001v84.302h26.601c4.373,0,7.918-3.385,8.251-7.671c0.017-0.217,0.065-0.424,0.065-0.645
		c0-0.22-0.048-0.428-0.065-0.645v-27.402v-47.94c0-8.584,6.958-15.543,15.543-15.543c8.457,0,15.319,6.756,15.523,15.162
		c0,0.127-0.01,0.253-0.01,0.382c0,0.127,0.009,0.253,0.01,0.38c0.002,0.256,0.014,0.509,0.019,0.763v46.797v36.362h26.551
		c4.541,0,8.218-3.644,8.301-8.164c0.001-0.05,0.016-0.099,0.016-0.151c0-0.052-0.015-0.101-0.016-0.151V161.79v-47.379v-0.571
		v-0.001c0-0.129-0.009-0.254-0.01-0.381c0.204-8.406,7.068-15.162,15.524-15.162c8.584,0,15.541,6.959,15.541,15.543v47.94v36.362
		h25.033c0.489,0.091,0.988,0.151,1.503,0.151c0.516,0,1.016-0.061,1.504-0.151c3.873-0.709,6.812-4.085,6.812-8.164v-76.138v-0.001
		C363.427,86.007,340.866,63.443,313.033,63.443z"/>
	<path fill="#fff" d="M488.969,63.443c-12.605,0-24.118,4.638-32.953,12.287c-8.838-7.648-20.351-12.287-32.956-12.287
		c-27.83,0-50.394,22.564-50.394,50.396v0.001v84.302h26.6c4.373,0,7.917-3.385,8.253-7.671c0.017-0.217,0.064-0.424,0.064-0.645
		c0-0.22-0.048-0.428-0.064-0.645v-27.402v-47.94c0-8.584,6.958-15.543,15.541-15.543c8.456,0,15.321,6.756,15.523,15.162
		c0,0.127-0.009,0.253-0.009,0.382c0,0.127,0.009,0.253,0.009,0.38c0.003,0.256,0.014,0.509,0.02,0.763v46.797v36.362h26.551
		c4.54,0,8.219-3.644,8.302-8.164c0-0.05,0.014-0.099,0.014-0.151c0-0.052-0.014-0.101-0.014-0.151V161.79v-47.379v-0.571v-0.001
		c0-0.129-0.01-0.254-0.012-0.381c0.206-8.406,7.071-15.162,15.525-15.162c8.584,0,15.543,6.959,15.543,15.543v47.94v36.362h25.031
		c0.489,0.091,0.987,0.151,1.504,0.151c0.516,0,1.014-0.061,1.505-0.151c3.872-0.709,6.811-4.085,6.811-8.164v-76.138v-0.001
		C539.362,86.007,516.801,63.443,488.969,63.443z"/>
</g>
</svg>
