<?xml version="1.0" encoding="utf-8"?>
<!-- Generator: Adobe Illustrator 15.1.0, SVG Export Plug-In . SVG Version: 6.00 Build 0)  -->
<!DOCTYPE svg PUBLIC "-//W3C//DTD SVG 1.1//EN" "http://www.w3.org/Graphics/SVG/1.1/DTD/svg11.dtd">
<svg version="1.1" id="Ebene_1" xmlns="http://www.w3.org/2000/svg" xmlns:xlink="http://www.w3.org/1999/xlink" x="0px" y="0px"
	 width="456.915px" height="348.453px" viewBox="76.292 146.796 456.915 348.453"
	 enable-background="new 76.292 146.796 456.915 348.453" xml:space="preserve">
<path fill="none" stroke="#009B5B" stroke-width="25" stroke-miterlimit="10" d="M455.588,164.411l-24.195,28.459
	c32.535,27.631,51.947,74.776,51.947,126.102c0,53.02-21.363,102.527-55.781,129.209l22.897,29.531
	c44.003-34.105,70.251-93.463,70.251-158.74C520.707,256.82,496.357,199.037,455.588,164.411z M351.432,261.257l-26.249,26.597
	c7.185,7.099,11.467,18.722,11.467,31.118c0,14.041-5.63,27.219-14.333,33.572l22.035,30.188
	c18.582-13.572,29.669-37.404,29.669-63.76C374.021,296.47,365.784,275.419,351.432,261.257z M88.792,257.804v128.24l83.065,0.555
	l98.375,81.961V175.843l-98.375,81.961H88.792z M399.961,209.294l-24.453,28.252c20.653,17.875,32.983,48.32,32.983,81.426
	c0,34.244-13.605,66.229-35.472,83.498l23.142,29.34c31.119-24.537,49.701-66.729,49.701-112.838
	C445.862,275.177,428.696,234.162,399.961,209.294z"/>
</svg>
