<?xml version="1.0" encoding="utf-8"?>
<!-- Generator: Adobe Illustrator 15.1.0, SVG Export Plug-In . SVG Version: 6.00 Build 0)  -->
<!DOCTYPE svg PUBLIC "-//W3C//DTD SVG 1.1//EN" "http://www.w3.org/Graphics/SVG/1.1/DTD/svg11.dtd">
<svg version="1.1" id="Ebene_1" xmlns="http://www.w3.org/2000/svg" xmlns:xlink="http://www.w3.org/1999/xlink" x="0px" y="0px"
	 width="456.915px" height="348.451px" viewBox="76.292 146.796 456.915 348.451"
	 enable-background="new 76.292 146.796 456.915 348.451" xml:space="preserve">
<path fill="none" stroke="#222426" stroke-width="25" stroke-miterlimit="10" d="M455.587,164.411l-24.195,28.46
	c32.535,27.631,51.947,74.776,51.947,126.1c0,53.02-21.363,102.529-55.781,129.21l22.898,29.53
	c44.002-34.105,70.251-93.461,70.251-158.74C520.707,256.819,496.357,199.036,455.587,164.411z M351.432,261.258l-26.249,26.595
	c7.185,7.099,11.467,18.722,11.467,31.119c0,14.041-5.63,27.218-14.333,33.572l22.035,30.188
	c18.582-13.573,29.669-37.405,29.669-63.761C374.021,296.47,365.784,275.419,351.432,261.258z M88.792,257.804v128.242l83.065,0.553
	l98.375,81.961V175.844l-98.375,81.96H88.792z M399.96,209.294l-24.453,28.253c20.654,17.874,32.984,48.319,32.984,81.424
	c0,34.246-13.608,66.229-35.472,83.498l23.142,29.34c31.119-24.539,49.701-66.729,49.701-112.838
	C445.862,275.177,428.696,234.162,399.96,209.294z"/>
</svg>
