<?xml version="1.0" encoding="UTF-8" standalone="no"?>
<svg width="10px" height="18px" viewBox="0 0 10 18" version="1.1" xmlns="http://www.w3.org/2000/svg" xmlns:xlink="http://www.w3.org/1999/xlink" xmlns:sketch="http://www.bohemiancoding.com/sketch/ns">
    <!-- Generator: Sketch 3.0.1 (7597) - http://www.bohemiancoding.com/sketch -->
    <title>Icon-No-Audio</title>
    <description>Created with Sketch.</description>
    <defs></defs>
    <g id="Assets" stroke="none" stroke-width="1" fill="none" fill-rule="evenodd" sketch:type="MSPage">
        <g id="Artboard-1" sketch:type="MSArtboardGroup" transform="translate(-20.000000, -673.000000)" fill="#1E3851">
            <g id="Icon-No-Audio" sketch:type="MSLayerGroup" transform="translate(20.000000, 674.000000)">
                <path d="M2.00986236,13 C0.889800489,13 0,12.1047419 0,11.000385 L0,4.99961498 C0,3.88743329 0.899846031,3 2.00986236,3 L4.16666667,3 L8.35409317,0.128621825 C9.25345182,-0.488081251 10,-0.106768098 10,0.995089293 L10,15.0049107 C10,16.1073772 9.26310241,16.4946988 8.35409317,15.8713782 L4.16666667,13 L2.00986236,13 Z M2.01014503,10.8340516 C1.99738322,10.8340516 2.00028313,4.83366659 2.00028313,4.83366659 C2.00028313,4.83227227 4.78666745,4.83405161 4.78666745,4.83405161 L8,2.83405161 L8,12.8340516 L4.78666745,10.8340516 L2.01014503,10.8340516 Z" id="Path-2" sketch:type="MSShapeGroup"></path>
            </g>
        </g>
    </g>
</svg>