<?xml version="1.0" encoding="utf-8"?>
<!-- Generator: Adobe Illustrator 15.1.0, SVG Export Plug-In . SVG Version: 6.00 Build 0)  -->
<!DOCTYPE svg PUBLIC "-//W3C//DTD SVG 1.1//EN" "http://www.w3.org/Graphics/SVG/1.1/DTD/svg11.dtd">
<svg version="1.1" id="Ebene_1" xmlns="http://www.w3.org/2000/svg" xmlns:xlink="http://www.w3.org/1999/xlink" x="0px" y="0px"
	 width="287.29px" height="287.288px" viewBox="153.993 141.057 287.29 287.288"
	 enable-background="new 153.993 141.057 287.29 287.288" xml:space="preserve">
<path fill="#F7F7F7" d="M438.054,284.703c0,77.547-62.869,140.416-140.416,140.416c-77.548,0-140.415-62.869-140.415-140.416
	s62.867-140.416,140.415-140.416C375.185,144.287,438.054,207.156,438.054,284.703z"/>
<path fill="#C5C5C5" d="M297.638,428.345c-79.204,0-143.646-64.438-143.646-143.645c0-79.203,64.438-143.644,143.646-143.644
	s143.645,64.438,143.645,143.644C441.283,363.908,376.844,428.345,297.638,428.345z M297.638,147.514
	c-75.648,0-137.188,61.538-137.188,137.188c0,75.646,61.539,137.188,137.188,137.188c75.647,0,137.188-61.539,137.188-137.188
	C434.827,209.052,373.288,147.514,297.638,147.514z"/>
<polygon fill="#009B5B" points="373.313,285.477 303.105,244.958 303.105,281.064 240.538,244.958 240.538,326.009 303.105,289.89 
	303.105,326.009 "/>
</svg>
