<?xml version="1.0" encoding="utf-8"?>
<!-- Generator: Adobe Illustrator 15.1.0, SVG Export Plug-In . SVG Version: 6.00 Build 0)  -->
<!DOCTYPE svg PUBLIC "-//W3C//DTD SVG 1.1//EN" "http://www.w3.org/Graphics/SVG/1.1/DTD/svg11.dtd">
<svg version="1.1" id="Ebene_1" xmlns="http://www.w3.org/2000/svg" xmlns:xlink="http://www.w3.org/1999/xlink" x="0px" y="0px"
	 width="398.919px" height="398.904px" viewBox="96.834 98.188 398.919 398.904"
	 enable-background="new 96.834 98.188 398.919 398.904" xml:space="preserve">
<path fill="#F7F7F7" d="M491.274,297.64c0,107.676-87.306,194.976-194.982,194.976c-107.675,0-194.97-87.3-194.97-194.976
	c0-107.677,87.294-194.977,194.97-194.977C403.969,102.664,491.274,189.964,491.274,297.64z"/>
<path fill="#C5C5C5" d="M296.292,497.092c-109.978,0-199.458-89.475-199.458-199.452c0-109.977,89.48-199.452,199.458-199.452
	c109.983,0,199.462,89.475,199.462,199.452C495.753,407.617,406.275,497.092,296.292,497.092z M296.292,107.152
	c-105.041,0-190.493,85.446-190.493,190.488c0,105.04,85.452,190.486,190.493,190.486c105.041,0,190.493-85.446,190.493-190.486
	C486.785,192.598,401.333,107.152,296.292,107.152z"/>
<path fill="#009B5B" d="M258.016,342.686H285v-90.094h-26.982L258.016,342.686L258.016,342.686z M311.108,252.593v90.095h26.98
	v-90.095H311.108z"/>
</svg>
