<?xml version="1.0" encoding="utf-8"?>
<!-- Generator: Adobe Illustrator 15.1.0, SVG Export Plug-In . SVG Version: 6.00 Build 0)  -->
<!DOCTYPE svg PUBLIC "-//W3C//DTD SVG 1.1//EN" "http://www.w3.org/Graphics/SVG/1.1/DTD/svg11.dtd">
<svg version="1.1" id="Ebene_1" xmlns="http://www.w3.org/2000/svg" xmlns:xlink="http://www.w3.org/1999/xlink" x="0px" y="0px"
	 width="398.919px" height="398.904px" viewBox="88.337 86.004 398.919 398.904"
	 enable-background="new 88.337 86.004 398.919 398.904" xml:space="preserve">
<path fill="#FFFFFF" d="M482.764,285.456c0,107.676-87.293,194.976-194.971,194.976c-107.676,0-194.969-87.3-194.969-194.976
	S180.118,90.48,287.794,90.48C395.471,90.48,482.764,177.78,482.764,285.456z"/>
<path fill="#C5C5C5" d="M287.795,484.908c-109.982,0-199.458-89.477-199.458-199.452c0-109.977,89.475-199.452,199.458-199.452
	c109.979,0,199.461,89.475,199.461,199.452C487.256,395.433,397.771,484.908,287.795,484.908z M287.795,94.969
	c-105.04,0-190.492,85.446-190.492,190.487s85.452,190.487,190.492,190.487c105.041,0,190.492-85.446,190.492-190.487
	S392.836,94.969,287.795,94.969z"/>
<polygon fill="none" stroke="#009B5B" stroke-width="7" stroke-miterlimit="10" points="258.762,235.706 258.762,335.206 
	344.959,285.462 "/>
</svg>
