<?xml version="1.0" encoding="utf-8"?>
<!-- Generator: Adobe Illustrator 15.1.0, SVG Export Plug-In . SVG Version: 6.00 Build 0)  -->
<!DOCTYPE svg PUBLIC "-//W3C//DTD SVG 1.1//EN" "http://www.w3.org/Graphics/SVG/1.1/DTD/svg11.dtd">
<svg version="1.1" id="Ebene_1" xmlns="http://www.w3.org/2000/svg" xmlns:xlink="http://www.w3.org/1999/xlink" x="0px" y="0px"
	 width="423.834px" height="423.821px" viewBox="85.722 70.727 423.834 423.821"
	 enable-background="new 85.722 70.727 423.834 423.821" xml:space="preserve">
<path fill="#FFFFFF" stroke="#FFFFFF" stroke-width="14" stroke-miterlimit="10" d="M297.639,487.548
	c-112.993,0-204.917-91.924-204.917-204.911c0-112.987,91.924-204.91,204.917-204.91c112.986,0,204.917,91.923,204.917,204.91
	C502.556,395.624,410.627,487.548,297.639,487.548z M297.639,86.937c-107.915,0-195.706,87.791-195.706,195.7
	c0,107.922,87.791,195.7,195.706,195.7s195.706-87.777,195.706-195.7C493.345,174.728,405.554,86.937,297.639,86.937z"/>
<polygon fill="#FFFFFF" points="239.086,198.369 239.086,366.917 385.1,282.65 "/>
</svg>
