<?xml version="1.0" encoding="UTF-8" standalone="no"?>
<svg
   xmlns:sketch="http://www.bohemiancoding.com/sketch/ns"
   xmlns:dc="http://purl.org/dc/elements/1.1/"
   xmlns:cc="http://creativecommons.org/ns#"
   xmlns:rdf="http://www.w3.org/1999/02/22-rdf-syntax-ns#"
   xmlns:svg="http://www.w3.org/2000/svg"
   xmlns="http://www.w3.org/2000/svg"
   xmlns:sodipodi="http://sodipodi.sourceforge.net/DTD/sodipodi-0.dtd"
   xmlns:inkscape="http://www.inkscape.org/namespaces/inkscape"
   width="17.826921"
   height="19.132717"
   viewBox="0 0 17.826921 19.132717"
   version="1.1"
   id="svg2"
   inkscape:version="0.48.4 r9939"
   sodipodi:docname="play.svg">
  <metadata
     id="metadata16">
    <rdf:RDF>
      <cc:Work
         rdf:about="">
        <dc:format>image/svg+xml</dc:format>
        <dc:type
           rdf:resource="http://purl.org/dc/dcmitype/StillImage" />
      </cc:Work>
    </rdf:RDF>
  </metadata>
  <sodipodi:namedview
     pagecolor="#ffffff"
     bordercolor="#666666"
     borderopacity="1"
     objecttolerance="10"
     gridtolerance="10"
     guidetolerance="10"
     inkscape:pageopacity="0"
     inkscape:pageshadow="2"
     inkscape:window-width="916"
     inkscape:window-height="480"
     id="namedview14"
     showgrid="false"
     fit-margin-top="0"
     fit-margin-left="0"
     fit-margin-right="0"
     fit-margin-bottom="0"
     inkscape:zoom="9.2709556"
     inkscape:cx="-1.9990772"
     inkscape:cy="7.9901772"
     inkscape:window-x="2511"
     inkscape:window-y="107"
     inkscape:window-maximized="0"
     inkscape:current-layer="svg2" />
  <!-- Generator: Sketch 3.0.1 (7597) - http://www.bohemiancoding.com/sketch -->
  <title
     id="title4">Player_Play</title>
  <description
     id="description6">Created with Sketch.</description>
  <defs
     id="defs8" />
  <g
     id="Assets-0"
     sketch:type="MSPage"
     style="fill:none;stroke:none"
     transform="matrix(1.0853523,0,0,1.0853523,-4.9112332,1.2552058)">
    <g
       id="Artboard-1-4"
       sketch:type="MSArtboardGroup"
       transform="translate(-20,-386)"
       style="fill:#03d67f">
      <g
         id="Player_Next"
         sketch:type="MSLayerGroup"
         transform="translate(20,386)">
        <path
           d="m 4.5495992,4.0846381 0,-1.800892 c 0,0 0.17557,-5.4128586 5.288403,-2.65933462 3.9658908,2.13550952 9.1870198,5.04821902 9.1870198,5.04821902 2.222234,1.0972233 2.889506,4.2952549 0,5.8281725 0,0 -4.956954,2.748567 -9.2116328,5.180414 -4.049574,2.313975 -5.26379,-0.968332 -5.26379,-3.237689 l 0,-1.355057 c -0.02203,-2.7631416 -0.04204,-4.6254599 0,-7.0038329 z m 5.9539118,8.3604279 c 0.115176,-0.06572 0.115176,-0.06572 0.230382,-0.131415 1.416414,-0.807514 2.933225,-1.664435 4.449928,-2.5160747 0.530763,-0.2980273 1.023641,-0.5741294 1.466037,-0.8214509 0.265629,-0.1484996 0.455549,-0.2544872 0.557155,-0.3111028 1.04089,-0.5552566 0.963869,-1.6022225 0.07463,-2.0434353 l -0.07861,-0.041501 C 17.117599,6.5321914 16.955906,6.4416721 16.729307,6.315017 16.351355,6.1037641 15.929366,5.8683281 15.473921,5.6147663 14.172848,4.8904127 12.86468,4.1661094 11.634297,3.49044 11.54449,3.4411297 11.54449,3.4411297 11.454666,3.3918387 10.723174,2.9904935 10.043443,2.6197659 9.4256622,2.2854792 8.1427032,1.5911527 7.4229815,1.6486258 7.1753055,2.2475942 7.0362335,2.5839198 6.970084,2.9602599 6.9701025,3.1507127 l 8.34e-4,8.6169583 c 7.16e-5,0.740307 0.207184,1.434694 0.467184,1.697661 0.05418,0.0548 0.07918,0.06594 0.159192,0.06803 0.244881,0.0064 1.2100707,-0.116339 1.7686207,-0.437066 0.364876,-0.209574 0.7445648,-0.426924 1.1375778,-0.651232 z"
           id="Path-5"
           sketch:type="MSShapeGroup"
           inkscape:connector-curvature="0"
           sodipodi:nodetypes="ccccccscccccsscccsscccsscsscc" />
      </g>
    </g>
  </g>
</svg>
