<?xml version="1.0" encoding="utf-8"?>
<!-- Generator: Adobe Illustrator 15.1.0, SVG Export Plug-In . SVG Version: 6.00 Build 0)  -->
<!DOCTYPE svg PUBLIC "-//W3C//DTD SVG 1.1//EN" "http://www.w3.org/Graphics/SVG/1.1/DTD/svg11.dtd">
<svg version="1.1" id="Ebene_1" xmlns="http://www.w3.org/2000/svg" xmlns:xlink="http://www.w3.org/1999/xlink" x="0px" y="0px"
	 width="466.63px" height="320.319px" viewBox="51.484 136.757 466.63 320.319"
	 enable-background="new 51.484 136.757 466.63 320.319" xml:space="preserve">
<path fill="#009B5B" d="M334.628,381.857c-6.319-5.882-4.726-21.868-2.658-26.321c2.073-4.447,10.63-6.521,19.016-4.609
	c8.377,1.938,17.432-5.915,20.074-17.467c2.649-11.541-2.066-22.562-10.451-24.463c-8.433-1.94-15.068-16.494-15.492-21.417
	c-0.434-4.915,5.943-11.028,14.221-13.544c8.225-2.535,12.128-13.851,8.639-25.176c-3.48-11.318-13.059-18.495-21.31-15.979
	c-8.224,2.533-21.218-6.664-24.066-10.74c-2.85-4.078-0.387-12.58,5.481-18.875c5.871-6.33,3.572-18.071-5.096-26.15
	c-8.646-8.053-20.551-9.487-26.4-3.165c-5.89,6.311-14.177,9.387-18.44,6.861c-4.274-2.552-14.41-14.834-12.498-23.238
	c1.938-8.396-5.935-17.431-17.484-20.083c-11.524-2.641-22.554,2.074-24.465,10.479c-1.921,8.413-16.483,15.031-21.39,15.492
	c-4.924,0.415-11.021-5.961-13.562-14.202c-2.524-8.233-13.859-12.156-25.159-8.675c-11.325,3.49-18.504,13.074-15.987,21.307
	c2.535,8.226-6.672,21.227-10.767,24.078c-4.05,2.839-12.553,0.377-18.864-5.492c-6.304-5.861-18.044-3.554-26.123,5.112
	c-8.062,8.675-9.486,20.569-3.185,26.422c6.304,5.861,4.726,21.866,2.661,26.321c-2.083,4.436-10.641,6.51-19.036,4.59
	c-8.377-1.922-17.403,5.941-20.062,17.475c-2.651,11.524,2.073,22.545,10.451,24.465c8.44,1.957,15.068,16.503,15.492,21.408
	c0.433,4.933-5.961,11.027-14.192,13.534c-8.261,2.544-12.155,13.869-8.666,25.195c3.479,11.299,13.074,18.504,21.299,15.952
	c8.224-2.544,21.226,6.7,24.076,10.757c2.85,4.085,0.379,12.57-5.482,18.884c-5.861,6.32-3.571,18.069,5.085,26.114
	c8.675,8.069,20.569,9.495,26.439,3.191c5.86-6.312,21.856-4.726,26.321-2.65c4.445,2.056,6.502,10.613,4.58,19.026
	c-1.901,8.395,5.961,17.422,17.478,20.063c11.532,2.649,22.552-2.074,24.473-10.471c1.93-8.396,16.484-15.04,21.407-15.455
	c4.916-0.442,11.012,5.94,13.554,14.202c2.542,8.224,13.868,12.129,25.187,8.629c11.317-3.472,18.477-13.057,15.953-21.288
	c-2.545-8.226,6.689-21.22,10.746-24.078c4.104-2.83,12.58-0.36,18.892,5.521c6.312,5.853,18.062,3.544,26.125-5.112
	C339.506,399.604,340.939,387.719,334.628,381.857z M147.741,365.688c-37.979-35.283-40.164-94.7-4.869-132.683
	c35.303-37.981,94.729-40.135,132.71-4.851c37.962,35.293,40.138,94.709,4.833,132.683
	C245.12,398.828,185.714,400.982,147.741,365.688z"/>
<path fill="#009B5B" d="M388.332,322.319h129.782V272.96h-129.58c1.052,7.838,1.605,15.833,1.605,23.959
	C390.139,305.544,389.514,314.021,388.332,322.319z"/>
<path fill="#009B5B" d="M518.114,223.649V174.29H341.34c13.616,14.396,24.865,31.056,33.114,49.359H518.114z"/>
<path fill="#009B5B" d="M518.114,420.989V371.63H373.787c-8.468,18.348-19.956,35.013-33.831,49.359H518.114z"/>
</svg>
