<?xml version="1.0" encoding="utf-8"?>
<!-- Generator: Adobe Illustrator 15.1.0, SVG Export Plug-In . SVG Version: 6.00 Build 0)  -->
<!DOCTYPE svg PUBLIC "-//W3C//DTD SVG 1.1//EN" "http://www.w3.org/Graphics/SVG/1.1/DTD/svg11.dtd">
<svg version="1.1" id="Ebene_1" xmlns="http://www.w3.org/2000/svg" xmlns:xlink="http://www.w3.org/1999/xlink" x="0px" y="0px"
	 width="287.289px" height="287.288px" viewBox="153.994 143.745 287.289 287.288"
	 enable-background="new 153.994 143.745 287.289 287.288" xml:space="preserve">
<path fill="#F7F7F7" d="M438.057,287.389c0,77.544-62.871,140.415-140.416,140.415c-77.547,0-140.416-62.869-140.416-140.415
	c0-77.548,62.869-140.416,140.416-140.416C375.186,146.973,438.057,209.843,438.057,287.389z"/>
<path fill="#C5C5C5" d="M297.641,431.033c-79.211,0-143.646-64.438-143.646-143.644c0-79.204,64.436-143.644,143.646-143.644
	c79.195,0,143.643,64.438,143.643,143.644C441.283,366.593,376.838,431.033,297.641,431.033z M297.641,150.203
	c-75.656,0-137.188,61.539-137.188,137.188S221.984,424.58,297.641,424.58c75.644,0,137.188-61.539,137.188-137.188
	S373.284,150.203,297.641,150.203z"/>
<polygon fill="#009B5B" points="294.027,283.751 294.027,247.645 223.82,288.166 294.027,328.697 294.027,292.578 356.594,328.697 
	356.594,247.645 "/>
</svg>
