<?xml version="1.0" encoding="UTF-8" standalone="no"?>
<svg width="14px" height="13px" viewBox="0 0 14 13" version="1.1" xmlns="http://www.w3.org/2000/svg" xmlns:xlink="http://www.w3.org/1999/xlink" xmlns:sketch="http://www.bohemiancoding.com/sketch/ns">
    <!-- Generator: Sketch 3.0.1 (7597) - http://www.bohemiancoding.com/sketch -->
    <title>Icon_Search</title>
    <description>Created with Sketch.</description>
    <defs></defs>
    <g id="Assets" stroke="none" stroke-width="1" fill="none" fill-rule="evenodd" sketch:type="MSPage">
        <g id="Artboard-1" sketch:type="MSArtboardGroup" transform="translate(-20.000000, -446.000000)" fill="#03D67F">
            <g id="Icon_Search" sketch:type="MSLayerGroup" transform="translate(21.000000, 446.000000)">
                <path d="M13,5 C13,2.23857625 10.7614237,0 8,0 C5.23857625,0 3,2.23857625 3,5 C3,7.76142375 5.23857625,10 8,10 C10.7614237,10 13,7.76142375 13,5 L13,5 L13,5 Z M5,5 C5,3.34314575 6.34314575,2 8,2 C9.65685425,2 11,3.34314575 11,5 C11,6.65685425 9.65685425,8 8,8 C6.34314575,8 5,6.65685425 5,5 L5,5 Z M4.65450779,7.70476032 C4.26527941,7.31553194 3.62792558,7.32182188 3.24069042,7.70905705 L0.18393078,10.7658167 C-0.207670613,11.1574181 -0.202112577,11.7978874 0.179634057,12.1796341 L0.366307489,12.3663075 C0.755535867,12.7555359 1.3928897,12.7492459 1.78012486,12.3620108 L4.8368845,9.30525112 C5.22848589,8.91364973 5.22292786,8.27318039 4.84118122,7.89143375 L4.65450779,7.70476032 L4.65450779,7.70476032 Z" id="Oval-6" sketch:type="MSShapeGroup"></path>
            </g>
        </g>
    </g>
</svg>