<?xml version="1.0" encoding="utf-8"?>
<!-- Generator: Adobe Illustrator 15.1.0, SVG Export Plug-In . SVG Version: 6.00 Build 0)  -->
<!DOCTYPE svg PUBLIC "-//W3C//DTD SVG 1.1//EN" "http://www.w3.org/Graphics/SVG/1.1/DTD/svg11.dtd">
<svg version="1.1" id="Ebene_1" xmlns="http://www.w3.org/2000/svg" xmlns:xlink="http://www.w3.org/1999/xlink" x="0px" y="0px"
	 width="300.549px" height="286.884px" viewBox="162.297 154.196 300.549 286.884"
	 enable-background="new 162.297 154.196 300.549 286.884" xml:space="preserve">
<path fill="#222426" d="M384.452,335.047l30.911,30.898h-61.809c-18.918,0-34.154-20.505-48.162-45.895
	c-4.775,9.474-9.711,19.064-15.021,28.336c16.17,25.574,35.461,44.879,63.186,44.879h61.819l-30.91,30.911l16.902,16.903
	l61.478-61.477l-61.478-61.477L384.452,335.047z M251.443,275.226c4.773-9.473,9.711-19.063,15.021-28.336
	c-16.17-25.574-35.461-44.879-63.185-44.879h-40.981v27.322h40.981C222.199,229.334,237.434,249.839,251.443,275.226z
	 M353.555,229.334h61.819l-30.91,30.91l16.901,16.903l61.479-61.477l-61.479-61.475l-16.915,16.916l30.911,30.897h-61.809
	c-42.6,0-65.346,45.507-87.357,89.519c-18.291,36.582-37.207,74.417-62.916,74.417h-40.982v27.32h40.982
	c42.598,0,65.345-45.506,87.357-89.518C308.928,267.168,327.846,229.334,353.555,229.334z"/>
</svg>
