<?xml version="1.0" encoding="UTF-8" standalone="no"?>
<!-- Generator: Adobe Illustrator 15.1.0, SVG Export Plug-In . SVG Version: 6.00 Build 0)  -->

<svg
   xmlns:dc="http://purl.org/dc/elements/1.1/"
   xmlns:cc="http://creativecommons.org/ns#"
   xmlns:rdf="http://www.w3.org/1999/02/22-rdf-syntax-ns#"
   xmlns:svg="http://www.w3.org/2000/svg"
   xmlns="http://www.w3.org/2000/svg"
   xmlns:sodipodi="http://sodipodi.sourceforge.net/DTD/sodipodi-0.dtd"
   xmlns:inkscape="http://www.inkscape.org/namespaces/inkscape"
   version="1.1"
   id="Ebene_1"
   x="0px"
   y="0px"
   width="569.42822"
   height="547.3562"
   viewBox="0 0 569.42823 547.35621"
   enable-background="new 0 0 595.279 595.279"
   xml:space="preserve"
   inkscape:version="0.48.4 r9939"
   sodipodi:docname="trash.svg"><metadata
     id="metadata45567"><rdf:RDF><cc:Work
         rdf:about=""><dc:format>image/svg+xml</dc:format><dc:type
           rdf:resource="http://purl.org/dc/dcmitype/StillImage" /></cc:Work></rdf:RDF></metadata><defs
     id="defs45565" /><sodipodi:namedview
     pagecolor="#ffffff"
     bordercolor="#666666"
     borderopacity="1"
     objecttolerance="10"
     gridtolerance="10"
     guidetolerance="10"
     inkscape:pageopacity="0"
     inkscape:pageshadow="2"
     inkscape:window-width="640"
     inkscape:window-height="480"
     id="namedview45563"
     showgrid="false"
     fit-margin-top="0"
     fit-margin-left="0"
     fit-margin-right="0"
     fit-margin-bottom="0"
     inkscape:zoom="0.39645276"
     inkscape:cx="288.82274"
     inkscape:cy="268.99981"
     inkscape:window-x="2370"
     inkscape:window-y="399"
     inkscape:window-maximized="0"
     inkscape:current-layer="Ebene_1" /><g
     id="g45555"
     transform="translate(-8.8167568,-19.283111)"><path
       d="m 484.681,212.163 c -11.883,93.54 -23.329,186.64 -35.026,279.745 -0.594,4.725 -0.793,9.848 -2.058,13.617 -2.457,7.318 -8.3,13.211 -15.993,15.357 -3.98,1.115 -8.883,0.951 -14.569,0.951 -82.694,0.002 -167.377,0 -250.025,0 -11.527,0 -17.688,-2.18 -23.119,-8.234 -2.407,-2.682 -4.387,-6.494 -5.225,-10.449 -0.866,-4.088 -0.957,-8.834 -1.583,-13.934 -11.318,-92.244 -23.317,-184.359 -34.771,-277.054 -8.95,0 -17.899,0 -26.849,0 -0.21,0.031 -0.196,0.286 -0.181,0.542 13.09,105.965 26.808,211.264 39.747,316.709 0.714,5.818 0.819,11.234 1.807,15.898 0.956,4.512 3.216,8.863 5.962,11.924 6.197,6.906 13.226,9.395 26.377,9.395 94.3,0 190.919,0 285.272,0 6.487,0 12.081,0.184 16.621,-1.084 8.779,-2.451 15.445,-9.178 18.248,-17.525 1.444,-4.303 1.671,-10.148 2.349,-15.537 13.394,-106.611 26.497,-213.211 40.107,-320.321 -9.031,0 -18.062,0 -27.091,0 z"
       id="path45557"
       inkscape:connector-curvature="0"
       style="fill:#e2e2e2" /></g><g
     id="g45559"
     transform="translate(-8.8167568,-19.283111)"><path
       d="M 575.712,110.481 C 571.108,99.07 560.655,94.015 546.194,92.268 545.666,82.402 542.643,76.429 537.82,71.126 533.116,65.953 526.799,62.018 518.143,61.078 509.2,60.107 499.697,60.869 490.301,60.869 c -23.457,0 -46.934,0 -70.415,0 0.109,-9.39 -0.356,-17.979 -3.48,-24.083 -3.792,-7.408 -9.974,-12.63 -18.421,-15.491 -8.382,-2.838 -21.112,-1.675 -32.238,-1.675 -45.156,0 -90.47,0 -135.44,0 -11.495,0 -22.919,-0.758 -33.913,0 -10.996,0.758 -19.486,6.778 -24.492,14.444 -4.602,7.046 -5.375,15.985 -5.2,26.805 -27.74,0 -55.461,0 -83.14,0 -4.771,0 -9.843,-0.528 -14.234,0 -16.874,2.027 -27.665,14.054 -28.889,31.609 -14.612,1.417 -24.559,6.905 -29.097,18.212 -4.705,11.722 -1.171,29.392 -2.302,45.216 189.676,0 379.303,0 568.974,0 -1.1,-15.833 2.398,-33.771 -2.302,-45.425 z m -49.805,22.193 c -155.09,0 -310.146,0 -465.241,0 0.925,-7.985 -1.965,-16.902 1.884,-22.818 3.71,-5.706 11.845,-8.475 23.791,-9.19 1.001,-8.859 9.824,-14.928 23.622,-15.951 3.591,-0.267 7.738,0 11.64,0 23.346,0 46.729,0 70.129,0 -0.187,-10.633 0.367,-19.38 4.16,-26.238 4.017,-7.261 10.829,-12.962 19.652,-13.68 8.819,-0.719 17.987,0 27.21,0 36.081,0 72.44,-10e-4 108.672,0 8.928,0 19.143,-1.103 25.866,1.586 6.778,2.709 11.739,7.655 14.78,14.671 2.586,5.964 2.899,14.437 2.782,23.661 19.785,0 39.567,0 59.331,0 7.684,0 15.452,-0.384 22.765,0.105 7.077,0.474 12.245,2.459 16.091,5.071 3.942,2.676 6.414,5.691 6.846,10.669 11.826,0.881 20.372,3.432 24.135,9.19 3.845,5.882 0.986,14.934 1.885,22.924 z"
       id="path45561"
       inkscape:connector-curvature="0"
       style="fill:#e2e2e2" /></g></svg>