<?xml version="1.0" encoding="utf-8"?>
<!-- Generator: Adobe Illustrator 15.1.0, SVG Export Plug-In . SVG Version: 6.00 Build 0)  -->
<!DOCTYPE svg PUBLIC "-//W3C//DTD SVG 1.1//EN" "http://www.w3.org/Graphics/SVG/1.1/DTD/svg11.dtd">
<svg version="1.1" id="Ebene_1" xmlns="http://www.w3.org/2000/svg" xmlns:xlink="http://www.w3.org/1999/xlink" x="0px" y="0px"
	 width="450.943px" height="360.496px" viewBox="80.003 122.145 450.943 360.496"
	 enable-background="new 80.003 122.145 450.943 360.496" xml:space="preserve">
<path fill="#009B5B" d="M485.844,122.145h-154.63h-64.03h-142.08c-24.904,0-45.102,20.189-45.102,45.095v214.188
	c0,24.903,20.195,45.096,45.102,45.096h145.043c6.854,3.326,11.248,8.429,11.248,14.15c0,5.615-4.235,10.609-10.86,13.938
	c-43.245,1.946-74.32,7.312-74.32,13.623c0,7.959,49.353,14.405,110.229,14.405c60.887,0,110.231-6.446,110.231-14.405
	c0-6.179-29.739-11.441-71.522-13.495c-7.521-3.303-12.404-8.646-12.404-14.691c0-5.375,3.896-10.197,10.052-13.523h143.046
	c24.91,0,45.1-20.19,45.1-45.096V167.24C530.942,142.336,510.755,122.145,485.844,122.145z M504.634,385.188H106.31V159.139h398.321
	L504.634,385.188L504.634,385.188z"/>
</svg>
