<?xml version="1.0" encoding="utf-8"?>
<!-- Generator: Adobe Illustrator 15.1.0, SVG Export Plug-In . SVG Version: 6.00 Build 0)  -->
<!DOCTYPE svg PUBLIC "-//W3C//DTD SVG 1.1//EN" "http://www.w3.org/Graphics/SVG/1.1/DTD/svg11.dtd">
<svg version="1.1" id="Ebene_1" xmlns="http://www.w3.org/2000/svg" xmlns:xlink="http://www.w3.org/1999/xlink" x="0px" y="0px"
	 width="450.94px" height="360.495px" viewBox="80.004 122.145 450.94 360.495"
	 enable-background="new 80.004 122.145 450.94 360.495" xml:space="preserve">
<path fill="#222426" d="M485.844,122.145h-154.63h-64.03H125.104c-24.904,0-45.101,20.19-45.101,45.095v214.187
	c0,24.904,20.195,45.096,45.101,45.096h145.043c6.854,3.326,11.248,8.429,11.248,14.15c0,5.616-4.235,10.61-10.86,13.938
	c-43.245,1.946-74.32,7.312-74.32,13.623c0,7.959,49.352,14.405,110.229,14.405c60.887,0,110.231-6.446,110.231-14.405
	c0-6.179-29.739-11.441-71.522-13.495c-7.521-3.303-12.404-8.647-12.404-14.692c0-5.375,3.896-10.197,10.051-13.523h143.046
	c24.91,0,45.1-20.19,45.1-45.096V167.24C530.942,142.336,510.754,122.145,485.844,122.145z M504.633,385.188H106.31V159.139h398.321
	L504.633,385.188L504.633,385.188z"/>
</svg>
