<?xml version="1.0" encoding="utf-8"?>
<!-- Generator: Adobe Illustrator 15.1.0, SVG Export Plug-In . SVG Version: 6.00 Build 0)  -->
<!DOCTYPE svg PUBLIC "-//W3C//DTD SVG 1.1//EN" "http://www.w3.org/Graphics/SVG/1.1/DTD/svg11.dtd">
<svg version="1.1" id="Ebene_1" xmlns="http://www.w3.org/2000/svg" xmlns:xlink="http://www.w3.org/1999/xlink" x="0px" y="0px"
	 width="450.943px" height="360.496px" viewBox="0 0 450.943 360.496" enable-background="new 0 0 450.943 360.496"
	 xml:space="preserve">
<path fill="#009B5B" d="M405.842-1H251.211h-64.029H45.101C20.197-1-0.001,19.189-0.001,44.096v214.188
	c0,24.903,20.195,45.097,45.103,45.097h145.043c6.854,3.325,11.248,8.429,11.248,14.149c0,5.615-4.235,10.609-10.86,13.938
	c-43.245,1.945-74.32,7.312-74.32,13.623c0,7.959,49.354,14.404,110.229,14.404c60.887,0,110.23-6.445,110.23-14.404
	c0-6.18-29.738-11.441-71.521-13.495c-7.521-3.304-12.404-8.646-12.404-14.691c0-5.375,3.896-10.197,10.052-13.522h143.047
	c24.91,0,45.1-20.19,45.1-45.097V44.096C450.939,19.191,430.753-1,405.842-1z M424.632,262.043H26.307V35.995h398.321
	L424.632,262.043L424.632,262.043z"/>
</svg>
