<?xml version="1.0" encoding="utf-8"?>
<!-- Generator: Adobe Illustrator 15.1.0, SVG Export Plug-In . SVG Version: 6.00 Build 0)  -->
<!DOCTYPE svg PUBLIC "-//W3C//DTD SVG 1.1//EN" "http://www.w3.org/Graphics/SVG/1.1/DTD/svg11.dtd">
<svg version="1.1" id="Ebene_1" xmlns="http://www.w3.org/2000/svg" xmlns:xlink="http://www.w3.org/1999/xlink" x="0px" y="0px"
	 width="118.979px" height="155.68px" viewBox="0 0 118.979 155.68" enable-background="new 0 0 118.979 155.68"
	 xml:space="preserve">
<g id="BG">
</g>
<g id="ICONS">
	<g>
		<path fill="#E8E8E8" d="M69.146,0.099c0.093,0,0.074,0.112,0.093,0.187c1.097,1.617,2.151,3.278,3.187,4.965
			c-0.007,0.155,0.068,0.242,0.187,0.278c0.267,0.292,0.438,0.677,0.65,1.029c0,0.161,0.073,0.236,0.191,0.279
			c0.211,0.191,0.335,0.477,0.465,0.75c0.112,0.037,0.192,0.118,0.188,0.279c0.31,0.26,0.452,0.675,0.656,1.028
			c-0.007,0.155,0.067,0.242,0.186,0.279c0.311,0.446,0.676,0.825,0.844,1.407c0.545,0.545,0.911,1.276,1.309,1.965
			c0.117,0.037,0.197,0.124,0.191,0.279c11.324,17.541,22.63,35.095,33.887,52.697c0.111,0.043,0.187,0.124,0.18,0.285
			c0.359,0.428,0.632,0.937,0.941,1.401c0.268,0.391,0.539,0.773,0.75,1.221c-0.006,0.155,0.068,0.242,0.187,0.279
			c0.359,0.353,0.559,0.874,0.844,1.308c-0.007,0.167,0.068,0.248,0.187,0.285c0.267,0.292,0.445,0.676,0.655,1.029
			c-0.006,0.154,0.068,0.242,0.188,0.278c1.189,1.742,2.312,3.553,3.458,5.338c0.104,0.241,0.342,0.347,0.379,0.656
			c0.267,0.094-0.025,0.396,0,0.559c-0.031,0-0.062,0-0.094,0c-0.093,0.315-0.377,0.439-0.472,0.75
			c-1.01,1.604-2.032,3.205-3.086,4.772c-0.11,0.043-0.191,0.118-0.187,0.279c-0.268,0.458-0.509,0.93-0.843,1.313
			c0.024,0.149-0.087,0.161-0.095,0.279c-0.029,0-0.061,0-0.092,0c-0.18,0.384-0.396,0.731-0.658,1.029
			c-0.116,0.043-0.19,0.118-0.186,0.279c-0.049,0.143-0.144,0.241-0.187,0.378c-0.297,0.241-0.341,0.719-0.656,0.936
			c0.007,0.161-0.067,0.242-0.188,0.285c-12.173,18.991-24.377,37.958-36.6,56.906c0.006,0.154-0.068,0.241-0.188,0.278
			c-0.081,0.322-0.292,0.521-0.472,0.75c-0.247,0.472-0.532,0.904-0.842,1.309c-0.112,0.043-0.193,0.117-0.188,0.285
			c-1.519,2.473-3.087,4.896-4.68,7.302c0.019,0.104-0.02,0.161-0.093,0.186c0,0.031,0,0.062,0,0.094
			c-11.584,0.197-23.511,0.062-35.263,0.087c-1.588,0.013-3.174,0.013-4.761,0.013c-0.261,0.006-0.509,0.006-0.757,0
			c-7.982,0.006-16.027-0.05-23.986-0.007c-1.399-0.062-3.05,0.124-4.302-0.093c-0.112-0.024-0.099-0.187,0-0.187
			c-0.013-0.081,0.037-0.093,0.099-0.093c0.074-0.329,0.285-0.521,0.459-0.75c0.867-1.481,1.849-2.839,2.716-4.31
			c1.389-2.106,2.752-4.244,4.128-6.364c0.05-0.138,0.137-0.235,0.187-0.372c0.024,0,0.062,0,0.086,0
			c12.312-19.185,24.62-38.35,36.979-57.478c-0.024-0.147,0.087-0.154,0.087-0.278c0.037,0,0.062,0,0.1,0
			c0.445-0.855,1.028-1.587,1.5-2.431c-0.024-0.148,0.086-0.161,0.086-0.278c0.037,0,0.062,0,0.101,0
			c0.073-0.175,0.234-0.261,0.271-0.472c0.979-1.494,1.935-3,2.907-4.494c-0.013-0.167,0.117-0.197,0.1-0.372
			c-0.131-0.062-0.181-0.204-0.192-0.378c-1.021-1.5-1.996-3.062-2.986-4.587c0.111-0.304-0.311-0.073-0.199-0.372
			c0.014-0.16-0.062-0.24-0.186-0.278c-0.162-0.341-0.447-0.552-0.56-0.942c-0.136-0.074-0.297-0.13-0.284-0.372
			c-0.545-0.824-1.078-1.667-1.586-2.529c0-0.154-0.074-0.241-0.187-0.278C31.689,49.369,19.728,30.719,7.752,12.074
			c-0.186-0.025-0.186-0.248-0.271-0.372c-0.284-0.372-0.509-0.8-0.756-1.216c0.013-0.16-0.062-0.241-0.188-0.278
			C5.509,8.715,4.555,7.134,3.55,5.622C2.707,4.178,1.69,2.913,0.922,1.407C0.662,1.042,0.326,0.75,0.178,0.285
			c-0.087,0.019-0.087-0.037-0.1-0.094C-0.033,0.167-0.02,0.006,0.079,0"/>
		<path d="M74.762,8.895"/>
		<path d="M72.426,5.25"/>
		<path d="M69.146,0c0,0.037,0,0.062,0,0.099"/>
		<g opacity="0.86">
			<g>
				<path fill="#FFFFFF" d="M97.46,77.665c-0.023-0.199-0.18-0.273-0.24-0.435c-0.764-1.165-1.5-2.36-2.281-3.508
					c-0.074-0.024-0.124-0.074-0.117-0.18c-0.143-0.229-0.255-0.483-0.435-0.675c-0.074-0.025-0.124-0.081-0.124-0.187
					c-0.187-0.285-0.316-0.632-0.553-0.862c-0.081-0.024-0.124-0.08-0.124-0.186c-0.137-0.291-0.315-0.545-0.496-0.799
					c-0.196-0.311-0.377-0.64-0.612-0.924c0.006-0.105-0.043-0.155-0.124-0.187c-7.396-11.572-14.826-23.114-22.271-34.636
					c0.006-0.105-0.043-0.161-0.123-0.187c-0.262-0.451-0.503-0.936-0.861-1.288c-0.105-0.385-0.354-0.633-0.553-0.931
					c-0.08-0.024-0.123-0.074-0.123-0.18c-0.137-0.236-0.229-0.508-0.428-0.676c0-0.111-0.051-0.161-0.125-0.187
					c-0.093-0.18-0.167-0.366-0.31-0.496c-0.074-0.024-0.124-0.075-0.124-0.18c-0.138-0.229-0.254-0.49-0.429-0.676
					c-0.079-0.025-0.124-0.081-0.124-0.187c-0.675-1.108-1.376-2.193-2.095-3.26c-0.013-0.05,0-0.124-0.062-0.124
					c0-0.025,0-0.043,0-0.062c-8.14-0.144-16.543-0.02-24.793-0.062c-0.979,0.043-2.133-0.081-3.013,0.062
					c-0.062,0-0.073,0.104,0,0.124c0,0.036,0.013,0.073,0.062,0.062c0.099,0.304,0.322,0.496,0.496,0.738
					c0.495,0.992,1.165,1.821,1.724,2.764c0.656,0.998,1.276,2.039,1.958,3.02c0.087,0.024,0.124,0.08,0.124,0.186
					c0.161,0.267,0.312,0.552,0.496,0.799c0.062,0.081,0.062,0.229,0.186,0.242c7.865,12.254,15.726,24.514,23.629,36.731
					c0.073,0.023,0.124,0.08,0.124,0.186c0.334,0.564,0.682,1.122,1.04,1.661c-0.012,0.155,0.101,0.191,0.187,0.248
					c0.075,0.254,0.261,0.396,0.366,0.614c0.081,0.024,0.13,0.08,0.124,0.186c-0.074,0.198,0.197,0.043,0.124,0.242
					c0.663,1.004,1.296,2.033,1.972,3.019c0.006,0.118,0.037,0.21,0.123,0.248c0.013,0.118-0.074,0.136-0.068,0.248
					c-0.632,0.979-1.264,1.971-1.901,2.951c-0.025,0.136-0.131,0.198-0.187,0.31c-0.02,0-0.037,0-0.062,0
					c0,0.081-0.08,0.088-0.057,0.181c-0.314,0.558-0.693,1.035-0.99,1.599c-0.021,0-0.037,0-0.058,0
					c-0.006,0.081-0.08,0.086-0.062,0.187c-8.126,12.576-16.215,25.172-24.305,37.777c-0.024,0-0.036,0-0.062,0
					c-0.037,0.087-0.086,0.155-0.123,0.242c-0.905,1.396-1.798,2.802-2.703,4.184c-0.582,0.968-1.227,1.866-1.785,2.833
					c-0.11,0.154-0.26,0.278-0.31,0.496c-0.037,0-0.074,0.007-0.062,0.062c-0.062,0-0.073,0.104,0,0.118
					c0.818,0.147,1.908,0.023,2.826,0.062c8.312-0.037,16.779,0.087,24.979-0.062c0-0.02,0-0.038,0-0.057
					c0.049-0.02,0.073-0.057,0.062-0.124c1.047-1.581,2.082-3.174,3.08-4.798c-0.006-0.11,0.044-0.161,0.125-0.186
					c0.197-0.273,0.39-0.56,0.551-0.862c0.118-0.154,0.254-0.285,0.305-0.495c0.081-0.024,0.13-0.081,0.124-0.187
					c8.039-12.452,16.061-24.917,24.062-37.4c0.074-0.031,0.123-0.087,0.117-0.192c0.211-0.143,0.242-0.452,0.434-0.613
					c0.031-0.093,0.087-0.155,0.124-0.248c-0.006-0.105,0.044-0.155,0.124-0.181c0.174-0.197,0.312-0.428,0.429-0.676
					c0.024,0,0.043,0,0.062,0c0.006-0.081,0.08-0.086,0.062-0.186c0.217-0.254,0.378-0.564,0.552-0.862
					c0-0.104,0.049-0.161,0.124-0.186c0.693-1.029,1.362-2.083,2.032-3.137c0.057-0.205,0.247-0.284,0.305-0.496
					c0.018,0,0.043,0,0.062,0C97.441,77.925,97.634,77.727,97.46,77.665z"/>
			</g>
			<defs>
				<filter id="Adobe_OpacityMaskFilter" filterUnits="userSpaceOnUse" x="36.87" y="26.587" width="60.663" height="102.403">
					<feColorMatrix  type="matrix" values="1 0 0 0 0  0 1 0 0 0  0 0 1 0 0  0 0 0 1 0"/>
				</filter>
			</defs>
			<mask maskUnits="userSpaceOnUse" x="36.87" y="26.587" width="60.663" height="102.403" id="SVGID_1_">
				<g filter="url(#Adobe_OpacityMaskFilter)">
				</g>
			</mask>
			<g mask="url(#SVGID_1_)">
				<path d="M97.46,77.665c-0.023-0.199-0.18-0.273-0.24-0.435c-0.764-1.165-1.5-2.36-2.281-3.508
					c-0.074-0.024-0.124-0.074-0.117-0.18c-0.143-0.229-0.255-0.483-0.435-0.675c-0.074-0.025-0.124-0.081-0.124-0.187
					c-0.187-0.285-0.316-0.632-0.553-0.862c-0.081-0.024-0.124-0.08-0.124-0.186c-0.137-0.291-0.315-0.545-0.496-0.799
					c-0.196-0.311-0.377-0.64-0.612-0.924c0.006-0.105-0.043-0.155-0.124-0.187c-7.396-11.572-14.826-23.114-22.271-34.636
					c0.006-0.105-0.043-0.161-0.123-0.187c-0.262-0.451-0.503-0.936-0.861-1.288c-0.105-0.385-0.354-0.633-0.553-0.931
					c-0.08-0.024-0.123-0.074-0.123-0.18c-0.137-0.236-0.229-0.508-0.428-0.676c0-0.111-0.051-0.161-0.125-0.187
					c-0.093-0.18-0.167-0.366-0.31-0.496c-0.074-0.024-0.124-0.075-0.124-0.18c-0.138-0.229-0.254-0.49-0.429-0.676
					c-0.079-0.025-0.124-0.081-0.124-0.187c-0.675-1.108-1.376-2.193-2.095-3.26c-0.013-0.05,0-0.124-0.062-0.124
					c0-0.025,0-0.043,0-0.062c-8.14-0.144-16.543-0.02-24.793-0.062c-0.979,0.043-2.133-0.081-3.013,0.062
					c-0.062,0-0.073,0.104,0,0.124c0,0.036,0.013,0.073,0.062,0.062c0.099,0.304,0.322,0.496,0.496,0.738
					c0.495,0.992,1.165,1.821,1.724,2.764c0.656,0.998,1.276,2.039,1.958,3.02c0.087,0.024,0.124,0.08,0.124,0.186
					c0.161,0.267,0.312,0.552,0.496,0.799c0.062,0.081,0.062,0.229,0.186,0.242c7.865,12.254,15.726,24.514,23.629,36.731
					c0.073,0.023,0.124,0.08,0.124,0.186c0.334,0.564,0.682,1.122,1.04,1.661c-0.012,0.155,0.101,0.191,0.187,0.248
					c0.075,0.254,0.261,0.396,0.366,0.614c0.081,0.024,0.13,0.08,0.124,0.186c-0.074,0.198,0.197,0.043,0.124,0.242
					c0.663,1.004,1.296,2.033,1.972,3.019c0.006,0.118,0.037,0.21,0.123,0.248c0.013,0.118-0.074,0.136-0.068,0.248
					c-0.632,0.979-1.264,1.971-1.901,2.951c-0.025,0.136-0.131,0.198-0.187,0.31c-0.02,0-0.037,0-0.062,0
					c0,0.081-0.08,0.088-0.057,0.181c-0.314,0.558-0.693,1.035-0.99,1.599c-0.021,0-0.037,0-0.058,0
					c-0.006,0.081-0.08,0.086-0.062,0.187c-8.126,12.576-16.215,25.172-24.305,37.777c-0.024,0-0.036,0-0.062,0
					c-0.037,0.087-0.086,0.155-0.123,0.242c-0.905,1.396-1.798,2.802-2.703,4.184c-0.582,0.968-1.227,1.866-1.785,2.833
					c-0.11,0.154-0.26,0.278-0.31,0.496c-0.037,0-0.074,0.007-0.062,0.062c-0.062,0-0.073,0.104,0,0.118
					c0.818,0.147,1.908,0.023,2.826,0.062c8.312-0.037,16.779,0.087,24.979-0.062c0-0.02,0-0.038,0-0.057
					c0.049-0.02,0.073-0.057,0.062-0.124c1.047-1.581,2.082-3.174,3.08-4.798c-0.006-0.11,0.044-0.161,0.125-0.186
					c0.197-0.273,0.39-0.56,0.551-0.862c0.118-0.154,0.254-0.285,0.305-0.495c0.081-0.024,0.13-0.081,0.124-0.187
					c8.039-12.452,16.061-24.917,24.062-37.4c0.074-0.031,0.123-0.087,0.117-0.192c0.211-0.143,0.242-0.452,0.434-0.613
					c0.031-0.093,0.087-0.155,0.124-0.248c-0.006-0.105,0.044-0.155,0.124-0.181c0.174-0.197,0.312-0.428,0.429-0.676
					c0.024,0,0.043,0,0.062,0c0.006-0.081,0.08-0.086,0.062-0.186c0.217-0.254,0.378-0.564,0.552-0.862
					c0-0.104,0.049-0.161,0.124-0.186c0.693-1.029,1.362-2.083,2.032-3.137c0.057-0.205,0.247-0.284,0.305-0.496
					c0.018,0,0.043,0,0.062,0C97.441,77.925,97.634,77.727,97.46,77.665z"/>
			</g>
		</g>
	</g>
</g>
</svg>
