<?xml version="1.0" encoding="UTF-8" standalone="no"?>
<!-- Generator: Adobe Illustrator 15.1.0, SVG Export Plug-In . SVG Version: 6.00 Build 0)  -->

<svg
   xmlns:dc="http://purl.org/dc/elements/1.1/"
   xmlns:cc="http://creativecommons.org/ns#"
   xmlns:rdf="http://www.w3.org/1999/02/22-rdf-syntax-ns#"
   xmlns:svg="http://www.w3.org/2000/svg"
   xmlns="http://www.w3.org/2000/svg"
   xmlns:sodipodi="http://sodipodi.sourceforge.net/DTD/sodipodi-0.dtd"
   xmlns:inkscape="http://www.inkscape.org/namespaces/inkscape"
   version="1.1"
   id="Ebene_1"
   x="0px"
   y="0px"
   width="369.71619"
   height="373.71619"
   viewBox="0 0 369.71619 373.71619"
   enable-background="new 0 0 450.943 360.496"
   xml:space="preserve"
   inkscape:version="0.48.4 r9939"
   sodipodi:docname="edit.svg"><metadata
     id="metadata9"><rdf:RDF><cc:Work
         rdf:about=""><dc:format>image/svg+xml</dc:format><dc:type
           rdf:resource="http://purl.org/dc/dcmitype/StillImage" /><dc:title></dc:title></cc:Work></rdf:RDF></metadata><defs
     id="defs7" /><sodipodi:namedview
     pagecolor="#ffffff"
     bordercolor="#666666"
     borderopacity="1"
     objecttolerance="10"
     gridtolerance="10"
     guidetolerance="10"
     inkscape:pageopacity="0"
     inkscape:pageshadow="2"
     inkscape:window-width="1920"
     inkscape:window-height="1055"
     id="namedview5"
     showgrid="false"
     fit-margin-top="0"
     fit-margin-left="0"
     fit-margin-right="0"
     fit-margin-bottom="0"
     inkscape:zoom="0.46290999"
     inkscape:cx="975.84637"
     inkscape:cy="-106.70467"
     inkscape:window-x="1600"
     inkscape:window-y="0"
     inkscape:window-maximized="1"
     inkscape:current-layer="Ebene_1" /><path
     style="fill:#c4c8b7;stroke:#000000;stroke-width:1px;stroke-linecap:butt;stroke-linejoin:miter;stroke-opacity:1"
     d="M 0.5,6.6101061 3.5551,370.16115 284.6198,373.2162 287.6748,98.261626 202.1334,0.49999605 z"
     id="path2986"
     inkscape:connector-curvature="0" /><path
     style="fill:none;stroke:#000000;stroke-width:1px;stroke-linecap:butt;stroke-linejoin:miter;stroke-opacity:1"
     d="M 202.1334,0.49999605 186.748,86.702036 l 99.7617,10.61464 z"
     id="path2988"
     inkscape:connector-curvature="0"
     sodipodi:nodetypes="cccc" /><path
     style="fill:#decd87;stroke:#000000;stroke-width:1px;stroke-linecap:butt;stroke-linejoin:miter;stroke-opacity:1"
     d="M 357.2804,361.94095 189.5829,218.90407 153.2526,177.69295 201.4087,201.80306 369.2162,345.78488 z"
     id="path2990"
     inkscape:connector-curvature="0"
     sodipodi:nodetypes="cccccc" /><path
     style="fill:#483e37;stroke:#000000;stroke-width:1px;stroke-linecap:butt;stroke-linejoin:miter;stroke-opacity:1"
     d="m 166.748,183.44068 -1.1651,9.63763 -12.8028,-16.14912 z"
     id="path2992"
     inkscape:connector-curvature="0"
     sodipodi:nodetypes="cccc" /><path
     style="fill:#fff9f6;stroke:#ffffff;stroke-width:1px;stroke-linecap:butt;stroke-linejoin:miter;stroke-opacity:1;fill-opacity:1"
     d="m 56.1295,109.15732 120.9739,-4.3205"
     id="path2996"
     inkscape:connector-curvature="0" /><path
     style="fill:none;stroke:#ffffff;stroke-width:1px;stroke-linecap:butt;stroke-linejoin:miter;stroke-opacity:1"
     d="m 73.4115,199.8877 c 5.7607,1.44017 11.4593,3.15597 17.282,4.3205 1.7948,0.35896 17.282,-0.34762 17.282,0 0,1.44016 -5.7607,0 -4.3205,0 4.3205,0 8.6409,0 12.9614,0 1.2805,0 21.5438,0 8.641,0"
     id="path2998"
     inkscape:connector-curvature="0" /><path
     style="fill:none;stroke:#ffffff;stroke-width:1px;stroke-linecap:butt;stroke-linejoin:miter;stroke-opacity:1"
     d="m 181.4239,286.29758 c -4.0798,-19.32183 -18.1943,3.86437 -25.923,0 -1.8217,-0.91084 -2.4988,-3.40965 -4.3205,-4.32049 -1.3136,-0.65679 -14.2986,0 -17.282,0 -14.4016,0 -28.8033,0 -43.2049,0 -4.7329,0 -17.0639,-0.43624 -17.282,0 -1.2881,2.57624 1.2881,6.06474 0,8.64099 -0.6441,1.28812 -2.8803,0 -4.3205,0 -1.4402,0 -2.8803,0 -4.3205,0"
     id="path3000"
     inkscape:connector-curvature="0" /></svg>