<?xml version="1.0" encoding="UTF-8" standalone="no"?>
<svg width="1000px" height="1000px" viewBox="0 0 1000 1000" version="1.1" xmlns="http://www.w3.org/2000/svg" xmlns:xlink="http://www.w3.org/1999/xlink" xmlns:sketch="http://www.bohemiancoding.com/sketch/ns">
    <!-- Generator: Sketch 3.0.2 (7799) - http://www.bohemiancoding.com/sketch -->
    <title>Artboard 1</title>
    <description>Created with Sketch.</description>
    <defs>
        <radialGradient cx="-1.33226763e-13%" cy="0%" fx="-1.33226763e-13%" fy="0%" r="136.060156%" id="radialGradient-1">
            <stop stop-color="#132B40" offset="0%"></stop>
            <stop stop-color="#08111A" offset="100%"></stop>
        </radialGradient>
        <linearGradient x1="43.1184467%" y1="98.481%" x2="45.5084101%" y2="0%" id="linearGradient-2">
            <stop stop-color="#03D67F" offset="0%"></stop>
            <stop stop-color="#CBF066" offset="100%"></stop>
        </linearGradient>
    </defs>
    <g id="Page-8" stroke="none" stroke-width="1" fill="none" fill-rule="evenodd" sketch:type="MSPage">
        <g id="Artboard-1" sketch:type="MSArtboardGroup">
            <rect id="Base" fill="url(#radialGradient-1)" sketch:type="MSShapeGroup" x="0" y="0" width="1000" height="1000"></rect>
            <g id="Bmm" sketch:type="MSLayerGroup" transform="translate(229.000000, 387.000000)" fill="url(#linearGradient-2)">
                <path d="M439.814815,106.953543 L439.814815,106.95 L439.814815,106.953543 L439.814815,106.953543 Z M407.408971,106.996178 C407.408971,106.97315 407.408971,106.957207 407.408971,107.006807 L407.408971,107.063492 C407.408971,107.024521 407.405454,106.875721 407.408971,106.996178 L407.408971,106.996178 Z M379.633147,176.722878 C379.636664,176.705164 379.636664,176.719335 379.634905,176.754764 C379.636664,176.791964 379.636664,176.806135 379.633147,176.788421 C379.631388,176.816764 379.62963,176.829164 379.62963,176.754764 C379.62963,176.680364 379.631388,176.694535 379.633147,176.722878 L379.633147,176.722878 Z M330.476509,185.958356 C329.996293,185.958356 329.33644,186.048417 328.879345,185.963654 L305.986219,185.963654 L305.986219,107.01588 C305.986219,98.9916629 299.803148,93.0653264 291.792432,93.0653264 C283.902659,93.0653264 277.494442,98.6632069 277.300577,106.517898 C277.562446,106.52143 277.562446,178.901848 277.562446,178.901848 C277.485967,183.12763 274.424616,185.963654 270.186264,185.963654 L245.585702,185.963654 L245.585702,106.52143 C245.395394,98.6649727 239.34216,93.0653264 231.450608,93.0653264 C223.439892,93.0653264 217.161929,98.4989788 217.161929,106.52143 L217.161929,177.135955 C216.850678,181.142766 213.794662,185.963654 209.714604,185.963654 L185.185185,185.963654 L185.185185,106.553216 C185.185185,80.5380822 205.083186,60.45 231.057543,60.45 C242.81928,60.45 253.956737,64.2441885 262.204005,71.3925229 C270.451272,64.2441885 279.765686,60.45 291.529203,60.45 C317.503559,60.45 337.962963,80.5062962 337.962963,106.52143 L337.962963,178.901848 C337.962963,182.714411 335.495656,185.154875 331.881585,185.817085 C331.424491,185.901847 330.958503,185.958356 330.476509,185.958356 Z M492.513546,185.958356 C492.03333,185.958356 491.373477,186.048417 490.916382,185.963654 L468.023256,185.963654 L468.023256,107.01588 C468.023256,98.9916629 461.840186,93.0653264 453.829469,93.0653264 C445.939696,93.0653264 439.531479,98.6632069 439.337614,106.517898 C439.599483,106.52143 439.599483,178.901848 439.599483,178.901848 C439.523004,183.12763 436.461653,185.963654 432.223301,185.963654 L407.622739,185.963654 L407.622739,106.52143 C407.432431,98.6649727 401.379197,93.0653264 393.487645,93.0653264 C385.476929,93.0653264 379.198966,98.4989788 379.198966,106.52143 L379.198966,177.135955 C378.887715,181.142766 375.831699,185.963654 371.751641,185.963654 L347.222222,185.963654 L347.222222,106.553216 C347.222222,80.5380822 367.120223,60.45 393.09458,60.45 C404.856318,60.45 415.993774,64.2441885 424.241042,71.3925229 C432.488309,64.2441885 441.802723,60.45 453.56624,60.45 C479.540596,60.45 500,80.5062962 500,106.52143 L500,178.901848 C500,182.714411 497.532694,185.154875 493.918623,185.817085 C493.461528,185.901847 492.99554,185.958356 492.513546,185.958356 Z M277.777778,106.953543 L277.777778,106.95 L277.777778,106.953543 L277.777778,106.953543 Z M245.372401,106.996178 C245.372401,106.97315 245.372401,106.957207 245.372401,107.006807 L245.372401,107.063492 C245.370642,107.024521 245.368884,106.875721 245.372401,106.996178 L245.372401,106.996178 Z M217.59611,176.722878 C217.599627,176.705164 217.599627,176.719335 217.597868,176.754764 C217.599627,176.791964 217.599627,176.806135 217.59611,176.788421 C217.594351,176.816764 217.592593,176.830935 217.592593,176.754764 C217.592593,176.680364 217.594351,176.694535 217.59611,176.722878 L217.59611,176.722878 Z M51.9512801,123.999409 L51.9512801,31.8862712 C36.2216449,31.8862712 23.0527547,41.7826215 23.0527547,56.6865074 C22.9818286,69.1202927 30.1453645,79.4082443 30.1453645,92.1149101 C30.1453645,115.703131 21.0402267,116.62809 18.7812305,119.77862 C19.7812885,117.430784 22.2690214,103.237451 20.403665,96.7024931 C17.4070374,86.2036792 0,69.5207537 0,48.4398441 C0,21.690461 22.8860784,0.00531585516 51.1182114,0.00531585516 L83.8304748,0 L83.8304748,125.771361 C83.8304748,143.350894 96.2006119,154.654174 113.637793,154.654174 C131.073201,154.654174 145.208772,140.404138 145.208772,122.826377 C145.208772,105.246844 133.832226,91.4327087 116.395045,91.4327087 C106.433475,91.4327087 99.0619584,95.4780745 93.2761621,102.743077 L93.2761621,69.0866256 C93.6449778,67.0471091 94.3139778,65.1475769 98.307117,63.1098324 C104.724156,60.9498233 109.47975,60.2339548 116.395045,60.2339548 C150.921869,60.2339548 175.925926,87.4192381 175.925926,122.22923 C175.925926,157.039221 148.010353,186 113.483529,186 C78.9567046,186 51.9512801,158.809401 51.9512801,123.999409 Z" id="logo" sketch:type="MSShapeGroup"></path>
            </g>
        </g>
    </g>
</svg>