<?xml version="1.0" encoding="UTF-8" standalone="no"?>
<!-- Generator: Adobe Illustrator 15.1.0, SVG Export Plug-In . SVG Version: 6.00 Build 0)  -->

<svg
   xmlns:dc="http://purl.org/dc/elements/1.1/"
   xmlns:cc="http://creativecommons.org/ns#"
   xmlns:rdf="http://www.w3.org/1999/02/22-rdf-syntax-ns#"
   xmlns:svg="http://www.w3.org/2000/svg"
   xmlns="http://www.w3.org/2000/svg"
   xmlns:sodipodi="http://sodipodi.sourceforge.net/DTD/sodipodi-0.dtd"
   xmlns:inkscape="http://www.inkscape.org/namespaces/inkscape"
   version="1.1"
   id="Ebene_1"
   x="0px"
   y="0px"
   width="988.90625"
   height="988.90625"
   viewBox="0 0 988.90628 988.90622"
   enable-background="new 0 0 988.91 988.918"
   xml:space="preserve"
   inkscape:version="0.48.4 r9939"
   sodipodi:docname="BMM Leercover Reden.svg"><metadata
     id="metadata28"><rdf:RDF><cc:Work
         rdf:about=""><dc:format>image/svg+xml</dc:format><dc:type
           rdf:resource="http://purl.org/dc/dcmitype/StillImage" /></cc:Work></rdf:RDF></metadata><defs
     id="defs26" /><sodipodi:namedview
     pagecolor="#ffffff"
     bordercolor="#666666"
     borderopacity="1"
     objecttolerance="10"
     gridtolerance="10"
     guidetolerance="10"
     inkscape:pageopacity="0"
     inkscape:pageshadow="2"
     inkscape:window-width="640"
     inkscape:window-height="480"
     id="namedview24"
     showgrid="false"
     fit-margin-top="0"
     fit-margin-left="0"
     fit-margin-right="0"
     fit-margin-bottom="0"
     inkscape:zoom="0.23864465"
     inkscape:cx="435.61124"
     inkscape:cy="554.91598"
     inkscape:window-x="0"
     inkscape:window-y="420"
     inkscape:window-maximized="0"
     inkscape:current-layer="Ebene_1" /><radialGradient
     id="SVGID_1_"
     cx="261.2952"
     cy="849.49982"
     r="479.45651"
     gradientTransform="matrix(1,0,0,-1,233.15675,1343.9487)"
     gradientUnits="userSpaceOnUse"><stop
       offset="0"
       style="stop-color:#F7F7F7"
       id="stop4" /><stop
       offset="0.6611"
       style="stop-color:#B8B8B8"
       id="stop6" /><stop
       offset="1"
       style="stop-color:#9C9C9C"
       id="stop8" /></radialGradient><rect
     x="14.996246"
     y="14.99122"
     stroke-miterlimit="10"
     width="958.90997"
     height="958.91699"
     id="rect10"
     style="fill:url(#SVGID_1_);stroke:#adadad;stroke-width:30;stroke-miterlimit:10" /><g
     id="g12"
     transform="translate(-58.84375,-60.468778)"><path
       stroke-miterlimit="10"
       d="m 553.295,330.139 c -112.993,0 -204.917,91.925 -204.917,204.91 0,112.986 91.924,204.911 204.917,204.911 37.42,0 72.521,-10.099 102.746,-27.691 -4.146,-0.939 -8.206,-2.189 -12.108,-3.814 -27.113,14.229 -57.947,22.298 -90.637,22.298 -107.915,0 -195.706,-87.777 -195.706,-195.699 0,-107.909 87.791,-195.7 195.706,-195.7 107.913,0 195.704,87.791 195.704,195.7 0,36.255 -9.935,70.214 -27.191,99.349 1.461,1.648 1.646,4.305 0.549,6.205 1.423,1.709 2.47,3.533 3.076,5.467 20.724,-32.014 32.779,-70.131 32.779,-111.021 C 758.211,422.062 666.281,330.139 553.295,330.139 z"
       id="path14"
       inkscape:connector-curvature="0"
       style="fill:#797979;stroke:#565656;stroke-width:14;stroke-miterlimit:10" /><path
       d="m 731.828,598.245 c -4.062,11.904 -12.549,21.767 -20.48,31.812 l 7.271,92.051 -72.031,-22.297 c -1.457,0.547 -2.91,1.104 -4.355,1.68 -0.709,0.521 -1.432,1.021 -2.168,1.509 -0.229,0.213 -0.459,0.428 -0.692,0.639 -0.546,0.588 -1.084,1.182 -1.609,1.783 -0.744,0.848 -1.572,1.323 -2.412,1.521 -1.91,1.416 -3.928,2.691 -6.102,3.762 -1.117,0.552 -2.211,0.666 -3.201,0.479 -0.187,0.088 -0.363,0.184 -0.549,0.271 -0.916,0.437 -1.812,0.587 -2.648,0.521 -2.5,1.227 -5.01,2.33 -7.572,3.242 l 128.837,38.42 -12.289,-155.393 z"
       id="path16"
       inkscape:connector-curvature="0"
       style="fill:#565656" /><circle
       stroke-miterlimit="10"
       cx="471.01901"
       cy="542.81799"
       r="28.667"
       id="circle18"
       sodipodi:cx="471.01901"
       sodipodi:cy="542.81799"
       sodipodi:rx="28.667"
       sodipodi:ry="28.667"
       style="fill:none;stroke:#565656;stroke-width:10;stroke-miterlimit:10"
       d="m 499.68601,542.81799 c 0,15.83235 -12.83465,28.667 -28.667,28.667 -15.83234,0 -28.667,-12.83465 -28.667,-28.667 0,-15.83234 12.83466,-28.667 28.667,-28.667 15.83235,0 28.667,12.83466 28.667,28.667 z" /><circle
       stroke-miterlimit="10"
       cx="553.29498"
       cy="542.81799"
       r="28.667"
       id="circle20"
       sodipodi:cx="553.29498"
       sodipodi:cy="542.81799"
       sodipodi:rx="28.667"
       sodipodi:ry="28.667"
       style="fill:none;stroke:#565656;stroke-width:10;stroke-miterlimit:10"
       d="m 581.96198,542.81799 c 0,15.83235 -12.83465,28.667 -28.667,28.667 -15.83234,0 -28.667,-12.83465 -28.667,-28.667 0,-15.83234 12.83466,-28.667 28.667,-28.667 15.83235,0 28.667,12.83466 28.667,28.667 z" /><circle
       stroke-miterlimit="10"
       cx="638.26703"
       cy="542.81799"
       r="28.667"
       id="circle22"
       sodipodi:cx="638.26703"
       sodipodi:cy="542.81799"
       sodipodi:rx="28.667"
       sodipodi:ry="28.667"
       style="fill:none;stroke:#565656;stroke-width:10;stroke-miterlimit:10"
       d="m 666.93403,542.81799 c 0,15.83235 -12.83465,28.667 -28.667,28.667 -15.83235,0 -28.667,-12.83465 -28.667,-28.667 0,-15.83234 12.83465,-28.667 28.667,-28.667 15.83235,0 28.667,12.83466 28.667,28.667 z" /></g></svg>