<?xml version="1.0" encoding="UTF-8" standalone="no"?>
<!-- Generator: Adobe Illustrator 15.1.0, SVG Export Plug-In . SVG Version: 6.00 Build 0)  -->

<svg
   xmlns:dc="http://purl.org/dc/elements/1.1/"
   xmlns:cc="http://creativecommons.org/ns#"
   xmlns:rdf="http://www.w3.org/1999/02/22-rdf-syntax-ns#"
   xmlns:svg="http://www.w3.org/2000/svg"
   xmlns="http://www.w3.org/2000/svg"
   xmlns:sodipodi="http://sodipodi.sourceforge.net/DTD/sodipodi-0.dtd"
   xmlns:inkscape="http://www.inkscape.org/namespaces/inkscape"
   version="1.1"
   id="Ebene_1"
   x="0px"
   y="0px"
   width="1755.8438"
   height="988.90625"
   viewBox="0 0 1755.8438 988.90627"
   enable-background="new 0 0 1753.678 986.277"
   xml:space="preserve"
   inkscape:version="0.48.4 r9939"
   sodipodi:docname="BMM Leercover Video 16.9.1.svg"><metadata
     id="metadata18"><rdf:RDF><cc:Work
         rdf:about=""><dc:format>image/svg+xml</dc:format><dc:type
           rdf:resource="http://purl.org/dc/dcmitype/StillImage" /></cc:Work></rdf:RDF></metadata><defs
     id="defs16" /><sodipodi:namedview
     pagecolor="#ffffff"
     bordercolor="#666666"
     borderopacity="1"
     objecttolerance="10"
     gridtolerance="10"
     guidetolerance="10"
     inkscape:pageopacity="0"
     inkscape:pageshadow="2"
     inkscape:window-width="640"
     inkscape:window-height="480"
     id="namedview14"
     showgrid="false"
     fit-margin-top="0"
     fit-margin-left="0"
     fit-margin-right="0"
     fit-margin-bottom="0"
     inkscape:zoom="0.19844008"
     inkscape:cx="796.21398"
     inkscape:cy="575.01774"
     inkscape:window-x="0"
     inkscape:window-y="420"
     inkscape:window-maximized="0"
     inkscape:current-layer="Ebene_1" /><radialGradient
     id="SVGID_1_"
     cx="540.58618"
     cy="826.93768"
     r="479.45801"
     gradientTransform="matrix(1.7998,0,0,-1,-95.024409,1321.3892)"
     gradientUnits="userSpaceOnUse"><stop
       offset="0"
       style="stop-color:#F7F7F7"
       id="stop4" /><stop
       offset="0.6611"
       style="stop-color:#B8B8B8"
       id="stop6" /><stop
       offset="1"
       style="stop-color:#9C9C9C"
       id="stop8" /></radialGradient><rect
     x="14.994993"
     y="14.992996"
     stroke-miterlimit="10"
     width="1725.855"
     height="958.91602"
     id="rect10"
     style="fill:url(#SVGID_1_);stroke:#adadad;stroke-width:30;stroke-miterlimit:10" /><path
     d="m 1062.823,329.975 h -158.16501 -65.494 -145.323 c -25.476,0 -46.134,20.649 -46.134,46.125 v 219.084 c 0,25.473 20.656,46.125 46.134,46.125 h 148.354 c 7.011,3.402 11.505,8.621 11.505,14.475 0,5.742 -4.332,10.853 -11.105,14.256 -44.233,1.992 -76.021,7.479 -76.021,13.935 0,8.145 50.479,14.736 112.747,14.736 62.277,0 112.751,-6.597 112.751,-14.736 0,-6.314 -30.42,-11.703 -73.158,-13.803 -7.689,-3.377 -12.688,-8.845 -12.688,-15.027 0,-5.494 3.981,-10.43 10.279,-13.834 H 1062.817 c 25.479,0 46.13,-20.646 46.13,-46.125 V 376.099 c 0,-25.473 -20.647,-46.124 -46.124,-46.124 z m 19.215,269.054 H 674.61499 V 367.816 H 1082.037 l 10e-4,231.213 0,0 z"
     id="path12"
     inkscape:connector-curvature="0"
     style="fill:#565656" /></svg>